<svg xmlns="http://www.w3.org/2000/svg" xmlns:xlink="http://www.w3.org/1999/xlink" width="519" height="469" viewBox="0 0 519 469">
    <defs>
        <path id="a" d="M0 0h545v514H0z"/>
        <linearGradient id="c" x1="39.71%" x2="73.381%" y1="-10.541%" y2="100%">
            <stop offset="0%" stop-color="#5FD4AD"/>
            <stop offset="100%" stop-color="#00A1B1"/>
        </linearGradient>
        <linearGradient id="d" x1="26.547%" x2="81.875%" y1="18.223%" y2="77.154%">
            <stop offset="0%" stop-color="#5FD4AD"/>
            <stop offset="100%" stop-color="#00A1B1"/>
        </linearGradient>
        <linearGradient id="e" x1="30.716%" x2="57.71%" y1="-13.759%" y2="79.569%">
            <stop offset="0%" stop-color="#79F2CA"/>
            <stop offset="100%" stop-color="#00A1B1"/>
        </linearGradient>
        <path id="f" d="M145.656 91.728L11.58 167.203.527 76.64 136.54.442z"/>
        <filter id="g" width="107.6%" height="106.6%" x="-3.8%" y="-2.1%" filterUnits="objectBoundingBox">
            <feOffset dy="2" in="SourceAlpha" result="shadowOffsetOuter1"/>
            <feGaussianBlur in="shadowOffsetOuter1" result="shadowBlurOuter1" stdDeviation="1.5"/>
            <feColorMatrix in="shadowBlurOuter1" values="0 0 0 0 0.160784314 0 0 0 0 0.717647059 0 0 0 0 0.68627451 0 0 0 0.252519248 0"/>
        </filter>
        <linearGradient id="h" x1="109.042%" x2="46.117%" y1="56.183%" y2="13.632%">
            <stop offset="0%" stop-color="#5FD4AD"/>
            <stop offset="100%" stop-color="#00A1B1"/>
        </linearGradient>
        <path id="j" d="M.065.937L1.65.053v.988l-1.585.884z"/>
        <path id="l" d="M.065.937L1.65.053v.988l-1.585.884z"/>
        <path id="n" d="M2.747 10.052l14.426-8.737L14.575.034.24 8.298z"/>
        <path id="p" d="M.065.937L1.65.053v.988l-1.585.884z"/>
        <path id="r" d="M.065.937L1.65.053v.988l-1.585.884z"/>
        <path id="t" d="M2.747 10.052l14.426-8.737L14.575.034.24 8.298z"/>
        <path id="v" d="M13.627.033h9.741c1.6 0 2.938 1.273 3.086 2.938l2.533 16.821-4.304.184-1.656-9.71c.435 6.271.653 9.86.653 10.765 0 2.93-13.49 4.057-13.49 0 0-1.445 1.043-7.108-.77-9.632-2.154-3 0-5.947.77-6.91 2.004-2.97 3.15-4.456 3.437-4.456z"/>
        <path id="w" d="M.599 30.518a1.957 1.957 0 0 1-.247-1.453c1.031-4.7 1.546-8.512 1.546-11.436 0-2.383-.107-5.265-.32-8.645a6.397 6.397 0 0 1 3.905-6.299c2.36-.994 3.837-1.58 4.43-1.758.738-.221 3.235-.604 9.317-.604 1.81 0 4.225.535 4.627 2.32.054.238.082.482.082.727v1.71c0 .59-.03 1.18-.089 1.768l-2.426 24.149c-.018.18-.068.348-.143.501-.058 1.12-4.734 1.758-10.446 1.46C5.241 32.664.73 31.581.6 30.517z"/>
        <path id="y" d="M.074 1.079L1.887.06v1.138L.074 2.217z"/>
        <path id="A" d="M.074 1.079L1.887.06v1.138L.074 2.217z"/>
        <path id="C" d="M3.14 11.575L19.634 1.514 16.664.039.275 9.555z"/>
        <path id="E" d="M.655 33.462a2.149 2.149 0 0 1-.27-1.592c1.128-5.154 1.692-9.334 1.692-12.54 0-2.613-.117-5.773-.351-9.48A7.016 7.016 0 0 1 6 2.945c2.582-1.09 4.199-1.732 4.848-1.927.807-.243 3.54-.662 10.194-.662 1.981 0 4.623.586 5.064 2.542.059.262.089.53.089.798V5.57c0 .648-.033 1.295-.097 1.939-.121 4.36-.293 7.652-.516 9.878-.367 3.659-1.08 9.192-2.14 16.601-.019.196-.073.382-.156.55-.062 1.228-5.18 1.927-11.43 1.6-6.12-.321-11.058-1.508-11.2-2.676z"/>
        <path id="G" d="M.604 30.98a1.826 1.826 0 0 1-.24-1.38c1.003-4.467 1.505-8.09 1.505-10.87 0-2.265-.105-5.004-.313-8.216-.167-2.58 1.357-4.982 3.8-5.987 2.297-.945 3.735-1.502 4.312-1.67.718-.21 3.954-.948 9.71-2.212 1.74-.382 3.467.683 3.858 2.378.053.227.08.459.08.692v3.088c0 .562-.03 1.122-.087 1.68l-2.36 22.953c-.018.17-.067.33-.14.477v.032c-.056 1.032-4.606 1.638-10.164 1.354C5.122 33.021.73 31.992.604 30.98z"/>
        <path id="I" d="M2.825 4.125c.337-2.328 2.268-4.05 4.54-4.05h18.65c1.778 0 3.264 1.404 3.428 3.238l1.654 18.502-4.783.204-1.84-10.704c.484 6.913.726 10.868.726 11.866 0 3.23-18.724 4.047-18.724-.424 0-2.476.291-6.29.873-11.442-1.558 6.964-2.338 10.46-2.338 10.492 0 .509-1.298.899-2.544.899-1.245 0-2.248-.213-2.248-.722 0-.035.869-5.988 2.606-17.86z"/>
        <linearGradient id="J" x1="15.271%" x2="92.288%" y1="-7.211%" y2="114.051%">
            <stop offset="0%" stop-color="#5FD4AD"/>
            <stop offset="100%" stop-color="#00A1B1"/>
        </linearGradient>
        <linearGradient id="K" x1="501.641%" x2="44.858%" y1="53.712%" y2="53.712%">
            <stop offset="0%"/>
            <stop offset="100%" stop-color="#FFF"/>
        </linearGradient>
        <linearGradient id="L" x1="18.411%" x2="137.666%" y1="50%" y2="50%">
            <stop offset="0%" stop-color="#F59689"/>
            <stop offset="100%" stop-color="#CC7367"/>
        </linearGradient>
        <linearGradient id="M" x1="-14.911%" x2="94.62%" y1="50%" y2="50%">
            <stop offset="0%" stop-color="#9693C2"/>
            <stop offset="100%" stop-color="#5D5A8F"/>
        </linearGradient>
        <linearGradient id="N" x1="316.465%" x2="55.279%" y1="53.712%" y2="53.712%">
            <stop offset="0%"/>
            <stop offset="100%" stop-color="#FFF"/>
        </linearGradient>
        <path id="O" d="M0 14.863L25.937 0v28.097L0 42.959z"/>
        <path id="Q" d="M.083 1.18L2.114.066v1.245L.084 2.424z"/>
        <path id="S" d="M.083 1.18L2.114.066v1.245L.084 2.424z"/>
        <path id="U" d="M0 14.863L25.937 0v28.097L0 42.959z"/>
        <path id="W" d="M12.159.233h-.241a.161.161 0 0 0-.069.016l-.813.188h-8.02L2.202.249a.161.161 0 0 0-.068-.016H.24a.166.166 0 0 0 0 .333h1.652l1.455.546h7.356L12.16.566h1.651a.166.166 0 0 0 0-.333H12.16z"/>
        <path id="Y" d="M3.761.068H1.82s.072.996-.056 1.848C1.636 2.767.882 4.62.762 5.406c-.12.784-.417 3.098-.41 4.127 0 0-.264 6.54-.232 8.051l-.003.884h1.27s.177-7.007.24-8.389c0 0 .21-3.685.835-5.362.625-1.676 1.01-2.785 1.058-3.476 0 0 0-.627.241-.691h1.812c.119 0 .214-.108.214-.241 0-.134-.095-.241-.214-.241H3.761z"/>
        <radialGradient id="Z" cx="49.999%" cy="50.001%" r="272.53%" fx="49.999%" fy="50.001%" gradientTransform="matrix(1 0 0 .30816 0 .346)">
            <stop offset="0%" stop-color="#FFF"/>
            <stop offset="100%" stop-color="#B6B6B6"/>
        </radialGradient>
        <path id="ab" d="M0 .02h11.852v1.773H0z"/>
        <path id="ad" d="M0 .02h11.852v.545H0z"/>
        <path id="af" d="M.432.183a.289.289 0 0 0 0 .58h13.495a.29.29 0 0 0 0-.58H.432z"/>
        <path id="ah" d="M3.74.068H.276c-.118 0-.214.107-.214.24 0 .134.096.242.214.242h1.812c.24.064.24.691.24.691.049.69.434 1.8 1.06 3.476.625 1.677.833 5.362.833 5.362.064 1.382.24 8.389.24 8.389h1.27l-.002-.884c.032-1.51-.233-8.051-.233-8.051.008-1.029-.288-3.343-.408-4.127-.12-.785-.874-2.639-1.003-3.49-.128-.852-.056-1.848-.056-1.848H3.74z"/>
        <radialGradient id="ai" cx="50.002%" cy="50.001%" r="272.528%" fx="50.002%" fy="50.001%" gradientTransform="matrix(-1 0 0 -.30816 1 .654)">
            <stop offset="0%" stop-color="#FFF"/>
            <stop offset="100%" stop-color="#B6B6B6"/>
        </radialGradient>
        <path id="ak" d="M.216.02H12.07v1.773H.216z"/>
        <path id="am" d="M.216.02H12.07v.545H.216z"/>
    </defs>
    <g fill="none" fill-rule="evenodd" transform="translate(-10 -30)">
        <mask id="b" fill="#fff">
            <use xlink:href="#a"/>
        </mask>
        <g mask="url(#b)">
            <path fill="url(#c)" d="M206.027 160.582c23.126-55.808 52.2-81.114 87.223-75.918 52.535 7.793 103.897 65.126 115.25 108.683 11.353 43.558 40.592 43.637 83.016 72.66 28.282 19.35 34.758 44.208 19.43 74.575H165l41.027-180z" transform="translate(10 30)"/>
            <path fill="#CFCFDA" d="M287.732 224.296l231.17 134.074a9.315 9.315 0 0 1-.016 16.125L308.884 495.739a18.63 18.63 0 0 1-18.662-.018L59.052 361.647a9.315 9.315 0 0 1 .016-16.125L269.07 224.277a18.63 18.63 0 0 1 18.662.019z"/>
            <path fill="url(#d)" d="M58.438 316.325C15.226 316.325 0 300.25 0 270.046c0-30.203 19.959-48.622 32.584-48.622 12.624 0-1.653-37.838 40.373-37.838 42.026 0 18.897-12.216 27.295-40.98 8.398-28.763 47.307-66.414 78.834-72.098 31.527-5.683 54.035 5.2 71.074 24.175 17.04 18.975 23.405 72.151 8.334 106.402-15.07 34.25-49.203 45.23-73.077 45.23-23.874 0-45.537 12.478-45.537 32.088 0 19.609-38.23 37.922-81.442 37.922z" transform="translate(10 30)"/>
            <path fill="url(#e)" d="M253.5 217c54.023 0 122.325 12.014 136.477-45.172C392.969 159.736 347.578.742 232.898.742 167.468.742 99.54 81.273 99.54 146.72 99.54 212.164 188.054 217 253.5 217z" opacity=".628" transform="translate(10 30)"/>
            <path fill="#F6F6F8" d="M287.732 220.296l231.17 134.074a9.315 9.315 0 0 1-.016 16.125L308.884 491.739a18.63 18.63 0 0 1-18.662-.018L59.052 357.647a9.315 9.315 0 0 1 .016-16.125L269.07 220.277a18.63 18.63 0 0 1 18.662.019z"/>
            <g transform="translate(88 141)">
                <ellipse cx="197" cy="163" rx="146" ry="93" transform="matrix(-1 0 0 1 394 0)"/>
                <path fill="#E2E6EB" d="M54.739 131.159c10.206-8.8 18.068-14.798 23.584-17.992 5.517-3.193 19.88-10.064 43.09-20.611v38.937L54.74 170.097v-38.938z"/>
                <path fill="#CFCED8" d="M56.844 131.765l14.712-8.426v16.677l-14.712 8.425zM56.844 149.928l14.71-8.404V158.2l-14.71 8.404zM72.987 122.684l14.442-8.247v16.676l-14.442 8.247zM72.987 140.846l14.037-8.472v16.676l-14.037 8.473zM89.13 112.904l14.592-8.396v16.676l-14.593 8.396zM89.13 131.066l14.879-8.64v16.716l-14.88 8.6zM105.271 103.822l14.648-8.232v16.676l-14.648 8.232zM105.271 121.985l14.631-8.472v16.676l-14.63 8.472z"/>
                <path fill="#C1C1CC" d="M71.583 140.058l-14.739-8.039v-.188l14.739-8.538zM71.583 158.221l-14.739-8.04v-.187l14.739-8.538zM87.453 131.197l-14.466-8.26v-.188l14.466-8.318zM87.048 149.01l-14.061-7.91v-.188l14.06-8.667zM103.868 121.197l-14.739-8.04v-.188l14.739-8.538zM103.948 139.123l-14.819-7.802v-.189l14.819-8.775zM120.01 112.116l-14.739-8.04v-.188l14.74-8.538zM120.01 130.278l-14.739-8.039v-.188l14.74-8.538z"/>
                <path fill="#FFF" d="M39.97 122.1l66.133-37.927 15.588 8.35-66.886 38.37c-5.068.165-8.79-.459-11.165-1.872s-3.598-3.72-3.67-6.92z"/>
                <path fill="#DAD9E5" d="M40 121.896l14.739 8.836v39.365L40 161.26z"/>
                <path fill="#D8D8D8" d="M69.871 126.184l-1.954-.733-1.854 1 1.207 1.632 1.85.502z"/>
                <path fill="#FFE299" d="M69.854 139.477l-1.197.73v-13.265l1.23-.769z"/>
                <path fill="#FFC977" d="M59.849 135.65l8.808 4.557v-13.265l-2.073-.806-7.029 3.981z"/>
                <path fill="#D8D8D8" d="M66.866 128.14l-2.152-.925-1.213.683.261 1.932 1.85.502z"/>
                <path fill="#8787FC" d="M66.9 140.564l-.874.516-.032-12.397.905-.555z"/>
                <path fill="#7B7BE4" d="M57.345 137.445l8.681 3.635v-12.403l-2.447-.88-6.234 3.67z"/>
                <g>
                    <path fill="#E6E8ED" d="M430.732 213.308l-26.701 14.004c-7.43 4.811-12.658 3.632-18.854 0l-114.67-66.745a7 7 0 0 1 .305-12.267l22.098-11.435 137.822 76.443z" opacity=".8"/>
                    <path fill="#B2B5C1" d="M353.498 188.288l-29.849-13.522-33.47 14.843c-2.221.985-2.4 4.085-.305 5.318l22.887 13.486a10.138 10.138 0 0 0 10.348-.029l30.389-20.096z"/>
                    <path fill="#CCCED6" d="M352.43 187.157l-29.209-16.64-33.037 17.22c-2.227.972-2.406 4.033-.306 5.252l22.962 13.317a10.31 10.31 0 0 0 10.381-.028l29.21-19.12z"/>
                    <path fill="#D7D9E1" d="M396.067 224.16c4.277 2.416 9.846-3.954 10.315-8.822l13.246-106.312a6.732 6.732 0 0 0-3.423-6.519L279.38 25.876c-4.275-2.394-9.612.374-10.084 5.227l-10.74 110.767a6.73 6.73 0 0 0 3.4 6.509l134.112 75.78z"/>
                    <path fill="#415070" d="M404.449 211.942L259.59 128.541l9.153-95.34c.464-4.833 5.725-7.587 9.938-5.206l135.44 75.953a6.724 6.724 0 0 1 3.373 6.49l-13.046 101.504z"/>
                    <g transform="matrix(-1 0 0 1 410.583 33.055)">
                        <mask id="i" fill="#fff">
                            <use xlink:href="#f"/>
                        </mask>
                        <use fill="#000" filter="url(#g)" xlink:href="#f"/>
                        <use fill="#FFF" xlink:href="#f"/>
                        <path fill="url(#h)" d="M163.498 80.277h-31.907c-22.78 0-25.356 37.27-54.78 26.651-29.425-10.62-21.04-21.413-44.463-21.413-23.423 0-62.204 43.156-69.005 21.413-6.801-21.743.91-103.31 20.65-115.534 13.16-8.15 68.38-19.688 165.656-34.616l13.849 123.499z" mask="url(#i)"/>
                    </g>
                    <path fill="#FF8B79" d="M357.81 117.957l-41.945-22.49a2.875 2.875 0 0 0-4.217 2.232l-1.718 16.292a2.875 2.875 0 0 0 1.464 2.815L353.174 140a2.875 2.875 0 0 0 4.253-2.197l1.883-16.994a2.875 2.875 0 0 0-1.5-2.85z"/>
                    <path fill="#FF8B79" d="M310.922 95.97l2.73-.913 1.677 1.368-3.217.705zM352.87 141.492l2.95-1.012.49-3.016-3.018-.534z"/>
                    <path fill="#FF9B8E" d="M355.4 118.763l-41.945-22.49a2.875 2.875 0 0 0-4.218 2.232l-1.717 16.291a2.875 2.875 0 0 0 1.463 2.816l41.78 23.193a2.875 2.875 0 0 0 4.253-2.198l1.883-16.994a2.875 2.875 0 0 0-1.499-2.85z"/>
                    <path fill="#D7D9E1" d="M409.454 114.624l.602-4.93-136.012-76.197-.538 5.39z" opacity=".518"/>
                    <path fill="#EDEDF4" d="M321.484 174.235c0 2.64 1.433 4.78 3.2 4.78 1.77 0 3.203-2.14 3.203-4.78s-1.433-4.78-3.202-4.78c-1.768 0-3.2 2.14-3.2 4.78"/>
                    <g fill="#EDEDF4" opacity=".356">
                        <path d="M407.915 111.044c0 .592.24 1.07.537 1.07.296 0 .536-.478.536-1.07 0-.59-.24-1.07-.536-1.07-.297 0-.537.48-.537 1.07M405.78 109.982c0 .591.241 1.07.537 1.07.297 0 .537-.479.537-1.07 0-.591-.24-1.07-.537-1.07-.296 0-.536.479-.536 1.07M403.646 108.92c0 .591.24 1.07.537 1.07.297 0 .537-.479.537-1.07 0-.591-.24-1.07-.537-1.07-.296 0-.537.479-.537 1.07"/>
                    </g>
                    <path fill="#FFF" d="M315 112.438l.521-4.438 2.394 1.272c.583.312.974.67 1.208 1.075.16.277.24.571.198.888-.069.513-.41.654-.84.606.535.478.849.973.77 1.588-.094.76-.787.877-1.878.286L315 112.438zm1.358-.32l.987.53c.387.21.628.184.66-.089.03-.24-.147-.505-.574-.735l-.977-.524-.096.817zm.201-1.68l.807.432c.39.208.624.199.659-.074.031-.24-.149-.486-.533-.692l-.835-.446-.098.78zm5.274 5.798c-1.28-.703-2.01-1.785-1.831-3.173l.34-2.49 1.291.698-.348 2.463c-.085.64.204 1.124.707 1.4.501.276.869.164.955-.456l.365-2.495 1.275.696-.37 2.456c-.203 1.432-1.11 1.603-2.384.9zm4.244 2.267l.243-1.659-1.27-3.711 1.418.78.658 2.122 1.183-1.101 1.373.765-2.127 1.814-.253 1.678-1.225-.688zm5.224 2.958l.756-4.427 1.126.638 1.347 3.352.433-2.338 1.178.676-.816 4.424-1.027-.597-1.407-3.48-.413 2.428-1.177-.676zm6.98 4.159c-1.286-.759-2.063-2.339-1.827-3.622.242-1.27 1.428-1.73 2.735-.97 1.299.758 2.04 2.337 1.777 3.619-.253 1.27-1.407 1.73-2.685.973zm.219-1.1c.636.376 1.163.082 1.291-.568.128-.638-.196-1.45-.838-1.827-.638-.372-1.172-.078-1.298.573-.12.638.212 1.45.845 1.823zm3.594 3.312l-.461-5.273 1.217.72.172 2.984 1.346-2.095.978.585.213 3.042 1.28-2.128 1.161.704-2.337 3.629-.967-.592-.276-3.038-1.344 2.054-.982-.592z"/>
                </g>
                <g>
                    <path fill="#FFDBB5" d="M17.403 193.404l15.564-12.318L17.403 173 3.13 181.086z"/>
                    <path fill="#EBBE8F" d="M18.008 189.607l14.992-8.6v16.258l-14.992 8.6z"/>
                    <path fill="#FFF" d="M19.341 190.084l4.856-2.768v6.557l-4.856 2.768z"/>
                    <path fill="#FFF" stroke="#979797" stroke-width=".5" d="M20.068 190.601v4.695l3.402-1.94v-4.695l-3.402 1.94z"/>
                    <g transform="translate(20.317 192.897)">
                        <mask id="k" fill="#fff">
                            <use xlink:href="#j"/>
                        </mask>
                        <path fill="#000" d="M0 .728h1v1.456H0z" mask="url(#k)"/>
                        <path fill="#000" d="M.488.485h.11v1.456h-.11zM.732.243h.11v1.456h-.11zM.976.243h.183v1.456H.976zM1.22 0h.13v1.456h-.13zM1.463-.243h.184v1.456h-.184z" mask="url(#k)"/>
                    </g>
                    <g transform="translate(22.024 191.926)">
                        <mask id="m" fill="#fff">
                            <use xlink:href="#l"/>
                        </mask>
                        <path fill="#000" d="M0 .728h1v1.456H0z" mask="url(#m)"/>
                        <path fill="#000" d="M.488.485h.11v1.456h-.11zM.732.243h.11v1.456h-.11zM.976.243h.183v1.456H.976z" mask="url(#m)"/>
                    </g>
                    <path fill="#59BEFF" d="M20.336 190.647l1.444-.796v1.813l-1.444.795z"/>
                    <g transform="translate(9.341 176.397)">
                        <mask id="o" fill="#fff">
                            <use xlink:href="#n"/>
                        </mask>
                        <use fill="#FFBC78" opacity=".536" xlink:href="#n"/>
                        <path stroke="#E5AB70" stroke-width=".5" d="M16.707.121L.61 9.585" mask="url(#o)"/>
                    </g>
                    <path fill="#ECEFF0" d="M21.404 190.05l1.808-.996v1.812l-2.04 1.14z"/>
                    <path fill="#D5A879" d="M18.122 189.607l-14.992-8.6v16.258l14.992 8.6z"/>
                    <path fill="#F4B06A" d="M12.268 186.244l-2.608-1.486-.006 5.388.59-.358.747.887.7-.218.577 1.18z" opacity=".536"/>
                </g>
                <g>
                    <path fill="#FFDBB5" d="M14.403 176.404l15.564-12.318L14.403 156 .13 164.086z"/>
                    <path fill="#EBBE8F" d="M15.008 172.607l14.992-8.6v16.258l-14.992 8.6z"/>
                    <path fill="#FFF" d="M16.341 173.084l4.856-2.768v6.557l-4.856 2.768z"/>
                    <path fill="#FFF" stroke="#979797" stroke-width=".5" d="M17.068 173.601v4.695l3.402-1.94v-4.695l-3.402 1.94z"/>
                    <g transform="translate(17.317 175.897)">
                        <mask id="q" fill="#fff">
                            <use xlink:href="#p"/>
                        </mask>
                        <path fill="#000" d="M0 .728h1v1.456H0z" mask="url(#q)"/>
                        <path fill="#000" d="M.488.485h.11v1.456h-.11zM.732.243h.11v1.456h-.11zM.976.243h.183v1.456H.976zM1.22 0h.13v1.456h-.13zM1.463-.243h.184v1.456h-.184z" mask="url(#q)"/>
                    </g>
                    <g transform="translate(19.024 174.926)">
                        <mask id="s" fill="#fff">
                            <use xlink:href="#r"/>
                        </mask>
                        <path fill="#000" d="M0 .728h1v1.456H0z" mask="url(#s)"/>
                        <path fill="#000" d="M.488.485h.11v1.456h-.11zM.732.243h.11v1.456h-.11zM.976.243h.183v1.456H.976z" mask="url(#s)"/>
                    </g>
                    <path fill="#59BEFF" d="M17.336 173.647l1.444-.796v1.813l-1.444.795z"/>
                    <g transform="translate(6.341 159.397)">
                        <mask id="u" fill="#fff">
                            <use xlink:href="#t"/>
                        </mask>
                        <use fill="#FFBC78" opacity=".536" xlink:href="#t"/>
                        <path stroke="#E5AB70" stroke-width=".5" d="M16.707.121L.61 9.585" mask="url(#u)"/>
                    </g>
                    <path fill="#ECEFF0" d="M18.404 173.05l1.808-.996v1.812l-2.04 1.14z"/>
                    <path fill="#D5A879" d="M15.122 172.607l-14.992-8.6v16.258l14.992 8.6z"/>
                    <path fill="#F4B06A" d="M9.268 169.244l-2.608-1.486-.006 5.388.59-.358.747.887.7-.218.577 1.18z" opacity=".536"/>
                </g>
                <g>
                    <g transform="matrix(-1 0 0 1 187 28)">
                        <ellipse cx="24.31" cy="104.555" fill="#E6E8ED" opacity=".4" rx="20.602" ry="7.991"/>
                        <path fill="#EEB5B8" d="M26.912 54.05c.205 28.512-.75 43.15-.748 43.916.017.237-.369.48-1.433.558-1.064.077-1.938-.04-1.953-.262-.284-1.635-1.226-16.53-3.504-49.59-.176-2.553.801-7.365 1.992-7.365l12.56-2.872c.498 0 2.23 3.326 2.23 8.04 0 2.264-.64 5.776-.583 7.576.172 5.349-.352 19.995-.758 43.915.021.25-.421.48-1.485.558-1.008.073-2.4-.358-2.498-.558l-3.82-43.915z"/>
                        <path fill="#5555AC" d="M27.951 79.561c-3.662 0-6.695-.462-7.225-1.065-.065-.09-.082-.14-.082-.189-2.75-13.55-2.305-23.175-2.305-28.93 0-5.79 2.456-10.08 4.128-12.87h12.876c1.668 4.548 2.503 8.838 2.503 12.87 0 4.031-.835 13.738-2.503 29.119h-.167c-.53.603-3.563 1.065-7.225 1.065z"/>
                        <ellipse cx="24.03" cy="2.099" fill="#7272FF" rx="2.03" ry="2.09"/>
                        <path fill="#8787FC" d="M36.77 78.886c.558-5.9 2.102-27.307 2.102-28.811 0-4.032-1.664-8.322-3.332-12.87h-4.533l-6.832.292c1.587 7.14 0 33.308.683 41.389.474 5.608 11.474 4.643 11.913 0zM23.266 10.51c1.062.612 2.326.983 3.79 1.115 1.466.132 2.998.012 4.597-.36.937-2.28 1.31-4.377 1.119-6.289-.288-2.868-2.762-5.74-7.477-4.167-1.536.512-2.641 1.848-2.91 3.328-.26 1.433.033 3.557.881 6.374z"/>
                        <path fill="#EEB5B8" d="M11.959 31.75c-1.496-1.262-3.066-7.53-4.957-9.895-1.89-2.365-2.604-1.91-2.596-3.196.008-1.284-1.034-3.063-1.255-3.951-.142-.574.024-.964.584-.469.307.272.723 1.132 1.055 1.69.887 1.494-1.457-4.97-1.361-5.654.073-.516.543-.147 1.195.35.213.162.606.77.8.797.523.074 1.474 2.668 2.85 7.781l6.26 9.363c.792.087 1.204.507 1.235 1.258.046 1.128-2.314 3.189-3.81 1.926zM37.537 34.673c-.597.25-.863 1.159-.797 2.726-3.396 2.075-5.6 3.33-6.61 3.767-2.78 1.2-3.196.464-3.792 1.603-.596 1.138-2.352 2.218-2.963 2.9-.395.44-.432.861.295.687.399-.095 1.17-.66 1.725-.997 1.484-.902-3.62 3.705-3.856 4.354-.178.49.41.385 1.22.252.263-.043.896-.396 1.08-.329.497.181 2.553-1.663 6.17-5.531 5.52-1.898 8.796-3.242 9.83-4.033 1.033-.79 1.3-2.325.799-4.603-1.47-.781-2.503-1.047-3.1-.796z"/>
                        <path fill="#7272FF" d="M22.516 4.876V30.79l3.248-3.154V4.204a1.35 1.35 0 0 0-1.624-1.322 2.036 2.036 0 0 0-1.624 1.994z"/>
                        <g transform="translate(11.947 16.306)">
                            <path fill="#464154" d="M8.071 1.989C9.621-.394 10.878.033 12.922.033h10.446c1.6 0 2.938 1.273 3.086 2.938l2.533 16.821-4.304.184-1.656-9.71c.435 6.271.653 9.86.653 10.765 0 2.93-13.49 4.057-13.49 0 0-1.445 7.405-8.49 3.813-10.179-3.187-1.498-4-1.004-3.812-2.67-4.216 4.9-7.183 7.453-8.9 7.66-2.576.312.326-4.528.326-4.99 0-.031 2.152-2.986 6.454-8.863z"/>
                            <use fill="#504963" xlink:href="#v"/>
                        </g>
                        <path fill="#8787FC" d="M30.387 4.603v23.301l3.247 3.138V6.105c0-1.091-.634-2.082-1.624-2.54a1.144 1.144 0 0 0-1.623 1.038z"/>
                        <path fill="#F0ACAE" d="M27.545 3.488c1.121 0 2.03.909 2.03 2.03v12.66a2.03 2.03 0 0 1-4.06 0V5.518c0-1.121.91-2.03 2.03-2.03z"/>
                        <path fill="#F8B7B9" d="M27.545 3.488a3.818 3.818 0 0 1 3.81 4.052l-.195 3.194a3.612 3.612 0 0 1-3.605 3.391 3.619 3.619 0 0 1-3.612-3.39l-.201-3.196a3.811 3.811 0 0 1 3.803-4.051z"/>
                        <path fill="#8787FC" d="M22.515 7.993c.165-.121.422-.469.77-1.043.494-.814 1.702-2.825 2.112-2.86.346-.03.417 2.692 2.189 3.49.322.146 1.445.499 2.255.413.855-.09 1.388-.608 1.388 0 0 2.143-1.572 2.143-1.388 3.612.019.145 1.357 2.405 2.342 2.319.165-.015.165-.788 0-2.319.266-2.629.266-4.486 0-5.572-.266-1.086-1.047-2.415-2.342-3.988h-5.464c-1.108.872-1.73 1.553-1.862 2.044-.096.353-.352 1.462-.224 2.651.033.311.107.729.224 1.253z"/>
                        <ellipse cx="32.03" cy="3.09" fill="#7272FF" rx="2.03" ry="2.09"/>
                        <path fill="#504963" d="M38.651 36.906c1.121 0 2.29-.353 2.29-.815 0-.462-.909-.836-2.03-.836-1.12 0-2.283.535-2.283.996 0 .462.902.655 2.023.655z"/>
                        <path fill="#E1A3A6" d="M25.888 7.11l-1.015 3.119a.474.474 0 0 0 .452.621h1.173l-.61-3.74z"/>
                    </g>
                    <path fill="#54517F" d="M160.655 131.248c.918.583 3.563 2.188 4.423 3.043.86.855 2.703 1.383 3.526.974.824-.409 1.485-1.344.322-2.886-1.164-1.541-3.848-2.64-3.848-3.467 0-.196-2.739.425-2.839.795-.067.247-.595-.377-1.584-1.871-.613 1.886-.613 3.023 0 3.412z"/>
                    <path fill="#FF9B8E" d="M160.655 130.8c.918.584 3.563 2.19 4.423 3.044.86.855 2.703 1.383 3.526.974.824-.409 1.485-1.344.322-2.886-1.164-1.541-3.848-2.64-3.848-3.467 0-.17-.792-.714-.792-1.366 0-.288.147-1.469.44-3.54a9.544 9.544 0 0 1-4.071 0v3.83c-.613 1.886-.613 3.023 0 3.412z"/>
                    <path fill="#54517F" d="M152.486 130.869c0 2.369.775 6.012 3.88 5.415 3.105-.596-.45-6.024-.45-7.473v-3.416h-2.427c-.939 1.331-1.455 2.28-1.548 2.843-.172 1.044.545 1.831.545 2.631z"/>
                    <path fill="#FF9B8E" d="M152.688 130.82c0 2.152.631 5.85 3.736 5.253 3.105-.596.195-6.322.195-7.772 0-.128-.195-.888-.195-1.041 0-.663.065-1.963.195-3.9-1.51.486-2.945.486-4.303 0 0 .313.008 3.013 0 3.116-.061.735-.352 1.331-.355 1.358-.203 1.765.727 2.227.727 2.987z"/>
                </g>
                <g>
                    <g transform="scale(-1 1) rotate(6 -1152.603 -943.064)">
                        <path fill="#DEDEDE" d="M31.063 96.138l1.32 6.363a4.177 4.177 0 0 1-2.082.564c-.721 0-1.444-.188-2.168-.564l-1.174-6.006 4.104-.357z"/>
                        <g transform="matrix(-1 0 0 1 42.024 95.965)">
                            <ellipse cx="19.403" cy="12.844" fill="#E6E8ED" opacity=".8" rx="19.084" ry="5.825" transform="rotate(2 19.403 12.844)"/>
                            <path fill="#D8D8D8" d="M25.754.82l-.798 3.84-3.822 1.647-.385-.512.97-5.693z"/>
                            <path fill="#FDD7D7" d="M20.193 10.525c1.08.643 4.192 2.41 5.204 3.351 1.012.942 3.182 1.523 4.15 1.073.969-.45 1.747-1.48.378-3.178-1.37-1.698-4.528-2.907-4.528-3.818 0-.217-3.222.467-3.34.875-.078.272-.7-.415-1.864-2.06-.72 2.076-.72 3.328 0 3.757z"/>
                            <path fill="#5D5A8F" d="M20.193 10.033c1.08.642 4.192 2.41 5.204 3.351 1.012.942 3.182 1.523 4.15 1.073.969-.45 1.747-1.48.378-3.178-1.37-1.698-4.528-2.908-4.528-3.819 0-.187-.414-.684-.414-1.403 0-.476.783-1.468.175-1.734-2.04.799-2.972.54-4.138 0-.496.237-.772.887-.827 1.952-.72 2.077-.72 3.33 0 3.758z"/>
                            <path fill="#FDD7D7" d="M8.819 11.913c0 2.369-.433 6.834 3.22 6.177 3.654-.657 1.406-6.915 1.406-8.51 0-1.064.098-2.318.295-3.763-.707.509-1.273.763-1.7.763-.427 0-1.186-.254-2.278-.763-.629 2.484-.943 4.516-.943 6.096z"/>
                            <path fill="#5D5A8F" d="M8.819 11.42c0 2.37-.433 6.835 3.22 6.178 3.654-.657 1.406-6.915 1.406-8.51 0-1.597 1.104-2.644.647-3.194-2.052 0-2.842 0-4.084-.938-.6.236-.504 1.99-.685 2.816-.33 1.495-.504 2.63-.504 3.648z"/>
                        </g>
                        <path fill="#F0968A" d="M18.247 97.479c1.225 0 2.219-.441 2.219-.985l-1.487-18.027V63.435h1.651c1.29 8.744 1.936 13.754 1.936 15.032 0 1.272 4.256 17.994 4.256 18.027 0 .544.993.985 2.219.985 1.097 0 2.148-.52 2.327-.985.014-.036-.46-5.128-1.424-15.276V63.435c1.059-1.032 1.588-2.456 1.588-4.272 0-1.816-.53-3.854-1.588-6.112l-19.027-2.5v9.163c0 3.455.455 10.093 1.365 19.915l3.743 16.876c.016.539 1.004.974 2.222.974z"/>
                        <path fill="#6D2A2A" d="M22.581 28.57l12.518 22.248c2.937-3.577 4.339-6.006 4.204-7.287-.202-1.922-1.647-2.8-3.978-6.77-1.025-1.745-2.552-4.167-4.582-7.268a5.336 5.336 0 0 0-8.162-.923zM10.7 24.108L8.49 44.136l-5.264-.001 1.661-14.227a6.61 6.61 0 0 1 5.812-5.8z"/>
                        <path fill="#6D2A2A" d="M5.834 32.174L9.009 43.72 4.14 56.317l-3.757-1z"/>
                        <path fill="#9F535C" d="M20.288 56.975c-4.598.24-8.413-.161-9.8-.88-.335-.173-.166-.8-.177-1.012-.057-1.086 4.162-2.15 9.874-2.45 5.712-.299 10.388.339 10.445 1.424.01.187.04.686-.206.87-1.186.889-5.404 1.8-10.136 2.048z"/>
                        <g transform="matrix(-1 0 0 1 31.683 23.611)">
                            <mask id="x" fill="#fff">
                                <use xlink:href="#w"/>
                            </mask>
                            <use fill="#6D2A2A" xlink:href="#w"/>
                            <path fill="#5E0D0D" d="M4.767 12.225c-.983 8.576-1.474 13.89-1.474 15.943 0 3.08 12.775 5.386 17.92 3.102 3.431-1.523 3.917.033 1.46 4.667L-2.1 33.706C-.706 26.532.633 21.564 1.916 18.802c1.283-2.762 2.234-4.955 2.85-6.577z" mask="url(#x)"/>
                        </g>
                        <path fill="#000" stroke="#D2D2D2" stroke-width=".911" d="M16.301 29.513c-2.973 0-5.384-3.575-5.384-4.129 0-.554 2.41-1.003 5.384-1.003 2.973 0 5.384.45 5.384 1.003 0 .554-2.41 4.129-5.384 4.129z"/>
                        <path fill="#FFABB6" d="M18.134 25.738c.015-.03.02-.06.015-.087a.133.133 0 0 0-.04-.07l-1.182-7.305-4.414.464.793 8.096c.9.141 1.6.224 2.098.249.499.025 1.482.025 2.948 0l-.218-1.347z"/>
                        <path fill="#FFBEC6" d="M15.19 21.618c-1.608.5-4.286-.122-4.807-1.678-.975-2.91-1.317-3.854-1.653-6.21-.589-4.136-.914-5.357 1.209-6.658 1.307-.8 2.141-1.423 4.423-1.463 1.476-.026 4.721-.1 4.886 1.772.024.28 1.483 6.702 1.488 6.99.077 4.43-2.682 6.355-5.546 7.247z"/>
                        <path fill="#89445E" d="M8.075 7.901c2.378 2.1 3.837 3.384 4.377 3.854 1.072.931 4.743.353 6.203.043s1.619 1.618 1.859 1.567c.24-.05 1.109-4.361.81-4.678-.297-.317-.945-.687-1.073-.39-.232-1.09-.19-2.737-4.417-3.19-2.818-.301-5.405.63-7.76 2.794z"/>
                        <path fill="#E8A6B1" d="M8.794 14.128l-.37 2.998a.583.583 0 0 0 .7.642l.918-.195-1.248-3.445z"/>
                        <ellipse cx="3.43" cy="56.812" fill="#D8D8D8" rx="2.466" ry="1" transform="scale(-1 1) rotate(-9 0 100.408)"/>
                        <path fill="#FFF" d="M17.88 24.459c.875 0 2.607 1.4 1.38 2.303-.816.602-2.066.734-3.748.395 1.95-.624 2.74-1.523 2.369-2.698z"/>
                        <path fill="#FFF" d="M13.143 25.038c-.874 0-2.26.801-1.034 1.704.817.602 1.982.746 3.496.431-1.693-.313-2.514-1.024-2.462-2.135z"/>
                    </g>
                    <path fill="#FFDBB5" d="M91.533 172.496L73.738 158.31 91.533 149l16.318 9.311z"/>
                    <path fill="#EBBE8F" d="M90.84 168.123l-17.14-9.902v18.72l17.14 9.903z"/>
                    <g fill="#FFBEC6">
                        <path d="M84.843 184.223c-.688-.531-2.524-2.806-5.51-6.823a1.749 1.749 0 0 0-1.856-.647l-.516.139a1.53 1.53 0 0 0-1.023 2.05c.643 1.595 1.012 2.469 1.109 2.621.187.296 2.507 3.581 3.738 4.05.29.112.72.283 1.257.305.114.005.582.073 1.024-.236.04-.029.511-.034.994-.696.416.083 1.088-.14.783-.763z"/>
                        <path d="M83.962 180.259c-1.798-1.158-3.087-1.918-3.866-2.281-.69-.322-.98-.332-.87-.031a.874.874 0 0 1-.03.667l-.088.189a.638.638 0 0 0 .308.848l3.622 1.687c.344.16.752.08 1.01-.198l.023-.024a.564.564 0 0 0-.109-.857z"/>
                    </g>
                    <path fill="#6D2A2A" d="M75.744 179.976c.119.244 1.208-.042 2.432-.639s2.12-1.279 2-1.523l-7.088-16.353c-.893-.545-1.747-1.68-1.94 0-1.602.716-1.43 4.936-.713 6.54 3.53 7.965 5.3 11.957 5.309 11.975z"/>
                    <path fill="#FFF" d="M89.316 168.673l-5.55-3.188v7.55l5.55 3.188z"/>
                    <path fill="#FFF" stroke="#979797" stroke-width=".5" d="M88.522 169.246v5.491l-3.962-2.274v-5.492l3.962 2.275z"/>
                    <g transform="matrix(-1 0 0 1 88.2 171.912)">
                        <mask id="z" fill="#fff">
                            <use xlink:href="#y"/>
                        </mask>
                        <path fill="#000" d="M0 .838h1v1.676H0z" mask="url(#z)"/>
                        <path fill="#000" d="M.558.559h.129v1.676h-.13zM.837.28h.129v1.676h-.13zM1.115.28h.214v1.676h-.214zM1.394 0h.153v1.676h-.153zM1.673-.28h.214v1.677h-.214z" mask="url(#z)"/>
                    </g>
                    <g transform="matrix(-1 0 0 1 86.249 170.794)">
                        <mask id="B" fill="#fff">
                            <use xlink:href="#A"/>
                        </mask>
                        <path fill="#000" d="M0 .838h1v1.676H0z" mask="url(#B)"/>
                        <path fill="#000" d="M.558.559h.129v1.676h-.13zM.837.28h.129v1.676h-.13zM1.115.28h.214v1.676h-.214z" mask="url(#B)"/>
                    </g>
                    <path fill="#59BEFF" d="M88.18 169.321l-1.652-.916v2.086l1.651.917z"/>
                    <g transform="matrix(-1 0 0 1 100.75 152.912)">
                        <mask id="D" fill="#fff">
                            <use xlink:href="#C"/>
                        </mask>
                        <use fill="#FFBC78" opacity=".536" xlink:href="#C"/>
                        <path stroke="#E5AB70" stroke-width=".5" d="M19.102.14L.697 11.037" mask="url(#D)"/>
                    </g>
                    <path fill="#ECEFF0" d="M86.958 168.634l-2.067-1.148v2.087l2.333 1.313z"/>
                    <path fill="#D5A879" d="M90.71 168.123l17.141-9.902v18.72l-17.14 9.903z"/>
                    <g fill="#FFBEC6">
                        <path d="M106.13 180.248c.252-.809.385-3.34.398-7.595a1.749 1.749 0 0 1 1.359-1.7l2.02-.462c.711 1.838 1.073 2.874 1.083 3.107.017.35 0 4.371-.738 5.462-.175.258-.429.644-.856.97-.09.07-.435.394-.974.394-.05 0-.438.266-1.213 0-.293.307-.972.51-1.079-.176z"/>
                        <path d="M104.577 176.496c.81-1.98 1.429-3.342 1.859-4.086.38-.659.612-.834.696-.525.06.224.206.414.407.53l.18.104a.638.638 0 0 1 .233.871l-1.998 3.46a.874.874 0 0 1-.942.417l-.032-.007a.564.564 0 0 1-.403-.764z"/>
                    </g>
                    <path fill="#F4B06A" d="M97.403 164.251l2.983-1.711.007 6.204-.675-.413-.854 1.022-.8-.251-.66 1.358z" opacity=".536"/>
                </g>
                <path fill="#D8D8D8" d="M128.77 200.306l149.226 80.204a4 4 0 0 1 .028 7.031L211.46 324a8 8 0 0 1-7.843-.088l-144.4-83.37a4 4 0 0 1 .106-6.987l61.871-33.248a8 8 0 0 1 7.574 0z" opacity=".284"/>
                <g>
                    <g fill="#FFBEC6">
                        <path d="M269.24 236.27c.335-.903.727-4.142 1.175-9.72a1.627 1.627 0 0 1 1.147-1.426l.804-.245a1.627 1.627 0 0 1 2.077 1.271c.335 1.888.503 2.932.502 3.13-.003.384-.25 4.778-1.123 5.927-.206.272-.506.68-.992 1.012-.103.07-.499.405-1.09.374-.053-.003-.494.266-1.328-.07-.338.32-1.093.502-1.171-.253z"/>
                        <path d="M267.764 232.077c.997-2.118 1.751-3.57 2.263-4.36.465-.715.73-.883.796-.506.04.223.169.42.358.542l.244.159a.7.7 0 0 1 .206.968l-2.437 3.752a.813.813 0 0 1-.896.342l-.136-.037a.619.619 0 0 1-.398-.86z"/>
                    </g>
                    <path fill="#506289" d="M262.762 266.39l1.077 7.042c-.75.374-1.519.54-2.308.499-.788-.041-1.567-.289-2.336-.742l-.94-6.644 4.507-.156z"/>
                    <g fill="#FFBEC6">
                        <path d="M236.757 231.187c-.24-.934-.29-4.206-.151-9.815a1.627 1.627 0 0 0-.96-1.524l-.568-.256a1.607 1.607 0 0 0-2.164.9c-.713 1.896-1.08 2.945-1.1 3.148-.037.381-.25 4.777.497 6.011.177.292.433.729.882 1.11.095.08.453.455 1.044.486.054.003.464.316 1.329.07.302.352 1.034.613 1.19-.13z"/>
                        <path d="M238.663 227.171c-.77-2.21-1.368-3.734-1.795-4.572-.387-.76-.633-.955-.738-.586a.813.813 0 0 1-.413.501l-.259.132a.7.7 0 0 0-.306.941l2.032 3.987c.16.315.506.49.855.434l.14-.023a.619.619 0 0 0 .484-.814z"/>
                    </g>
                    <g transform="scale(-1 1) rotate(-3 4962.468 5406.089)">
                        <ellipse cx="23.436" cy="15.573" fill="#E6E8ED" opacity=".8" rx="22.302" ry="6.764" transform="rotate(2 23.436 15.573)"/>
                        <path fill="#506289" d="M29.49.9l-.874 4.21-4.182 1.806-.422-.562L25.074.112zM23.404 11.54c1.182.705 4.587 2.643 5.695 3.675 1.107 1.033 3.481 1.67 4.54 1.177 1.06-.494 1.913-1.623.414-3.485C32.555 11.045 29.1 9.719 29.1 8.72c0-.237-3.526.513-3.655.96-.086.298-.766-.455-2.04-2.26-.789 2.277-.789 3.65 0 4.12z"/>
                        <path fill="#C39293" d="M23.404 11c1.182.705 4.587 2.643 5.695 3.676 1.107 1.032 3.481 1.67 4.54 1.176 1.06-.494 1.913-1.623.414-3.485C32.555 10.505 29.1 9.18 29.1 8.18c0-.205-.453-.75-.453-1.538 0-.522.857-1.61.19-1.902-2.232.876-3.25.591-4.527 0-.543.26-.845.973-.905 2.141-.789 2.277-.789 3.65 0 4.12z"/>
                        <path fill="#506289" d="M10.958 13.062c0 2.598-.473 7.495 3.524 6.774 3.998-.72 1.538-7.582 1.538-9.332 0-1.167.108-2.542.323-4.125-.774.557-1.394.836-1.86.836-.468 0-1.299-.279-2.493-.836-.688 2.723-1.032 4.951-1.032 6.683z"/>
                        <path fill="#C39293" d="M10.958 12.522c0 2.598-.473 7.495 3.524 6.774 3.998-.72 1.538-7.582 1.538-9.332 0-1.75 1.208-2.899.708-3.501-2.246 0-3.11 0-4.468-1.03-.657.26-.552 2.183-.751 3.089-.36 1.64-.551 2.885-.551 4z"/>
                    </g>
                    <path fill="#DEDEDE" d="M248.484 267.337c1.339.07 2.45-.355 2.481-.95l-.59-19.825.862-16.46 1.804.095c.909 9.647 1.327 15.171 1.253 16.57-.073 1.393 3.618 19.948 3.616 19.984-.031.595 1.03 1.134 2.369 1.205 1.198.062 2.377-.447 2.6-.945.017-.039-.21-5.642-.68-16.808l1.02-19.473c1.217-1.07 1.877-2.598 1.981-4.587.104-1.989-.357-4.25-1.385-6.784l-20.648-3.826-.525 10.033c-.199 3.783-.083 11.078.347 21.885l3.122 18.693c-.013.591 1.042 1.124 2.373 1.193z"/>
                    <path fill="#BDBCBC" d="M247.913 267.277c.792-.137 1.347-.472 1.369-.89l-.59-19.825.862-16.46 1.679.088-.858 16.372.59 19.825c-.031.595-1.142 1.02-2.481.95a5.37 5.37 0 0 1-.571-.06zm-4.762-51.435l.016-.309 20.648 3.826c1.028 2.534 1.49 4.795 1.385 6.784-.104 1.989-.764 3.518-1.98 4.587l-1.021 19.473c.47 11.166.697 16.77.68 16.808-.223.498-1.402 1.007-2.6.945a5.32 5.32 0 0 1-.664-.076c.785-.157 1.423-.516 1.58-.869.017-.039-.209-5.641-.68-16.808l1.021-19.473c1.216-1.069 1.877-2.598 1.981-4.587.104-1.988-.357-4.25-1.385-6.783l-18.98-3.518z"/>
                    <path fill="#506289" d="M257.437 192.141L266.716 214l5.464-2.32-6.699-17.02a5.413 5.413 0 0 0-8.044-2.519zM244.722 186.58l-3.026 21.93c-1.13 1.374-2.032 2.038-2.705 1.992-.673-.047-1.799-.85-3.376-2.41l2.48-15.495a7.163 7.163 0 0 1 6.627-6.018z"/>
                    <path fill="#FFBEC6" d="M266.481 213.176l4.054 14.395 4.092-.76-1.508-13.084a3.396 3.396 0 0 0-6.638-.551zM235.598 207.96c1.58.569 3.018 1.121 5.885.566-.002 1.952-1.71 6.72-5.127 14.305l-3.63-1.64c1.243-5.875 2.2-10.286 2.872-13.232z"/>
                    <path fill="#415070" d="M253.311 223.117c-5.038 0-9.183-.659-10.657-1.525-.357-.21-.136-.886-.136-1.119 0-1.192 4.671-2.115 10.93-2.115 6.258 0 11.332.966 11.332 2.158 0 .205.005.753-.274.94-1.348.906-6.01 1.661-11.195 1.661z"/>
                    <g transform="scale(-1 1) rotate(-3 3441.313 5204.72)">
                        <mask id="F" fill="#fff">
                            <use xlink:href="#E"/>
                        </mask>
                        <use fill="#506289" xlink:href="#E"/>
                        <path fill="#415070" d="M5.216 13.405c-1.075 9.403-1.613 15.23-1.613 17.48 0 3.378 13.98 5.907 19.61 3.402 3.754-1.67 4.286.036 1.596 5.117l-27.106-2.446c1.525-7.865 2.99-13.313 4.394-16.342 1.404-3.029 2.444-5.432 3.119-7.21z" mask="url(#F)"/>
                    </g>
                    <path fill="#FFABB6" stroke="#415070" stroke-width=".847" d="M250.53 192.818c-3.248-.17-5.677-4.223-5.645-4.83.032-.605 2.691-.959 5.94-.789 3.25.17 5.857.8 5.826 1.407-.032.606-2.871 4.383-6.12 4.212z"/>
                    <path fill="#FFABB6" d="M253.793 188.79a.15.15 0 0 0 .02-.094.146.146 0 0 0-.038-.078l-.874-8.068-4.85.254.403 8.91c.975.207 1.735.338 2.279.394.543.056 1.617.112 3.221.17l-.16-1.488z"/>
                    <path fill="#FFBEC6" d="M249.781 183.992c-2.2 1.734-4.688.785-5.168-.949-.899-3.241-1.218-4.295-1.45-6.894-.407-4.562-.692-5.919 1.703-7.22 1.474-.803 2.421-1.437 4.917-1.35 1.614.057 5.165.161 5.237 2.221.01.307 1.237 7.423 1.226 7.739-.17 4.854-3.723 4.291-6.465 6.453z"/>
                    <path fill="#3C3A41" d="M244.936 180.896h-.92l-.191.805 1.613.001z"/>
                    <path fill="#E8A6B1" d="M243.21 176.586l-.598 3.396a.542.542 0 0 0 .619.63l1.146-.182-1.167-3.844z"/>
                    <g>
                        <path fill="#3C3A41" d="M247.804 171.836c-.106.213.06.645.499 1.296.869 1.29 3.82 4.586 5.88 2.223 2.06-2.362-.053 6.103 1.902 3.916 1.955-2.188 2.69-6.452 2.465-6.872-.225-.42-.805-.996-1.024-.717.064-1.221.998-2.506-3.341-4.184-4.34-1.679-8.976-1.021-10.369 1.54-.928 1.709.401 2.641 3.988 2.798z"/>
                        <path stroke="#FFBEC6" stroke-linecap="round" stroke-width=".662" d="M250.389 177.787l2.335-3.282M250.39 176.1l2.334-3.283"/>
                    </g>
                </g>
                <g transform="scale(-1 1) rotate(-6 1104.317 1662.514)">
                    <ellipse cx="23.453" cy="107.424" fill="#E6E8ED" opacity=".8" rx="21.41" ry="6.45" transform="rotate(2 23.453 107.424)"/>
                    <g fill="#FFBEC6">
                        <path d="M43.78 61.615l-1.692-5.897a.585.585 0 0 0-.723-.4.632.632 0 0 0-.445.735c.267 1.288.502 2.288.706 2.999.203.71.532 1.676.984 2.898.116.31.45.479.768.388a.585.585 0 0 0 .401-.723z"/>
                        <path d="M43.552 60.025l-2.396-6.916a1.656 1.656 0 0 0-1.438-1.11l-.555-.042a1.442 1.442 0 0 0-1.55 1.518c.094 1.692.161 2.623.202 2.795.03.13.086.762.166 1.9a4.373 4.373 0 0 0 3.381 3.953l.254.058a1.656 1.656 0 0 0 1.936-2.156z"/>
                        <path d="M44.366 57.599a130.333 130.333 0 0 0-1.724-2.16c-.49-.587-.808-1.068-.952-1.444-.281-.73-.51-.795-.685-.196a.828.828 0 0 1-.2.343l-.27.279a.643.643 0 0 0-.014.883l2.677 2.922a.828.828 0 0 0 .996.174l.001-.001a.532.532 0 0 0 .17-.8z"/>
                    </g>
                    <g fill="#FFBEC6">
                        <path d="M8.22 65.603c-.245-.809-.431-3.659-.56-8.55a1.656 1.656 0 0 0-1.078-1.508l-.488-.181a1.442 1.442 0 0 0-1.909 1.031c-.376 1.652-.568 2.567-.576 2.743-.016.34-.006 4.253.695 5.314.166.25.407.626.812.943.086.068.413.383.926.382.047 0 .416.258 1.153-.002.278.299.923.496 1.026-.172z"/>
                        <path d="M9.784 61.993c-.798-1.926-1.408-3.251-1.83-3.976-.37-.639-.594-.81-.671-.514a.828.828 0 0 1-.39.51l-.166.095a.604.604 0 0 0-.222.827l1.971 3.394a.828.828 0 0 0 .884.395l.042-.01a.53.53 0 0 0 .382-.721z"/>
                    </g>
                    <path fill="#54517F" d="M21.93 101.353c1.052.61 4.08 2.29 5.065 3.185.985.895 3.095 1.448 4.038 1.02.942-.428 1.7-1.407.368-3.02-1.333-1.614-4.406-2.764-4.406-3.63 0-.205-3.136.445-3.25.832-.077.259-.682-.394-1.815-1.958-.7 1.974-.7 3.164 0 3.571z"/>
                    <path fill="#C39293" d="M21.93 100.885c1.052.611 4.08 2.29 5.065 3.186.985.895 3.095 1.447 4.038 1.02.942-.429 1.7-1.408.368-3.021-1.333-1.614-4.406-2.764-4.406-3.63 0-.178-.403-.65-.403-1.333 0-.302.134-.851.403-1.648l-4.276.968-.789.887c-.7 1.974-.7 3.164 0 3.571z"/>
                    <path fill="#54517F" d="M10.863 102.672c0 2.252-.421 6.496 3.134 5.872 3.555-.625 1.367-6.573 1.367-8.09 0-1.01.234-2.203.701-3.575H11.78c-.612 2.36-.917 4.292-.917 5.793z"/>
                    <path fill="#C39293" d="M10.863 102.204c0 2.252-.421 6.496 3.134 5.872 3.555-.625 1.367-6.573 1.367-8.09 0-1.01.234-2.202.701-3.575H11.78c-.612 2.361-.917 4.292-.917 5.793z"/>
                    <g fill="#5D5A8F">
                        <path d="M14.015 50.567c-1.03 2.146-1.545 4.082-1.545 5.809 0 1.726.515 3.08 1.545 4.06v16.902L11.327 98.88h4.257c3.74-14.89 5.61-22.942 5.61-24.157 0-1.214.629-5.977 1.884-14.287h1.607v14.287L22.37 96.89h4.316l4.516-21.061c.885-9.336 1.328-15.645 1.328-18.929v-8.708l-18.515 2.376z"/>
                        <path d="M24.524 97.814c1.192 0 2.159-.418 2.159-.935 0-.517-.967-.936-2.16-.936-1.137 0-2.01.394-2.093.877-.004.024-.066.035-.066.059 0 .517.967.935 2.16.935zM13.486 99.699c1.193 0 2.16-.419 2.16-.936 0-.516-.967-.48-2.16-.48-.913 0-1.544.056-1.86.403-.097.106-.11.083-.11.204 0 .055-.178-.02-.158.032.174.441 1.06.777 2.128.777z"/>
                    </g>
                    <path fill="#54517F" d="M12.994 99.207c-.839-.085-1.49-.382-1.636-.753-.014-.034.872-7.229 2.657-21.584V59.968c-1.03-.98-1.545-2.334-1.545-4.06 0-1.726.515-3.663 1.545-5.81l18.515-2.375v.247l-16.595 2.129c-1.03 2.146-1.546 4.083-1.546 5.809s.515 3.08 1.546 4.06V76.87C14 91.764 13.019 99.21 12.994 99.207zm12.202-25.034V61.971c.1-.668-.11-1.363 0-2.085h1.92v14.287c-1.678 15.385-2.583 23.068-2.717 23.05-.883-.117-1.524-.473-1.524-.894l2.32-22.156z"/>
                    <path fill="#D8D8D8" d="M20.413 27.38l-9.023 18.5-4.745-2.315 7.188-14.185a4.763 4.763 0 0 1 6.58-2zM32.165 21.173l2.219 20.826 5.121-.011-1.511-16.06a5.282 5.282 0 0 0-5.829-4.755z"/>
                    <path fill="#D8D8D8" d="M11.59 43.929L8.42 57.483l-4.738-.76 2.164-12.086a3.028 3.028 0 0 1 5.742-.708zM37.413 30.532L34.28 41.525 37.407 54.8l4.69-.787z"/>
                    <path fill="#9F535C" d="M22.954 54.74c4.474.234 8.186-.143 9.534-.825.326-.165.16-.76.171-.962.054-1.032-4.052-2.049-9.61-2.34-5.558-.291-10.108.31-10.162 1.341-.009.177-.038.652.201.827 1.156.846 5.261 1.717 9.866 1.958z"/>
                    <g transform="translate(12.265 20.583)">
                        <mask id="H" fill="#fff">
                            <use xlink:href="#G"/>
                        </mask>
                        <use fill="#D8D8D8" xlink:href="#G"/>
                        <path fill="#CACACA" d="M4.66 13.595c-.957 8.15-1.435 13.2-1.435 15.152 0 2.927 12.431 5.119 17.439 2.948 3.338-1.447 3.811.031 1.42 4.436l-24.105-2.12C-.665 27.192.637 22.47 1.886 19.845c1.249-2.625 2.173-4.709 2.774-6.25z" mask="url(#H)"/>
                        <path stroke="#E2E2E2" stroke-width="1.104" d="M14.944 5.521c.074 3.93.074 6.779 0 8.547-.462 11.066-1.442 17.298-2.35 19.414" mask="url(#H)"/>
                    </g>
                    <path fill="#FFABB6" d="M29.182 25.029c-.041.255-1.012.442-2.2.422-1.211-.022-2.19-.251-2.185-.514 0-.014.004-.029.01-.043l.24-7.25 4.319.076-.174 7.309h-.01z"/>
                    <path fill="#FFF" d="M30.16 25.799c-.036.301-1.647.715-3.043.765-1.424.05-3.177-.137-3.187-.445 0-.002.144-.8.434-2.392l2.503.532c.096.51.327 1.834.356 1.833.029-.001.2-1.318.244-1.834l2.276-.538.416 2.079z"/>
                    <path fill="#FFBEC6" d="M28.853 20.346c1.214-.236 3.528-.898 3.716-2.45.352-2.902.49-3.849.343-6.106-.258-3.964-.162-5.998-2.468-5.946-.499.012-2.32-.89-4.5-.467-1.41.274-4.514.86-4.3 2.635.032.264-.085 6.529-.033 6.797.804 4.134 4.423 6.085 7.242 5.537z"/>
                    <path fill="#FFBEC6" d="M28.325 20.427c1.63.14 4.056-.98 4.244-2.531.352-2.902.49-3.849.344-6.106-.258-3.964-.163-5.998-2.469-5.946-.498.012-2.32-.89-4.5-.467-1.41.274-4.514.86-4.3 2.635.032.264-.085 6.529-.032 6.797.803 4.134 3.81 5.367 6.713 5.618z"/>
                    <path fill="#8A465F" d="M26.933 10.853c.685.6.13 1.236 0 1.52-.086.19-.483.553-1.191 1.091V16c.14.965.377 1.532.712 1.701 2.898.96 4.994.64 6.288-.962l-.179 1.417c-.17.496-.421.864-.752 1.105-1.41 1.027-2.215 1.08-2.472 1.124-.258.043-1.7.134-2.718-.097-1.09-.406-1.75-.406-1.75-1.51V15.27c-.208-.64-.522-.744-.944-.313-.633.647-.774 3.374-1.355 2.369-.377-.728-.81-1.562-.959-2.555-.032-.529-.032-1.328 0-2.399l1.49-2.037c1.894-.232 3.17-.06 3.83.517z" opacity=".2"/>
                    <path fill="#89445E" d="M29.474 9.615c.084.19-.084.555-.503 1.099-.832 1.077-4.444 1.265-5.896 1.265s-1.213 1.825-1.452 1.825c-.239 0-1.938-3.836-1.718-4.19.22-.353.76-.825.943-.574 0-1.06-.77-2.214 3.162-3.47 3.931-1.256 8.793-1.8 9.782.348.659 1.432-.78 2.664-4.318 3.697z"/>
                    <path fill="#E8A6B1" d="M32.932 12.197l.958 2.714a.552.552 0 0 1-.52.735h-.928l.49-3.449z"/>
                    <ellipse cx="6.088" cy="57.008" fill="#D8D8D8" rx="2.399" ry="1" transform="rotate(9 6.088 57.04)"/>
                    <ellipse cx="39.691" cy="54.669" fill="#D8D8D8" rx="2.399" ry="1" transform="rotate(-9 39.69 54.7)"/>
                </g>
                <g>
                    <path fill="#ECACAE" d="M212.968 192.246c0 .552-1.045 3.426-3.135 8.62l-2.723-3.202 2.038-6.891h2.785c.69.43 1.035.92 1.035 1.473z"/>
                    <path fill="#ECACAE" d="M212.97 188.207l-3.99.022v3.198l3.99.877z"/>
                    <g transform="translate(167 144)">
                        <ellipse cx="28.011" cy="119.692" fill="#E6E8ED" opacity=".4" rx="22.891" ry="8.808"/>
                        <path fill="#EEB5B8" d="M30.903 64.024c.227 31.427-.835 47.562-.832 48.406.02.26-.41.528-1.592.614-1.182.086-2.154-.044-2.17-.289-.315-1.801-2.06-22.085-4.59-58.524-.196-2.815.889-8.118 2.212-8.118l14.653.7c.554 0 2.477 3.665 2.477 8.86 0 2.497-.71 6.368-.646 8.351.191 5.896-.392 22.04-.842 48.406.023.274-.469.528-1.651.614-1.12.081-2.666-.394-2.776-.614l-4.243-48.406z"/>
                        <path fill="#8787FC" d="M24.907 10.363v24.453l13.354-3.475V10.363a6.677 6.677 0 0 0-13.354 0z"/>
                        <path fill="#FFC977" d="M32.057 92.143c-4.07 0-7.439-.51-8.028-1.174-.072-.1-.09-.154-.09-.208-3.056-14.937-4.588-25.545-4.588-31.889 0-6.382 2.729-11.11 4.587-14.185H40.27c1.854 5.013 2.78 9.741 2.78 14.185 0 4.444-.926 15.143-2.78 32.097h-.186c-.589.664-3.959 1.174-8.027 1.174z"/>
                        <ellipse cx="29.534" cy="2.304" fill="#7272FF" rx="2.255" ry="2.304"/>
                        <path fill="#F6BC64" d="M19.906 71.884c-.62-6.503-.93-10.584-.93-12.242 0-4.444 1.114-9.172 2.967-14.185h5.773l4.615.8c-1.763 7.87-2.484 16.572-2.165 26.106.216 6.45-9.773 4.64-10.26-.479z"/>
                        <path fill="#F6BC64" d="M43.263 71.884c.619-6.503.929-10.584.929-12.242 0-4.444-1.85-9.172-3.703-14.185h-5.037l-4.615.8c1.763 7.87 2.485 16.572 2.165 26.106-.216 6.45 9.773 4.64 10.26-.479z"/>
                        <path fill="#8787FC" d="M26.109 15.693c1.363.778 2.986 1.252 4.868 1.42 1.882.168 3.849.015 5.902-.46 1.204-2.905 1.683-5.576 1.437-8.011-.37-3.654-3.547-7.313-9.602-5.31-1.973.653-3.392 2.355-3.738 4.24-.334 1.826.043 4.533 1.133 8.12z"/>
                        <path fill="#EEB5B8" d="M20.201 43.927c-1.948 4.958-2.983 8.553-3.105 10.784-.183 3.347.74 3.505-.213 4.553-.953 1.047-1.403 3.282-1.876 4.174-.306.577-.73.773-.827-.05-.053-.451.237-1.466.375-2.171.369-1.885-2.46 5.16-3.043 5.65-.44.369-.556-.283-.728-1.177-.056-.291.068-1.082-.072-1.248-.378-.451.75-3.285 3.381-8.503l2.189-13.567c.988-1.41 1.746-2.434 2.274-3.074.528-.64 1.077.903 1.645 4.629z"/>
                        <use fill="#FFC977" transform="translate(15.385 22.421)" xlink:href="#I"/>
                        <path fill="#8787FC" d="M34.763 8.423v25.67l3.608 3.459V10.078c0-1.21-.705-2.308-1.804-2.812a1.273 1.273 0 0 0-1.804 1.157zM24.907 8.724v28.55l3.608-3.476V7.985a1.502 1.502 0 0 0-1.804-1.472 2.258 2.258 0 0 0-1.804 2.211z"/>
                        <path fill="#F8B7B9" d="M31.606 8.293a4.51 4.51 0 0 1 4.51 4.51v2.037a4.51 4.51 0 1 1-9.02 0v-2.037a4.51 4.51 0 0 1 4.51-4.51z"/>
                        <path fill="#FFC977" d="M43.946 45.127c1.245 0 2.544-.39 2.544-.898 0-.51-1.01-.922-2.255-.922-1.246 0-2.538.59-2.538 1.098 0 .51 1.003.722 2.249.722z"/>
                        <path fill="#F8B7B9" d="M31.606 8.293a2.255 2.255 0 0 1 2.255 2.255v13.918a2.255 2.255 0 0 1-4.51 0V10.548a2.255 2.255 0 0 1 2.255-2.255z"/>
                        <path fill="#E1A3A6" d="M31.986 12.286l-1.124 3.43a.527.527 0 0 0 .5.691h1.303l-.679-4.121z"/>
                    </g>
                    <path fill="#54517F" d="M197.273 262.25c-1.02.644-3.96 2.413-4.915 3.355-.956.943-3.004 1.525-3.919 1.074-.914-.45-1.65-1.482-.356-3.18 1.293-1.7 4.275-2.911 4.275-3.823 0-.216 3.043.468 3.154.877.074.272.661-.416 1.76-2.063.681 2.079.681 3.332 0 3.76z"/>
                    <path fill="#C39293" d="M197.273 261.758c-1.02.643-3.96 2.412-4.915 3.355-.956.942-3.004 1.524-3.919 1.073-.914-.45-1.65-1.481-.356-3.18 1.293-1.7 4.275-2.91 4.275-3.822 0-.188.391-.686.391-1.405 0-.317-.403-5.118-1.208-14.401l6.603 5.387-.871 9.233c.68 2.078.68 3.331 0 3.76z"/>
                    <path fill="#54517F" d="M206.317 261.332c0 2.611-.83 7.128-4.28 6.47-3.449-.658-.28-6.64-.28-8.237 0-1.064.26-2.32.781-3.765h2.696c.829 1.584 1.295 2.686 1.398 3.308.192 1.15-.315 1.343-.315 2.224z"/>
                    <path fill="#C39293" d="M206.125 261.338c0 2.372-.702 6.89-4.152 6.232-3.45-.658-.217-6.97-.217-8.567 0-1.064-.368-5.734-1.104-14.008l6.69 3.773c-.595 4.685-.863 7.225-.804 7.621.01.07-.008 1.866 0 1.935.225 1.945-.413 2.177-.413 3.014z"/>
                </g>
                <path fill="url(#J)" d="M102.052 210.646l169.702-5.1a4 4 0 0 1 3.527 6.094l-39.448 64.096a8 8 0 0 1-6.813 3.807H61.92a4 4 0 0 1-3.39-6.124l36.984-59.024a8 8 0 0 1 6.538-3.749z" opacity=".8" transform="rotate(30 166.897 242.543)"/>
                <g transform="translate(159 208)">
                    <path fill="url(#K)" d="M1.42 28.514a2 2 0 0 1-1.34-1.89V8.355c0-.777.342-1.515.936-2.017l1.575-1.33V2.86H13.424v2.148l1.574 1.33a2.64 2.64 0 0 1 .937 2.016v18.3a2 2 0 0 1-1.245 1.852c-.411.255-3.228.452-6.641.452-3.38 0-6.174-.193-6.628-.444z"/>
                    <path fill="url(#L)" d="M14.02 3.699c-.031.24-2.715.433-6.02.433-3.305 0-5.989-.194-6.02-.433V.397h12.04V3.7z"/>
                    <ellipse cx="8" cy="22.684" fill="#F5F5F5" rx="8" ry="1"/>
                    <ellipse cx="8" cy=".437" fill="#FFC4BB" rx="6.02" ry="1"/>
                    <path fill="#F5F5F5" d="M0 11.679h16v11.123H0z"/>
                    <g transform="translate(0 11.044)">
                        <path fill="url(#M)" d="M.017 11.759H0V.636h16v11.123h-.017c-.275.31-3.744.556-7.983.556-4.24 0-7.708-.246-7.983-.556z"/>
                        <ellipse cx="8" cy=".596" fill="url(#N)" rx="8" ry="1"/>
                    </g>
                </g>
                <g>
                    <path fill="#FED4A9" d="M166.765 240.883l25.656-14.444-9.313-7.02-25.842 12.68z"/>
                    <path fill="#EBBE8F" d="M192.289 226.213v-.084l.075.042.075-.042.057.116 25.45 14.327v28.097l-25.022-9.635c-.158.322-.32.647-.485.975l-25.89 8.743v-28.097l25.74-14.442z"/>
                    <path fill="#AE865B" d="M166.55 240.655l25.89-14.526v33.88l-25.89 8.743z"/>
                    <path fill="#92704D" d="M217.946 240.572l-25.657-14.443v32.66l25.657 9.88z"/>
                    <path fill="#FED4A9" d="M217.946 240.463l-25.657-14.443 9.313-7.02 25.843 12.68z"/>
                    <g transform="translate(192.289 240.806)">
                        <mask id="P" fill="#fff">
                            <use xlink:href="#O"/>
                        </mask>
                        <use fill="#EBBE8F" xlink:href="#O"/>
                        <g mask="url(#P)">
                            <path fill="#FFF" d="M1.848 30.615l6.22-3.486v8.256l-6.22 3.485z"/>
                            <path fill="#FFF" stroke="#979797" stroke-width=".5" d="M2.709 31.23v6.062l4.499-2.522v-6.062l-4.5 2.521z"/>
                            <g transform="translate(3.098 34.156)">
                                <mask id="R" fill="#fff">
                                    <use xlink:href="#Q"/>
                                </mask>
                                <path fill="#000" d="M0 .917h1V2.75H0z" mask="url(#R)"/>
                                <path fill="#000" d="M.625.611h.143v1.833H.625zM.937.306h.144v1.833H.937zM1.25.306h.237v1.833H1.25zM1.562 0h.17v1.833h-.17zM1.875-.306h.237v1.834h-.237z" mask="url(#R)"/>
                            </g>
                            <g transform="translate(5.285 32.934)">
                                <mask id="T" fill="#fff">
                                    <use xlink:href="#S"/>
                                </mask>
                                <path fill="#000" d="M0 .917h1V2.75H0z" mask="url(#T)"/>
                                <path fill="#000" d="M.625.611h.143v1.833H.625zM.937.306h.144v1.833H.937zM1.25.306h.237v1.833H1.25z" mask="url(#T)"/>
                            </g>
                            <path fill="#59BEFF" d="M3.122 31.324l1.85-1.002v2.281l-1.85 1.002z"/>
                            <path fill="#ECEFF0" d="M4.49 30.572l2.316-1.255V31.6l-2.614 1.436z"/>
                        </g>
                        <path fill="#333" d="M0 14.863L25.937 0 36.29 13.377 10.353 28.239z" mask="url(#P)"/>
                    </g>
                    <path fill="#FED4A9" d="M192.289 255.669l25.937-14.863 10.532 11.955-25.937 14.862z"/>
                    <g transform="translate(166.55 240.806)">
                        <mask id="V" fill="#fff">
                            <use xlink:href="#U"/>
                        </mask>
                        <use fill="#D5A879" transform="matrix(-1 0 0 1 25.937 0)" xlink:href="#U"/>
                        <path fill="#333" d="M-10.55 14.863L15.389 0 25.74 13.377-.196 28.239z" mask="url(#V)" transform="matrix(-1 0 0 1 15.192 0)"/>
                    </g>
                    <path fill="#FED4A9" d="M192.469 255.669l-25.937-14.863L156 252.761l25.937 14.862z"/>
                </g>
                <g transform="translate(135 214)">
                    <path fill="url(#K)" d="M1.188 22.63a1.6 1.6 0 0 1-1.124-1.528V6.65c0-.631.282-1.229.77-1.63l1.271-1.048V2.268h8.802v1.704l1.272 1.048c.486.401.768.999.768 1.63v14.475a1.6 1.6 0 0 1-1.057 1.506c-.462.191-2.681.336-5.35.336-2.672 0-4.894-.145-5.352-.337z"/>
                    <path fill="url(#L)" d="M11.39 2.933c-.024.19-2.204.344-4.89.344-2.686 0-4.866-.154-4.89-.344L1.608.315h9.782v2.618z"/>
                    <ellipse cx="6.5" cy="17.99" fill="#F5F5F5" rx="6.5" ry="1"/>
                    <ellipse cx="6.5" cy=".347" fill="#FFC4BB" rx="4.891" ry="1"/>
                    <path fill="#F5F5F5" d="M0 9.263h13v8.822H0z"/>
                    <g transform="translate(0 8.759)">
                        <path fill="url(#M)" d="M.014 9.326H0V.504h13v8.822h-.014c-.223.246-3.042.441-6.486.441S.237 9.572.014 9.326z"/>
                        <ellipse cx="6.5" cy=".473" fill="url(#N)" rx="6.5" ry="1"/>
                    </g>
                </g>
                <g transform="translate(119 202)">
                    <path fill="url(#K)" d="M1.188 22.63a1.6 1.6 0 0 1-1.124-1.528V6.65c0-.631.282-1.229.77-1.63l1.271-1.048V2.268h8.802v1.704l1.272 1.048c.486.401.768.999.768 1.63v14.475a1.6 1.6 0 0 1-1.057 1.506c-.462.191-2.681.336-5.35.336-2.672 0-4.894-.145-5.352-.337z"/>
                    <path fill="url(#L)" d="M11.39 2.933c-.024.19-2.204.344-4.89.344-2.686 0-4.866-.154-4.89-.344L1.608.315h9.782v2.618z"/>
                    <ellipse cx="6.5" cy="17.99" fill="#F5F5F5" rx="6.5" ry="1"/>
                    <ellipse cx="6.5" cy=".347" fill="#FFC4BB" rx="4.891" ry="1"/>
                    <path fill="#F5F5F5" d="M0 9.263h13v8.822H0z"/>
                    <g transform="translate(0 8.759)">
                        <path fill="url(#M)" d="M.014 9.326H0V.504h13v8.822h-.014c-.223.246-3.042.441-6.486.441S.237 9.572.014 9.326z"/>
                        <ellipse cx="6.5" cy=".473" fill="url(#N)" rx="6.5" ry="1"/>
                    </g>
                </g>
                <g>
                    <animateTransform attributeName="transform"
                                      type="translate"
                                      from="0 0"
                                      to="100 0"
                                      dur="5.5s"
                                      repeatCount="indefinite"
                                      values="0; 68 0; 0 0"/>
                    <path fill="#000" d="M176.42 28.99h.92v-.47h-.92zM199.384 28.99h.92v-.47h-.92zM184.075 24.238h.817V21.57h-.817zM185.749 23.949h.818V21.57h-.818z"/>
                    <path fill="#A8A8A8" d="M189.645 18.652h-.674v-.723h-1.186v.723h-1.267a.257.257 0 0 0-.257.257v2.347c0 .142.115.257.257.257h3.127a.257.257 0 0 0 .257-.257v-2.347a.257.257 0 0 0-.257-.257"/>
                    <g transform="translate(185 20)">
                        <path fill="url(#K)" d="M1.188 22.63a1.6 1.6 0 0 1-1.124-1.528V6.65c0-.631.282-1.229.77-1.63l1.271-1.048V2.268h8.802v1.704l1.272 1.048c.486.401.768.999.768 1.63v14.475a1.6 1.6 0 0 1-1.057 1.506c-.462.191-2.681.336-5.35.336-2.672 0-4.894-.145-5.352-.337z"/>
                        <path fill="url(#L)" d="M11.39 2.933c-.024.19-2.204.344-4.89.344-2.686 0-4.866-.154-4.89-.344L1.608.315h9.782v2.618z"/>
                        <ellipse cx="6.5" cy="17.99" fill="#F5F5F5" rx="6.5" ry="1"/>
                        <ellipse cx="6.5" cy=".347" fill="#FFC4BB" rx="4.891" ry="1"/>
                        <path fill="#F5F5F5" d="M0 9.263h13v8.822H0z"/>
                        <g transform="translate(0 8.759)">
                            <path fill="url(#M)" d="M.014 9.326H0V.504h13v8.822h-.014c-.223.246-3.042.441-6.486.441S.237 9.572.014 9.326z"/>
                            <ellipse cx="6.5" cy=".473" fill="url(#N)" rx="6.5" ry="1"/>
                        </g>
                    </g>
                    <path fill="#D1D1D1" d="M183.604 21.24c-.036 0-.065.654-.065 1.462 0 .808.03 1.462.065 1.462h.788V21.24h-.788zM187.135 21.368h-.778c-.032 0-.059.597-.059 1.334 0 .737.027 1.334.059 1.334h.778c.032 0 .058-.597.058-1.334 0-.737-.026-1.334-.058-1.334M186.158 21.24h-1.42c-.035 0-.064.654-.064 1.462 0 .808.029 1.462.064 1.462h1.42c.035 0 .064-.654.064-1.462 0-.808-.029-1.462-.064-1.462"/>
                    <path fill="#414042" d="M187.574 17.452v.537c0 .012.362.022.808.022.446 0 .808-.01.808-.022v-.537h-1.616zM183.278 12.417l.117.383 1.214 2.513h7.635l1.214-2.513.118-.383z"/>
                    <path d="M183.835 15.996h9.528V14.62h-9.528z"/>
                    <path fill="#D1D1D1" d="M183.823 15.92h9.527v-1.376h-9.527z"/>
                    <path fill="#E5E5E5" d="M209.43 6.288l-.001.039-.001.038v.02l-.005.077c-.076.806-.828.893-.828.893h-1.572c-1.925.064-3.08.996-3.978 1.254-.898.257-3.048.096-3.593.128-.545.032-.513 1.157-.513 1.157h-4.17l-.802 2.057c-.225 1.286-1.604 1.414-1.604 1.414h-7.786s-1.38-.128-1.604-1.414l-.802-2.057H178s.032-1.125-.514-1.157a6.935 6.935 0 0 0-.39-.004h-.001l-.67.016c-.853.018-1.953.025-2.532-.14-.499-.143-1.076-.494-1.822-.788a6.294 6.294 0 0 0-2.155-.466h-1.572s-.735-.085-.825-.867l-.007-.076V6.39c-.002-.02-.002-.042-.002-.064l-.001-.013c-.007-.131-.028-1.177.995-1.177 0 0 3.593-.353 4.555-.45 0 0 .59-.101 1.497-.266.427-.078.925-.17 1.464-.271h.001l.753-.143h.001c.387-.074.784-.152 1.187-.232 2.07-.412 4.242-.883 5.298-1.24 2.47-.837 2.888-.837 4.844-.837 2.567 0 3.103 0 5.573.836 2.346.793 10.201 2.154 10.201 2.154l4.556.45c.972 0 1 .946.995 1.15M186.942 13.614v.71c0 .02.645.037 1.44.037.795 0 1.44-.016 1.44-.037v-.71h-2.88z"/>
                    <path fill="#D1D1D1" d="M186.766 16.386v1.076c0 .023.723.042 1.616.042.893 0 1.616-.019 1.616-.042v-1.076h-3.232z"/>
                    <path fill="#D1D1D1" d="M186.765 17.2h3.233v-.814h-3.233z"/>
                    <g transform="translate(181.443 15.339)">
                        <mask id="X" fill="#fff">
                            <use xlink:href="#W"/>
                        </mask>
                        <path d="M12.159.233h-.241a.161.161 0 0 0-.069.016l-.813.188h-8.02L2.202.249a.161.161 0 0 0-.068-.016H.24a.166.166 0 0 0 0 .333h1.652l1.455.546h7.356L12.16.566h1.651a.166.166 0 0 0 0-.333H12.16z" mask="url(#X)"/>
                    </g>
                    <g>
                        <path fill="#A8A8A8" d="M195.254 15.572h-1.892a.16.16 0 0 0-.07.016l-.813.188h-8.02l-.813-.188a.162.162 0 0 0-.07-.016h-1.892a.166.166 0 0 0 0 .332h1.653l1.454.547h7.356l1.455-.547h1.652a.166.166 0 0 0 0-.332"/>
                        <path fill="#E5E5E5" d="M193.51 14.67c0 .07-.055.127-.125.127h-9.704a.126.126 0 0 1-.125-.126c0-.07.056-.127.125-.127h9.704c.07 0 .126.057.126.127"/>
                    </g>
                    <g transform="translate(176.18 9.826)">
                        <mask id="aa" fill="#fff">
                            <use xlink:href="#Y"/>
                        </mask>
                        <path fill="url(#Z)" d="M3.761.068H1.82s.072.996-.056 1.848C1.636 2.767.882 4.62.762 5.406c-.12.784-.417 3.098-.41 4.127 0 0-.264 6.54-.232 8.051l-.003.884h1.27s.177-7.007.24-8.389c0 0 .21-3.685.835-5.362.625-1.676 1.01-2.785 1.058-3.476 0 0 0-.627.241-.691h1.812c.119 0 .214-.108.214-.241 0-.134-.095-.241-.214-.241H3.761z" mask="url(#aa)"/>
                    </g>
                    <g>
                        <path fill="#E5E5E5" d="M181.968 10.136c0 .132-.096.24-.214.24h-1.812c-.241.064-.241.69-.241.69-.05.692-.434 1.8-1.059 3.478-.625 1.677-.834 5.362-.834 5.362-.064 1.381-.24 8.388-.24 8.388h-1.27l.003-.884c-.033-1.51.232-8.051.232-8.051-.008-1.029.288-3.343.409-4.127.082-.53.454-1.554.725-2.422.103-.328.19-.633.242-.882.015-.066.026-.127.035-.185.108-.716.075-1.533.062-1.777a2.53 2.53 0 0 1-.006-.072h3.754c.059 0 .113.027.153.072a.254.254 0 0 1 .061.17"/>
                        <path fill="#A8A8A8" d="M176.426 8.749c-.853.018-1.953.025-2.532-.14-.499-.143-1.076-.494-1.822-.789.279-.064 1.013-.217 1.523-.165.642.064 2.855.642 2.855.642s.556.134-.024.452M200.514 8.749c.853.018 1.953.025 2.531-.14.5-.143 1.077-.494 1.823-.789-.279-.064-1.013-.217-1.524-.165-.641.064-2.855.642-2.855.642s-.555.134.025.452"/>
                        <g transform="translate(158 1.438)">
                            <mask id="ac" fill="#fff">
                                <use xlink:href="#ab"/>
                            </mask>
                            <path fill="#A8A8A8" d="M11.852.18v1.613h-1.17C9.061 1.219 3.078.79 2.63.794 2.181.797.881.678.881.678L.644.565 0 .26C.56.196 3.48.437 5.918.15c2.438-.29 5.502 0 5.502 0l.432.03z" mask="url(#ac)"/>
                        </g>
                        <g transform="translate(158 1.438)">
                            <mask id="ae" fill="#fff">
                                <use xlink:href="#ad"/>
                            </mask>
                            <path fill="#D6D6D6" d="M11.852.18v.288A30.423 30.423 0 0 1 9.508.26C7.711.035 5.212.406 4.025.39 3.265.378 1.683.486.645.564L0 .26C.56.196 3.48.437 5.918.15c2.438-.29 5.502 0 5.502 0l.432.03z" mask="url(#ae)"/>
                        </g>
                        <path fill="#E5E5E5" d="M171.863 2.653c-.001-1.385-.639-2.507-1.425-2.507-.787 0-1.424 1.122-1.425 2.507h2.85z"/>
                        <path fill="#000" d="M171.863 2.654c0 .07-.638.128-1.425.128s-1.425-.057-1.425-.128c0-.07.638-.129 1.425-.129s1.425.058 1.425.129"/>
                        <path fill="#666565" d="M170.438 2.62c-.445 0-.805.027-.805.061v.263h1.61V2.68c0-.034-.361-.061-.805-.061"/>
                        <path fill="#D1D1D1" d="M172.504 5.03c0 .071-.057.129-.128.129h-3.881a.129.129 0 0 1-.129-.129V3.584c0-.071.057-.129.129-.129h3.881c.071 0 .128.058.128.13V5.03z"/>
                        <path fill="#A8A8A8" d="M170.911 3.522l1.593-.013-.342-.621h-3.453l-.343.621 1.593.013v.009l.476-.004.476.004z"/>
                        <path fill="#DDD" d="M170.06 2.197s.728.17 1.182.744c.455.575 1.802.124 2.059.075.257-.048 5.245-.835 8.581-.82l1.043-.337V1.7s-8.87-.274-10.987-.145c0 0-.273.032-.53-.322 0 0-.802.274-1.347.965"/>
                        <path fill="#FFF" d="M181.907 9.967H178v-.073h3.754c.059 0 .113.027.153.073"/>
                        <path fill="#414042" d="M182.185 9.93H178v-.072h4.17z"/>
                    </g>
                    <g transform="translate(181.204 13.182)">
                        <mask id="ag" fill="#fff">
                            <use xlink:href="#af"/>
                        </mask>
                        <path d="M.432.183a.289.289 0 0 0 0 .58h13.495a.29.29 0 0 0 0-.58H.432z" mask="url(#ag)"/>
                    </g>
                    <g>
                        <path fill="#D1D1D1" d="M195.42 13.655c0 .16-.13.289-.29.289h-13.494a.289.289 0 0 1 0-.579h13.495c.159 0 .288.13.288.29"/>
                        <path fill="#E5E5E5" d="M181.866 14.332h1.53v-.388h-1.53zM181.866 15.509h1.53v-.389h-1.53z"/>
                        <path fill="#414042" d="M183.556 14.4c0 .08-.065.146-.145.146h-1.561a.145.145 0 0 1-.144-.146c0-.08.064-.146.144-.146h1.561c.08 0 .145.066.145.146M181.706 15.052c0-.08.064-.146.144-.146h1.561c.08 0 .145.065.145.146 0 .08-.065.145-.145.145h-1.56a.145.145 0 0 1-.145-.145"/>
                        <path fill="#D1D1D1" d="M183.743 14.699a.284.284 0 0 1-.284.284h-1.657a.284.284 0 0 1 0-.568h1.657c.157 0 .284.128.284.284"/>
                        <path fill="#E5E5E5" d="M193.462 14.332h1.53v-.388h-1.53zM193.463 15.509h1.53v-.389h-1.53z"/>
                        <path fill="#414042" d="M195.152 14.4c0 .08-.064.146-.144.146h-1.561a.145.145 0 0 1-.145-.146c0-.08.065-.146.145-.146h1.561c.08 0 .144.066.144.146M193.302 15.052c0-.08.065-.146.145-.146h1.56c.08 0 .145.065.145.146 0 .08-.064.145-.144.145h-1.561a.145.145 0 0 1-.145-.145"/>
                        <path fill="#D1D1D1" d="M195.34 14.699a.283.283 0 0 1-.284.284h-1.658a.284.284 0 0 1 0-.568h1.658c.157 0 .283.128.283.284"/>
                        <path fill="#FFF" d="M182.18 5.379a4.048 4.048 0 0 0-.373-.832.143.143 0 0 0-.205-.048.155.155 0 0 0-.046.206c.021.036.04.074.06.11a.11.11 0 0 0 .014.045c.098.167.18.35.241.548l.007.013.025.071c.025.083.107.132.185.103.078-.028.121-.127.092-.216"/>
                        <path fill="#C5C5C5" d="M182.088 5.515c-.078.028-.16-.02-.185-.104a3.775 3.775 0 0 0-.347-.786.155.155 0 0 1 .046-.207.142.142 0 0 1 .205.048c.15.254.277.532.373.832.03.09-.014.188-.092.217"/>
                        <path fill="#414042" d="M182.002 5.4c-.055.02-.112-.015-.13-.072a2.598 2.598 0 0 0-.242-.548.108.108 0 0 1 .032-.144.1.1 0 0 1 .143.033c.106.177.194.37.261.58.02.062-.01.13-.064.15"/>
                        <path fill="#FFF" d="M182.751 5.378a4.852 4.852 0 0 0-.45-1 .171.171 0 0 0-.245-.059.187.187 0 0 0-.056.249c.026.043.049.088.073.132a.125.125 0 0 0 .016.054c.118.2.217.421.29.659.002.006.007.01.01.016.008.029.02.056.028.085.031.1.13.159.223.124.094-.034.146-.153.111-.26"/>
                        <path fill="#C5C5C5" d="M182.64 5.558c-.094.034-.192-.025-.223-.125a4.494 4.494 0 0 0-.417-.946.187.187 0 0 1 .056-.249.171.171 0 0 1 .246.058c.181.305.334.64.45 1.001.034.107-.018.226-.112.26"/>
                        <path fill="#414042" d="M182.535 5.419c-.065.024-.134-.017-.155-.087a3.15 3.15 0 0 0-.29-.659.13.13 0 0 1 .038-.173.12.12 0 0 1 .171.04c.127.213.233.446.313.697.024.075-.012.158-.077.182"/>
                        <path fill="#FFF" d="M183.441 5.344a5.733 5.733 0 0 0-.532-1.183.202.202 0 0 0-.29-.069.22.22 0 0 0-.066.294c.03.051.058.104.086.157a.154.154 0 0 0 .02.064c.139.237.255.498.343.78.002.006.007.012.01.019.011.033.024.065.034.1.037.118.153.187.264.147.11-.04.172-.182.131-.309"/>
                        <path fill="#C5C5C5" d="M183.31 5.572c-.111.04-.227-.029-.264-.147a5.337 5.337 0 0 0-.493-1.12.22.22 0 0 1 .065-.293.202.202 0 0 1 .291.068c.215.361.396.757.532 1.184.04.126-.02.268-.131.308"/>
                        <path fill="#414042" d="M183.185 5.408c-.077.028-.158-.02-.183-.103a3.72 3.72 0 0 0-.344-.779.154.154 0 0 1 .046-.205.14.14 0 0 1 .202.048c.15.251.276.527.37.824.029.088-.013.187-.09.215"/>
                        <path fill="#FFF" d="M184.207 5.347a6.591 6.591 0 0 0-.585-1.374.233.233 0 0 0-.333-.085.254.254 0 0 0-.082.337c.033.059.064.12.095.182.002.025.008.05.021.073.155.276.283.58.377.905a.18.18 0 0 0 .017.04l.032.098c.04.137.171.22.3.175.128-.044.202-.205.158-.351"/>
                        <path fill="#C5C5C5" d="M184.049 5.617c-.129.045-.26-.038-.3-.175a6.122 6.122 0 0 0-.542-1.298.254.254 0 0 1 .082-.337.233.233 0 0 1 .333.086c.239.42.437.88.585 1.373.044.146-.03.307-.158.351"/>
                        <path fill="#414042" d="M183.91 5.426c-.09.03-.182-.027-.21-.122a4.273 4.273 0 0 0-.377-.904.177.177 0 0 1 .057-.235.162.162 0 0 1 .232.06c.166.292.305.612.407.956.03.102-.02.214-.11.245"/>
                    </g>
                    <g transform="translate(194.84 9.826)">
                        <mask id="aj" fill="#fff">
                            <use xlink:href="#ah"/>
                        </mask>
                        <path fill="url(#ai)" d="M3.74.068H.276c-.118 0-.214.107-.214.24 0 .134.096.242.214.242h1.812c.24.064.24.691.24.691.049.69.434 1.8 1.06 3.476.625 1.677.833 5.362.833 5.362.064 1.382.24 8.389.24 8.389h1.27l-.002-.884c.032-1.51-.233-8.051-.233-8.051.008-1.029-.288-3.343-.408-4.127-.12-.785-.874-2.639-1.003-3.49-.128-.852-.056-1.848-.056-1.848H3.74z" mask="url(#aj)"/>
                    </g>
                    <g>
                        <path fill="#E5E5E5" d="M194.9 10.136c0 .132.097.24.215.24h1.812c.241.064.241.69.241.69.049.692.434 1.8 1.058 3.478.625 1.677.835 5.362.835 5.362.064 1.381.24 8.388.24 8.388h1.27l-.003-.884c.032-1.51-.232-8.051-.232-8.051.008-1.029-.288-3.343-.41-4.127-.081-.53-.454-1.554-.724-2.422-.103-.328-.19-.633-.243-.882a3.193 3.193 0 0 1-.035-.185c-.107-.716-.074-1.533-.061-1.777l.005-.072h-3.753a.203.203 0 0 0-.153.072.255.255 0 0 0-.061.17"/>
                        <g transform="translate(206.8 1.438)">
                            <mask id="al" fill="#fff">
                                <use xlink:href="#ak"/>
                            </mask>
                            <path fill="#A8A8A8" d="M.216.18v1.613h1.171C3.007 1.219 8.99.79 9.44.794c.449.003 1.748-.116 1.748-.116l.237-.113.645-.305C11.509.196 8.589.437 6.15.15c-2.438-.29-5.502 0-5.502 0l-.433.03z" mask="url(#al)"/>
                        </g>
                        <g transform="translate(206.8 1.438)">
                            <mask id="an" fill="#fff">
                                <use xlink:href="#am"/>
                            </mask>
                            <path fill="#D6D6D6" d="M.216.18v.288A30.423 30.423 0 0 0 2.561.26C4.358.035 6.857.406 8.044.39c.76-.011 2.341.097 3.38.175L12.07.26C11.509.196 8.589.437 6.15.15c-2.438-.29-5.502 0-5.502 0l-.433.03z" mask="url(#an)"/>
                        </g>
                        <path fill="#E5E5E5" d="M205.006 2.653c0-1.385.639-2.507 1.425-2.507s1.424 1.122 1.425 2.507h-2.85z"/>
                        <path fill="#000" d="M205.006 2.654c0 .07.638.128 1.425.128s1.425-.057 1.425-.128c0-.07-.638-.129-1.425-.129s-1.425.058-1.425.129"/>
                        <path fill="#666565" d="M206.431 2.62c.444 0 .805.027.805.061v.263h-1.61V2.68c0-.034.36-.061.805-.061"/>
                        <path fill="#D1D1D1" d="M204.364 5.03c0 .071.058.129.129.129h3.881c.071 0 .129-.058.129-.129V3.584a.128.128 0 0 0-.129-.129h-3.881a.128.128 0 0 0-.129.13V5.03z"/>
                        <path fill="#A8A8A8" d="M205.958 3.522l-1.594-.013.342-.621H208.16l.343.621-1.594.013v.009l-.476-.004-.475.004z"/>
                        <path fill="#DDD" d="M206.808 2.197s-.727.17-1.182.744c-.455.575-1.802.124-2.058.075-.257-.048-5.245-.835-8.581-.82l-1.043-.337V1.7s8.87-.274 10.987-.145c0 0 .273.032.53-.322 0 0 .801.274 1.347.965"/>
                        <path fill="#FFF" d="M194.962 9.967h3.906v-.073h-3.753a.203.203 0 0 0-.153.073"/>
                        <path fill="#414042" d="M194.684 9.93h4.184v-.072h-4.17z"/>
                        <path fill="#FFF" d="M194.688 5.379c.096-.3.223-.578.374-.832a.143.143 0 0 1 .205-.048.155.155 0 0 1 .046.206l-.061.11a.102.102 0 0 1-.013.045c-.098.167-.18.35-.242.548-.001.005-.004.009-.007.013-.008.024-.017.047-.024.071-.026.083-.107.132-.185.103-.078-.028-.121-.127-.093-.216"/>
                        <path fill="#C5C5C5" d="M194.78 5.515c.079.028.16-.02.186-.104.088-.284.206-.547.347-.786a.155.155 0 0 0-.046-.207.142.142 0 0 0-.205.048c-.15.254-.278.532-.374.832-.028.09.015.188.093.217"/>
                        <path fill="#414042" d="M194.868 5.4c.055.02.112-.015.13-.072.062-.198.144-.382.242-.548a.109.109 0 0 0-.032-.144.1.1 0 0 0-.143.033 2.814 2.814 0 0 0-.261.58c-.02.062.01.13.064.15"/>
                        <path fill="#FFF" d="M194.118 5.378c.115-.36.267-.696.449-1a.171.171 0 0 1 .246-.059.187.187 0 0 1 .055.249c-.025.043-.048.088-.073.132a.125.125 0 0 1-.016.054c-.117.2-.216.421-.29.659l-.008.016-.03.085c-.03.1-.129.159-.223.124-.093-.034-.145-.153-.11-.26"/>
                        <path fill="#C5C5C5" d="M194.228 5.558c.094.034.192-.025.223-.125.107-.341.248-.658.417-.946a.187.187 0 0 0-.055-.249.171.171 0 0 0-.246.058c-.182.305-.334.64-.45 1.001-.034.107.018.226.111.26"/>
                        <path fill="#414042" d="M194.334 5.419c.065.024.133-.017.155-.087.074-.237.173-.458.29-.659a.13.13 0 0 0-.038-.173.119.119 0 0 0-.171.04 3.364 3.364 0 0 0-.314.697c-.024.075.012.158.078.182"/>
                        <path fill="#FFF" d="M193.427 5.344a5.72 5.72 0 0 1 .532-1.183.202.202 0 0 1 .291-.069.221.221 0 0 1 .066.294c-.03.051-.058.104-.086.157a.154.154 0 0 1-.02.064c-.139.237-.256.498-.343.78-.002.006-.007.012-.01.019-.011.033-.024.065-.034.1-.037.118-.153.187-.264.147-.111-.04-.172-.182-.132-.309"/>
                        <path fill="#C5C5C5" d="M193.559 5.572c.111.04.227-.029.264-.147.125-.404.292-.779.493-1.12a.221.221 0 0 0-.066-.293.202.202 0 0 0-.29.068c-.216.361-.396.757-.533 1.184-.04.126.02.268.132.308"/>
                        <path fill="#414042" d="M193.683 5.408c.078.028.158-.02.184-.103a3.72 3.72 0 0 1 .343-.779.154.154 0 0 0-.045-.205.14.14 0 0 0-.203.048c-.15.251-.275.527-.37.824-.028.088.014.187.091.215"/>
                        <path fill="#FFF" d="M192.662 5.347c.148-.494.346-.954.585-1.374a.233.233 0 0 1 .333-.085c.112.074.147.22.082.337-.034.059-.064.12-.096.182a.176.176 0 0 1-.02.074 4.27 4.27 0 0 0-.378.904.192.192 0 0 1-.016.04l-.032.098c-.04.137-.171.22-.3.175-.129-.044-.202-.205-.158-.351"/>
                        <path fill="#C5C5C5" d="M192.82 5.617c.129.045.26-.038.3-.175.135-.467.32-.902.542-1.298a.254.254 0 0 0-.082-.337.234.234 0 0 0-.333.086c-.239.42-.437.88-.585 1.373-.044.146.03.307.158.351"/>
                        <path fill="#414042" d="M192.96 5.426c.089.03.18-.027.208-.122.095-.325.223-.628.378-.904a.177.177 0 0 0-.057-.235.162.162 0 0 0-.232.06 4.608 4.608 0 0 0-.408.956c-.03.102.02.214.11.245"/>
                        <path fill="#FFF" d="M209.428 6.365c-1.578.044-4.548.016-6.176.002-.502-.004-.883-.008-1.064-.008l-6.026.011c-3.528.008-7.53.017-8.17.017l-1.81-.006c-3.617-.014-11.146-.046-12.834.006-1.745.055-4.835.02-5.835.004v.02l.007.079c.603.007 1.944.023 3.297.023.913 0 1.831-.007 2.533-.028 1.686-.052 9.215-.021 12.832-.007l1.81.007c.642 0 4.642-.01 8.17-.017 2.96-.007 5.663-.012 6.026-.012.181 0 .56.004 1.064.008 1.626.014 4.59.042 6.17-.002.003-.024.004-.05.006-.077v-.02z"/>
                        <path fill="#414042" d="M209.428 6.366l.001-.039.001-.039c-1.575.044-4.548.017-6.178.003-.502-.006-.883-.01-1.064-.01l-6.026.014c-3.528.007-7.53.015-8.17.015l-1.81-.005c-3.617-.015-11.146-.045-12.834.005-1.747.055-4.843.018-5.838.004v.013c0 .022 0 .044.003.065v.02c.6.01 1.945.025 3.304.025.913 0 1.831-.008 2.533-.028 1.686-.052 9.215-.023 12.832-.007l1.81.007c.642 0 4.642-.01 8.17-.017l6.026-.013c.181 0 .56.004 1.064.009 1.627.014 4.595.041 6.176-.003v-.02z"/>
                        <path fill="#FF7517" d="M177.401 6.69c-.02.9-.812.804-1.325.762-.513-.043-.31-.579-.31-.579s.203-.557-.118-1.543c-.192-.592-.71-.821-1.092-.909l1.465-.27c1.47.408 1.4 1.737 1.38 2.54"/>
                        <path fill="#FF7517" d="M179.98 6.567c-.017.719-.445.917-1.098.91-.652-.006-.582-.352-.529-.856.054-.504-.032-1.237-.39-1.944-.223-.442-.793-.608-1.187-.67.387-.074.785-.152 1.187-.232 2.048-.02 2.031 2.075 2.016 2.792M199.467 6.69c.021.9.813.804 1.326.762.513-.043.31-.579.31-.579s-.204-.557.117-1.543c.193-.592.711-.821 1.092-.909l-1.464-.27h-.001c-1.47.408-1.399 1.737-1.38 2.54"/>
                        <path fill="#FF7517" d="M196.89 6.567c.016.719.443.917 1.097.91.651-.006.582-.352.529-.856-.055-.504.031-1.237.39-1.944.223-.442.792-.608 1.186-.67-.386-.074-.784-.152-1.187-.232-2.047-.02-2.03 2.075-2.015 2.792"/>
                    </g>
                </g>
            </g>
        </g>
    </g>
</svg>