<?xml version="1.0" encoding="UTF-8"?>
<svg width="16px" height="16px" viewBox="0 0 16 16" version="1.1" xmlns="http://www.w3.org/2000/svg" xmlns:xlink="http://www.w3.org/1999/xlink">
    <!-- Generator: Sketch 52.3 (67297) - http://www.bohemiancoding.com/sketch -->
    <title>Shape</title>
    <desc>Created with Sketch.</desc>
    <g id="Page-1" stroke="none" stroke-width="1" fill="none" fill-rule="evenodd">
        <g id="ios-build" fill="#FFFFFF" fill-rule="nonzero">
            <path d="M15.1200952,3.19615385 L13.3932003,4.93076923 C13.3585855,4.96538462 13.3047403,4.98076923 13.2585872,4.97307692 L11.4740009,4.65 C11.4124635,4.63846154 11.3624643,4.58846154 11.350926,4.52692308 L11.0317005,2.74230769 C11.0240083,2.69230769 11.0393927,2.64230769 11.0740075,2.60769231 L12.7970562,0.876923077 C12.9316694,0.742307692 12.912439,0.519230769 12.7585953,0.411538462 C12.3701401,0.134615385 11.9086092,0 11.5355384,0 C11.5086158,0 11.4816931,0 11.4586166,0.00384615385 C10.9778552,0.0307692308 9.94710281,0.3 9.15096197,1.14615385 C8.37789768,1.96153846 7.57021857,3.47692308 8.2855915,5.16538462 C8.3702055,5.36923077 8.46635778,5.63846154 8.18174704,5.92307692 C7.88944413,6.20769231 0.501103317,13.1653846 0.501103317,13.1653846 C-0.191193063,13.7615385 -0.14119388,14.8653846 0.497257226,15.5076923 C0.824174961,15.8307692 1.26647543,16 1.70108371,16 C2.12799981,16 2.54337764,15.8384615 2.83952664,15.4961538 C2.83952664,15.4961538 9.7394139,8.14615385 10.0778699,7.81153846 C10.2317135,7.66153846 10.3740189,7.61538462 10.504786,7.61538462 C10.631707,7.61538462 10.7470897,7.66153846 10.8355498,7.70769231 C11.2163128,7.90384615 11.6432289,7.99230769 12.0816833,7.99230769 C13.1124357,7.99230769 14.1970334,7.51538462 14.858561,6.85384615 C15.7970072,5.91538462 15.9700813,5.00769231 15.997004,4.54230769 C16.0200805,4.16153846 15.9123899,3.67307692 15.5854722,3.22692308 C15.4739356,3.08076923 15.2547084,3.06538462 15.1200952,3.19615385 Z M2.09723108,14.6653846 C1.88569608,14.8730769 1.54339398,14.8730769 1.33185897,14.6653846 C1.12417006,14.4538462 1.12417006,14.1115385 1.33185897,13.9 C1.54339398,13.6923077 1.88569608,13.6923077 2.09723108,13.9 C2.30492,14.1153846 2.30492,14.4576923 2.09723108,14.6653846 Z" id="Shape"></path>
        </g>
    </g>
</svg>