<?xml version="1.0" encoding="UTF-8"?>
<svg width="226px" height="107px" viewBox="0 0 226 107" version="1.1" xmlns="http://www.w3.org/2000/svg" xmlns:xlink="http://www.w3.org/1999/xlink">
    <!-- Generator: Sketch 52.3 (67297) - http://www.bohemiancoding.com/sketch -->
    <title>buns_upper</title>
    <desc>Created with Sketch.</desc>
    <g id="Page-1" stroke="none" stroke-width="1" fill="none" fill-rule="evenodd">
        <g id="buns_upper">
            <path d="M220.4,58.2 C218.7,51.3 215.9,44.7 212.3,38.6 C205.7,27.5 195.3,20 183.7,14.6 C171.3,8.9 157.7,5.9 144.2,4.2 C136.4,3.3 128.6,2.8 120.7,2.8 C117.9,2.8 115.1,2.8 112.3,2.7 C85.9,5.3 59.3,8.1 36.3,22.6 C15.2,35.9 1,59.1 4,84.6 C4.1,85.1 7.4,92.8 11.2,95.3 C17.4,99.4 24.5,99.8 31.7,100 C30,98.8 28.4,97.4 27.1,95.8 C26.8,95.5 26.8,95 27.1,94.6 C27.4,94.3 27.9,94.3 28.3,94.6 C31.1,97.1 34.3,99 37.9,100.2 C41.7,101.4 45.7,102.1 49.6,102.3 C47.7,100.4 46.4,97.9 45.9,95.2 C45.8,95 46,94.8 46.1,94.8 C46.2,94.8 46.5,94.9 46.6,95 C47.7,98.5 50.1,100.6 53,102.4 C53.8,102.4 54.7,102.4 55.5,102.4 C53.6,101 52,99.2 50.7,97.2 C50.4,96.7 51.2,96.2 51.6,96.7 C53.6,99.7 56.3,101 59.4,102.3 C64.9,102.1 70.4,101.7 75.5,101.8 C92,102.2 109.4,104.2 125.2,98.5 C125.7,98.3 126.1,99.2 125.6,99.4 C123.3,100.4 120.9,101.3 118.4,102 C128.5,102.8 138.5,103.8 148.8,103.1 C156.8,102.5 164.7,101.3 172.5,99.3 C172.5,99.3 172.5,99.2 172.5,99.2 C174.5,96.3 175.9,93 176.7,89.5 C176.8,89.3 177,89.2 177.2,89.2 C177.4,89.2 177.6,89.4 177.6,89.6 C177.5,93.1 176,96.5 173.5,99 C177.5,98 181.5,96.8 185.5,95.5 C186.6,95.1 187,96.8 186,97.3 C185,97.8 183.8,98.2 182.6,98.6 C185.5,98.7 188.5,98.7 191.4,98.6 C193.6,96.8 195.5,94.9 197.3,92.7 C197.4,92.5 197.7,92.4 197.9,92.6 C198.1,92.7 198.2,93 198,93.2 C197,95.1 195.7,96.9 194.2,98.5 L196.1,98.3 C198.6,96 200.9,93.8 202.6,90.7 C202.7,90.4 203.2,90.6 203.1,90.9 C202.1,93.5 200.7,95.9 198.9,98 C199.9,97.9 200.9,97.7 202,97.5 C204.6,94.8 206.5,91.4 207.4,87.7 C207.4,87.5 207.6,87.4 207.8,87.4 C208,87.4 208.1,87.6 208.1,87.7 C208,91.1 206.7,94.4 204.4,96.9 C206.5,96.4 208.6,95.8 210.6,95.1 C216.5,93 220.7,89.4 222.4,83.2 C223.5,79 223.4,74.8 223.3,70.5 C222.2,66.4 221.4,62.3 220.4,58.2 Z M6,73.5 C5.7,69.1 7.2,65.5 9.9,62.1 C10.1,61.8 10.7,62.2 10.5,62.5 C8.6,65.9 7.4,69.6 7.1,73.5 C7,73.8 6.8,74 6.5,74 C6.2,74 6,73.8 6,73.5 Z M8.2,80 C8.2,80.5 7.4,80.6 7.3,80.1 C6.6,75.6 8,71.8 11,68.5 C11.2,68.3 11.4,68.3 11.6,68.5 C11.8,68.6 11.8,68.9 11.7,69.1 C9.7,72.3 8.5,76.1 8.2,80 Z M12.2,78.1 C11.7,79.9 11.5,81.7 11.6,83.6 C11.6,84 11.3,84.3 10.9,84.3 C10.5,84.3 10.2,84 10.2,83.6 C10.3,81.6 10.7,79.7 11.4,77.9 C11.6,77.4 12.3,77.6 12.2,78.1 Z M17.6,94 C15,89.7 14.4,85.6 16.2,80.8 C16.3,80.6 16.5,80.5 16.7,80.6 C16.9,80.7 17,80.9 17,81.1 C16,85.3 16.4,89.8 18,93.8 C18.2,94 17.7,94.3 17.6,94 Z M20.9,92.5 C19.6,90 19.3,87.1 19.9,84.4 C20,83.9 20.8,84.1 20.7,84.6 C20.4,87.1 20.9,89.6 22.1,91.8 C22.3,92.6 21.3,93.2 20.9,92.5 Z M29.5,92.1 C27.1,90 27,86.1 28.3,83.3 C28.5,82.9 29,83.2 29,83.6 C28.5,86.6 29.4,88.7 30.6,91.3 C30.7,91.6 30.7,91.9 30.4,92.1 C30.1,92.3 29.8,92.3 29.5,92.1 Z M38.3,97.1 C35.3,94.9 33.7,91.4 34,87.7 C34,87.5 34.2,87.3 34.4,87.3 C34.6,87.3 34.8,87.5 34.8,87.7 C34.9,91.1 36.7,93.7 39.3,95.8 C40,96.4 39.1,97.6 38.3,97.1 Z M136,100.2 C135.4,100.6 134.9,99.6 135.4,99.3 C136.1,98.9 136.7,98.4 137.3,97.9 C137.9,97.4 138.4,96.8 138.9,96.3 C139,96.2 139.2,96.2 139.3,96.3 C139.4,96.4 139.4,96.6 139.3,96.7 C138.7,98.1 137.5,99.4 136,100.2 Z M146,92.6 C145,95.8 142.9,100 139.5,101.2 C139.2,101.3 138.8,101.1 138.6,100.8 C138.4,100.5 138.5,100.1 138.7,99.9 C139.9,98.8 141.3,98.1 142.4,97 C143.7,95.7 144.7,94.2 145.3,92.5 C145.4,92 146.1,92.1 146,92.6 Z M152.6,92.1 C151.8,94.2 150.5,96.2 149,97.9 C148.5,98.4 147.6,97.7 148.1,97.2 C149.5,95.5 150.8,93.7 152,91.8 C152.1,91.2 152.7,91.7 152.6,92.1 Z M162.3,96.8 C161.9,97.3 161.1,96.5 161.6,96.1 C162.3,95.5 162.8,94.7 163.1,93.8 C163.1,93.7 163.3,93.6 163.4,93.6 C163.5,93.6 163.6,93.8 163.6,93.9 C163.4,95 163,95.9 162.3,96.8 Z M166.4,99.6 C166,99.9 165.5,99.3 165.9,99 C168.2,96.8 169.9,94 170.7,90.9 C170.7,90.8 170.9,90.7 171,90.7 C171.1,90.7 171.2,90.8 171.2,90.9 C171.2,94.6 169.2,97.6 166.4,99.6 Z M211.4,91.2 C211,91.7 210.3,91.1 210.6,90.6 C211.5,89.1 212.1,87.4 212.4,85.6 C212.4,85.4 212.6,85.3 212.7,85.3 C212.8,85.3 213,85.5 213,85.6 C213.3,87.6 212.7,89.6 211.4,91.2 Z" id="Shape_32_" fill="#FCB641" fill-rule="nonzero"></path>
            <path d="M151.1,12.9 C124.4,7.2 94.7,9.6 68.9,18.4 C47.2,25.9 26.9,39.9 14.7,59.7 C14.5,60 14.9,60.3 15.1,60 C30.5,43 50.1,31.4 71.8,24.3 C97.6,16 124,17 150.7,16.2 C152.5,16.1 153.1,13.3 151.1,12.9 Z" id="Path_84_" fill="#FFFFFF"></path>
            <path d="M185.8,97.3 C184.7,97.8 183.6,98.2 182.4,98.6 C185.3,98.7 188.3,98.7 191.2,98.6 C193.4,96.8 195.3,94.9 197.1,92.7 C197.2,92.5 197.5,92.4 197.7,92.6 C197.9,92.7 198,93 197.8,93.2 C196.8,95.1 195.5,96.9 194,98.5 L195.9,98.3 C198.4,96 200.8,93.8 202.4,90.7 C202.5,90.4 203,90.6 202.9,90.9 C201.9,93.5 200.5,95.9 198.7,98 C199.7,97.9 200.7,97.7 201.8,97.5 C204.4,94.8 206.3,91.4 207.2,87.7 C207.2,87.5 207.4,87.4 207.6,87.4 C207.8,87.4 207.9,87.6 207.9,87.7 C207.8,91.1 206.5,94.4 204.2,96.9 C206.3,96.4 208.4,95.8 210.4,95.1 C216.3,93 220.5,89.4 222.2,83.2 C223.3,79 223.2,74.8 223.1,70.5 C222.3,66.4 221.6,62.3 220.6,58.2 C218.9,51.3 216.1,44.7 212.5,38.6 C205.9,27.5 195.5,20 183.9,14.6 C182.2,13.8 180.5,13.1 178.7,12.4 C180,13.6 181.2,14.9 182.3,16.2 C203.7,42.2 186.1,67.3 158.4,77.3 C126.4,88.8 90.1,90.6 56.4,88.2 C47.2,87.5 38.1,86.2 29.1,84.2 C28.8,86.8 29.7,88.9 30.7,91.3 C30.9,91.6 30.8,91.9 30.6,92.1 C30.3,92.3 30,92.3 29.7,92 C27.5,90 27.2,86.6 28.2,83.9 C26.9,83.6 25.6,83.3 24.3,83 C22,82.5 19.5,82 17.1,81.6 C16.3,85.6 16.7,89.8 18.2,93.7 C18.3,94 17.9,94.3 17.7,94 C15.2,89.9 14.5,85.9 16.1,81.4 C14.7,81.1 13.3,80.7 11.9,80.3 C11.8,81.4 11.7,82.5 11.7,83.6 C11.7,84 11.4,84.3 11,84.3 C10.6,84.3 10.3,84 10.3,83.6 C10.3,82.4 10.5,81.1 10.8,79.9 C10,79.6 9.2,79.2 8.4,78.8 C8.4,79.2 8.3,79.6 8.3,80 C8.3,80.4 7.5,80.6 7.4,80.1 C7.3,79.4 7.2,78.8 7.2,78.1 C5.7,77 4.5,75.5 3.8,73.7 C3.5,77.4 3.6,81 4,84.6 C4.1,85.1 7.4,92.8 11.2,95.3 C17.4,99.4 24.5,99.8 31.7,100 C30,98.8 28.4,97.4 27.1,95.8 C26.8,95.5 26.8,95 27.1,94.6 C27.4,94.3 27.9,94.3 28.3,94.6 C31.1,97.1 34.3,99 37.9,100.2 C41.7,101.4 45.7,102.1 49.6,102.3 C47.7,100.4 46.4,97.9 45.9,95.2 C45.8,95 46,94.8 46.1,94.7 C46.3,94.6 46.5,94.8 46.6,94.9 C47.7,98.4 50.1,100.5 53,102.3 C53.8,102.3 54.7,102.3 55.5,102.3 C53.6,100.9 52,99.1 50.7,97.1 C50.4,96.6 51.2,96.1 51.5,96.6 C53.5,99.6 56.2,100.9 59.3,102.2 C64.8,102 70.3,101.6 75.4,101.7 C91.9,102.1 109.3,104.2 125.1,98.4 C125.6,98.2 126,99.1 125.5,99.3 C123.2,100.3 120.8,101.2 118.3,101.9 C128.4,102.7 138.4,103.7 148.7,103 C156.7,102.4 164.6,101.1 172.4,99.1 C172.4,99.1 172.4,99 172.4,99 C174.4,96.1 175.8,92.8 176.6,89.3 C176.7,89.1 176.9,89 177.1,89 C177.3,89 177.5,89.2 177.5,89.4 C177.4,92.9 175.9,96.3 173.4,98.8 C177.4,97.8 181.4,96.6 185.4,95.3 C186.4,95.1 186.9,96.8 185.8,97.3 Z M210.6,90.6 C211.5,89.1 212.1,87.4 212.4,85.6 C212.4,85.4 212.6,85.3 212.7,85.3 C212.8,85.3 213,85.5 213,85.6 C213.1,87.6 212.5,89.6 211.3,91.2 C211,91.7 210.3,91.1 210.6,90.6 Z M20.9,92.6 C19.6,90.1 19.3,87.2 19.9,84.5 C20,84 20.8,84.2 20.7,84.7 C20.4,87.2 20.9,89.7 22.1,91.9 C22.3,92.6 21.3,93.2 20.9,92.6 Z M38.3,97.1 C35.3,94.9 33.7,91.4 34,87.7 C34,87.5 34.2,87.3 34.4,87.3 C34.6,87.3 34.8,87.5 34.8,87.7 C34.9,91.1 36.7,93.7 39.3,95.8 C40,96.4 39.1,97.6 38.3,97.1 Z M136,100.2 C135.4,100.6 134.9,99.6 135.4,99.3 C136.1,98.9 136.7,98.4 137.3,97.9 C137.9,97.4 138.4,96.8 138.9,96.3 C139,96.2 139.2,96.2 139.3,96.3 C139.4,96.4 139.4,96.6 139.3,96.7 C138.7,98.1 137.5,99.4 136,100.2 Z M146,92.6 C145,95.8 142.9,100 139.5,101.2 C139.2,101.3 138.8,101.1 138.6,100.8 C138.4,100.5 138.5,100.1 138.7,99.9 C139.9,98.8 141.3,98.1 142.4,97 C143.7,95.7 144.7,94.2 145.3,92.5 C145.4,92 146.1,92.1 146,92.6 Z M152.6,92.2 C151.8,94.3 150.5,96.3 149,98 C148.5,98.5 147.6,97.8 148.1,97.3 C149.5,95.6 150.8,93.8 152,91.9 C152.1,91.2 152.7,91.7 152.6,92.2 Z M162.3,96.8 C161.9,97.3 161.1,96.5 161.6,96.1 C162.3,95.5 162.8,94.7 163.1,93.8 C163.1,93.7 163.3,93.6 163.4,93.6 C163.5,93.6 163.6,93.8 163.6,93.9 C163.4,95 163,96 162.3,96.8 Z M166.4,99.7 C166,100 165.5,99.4 165.9,99.1 C168.2,96.9 169.9,94.1 170.7,91 C170.7,90.9 170.9,90.8 171,90.8 C171.1,90.8 171.2,90.9 171.2,91 C171.2,94.6 169.2,97.6 166.4,99.7 Z" id="Shape_33_" fill="#E8940F" fill-rule="nonzero"></path>
            <path d="M194,98.3 L195.9,98.1 C198.4,95.8 200.8,93.6 202.4,90.5 C202.5,90.2 203,90.4 202.9,90.7 C201.9,93.3 200.5,95.7 198.7,97.8 C199.7,97.7 200.7,97.5 201.8,97.3 C204.4,94.6 206.3,91.2 207.2,87.5 C207.2,87.3 207.4,87.2 207.6,87.2 C207.8,87.2 207.9,87.4 207.9,87.5 C207.8,90.9 206.5,94.2 204.2,96.7 C206.3,96.2 208.4,95.6 210.4,94.9 C216.3,92.8 220.5,89.2 222.2,83 C223.3,78.8 223.2,74.6 223.1,70.3 C222.3,66.2 221.6,62.1 220.6,58 C218.9,51.1 216.1,44.5 212.5,38.4 C210.3,34.7 207.6,31.3 204.5,28.2 C204.7,28.8 204.9,29.3 205.2,29.9 C211.7,43.7 215.7,57.2 213.2,74.3 C210.7,91.4 196.1,83.8 181.2,87.4 C174.8,89 163.1,91.5 151.8,93.9 C151.1,95.3 150.2,96.6 149.1,97.7 C148.6,98.2 147.7,97.5 148.2,97 C148.9,96 149.6,95.1 150.3,94.2 L145,95.3 C143.8,97.8 142.1,100.2 139.6,101 C139.3,101.1 138.9,100.9 138.7,100.6 C138.5,100.3 138.6,99.9 138.8,99.7 C140,98.6 141.4,97.9 142.5,96.8 C142.9,96.4 143.2,96 143.5,95.6 L139.5,96.4 C138.7,97.9 137.5,99.1 136.1,100 C135.5,100.4 135,99.4 135.5,99.1 C136.2,98.7 136.8,98.2 137.4,97.7 C137.8,97.4 138.1,97 138.5,96.7 C133.1,97.8 128.4,98.8 125.2,99.5 C124.1,100 122.9,100.4 121.8,100.8 L125.3,102.4 C133.1,103.2 141,103.3 148.8,102.9 C156.8,102.3 164.7,101 172.4,99 C172.4,99 172.4,98.9 172.4,98.9 C174.4,96 175.8,92.7 176.6,89.2 C176.7,89 176.9,88.9 177.1,88.9 C177.3,88.9 177.5,89.1 177.5,89.3 C177.4,92.8 175.9,96.2 173.4,98.7 C177.4,97.7 181.4,96.5 185.4,95.2 C186.5,94.8 186.9,96.5 185.9,97 C184.9,97.5 183.7,97.9 182.5,98.3 C185.4,98.4 188.4,98.4 191.3,98.3 C193.5,96.5 195.4,94.6 197.2,92.4 C197.3,92.2 197.6,92.1 197.8,92.3 C198,92.4 198.1,92.7 197.9,92.9 C196.9,95 195.6,96.8 194,98.3 Z M210.6,90.6 C211.5,89.1 212.1,87.4 212.4,85.6 C212.4,85.4 212.6,85.3 212.7,85.3 C212.8,85.3 213,85.5 213,85.6 C213.1,87.6 212.5,89.6 211.3,91.2 C211,91.7 210.3,91.1 210.6,90.6 Z M162.3,96.8 C161.9,97.3 161.1,96.5 161.6,96.1 C162.3,95.5 162.8,94.7 163.1,93.8 C163.1,93.7 163.3,93.6 163.4,93.6 C163.5,93.6 163.6,93.8 163.6,93.9 C163.4,94.9 163,95.9 162.3,96.8 Z M166.4,99.6 C166,99.9 165.5,99.3 165.9,99 C168.2,96.8 169.9,94 170.7,90.9 C170.7,90.8 170.9,90.7 171,90.7 C171.1,90.7 171.2,90.8 171.2,90.9 C171.2,94.6 169.2,97.6 166.4,99.6 Z" id="Shape_34_" fill="#B36D00" fill-rule="nonzero"></path>
            <path d="M148.8,103.2 C156.8,102.6 164.7,101.3 172.5,99.3 C172.5,99.3 172.5,99.2 172.5,99.2 C173.5,97.6 174.4,95.9 175.2,94.1 L174.2,94.4 C173,94.7 171.6,95.1 170.2,95.4 C169.3,97.1 168,98.5 166.5,99.6 C166.1,99.9 165.6,99.3 166,99 C167,98.1 167.9,97 168.6,95.8 C160.8,97.5 150.7,98.8 141.8,99.8 C141.1,100.4 140.3,100.8 139.5,101.1 C139.2,101.2 138.9,101.1 138.7,100.9 C138.5,100.7 138.4,100.4 138.5,100.1 C129.6,101.1 122.6,101.6 122.1,101.8 L123,102.4 C131.6,103.1 140.1,103.8 148.8,103.2 Z" id="Path_85_" fill="#FDD403"></path>
            <path d="M201.7,97.4 C203.4,95.7 204.7,93.7 205.7,91.5 C204.5,92 203.3,92.3 202,92.5 C201.1,94.4 200,96.2 198.6,97.9 C199.7,97.8 200.7,97.6 201.7,97.4 Z" id="Path_86_" fill="#FDD403"></path>
            <path d="M185.8,97.3 C184.7,97.8 183.6,98.2 182.4,98.6 C185.3,98.7 188.3,98.7 191.2,98.6 C193.3,96.9 195.2,95 196.9,93 C191.4,92.9 185.4,91.8 176.6,93.9 C176,95.9 174.8,97.7 173.3,99.2 C177.3,98.2 181.3,97 185.3,95.7 C186.4,95.1 186.9,96.8 185.8,97.3 Z" id="Path_87_" fill="#FDD403"></path>
            <path d="M197.9,93 C196.9,94.9 195.6,96.7 194.1,98.3 L196,98.1 C197.9,96.4 199.6,94.6 201.2,92.6 C200.1,92.7 199.1,92.8 198,92.8 C197.9,92.9 197.9,93 197.9,93 Z" id="Path_88_" fill="#FDD403"></path>
            <path d="M222.1,83.2 C223.2,79 223.1,74.8 223,70.5 C222.2,66.4 221.5,62.3 220.5,58.2 C218.8,51.3 216,44.7 212.4,38.6 C209.7,34.1 206.3,30 202.3,26.5 C208.8,35.8 218.1,53.1 220.1,68.3 C221.7,80.6 218.4,85.3 212.8,88.4 C212.5,89.4 212.1,90.4 211.4,91.3 C211,91.8 210.3,91.2 210.6,90.7 C210.9,90.2 211.1,89.7 211.4,89.2 C210.2,89.8 208.8,90.4 207.4,90.9 C206.9,93.2 205.7,95.2 204.2,97 C206.3,96.5 208.4,95.9 210.4,95.2 C216.2,93 220.4,89.3 222.1,83.2 Z" id="Path_89_" fill="#FDD403"></path>
            <path d="M225,70.3 L225,69.9 C222,51.7 215.3,34 200.7,21.9 C184.2,8.2 161.9,3.2 141.1,1 C133.6,0.2 126,-0.1 118.4,0.1 C116.8,0.2 115.1,0.3 113.5,0.4 C113.3,0.3 113,0.2 112.8,0.2 C85.1,0.6 55,5.1 31.8,21.5 C15.1,33.3 1.5,52 0.8,72.5 C0.1,80.9 0.9,90.3 7.5,96 C15.1,102.6 26.5,103.2 36.1,102.5 C47.2,107.2 61.5,104.3 73.2,104.5 C87,104.7 100.8,106.1 114.1,103.3 C125.4,106.7 138,106.6 149.6,105.6 C159.2,104.8 168.6,103 177.8,100.2 C189.6,103.4 204.4,102.2 215.2,96.5 C225.1,91.2 226.3,80.3 225,70.3 Z M222.1,83.2 C220.4,89.3 216.3,93 210.3,95.1 C201.3,98.3 191.8,98.8 182.4,98.6 C183.5,98.2 184.7,97.8 185.8,97.3 C186.9,96.9 186.5,95.2 185.3,95.5 C173.3,99.4 161.4,102.3 148.8,103.2 C138.6,103.9 128.6,102.9 118.4,102.1 C120.8,101.4 123.2,100.5 125.6,99.5 C126.1,99.3 125.8,98.4 125.2,98.6 C109.4,104.3 91.9,102.3 75.5,101.9 C63.6,101.6 49.5,104.3 37.8,100.4 C34.2,99.2 31,97.3 28.2,94.8 C27.9,94.5 27.4,94.5 27,94.8 C26.7,95.1 26.7,95.6 27,96 C28.3,97.6 29.9,99 31.6,100.2 C24.5,100 17.3,99.6 11.1,95.5 C7.4,92.9 4.1,85.1 4,84.6 C1,59.2 15.2,35.9 36.3,22.6 C59.3,8.1 85.9,5.3 112.4,2.8 C115.2,2.8 118,2.8 120.8,2.9 C128.6,2.9 136.5,3.3 144.3,4.3 C157.8,6 171.4,9 183.8,14.7 C195.4,20 205.8,27.6 212.4,38.7 C216,44.8 218.7,51.4 220.5,58.2 C221.5,62.3 222.3,66.4 223,70.5 C223.1,74.8 223.2,79 222.1,83.2 Z" id="Shape_35_" fill="#3B1100" fill-rule="nonzero"></path>
            <path d="M9.9,62.1 C7.2,65.5 5.7,69.1 6,73.5 C6,73.8 6.2,74 6.5,74 C6.8,74 7,73.8 7,73.5 C7.4,69.6 8.6,65.9 10.5,62.5 C10.6,62.2 10.1,61.8 9.9,62.1 Z" id="Path_90_" fill="#3B1100"></path>
            <path d="M11.1,68.4 C8.1,71.7 6.7,75.6 7.4,80 C7.5,80.5 8.2,80.4 8.3,79.9 C8.5,76 9.7,72.2 11.8,68.9 C11.9,68.7 11.9,68.4 11.7,68.3 C11.5,68.2 11.2,68.3 11.1,68.4 Z" id="Path_91_" fill="#3B1100"></path>
            <path d="M11.4,77.9 C10.7,79.7 10.3,81.6 10.2,83.6 C10.2,84 10.5,84.3 10.9,84.3 C11.3,84.3 11.6,84 11.6,83.6 C11.6,81.8 11.8,79.9 12.2,78.1 C12.3,77.6 11.6,77.4 11.4,77.9 Z" id="Path_92_" fill="#3B1100"></path>
            <path d="M18,93.8 C16.4,89.8 16,85.3 17,81.1 C17,80.9 16.9,80.7 16.7,80.6 C16.5,80.5 16.3,80.6 16.2,80.8 C14.3,85.5 15,89.7 17.6,94 C17.7,94.3 18.2,94 18,93.8 Z" id="Path_93_" fill="#3B1100"></path>
            <path d="M22,91.9 C20.8,89.7 20.4,87.2 20.6,84.7 C20.7,84.2 19.9,83.9 19.8,84.5 C19.2,87.2 19.5,90.1 20.8,92.6 C21.3,93.2 22.3,92.6 22,91.9 Z" id="Path_94_" fill="#3B1100"></path>
            <path d="M30.5,91.3 C29.3,88.7 28.5,86.5 28.9,83.6 C29,83.2 28.4,82.9 28.2,83.3 C26.9,86.1 27,90 29.4,92.1 C29.6,92.3 30,92.3 30.2,92.1 C30.6,91.9 30.7,91.6 30.5,91.3 Z" id="Path_95_" fill="#3B1100"></path>
            <path d="M39.3,95.8 C36.7,93.7 34.9,91.1 34.8,87.7 C34.8,87.5 34.6,87.3 34.4,87.3 C34.2,87.3 34,87.4 34,87.6 C33.7,91.3 35.3,94.8 38.3,97 C39.1,97.6 40,96.4 39.3,95.8 Z" id="Path_96_" fill="#3B1100"></path>
            <path d="M54.5,103.3 C50.9,101.3 47.9,99.2 46.5,95.1 C46.5,95 46.4,94.9 46.2,94.8 C46.1,94.8 45.9,94.8 45.9,94.9 C45.9,95 45.8,95.1 45.8,95.3 C46.6,99.4 49.5,103.8 53.8,104.9 C54.8,105.1 55.5,103.8 54.5,103.3 Z" id="Path_97_" fill="#3B1100"></path>
            <path d="M60.6,102.8 C57,101.3 53.8,100.1 51.6,96.7 C51.2,96.2 50.4,96.7 50.7,97.2 C52.8,100.5 56.1,103.8 60.1,104.3 C60.5,104.3 60.8,104 60.9,103.7 C61,103.4 60.9,103 60.6,102.8 Z" id="Path_98_" fill="#3B1100"></path>
            <path d="M151.8,91.8 C150.6,93.7 149.4,95.5 147.9,97.2 C147.5,97.8 148.4,98.4 148.8,97.9 C150.3,96.2 151.6,94.3 152.4,92.1 C152.7,91.7 152.1,91.2 151.8,91.8 Z" id="Path_99_" fill="#3B1100"></path>
            <path d="M145.3,92.4 C144.7,94.1 143.7,95.7 142.4,96.9 C141.3,98 139.9,98.8 138.7,99.8 C138.5,100 138.4,100.4 138.6,100.7 C138.8,101 139.1,101.1 139.5,101.1 C143,100 145.1,95.8 146,92.5 C146.1,92.1 145.4,92 145.3,92.4 Z" id="Path_100_" fill="#3B1100"></path>
            <path d="M139,96.2 C138.4,96.7 137.9,97.3 137.4,97.8 C136.8,98.3 136.2,98.8 135.5,99.2 C134.9,99.6 135.4,100.5 136.1,100.1 C137.6,99.3 138.8,98 139.5,96.5 C139.6,96.4 139.6,96.2 139.4,96.1 C139.2,96 139.1,96.1 139,96.2 Z" id="Path_101_" fill="#3B1100"></path>
            <path d="M212.4,85.6 C212.1,87.4 211.5,89.1 210.6,90.6 C210.3,91.1 211,91.7 211.4,91.2 C212.6,89.6 213.2,87.6 213.1,85.6 C213.1,85.4 212.9,85.3 212.8,85.3 C212.6,85.2 212.4,85.4 212.4,85.6 Z" id="Path_102_" fill="#3B1100"></path>
            <path d="M207.1,87.6 C206.1,91.7 203.9,95.5 200.7,98.4 C200.5,98.6 200.5,98.9 200.7,99.1 C200.9,99.3 201.1,99.4 201.4,99.2 C205.3,96.7 207.7,92.4 207.8,87.7 C207.8,87.5 207.7,87.4 207.5,87.4 C207.4,87.3 207.2,87.4 207.1,87.6 Z" id="Path_103_" fill="#3B1100"></path>
            <path d="M202.4,90.5 C200.7,93.9 198,96.1 195.3,98.7 C194.7,99.3 195.5,100.4 196.2,99.9 C199.4,97.8 201.4,94.1 202.8,90.7 C203,90.5 202.5,90.3 202.4,90.5 Z" id="Path_104_" fill="#3B1100"></path>
            <path d="M197.1,92.6 C195.3,94.8 193.3,96.8 191.2,98.6 C190.5,99.2 191.4,100.5 192.2,99.9 C194.6,98 196.5,95.7 197.8,93 C197.9,92.8 197.8,92.6 197.7,92.4 C197.5,92.4 197.3,92.4 197.1,92.6 Z" id="Path_105_" fill="#3B1100"></path>
            <path d="M176.6,89.5 C175.8,93 174.4,96.2 172.5,99.2 C172.3,99.5 172.7,99.7 172.9,99.5 C175.7,97 177.4,93.4 177.5,89.6 C177.5,89.4 177.3,89.2 177.1,89.2 C176.9,89.2 176.7,89.3 176.6,89.5 Z" id="Path_106_" fill="#3B1100"></path>
            <path d="M170.6,90.9 C169.8,94 168.1,96.8 165.8,99 C165.4,99.3 165.9,99.9 166.3,99.6 C169.1,97.5 171.2,94.6 171.1,91 C171.1,90.9 171,90.8 170.9,90.8 C170.8,90.8 170.7,90.8 170.6,90.9 Z" id="Path_107_" fill="#3B1100"></path>
            <path d="M163,93.8 C162.7,94.7 162.2,95.4 161.5,96.1 C161,96.6 161.8,97.3 162.2,96.8 C162.9,96 163.3,95 163.4,93.9 C163.4,93.8 163.3,93.6 163.2,93.6 C163.2,93.5 163.1,93.6 163,93.8 Z" id="Path_108_" fill="#3B1100"></path>
        </g>
    </g>
</svg>