<?xml version="1.0" encoding="UTF-8"?>
<svg width="212px" height="90px" viewBox="0 0 212 90" version="1.1" xmlns="http://www.w3.org/2000/svg" xmlns:xlink="http://www.w3.org/1999/xlink">
    <!-- Generator: Sketch 52.3 (67297) - http://www.bohemiancoding.com/sketch -->
    <title>buns-lower</title>
    <desc>Created with Sketch.</desc>
    <g id="Page-1" stroke="none" stroke-width="1" fill="none" fill-rule="evenodd">
        <g id="buns-lower">
            <path d="M208.9,34.7 C208.8,34.2 208.8,33.6 208.7,33 C207.7,34.2 206.4,35.3 205.1,36.1 C202.3,38 199.3,39.4 196.1,40.5 C196,40.5 195.9,40.5 195.8,40.4 C195.8,40.3 195.8,40.2 195.9,40.1 C198,38.9 200.1,37.6 202.1,36.2 C204.3,34.6 207.1,32.8 207.9,30.1 C207.9,30 208,29.9 208.1,29.8 C207.9,28.5 207.5,27.3 207.1,26.1 C202.1,10.9 179,8.4 165.1,6.6 C130.8,2.1 96.1,1.4 61.6,4.6 C52.4,5.4 43.3,6.6 34.2,8 C27.8,9 21.2,10.5 15.4,13.4 C8.9,16.7 4,22.3 2.5,29.7 C2.4,30.2 2.3,30.6 2.3,31.1 C5.9,36.4 10.9,39.3 17.1,40.8 C17.2,40.8 17.2,41.1 17.1,41.1 C11.3,41.2 5.8,38.2 2.1,33.9 C2,35 2,36 2,37.1 C2,38 2.2,39.2 2.2,40.1 C2.6,44.2 3.2,48.2 4.1,52.2 C8.6,64.6 20.5,73.7 33.1,78.2 C49.7,84.1 68.1,86 85.6,86.9 C103.9,87.8 122.2,87 140.3,84.6 C149.9,83.4 159.5,81.7 168.9,79.7 C177.2,77.9 185.9,76.3 193.1,71.6 C205.6,63.3 211.2,48.8 208.9,34.7 Z" id="Path" fill="#FCB641"></path>
            <path d="M45,73.3 C40.9,72.3 37.8,70.2 34.2,68.2 C31.3,66.7 28.4,65.2 25.5,63.6 C19.4,60.3 13.2,56.5 8.2,51.6 C7.8,51.2 7,51.7 7.3,52.3 C11.6,58.7 16.2,64 22.9,68.1 C29.1,71.9 37.1,76.4 44.7,75.7 C45.9,75.6 46.5,73.7 45,73.3 Z" id="Path_1_" fill="#FFFFFF"></path>
            <path d="M208.9,34.7 C208.8,34.2 208.8,33.6 208.7,33 C207.7,34.2 206.4,35.3 205.1,36.1 C202.3,38 199.3,39.4 196.1,40.5 C196,40.5 195.9,40.5 195.8,40.4 C195.8,40.3 195.8,40.2 195.9,40.1 C198,38.9 200.1,37.6 202.1,36.2 C204.3,34.6 207.1,32.8 207.9,30.1 C207.9,30 208,29.9 208.1,29.8 C207.9,28.5 207.5,27.3 207.1,26.1 C202.1,10.9 179,8.4 165.1,6.6 C130.8,2.1 96.1,1.4 61.6,4.6 C52.4,5.4 43.3,6.6 34.2,8 C27.8,9 21.2,10.5 15.4,13.4 C10.4,15.9 6.3,20 4,25.1 C4.1,25.6 4.1,26.1 4.2,26.6 C5.1,31.3 9.5,35.9 13.8,39.8 C14.8,40.2 15.9,40.5 17,40.8 C17.1,40.8 17.1,41.1 17,41.1 C16.4,41.1 15.8,41.1 15.1,41 C16.9,42.6 18.6,44 20,45.3 C24,49.1 31.1,54.6 36.8,55.2 L47.7,60.7 C50.6,61.7 53.3,60.6 56.2,61.5 C58.2,62.1 59.7,63.9 61.7,64.4 C63.7,64.9 66.1,63.8 68.1,64.3 C70.3,64.9 71.3,67.1 73.4,67.9 C79,69.8 83,64.8 88.4,66 C91.2,66.6 92.7,69.6 95.7,69.8 C97.9,70 100.5,68 102.5,67.5 C108.1,66.1 110.7,67.5 115.7,68 C121.6,68.6 126,64 131.8,64.3 C136.4,64.5 139.1,66.8 139.3,71.6 C139.4,76.8 137,77.6 132.3,79.3 C121.3,83.2 109.8,83.1 98.1,83.1 C86.6,83.1 75.7,84.5 64.5,85.3 C71.5,86.1 78.6,86.7 85.5,87 C103.8,87.9 122.1,87.1 140.2,84.7 C149.8,83.5 159.4,81.8 168.8,79.8 C177.1,78 185.8,76.4 193,71.7 C205.6,63.3 211.2,48.8 208.9,34.7 Z" id="Path_2_" fill="#E8940F"></path>
            <path d="M208.7,32.9 C207.7,34.1 206.4,35.2 205.1,36 C202.3,37.9 199.3,39.3 196.1,40.4 C196,40.4 195.9,40.4 195.8,40.3 C195.8,40.2 195.8,40.1 195.9,40 C198,38.8 200.1,37.5 202.1,36.1 C204.3,34.5 207.1,32.7 207.9,30 C207.9,29.9 208,29.8 208.1,29.7 C207.9,28.4 207.5,27.2 207.1,26 C202.1,10.8 179,8.3 165.1,6.5 C153.5,5 141.9,3.9 130.3,3.3 L135.2,6.7 C135.2,6.7 184.1,20.3 189.6,27.8 C195.1,35.3 199.2,45.9 185.1,62.6 C173.7,76.1 145.8,82.9 134.5,85.3 C136.4,85.1 138.3,84.9 140.3,84.6 C149.9,83.4 159.5,81.7 168.9,79.7 C177.2,77.9 185.9,76.3 193.1,71.6 C205.6,63.4 211.1,48.9 208.9,34.8 C208.9,34.1 208.8,33.5 208.7,32.9 Z" id="Path_3_" fill="#B36D00"></path>
            <g id="burger_lower_trace" transform="translate(103.500000, 48.000000) rotate(-1.000000) translate(-103.500000, -48.000000) translate(19.000000, 40.000000)" fill="#3B1100">
                <path d="M43.7,10.7 C36.7,8.2 29.3,8.3 22.1,7 C14.6,5.6 7.7,1.9 0.3,0.3 C0.2,0.3 0.1,0.3 0,0.4 C0,0.5 0,0.6 0.1,0.7 C6.6,4.3 13.7,6.8 21,8.3 C28.5,9.7 36.2,9 43.6,11.1 C43.8,11.1 43.9,10.8 43.7,10.7 Z" id="Path_27_"></path>
                <path d="M103.4,13.5 C88.1,13.9 72.8,14.1 57.5,12.1 C57.1,12.1 57.1,12.7 57.4,12.8 C72.5,15.8 88.2,17 103.5,14.5 C104.2,14.4 104,13.4 103.4,13.5 Z" id="Path_28_"></path>
                <path d="M167.6,6.5 C151.9,9.4 136,12.1 120.1,13.6 C119.7,13.6 119.7,14.2 120.1,14.2 C136.4,13.8 152.2,12 167.9,7.4 C168.1,7.3 168.3,7.1 168.2,6.8 C168.1,6.5 167.9,6.5 167.6,6.5 Z" id="Path_29_"></path>
            </g>
            <path d="M208.9,34.7 C208.8,34.2 208.8,33.6 208.7,33 C207.9,34 207,34.8 205.9,35.5 C206,36.4 206,37.3 206,38.2 C205.6,49.5 202,62.3 191.4,68.9 C183.5,73.8 160.5,80.3 148.8,83.4 C155.6,82.3 162.3,81.1 169,79.7 C177.3,77.9 186,76.3 193.2,71.6 C205.6,63.3 211.2,48.8 208.9,34.7 Z" id="Path_4_" fill="#FDD403"></path>
            <path d="M209.8,28.3 C207.4,15.5 192.8,9 180.8,6.8 C161.8,3.3 142.2,1.7 122.9,0.9 C103,0.1 83.1,0.5 63.2,2.3 C53.5,3.2 43.9,4.3 34.3,5.8 C27.5,6.9 20.6,8.4 14.4,11.5 C7.8,14.9 2.6,20.5 0.8,27.8 C0.6,28.8 0.4,29.7 0.3,30.7 C0.2,30.9 0.1,31.2 0.2,31.4 C1.2490009e-15,35.2 0.2,39 1,42.8 C0.3,56.2 9.8,68.4 21.2,75.1 C37.2,84.5 57.5,86.8 75.6,88.4 C96.1,90.1 116.8,89.7 137.2,87.2 C147.5,86 157.8,84.3 168,82.1 C176.8,80.3 186.1,78.7 193.8,73.8 C209,64.1 215.5,45.3 209.8,28.3 Z M193.2,71.5 C186,76.3 177.3,77.9 169,79.6 C159.5,81.6 150,83.3 140.4,84.5 C122.3,86.9 104,87.7 85.7,86.8 C68.2,85.9 49.8,84 33.2,78.1 C20.6,73.6 8.7,64.4 4.2,52.1 C3.3,48.1 2.7,44.1 2.3,40 C2.3,39.1 2.2,37.9 2.1,37 C2.1,35.9 2.1,34.8 2.2,33.7 C6,38 11.4,41 17.2,40.9 C17.3,40.9 17.4,40.7 17.2,40.6 C11,39.2 5.9,36.4 2.3,31.1 C2.4,30.6 2.4,30.2 2.5,29.7 C4,22.2 8.9,16.7 15.5,13.3 C21.3,10.3 27.9,8.9 34.3,7.9 C43.4,6.4 52.5,5.3 61.6,4.5 C96.1,1.3 130.8,2 165.1,6.5 C178.9,8.3 202.1,10.8 207.1,26 C207.5,27.2 207.9,28.5 208.1,29.7 C208,29.8 208,29.9 207.9,30 C207.1,32.7 204.2,34.5 202.1,36.1 C200.1,37.5 198,38.8 195.9,40 C195.8,40 195.8,40.1 195.8,40.2 C195.8,40.3 195.8,40.3 195.9,40.4 C196,40.5 196,40.5 196.1,40.4 C199.3,39.3 202.3,37.8 205.1,36 C206.5,35.2 207.7,34.2 208.7,32.9 C208.8,33.5 208.9,34.1 208.9,34.6 C211.2,48.8 205.6,63.3 193.2,71.5 Z" id="Shape" fill="#3B1100" fill-rule="nonzero"></path>
        </g>
    </g>
</svg>