<?xml version="1.0" encoding="UTF-8"?>
<svg width="217px" height="65px" viewBox="0 0 217 65" version="1.1" xmlns="http://www.w3.org/2000/svg" xmlns:xlink="http://www.w3.org/1999/xlink">
    <!-- Generator: Sketch 52.3 (67297) - http://www.bohemiancoding.com/sketch -->
    <title>burger_patty_bottom</title>
    <desc>Created with Sketch.</desc>
    <g id="Page-1" stroke="none" stroke-width="1" fill="none" fill-rule="evenodd">
        <g id="burger_group_selection" transform="translate(-14.000000, -120.000000)">
            <g id="burger_patty_bottom" transform="translate(14.000000, 120.000000)">
                <path d="M215.8,23.7 C215.8,23.5 215.6,23.2 215.4,23.1 C214.5,20.1 212.9,17.4 210.9,15 C206,9.4 198.3,8.4 191.4,7.2 C178.4,4.9 165.2,3.5 152,3.1 C138.2,1.1 124.2,0.6 110.3,0.4 C94.7,0.3 79.1,0.9 63.6,2.2 C49.7,3.5 35.4,4.8 22.1,9.1 C16.7,10.8 10.6,12.9 6.1,16.5 C2.5,19.5 1.6,22.9 1.5,27 C1.1,29.4 0.9,31.9 0.9,34.3 C0.8,37.6 0.4,41.8 2.3,44.8 C3.7,46.9 6.1,48 8.4,48.7 C12.8,50.1 17.3,51.2 21.7,52.5 C30.7,55.1 39.7,57.8 48.9,59.7 C58,61.5 67.3,62.6 76.6,63.1 C95.8,64.3 115,64.4 134.2,63.3 C152.1,62.2 170.5,60.7 188,56.6 C196.2,54.7 205.7,52 212.4,46.7 C218.8,41.8 217,30.5 215.8,23.7 Z M214.5,37.5 C214.3,39.8 214.1,41.9 212.6,43.8 C211.1,45.6 208.9,46.6 207,47.7 C200.2,51.2 193,53.7 185.5,55.1 C169.5,58.6 152.9,60.1 136.7,61.1 C103.7,63.3 69,63.4 36.9,54.9 C28.1,52.6 19.3,50.1 10.6,47.5 C8.8,47.1 7.1,46.4 5.6,45.4 C2.6,43.2 2.9,39.8 2.9,36.6 C2.9,32.7 3,28.9 3,25 C4.5,20.2 7.7,17.1 13,14.6 C19.2,11.8 25.6,9.6 32.3,8.3 C45.4,5.4 59,4.3 72.3,3.4 C86,2.5 99.8,2.1 113.5,2.3 C122.9,2.5 132.2,3 141.5,3.6 C156.2,4.9 170.9,6 185.4,8.3 C192.1,9.4 200.1,9.8 205.9,13.5 C208.8,15.3 211,18.1 212.2,21.2 C209.6,25.6 205.1,27.3 200.5,28.9 C195.4,30.7 190.2,32 184.9,33 C184.5,33.1 184.6,33.7 185,33.7 C191.8,33.3 198.4,31.9 204.8,29.6 C208,28.4 211.4,26.6 213,23.5 C213.6,25.5 214,27.6 214.5,29.7 C214.7,32.3 214.7,34.9 214.5,37.5 Z" id="Shape_1_" fill="#3B1100" fill-rule="nonzero"></path>
                <path d="M213,23.5 C211.4,26.5 208,28.3 204.8,29.6 C198.4,31.9 191.8,33.3 185,33.8 C184.6,33.8 184.6,33.2 184.9,33.1 C190.2,32.1 195.4,30.8 200.5,29 C205.2,27.4 209.6,25.7 212.2,21.3 C211,18.1 208.8,15.4 205.9,13.5 C200,9.8 192,9.4 185.4,8.3 C170.8,6 156.1,4.9 141.4,3.6 C132.1,3.1 122.7,2.5 113.4,2.3 C99.8,2.1 86,2.5 72.3,3.5 C58.9,4.4 45.4,5.5 32.3,8.4 C25.8,9.8 19.4,11.8 13.3,14.6 C15.9,21.2 23,24.4 29.8,27.8 C35.1,30.5 40.1,33.7 45.5,36.3 C56.5,41.5 65.8,41.9 77.6,41.9 C88.4,41.9 98.6,44.6 109.3,44.6 C122.4,44.6 135.6,41.1 148.5,42.3 C153.4,42.8 155.5,45.1 155.3,50.9 C155.1,54.1 152.7,56.1 149.9,57 C147.9,54.2 147.5,50.4 145.8,47.3 C144.5,50.1 145,54 143.7,56.9 C142.4,55.3 141.6,52.9 140.9,50.9 C138.5,52.2 140.1,53.9 139.3,55.8 C138.2,58.6 136.5,59.2 133.3,60.2 C131,60.9 128.6,61.4 126.2,61.8 C129.6,61.6 133.1,61.4 136.5,61.2 C152.8,60.1 169.4,58.6 185.4,55.2 C192.8,53.7 200,51.2 206.8,47.8 C208.7,46.8 211,45.7 212.4,43.9 C213.8,42.2 214.1,39.9 214.3,37.6 C214.5,35 214.5,32.3 214.3,29.7 C214.1,27.6 213.6,25.5 213,23.5 Z" id="Path_5_" fill="#572B14"></path>
                <path d="M8.9,32.8 C7.9,34 6.9,43.8 8.1,45 C8.1,45 14.7,45.4 14.6,45.5 C15.8,44.8 16.3,42 17.2,40.9 C18.2,43.1 18.8,45.5 19.6,47.7 C21.7,47.4 23.9,43.1 25.6,41.6 C26.1,42.8 26.2,45.8 27,46.8 C27.9,47.7 28.3,46.8 29.1,47.3 C30.9,48.5 32.7,49.5 34.6,50.4 C37.1,51.4 41.2,51.7 43.8,52.3 C47,53.1 47.8,53.5 49.6,50.4 C50.6,53.2 50.8,55.6 53.7,56.1 C55.9,56.5 59.6,54.1 62.3,54.2 C62,52.7 61.4,48 60.3,46.9 C59,45.4 55.4,45.1 53.5,44.5 C52.1,44 50.8,42.8 49.2,43.2 C47,43.7 46.9,46.2 45.2,47.4 C44.3,46.2 43.5,44.9 42.8,43.5 C37.7,46.3 37.8,42.4 33.5,40.9 C27.7,38.9 21,38.4 15.8,34.9 C15.3,36.1 14.5,37.1 13.9,38.2 C13.6,36.8 13.2,35.4 8.9,32.8 Z" id="Path_6_" fill="#B2832B"></path>
                <path d="M214.5,29.7 C214.1,27.6 213.6,25.5 213,23.5 C211.4,26.5 208,28.3 204.8,29.6 C198.4,31.9 191.8,33.3 185,33.8 C184.6,33.8 184.6,33.2 184.9,33.1 C190.2,32.1 195.4,30.8 200.5,29 C205.2,27.4 209.6,25.7 212.2,21.3 C211,18.1 208.8,15.4 205.9,13.5 C200,9.8 192,9.4 185.4,8.3 C170.8,6 156.1,4.9 141.4,3.6 C132.1,3.1 122.7,2.5 113.4,2.3 C99.8,2.1 86,2.5 72.3,3.5 C58.9,4.4 45.4,5.5 32.3,8.4 C25.6,9.8 19.2,11.9 13,14.7 C7.7,17.2 4.4,20.3 3,25.1 C3,29 2.8,32.8 2.9,36.7 C2.9,39.9 2.7,43.3 5.6,45.5 C7.1,46.5 8.8,47.2 10.6,47.6 C19.3,50.2 28.1,52.7 36.9,55 C69,63.5 103.7,63.4 136.7,61.2 C153,60.1 169.6,58.6 185.6,55.2 C193,53.7 200.3,51.2 207,47.8 C208.9,46.8 211.2,45.7 212.6,43.9 C214,42.2 214.3,39.9 214.5,37.6 C214.7,35 214.7,32.3 214.5,29.7 Z" id="Path_7_" fill="#87431F"></path>
            </g>
        </g>
    </g>
</svg>