<?xml version="1.0" encoding="UTF-8"?>
<svg width="65px" height="70px" viewBox="0 0 65 70" version="1.1" xmlns="http://www.w3.org/2000/svg" xmlns:xlink="http://www.w3.org/1999/xlink">
    <!-- Generator: Sketch 52.3 (67297) - http://www.bohemiancoding.com/sketch -->
    <title>burger-icon</title>
    <desc>Created with Sketch.</desc>
    <g id="Page-1" stroke="none" stroke-width="1" fill="none" fill-rule="evenodd">
        <g id="burger-icon" fill="#FFFFFF">
            <g id="Group">
                <path d="M9.6,45.8 C8.6,45.9 7.1,46.6 7.2,48.4 C7.2,48.9 7.7,49.4 8.2,49.4 C8.2,49.4 8.2,49.4 8.3,49.4 C8.9,49.4 9.3,48.9 9.2,48.4 C9.2,48.2 9.2,47.9 9.7,47.9 C10.2,47.9 10.7,47.4 10.6,46.9 C10.6,46.2 10.1,45.7 9.6,45.8 Z" id="Path"></path>
                <path d="M30.4,45.4 C30.3,45.4 29.8,45.4 29.2,45.8 C28.4,46.2 27.9,47 28,48 C28,48.5 28.5,49 29,49 C29,49 29,49 29.1,49 C29.7,49 30.1,48.5 30,48 C30,47.8 30,47.5 30.5,47.5 C31,47.5 31.5,47 31.4,46.5 C31.4,45.8 30.9,45.4 30.4,45.4 Z" id="Path"></path>
                <path d="M16.6,48.1 C16.2,48 16,47.8 15.8,47.5 C15.5,47 14.9,46.9 14.4,47.3 C13.9,47.6 13.8,48.2 14.2,48.7 C14.6,49.3 15.2,49.7 15.9,50 C16,50 16.1,50.1 16.3,50.1 C16.7,50.1 17.1,49.9 17.2,49.5 C17.4,48.8 17.1,48.3 16.6,48.1 Z" id="Path"></path>
                <path d="M41.7,48.1 C41.2,47.8 40.6,48 40.3,48.5 C40,49 40.2,49.6 40.7,49.9 C41,50.1 41.3,50.3 41.4,50.6 C41.6,50.9 41.9,51.1 42.3,51.1 C42.5,51.1 42.6,51.1 42.8,51 C43.3,50.7 43.5,50.1 43.2,49.7 C42.9,49 42.4,48.5 41.7,48.1 Z" id="Path"></path>
                <path d="M54.1,45.3 C53.6,45.4 53.2,45.9 53.3,46.4 C53.4,46.9 53.9,47.3 54.4,47.2 C55.1,47.1 55.8,47.7 55.8,47.8 C56,48 56.3,48.1 56.5,48.1 C56.7,48.1 57,48 57.2,47.8 C57.6,47.4 57.6,46.8 57.3,46.4 C56.8,46 55.6,45.1 54.1,45.3 Z" id="Path"></path>
                <path d="M55.1,35.9 C55.6,35.9 55.6,36.3 55.6,36.4 C55.6,37 56,37.4 56.5,37.4 C56.5,37.4 56.5,37.4 56.6,37.4 C57.1,37.4 57.6,37 57.6,36.4 C57.7,34.6 56.2,33.8 55.2,33.8 C54.7,33.8 54.2,34.2 54.2,34.7 C54.1,35.4 54.6,35.9 55.1,35.9 Z" id="Path"></path>
                <path d="M44,39 C44.1,39 44.2,39 44.4,38.9 C45.1,38.6 45.7,38.2 46.1,37.6 C46.4,37.1 46.3,36.5 45.9,36.2 C45.4,35.9 44.8,36 44.5,36.4 C44.3,36.6 44.1,36.8 43.7,37 C43.2,37.2 42.9,37.8 43.1,38.3 C43.2,38.7 43.6,39 44,39 Z" id="Path"></path>
                <path d="M19.4,39.4 C19.5,39.5 19.7,39.5 19.9,39.5 C20.3,39.5 20.6,39.3 20.8,39 C20.9,38.7 21.2,38.5 21.5,38.3 C22,38 22.2,37.4 21.9,36.9 C21.6,36.4 21,36.2 20.5,36.5 C19.8,36.9 19.3,37.4 19,38 C18.7,38.5 18.9,39.1 19.4,39.4 Z" id="Path"></path>
                <path d="M10.7,33.5 C9.3,33.3 8,34.1 7.5,34.7 C7.1,35.1 7.1,35.7 7.6,36.1 C7.8,36.3 8,36.4 8.3,36.4 C8.6,36.4 8.8,36.3 9,36.1 C9,36.1 9.7,35.4 10.4,35.5 C10.9,35.6 11.5,35.2 11.5,34.7 C11.5,34.2 11.2,33.6 10.7,33.5 Z" id="Path"></path>
                <circle id="Oval" cx="36.9" cy="17.2" r="1.3"></circle>
                <circle id="Oval" cx="26" cy="17.2" r="1.3"></circle>
                <circle id="Oval" cx="47.7" cy="17.2" r="1.3"></circle>
                <circle id="Oval" cx="15.2" cy="17.2" r="1.3"></circle>
                <circle id="Oval" cx="41.9" cy="10.6" r="1.3"></circle>
                <circle id="Oval" cx="31" cy="10.6" r="1.3"></circle>
                <circle id="Oval" cx="20.2" cy="10.6" r="1.3"></circle>
                <path d="M60.7,42.4 C62.7,41.2 64.1,39 64.1,36.5 C64.1,32.7 61,29.6 57.2,29.6 L51,29.6 C51.6,29.4 52,29.2 52.5,29 C53.5,28.5 54.3,28.1 56.2,28.1 C56.8,28.1 57.2,27.7 57.2,27.1 C57.2,27 57.2,27 57.2,26.9 C59,26.2 60.2,24.4 60.2,22.4 L60.2,20.2 C60.2,6.8 51,0.4 32.2,0.4 C13.4,0.4 4.2,6.9 4.2,20.2 L4.2,22.4 C4.2,24 5,25.5 6.3,26.4 C6.1,26.6 6,26.8 6,27.1 C6,27.7 6.4,28.1 7,28.1 C8.8,28.1 9.7,28.5 10.7,29 C11.1,29.2 11.6,29.4 12.2,29.6 L7.3,29.6 C3.5,29.6 0.4,32.7 0.4,36.5 C0.4,39 1.8,41.2 3.8,42.4 C1.8,43.6 0.4,45.8 0.4,48.3 C0.4,51.8 3.1,54.8 6.5,55.2 C6.5,55.2 6.5,55.2 6.5,55.2 C5.4,56.5 4.8,58.2 5,59.8 L5.5,64.8 C5.8,67.3 7.9,69.2 10.4,69.2 L54,69.2 C56.5,69.2 58.6,67.3 58.9,64.8 L59.4,59.8 C59.6,58.1 59.1,56.4 57.9,55.2 C57.9,55.2 57.9,55.2 57.9,55.2 C61.3,54.8 64,51.9 64,48.3 C64.1,45.8 62.7,43.6 60.7,42.4 Z M34.6,29.5 C35.2,29.3 35.6,29.1 36.1,28.9 C37.1,28.4 37.9,28 39.8,28 C41.6,28 42.5,28.4 43.5,28.9 C43.9,29.1 44.4,29.3 45,29.5 L34.6,29.5 Z M43.8,31.5 C38.2,32.9 34,34.6 32.4,35.2 C32.2,35.3 32.1,35.3 31.9,35.2 C28.2,33.7 23.8,32.4 19.9,31.5 L43.8,31.5 Z M31.5,28 C29.7,28 28.9,27.6 27.9,27.2 L35,27.2 C34.1,27.6 33.2,28 31.5,28 Z M44.4,27.2 L51.5,27.2 C50.6,27.7 49.7,28 47.9,28 C46.2,28 45.3,27.6 44.4,27.2 Z M6.1,20.1 C6.1,7.9 14.4,2.3 32.1,2.3 C49.8,2.3 58.1,8 58.1,20.1 L58.1,22.3 C58.1,23.9 56.8,25.2 55.2,25.2 L9,25.2 C7.4,25.2 6.1,23.9 6.1,22.3 L6.1,20.1 Z M18.6,27.2 C17.7,27.7 16.8,28 15,28 C13.3,28 12.4,27.6 11.4,27.2 L18.6,27.2 Z M19.6,28.9 C20.6,28.4 21.4,28 23.3,28 C25.1,28 26,28.4 27,28.9 C27.4,29.1 27.9,29.3 28.5,29.5 L18.1,29.5 C18.7,29.3 19.2,29.1 19.6,28.9 Z M2.1,36.5 C2.1,33.8 4.3,31.6 7,31.6 L10,31.6 C11,31.8 22.9,33.8 31,37.2 C31.3,37.3 31.7,37.4 32,37.4 C32.3,37.4 32.7,37.3 33,37.2 C35.5,36.2 44.4,32.7 54.6,31.6 L57.1,31.6 C59.8,31.6 62,33.8 62,36.5 C62,39.2 59.8,41.4 57.1,41.4 L54.3,41.4 L27.1,41.4 L26.5,41.4 L26.4,41.4 C25.3,41.4 24.3,42.1 24,43.2 C23.8,43.8 23.8,44.4 24,45 C24.5,46.4 24.8,47.9 24.8,48.5 C24.8,49.4 24.1,50.1 23.2,50.1 C22.3,50.1 21.6,49.4 21.6,48.5 C21.6,47.9 21.9,46.4 22.4,45 C22.6,44.4 22.6,43.7 22.4,43.1 C22,42.1 21,41.4 19.9,41.4 L16.6,41.4 L7.1,41.4 C4.4,41.4 2.1,39.2 2.1,36.5 Z M57.5,59.6 L57,64.6 C56.8,66.1 55.6,67.2 54.1,67.2 L10.2,67.2 C8.7,67.2 7.5,66.1 7.3,64.6 L6.8,59.6 C6.7,58.5 7,57.4 7.8,56.5 C8.5,55.7 9.6,55.2 10.7,55.2 L53.6,55.2 C54.7,55.2 55.8,55.7 56.5,56.5 C57.3,57.4 57.6,58.5 57.5,59.6 Z M57.1,53.2 L53.5,53.2 L10.7,53.2 L7.1,53.2 C4.4,53.2 2.2,51 2.2,48.3 C2.2,45.6 4.4,43.4 7.1,43.4 L16.6,43.4 L19.9,43.4 C20.2,43.4 20.4,43.6 20.5,43.8 C20.6,44 20.6,44.1 20.5,44.3 C20,45.7 19.6,47.5 19.6,48.5 C19.6,50.5 21.2,52.1 23.2,52.1 C25.2,52.1 26.8,50.5 26.8,48.5 C26.8,47.6 26.4,45.8 25.8,44.3 C25.8,44.2 25.8,44 25.8,43.9 C25.9,43.6 26.1,43.5 26.4,43.5 L27,43.5 L54.2,43.5 L57,43.5 C59.7,43.5 61.9,45.7 61.9,48.4 C62.1,51 59.9,53.2 57.1,53.2 Z" id="Shape" fill-rule="nonzero"></path>
            </g>
        </g>
    </g>
</svg>