<?xml version="1.0" encoding="UTF-8"?>
<svg width="224px" height="66px" viewBox="0 0 224 66" version="1.1" xmlns="http://www.w3.org/2000/svg" xmlns:xlink="http://www.w3.org/1999/xlink">
    <!-- Generator: Sketch 52.3 (67297) - http://www.bohemiancoding.com/sketch -->
    <title>burger-patty</title>
    <desc>Created with Sketch.</desc>
    <g id="Page-1" stroke="none" stroke-width="1" fill="none" fill-rule="evenodd">
        <g id="burger_group_selection" transform="translate(-11.000000, -72.000000)">
            <g id="burger-patty" transform="translate(11.000000, 71.000000)">
                <path d="M203.9,33.6 C203.1,33.7 202.8,32.6 203.6,32.4 C207.3,31.6 216.7,29.2 216.9,24.3 C216.4,23.6 215.8,22.9 215.2,22.3 C211.7,19.1 207.5,16.8 203,15.3 C194.6,12.4 185.7,10.6 177,9 C144.3,2.9 110.8,2.4 77.6,3.5 C61.2,4.1 44.6,5.3 28.7,9.5 C21.3,11.4 11.8,13.5 6.6,19.5 C3.6,22.9 2.3,27.4 1.8,32 C1.9,31.9 2.1,31.8 2.2,31.9 C2.4,32 2.4,32.1 2.4,32.3 C1.8,36.2 1.8,40.1 2.4,44 C2.8,46.4 3.5,48.3 6,49.4 C7.8,50.2 10,50.6 11.9,51.2 C17.2,53.1 22.4,53.6 27.9,54.2 C32,54.7 35.7,56.5 39.7,57.3 C44.2,58.2 48.9,57.6 53.5,58.2 C57.2,58.7 60.6,60.1 64.3,60.9 C73.6,63 83.3,60.2 92.7,61.9 C97.7,62.8 102.3,64.4 107.5,64.1 C111.8,63.9 116.1,62.9 120.3,62.5 C125.3,62 130.2,62.7 135.1,62.6 C139.8,62.5 144.5,61.9 149.1,61.4 C158.8,60.4 168.9,60.9 178.4,58.8 C182.3,57.9 186.2,56.7 190.2,56.3 C194.6,55.8 199,56.1 203.4,55.5 C210.6,54.6 218.7,52.6 220.6,44.6 C221.6,40.6 221.8,36.4 221.3,32.3 C220.5,30.1 219.5,28 218.3,26 C217.2,31 207.9,33 203.9,33.6 Z M24.9,33.2 C18.2,32.9 9.8,31.2 4.7,26.6 C4.3,26.3 4.8,25.6 5.2,25.9 C8.2,27.9 11.9,28.6 15.3,29.7 C18.5,30.7 21.8,31.6 25.1,32.2 C25.6,32.3 25.5,33.2 24.9,33.2 Z M76.9,37.5 C62,37.8 47,37.3 32.2,35.9 C31.6,35.8 31.6,34.9 32.2,34.9 C47.1,35.4 62,35.7 76.9,36.6 C77.2,36.6 77.4,36.8 77.4,37.1 C77.4,37.4 77.2,37.5 76.9,37.5 Z M118.6,39.9 C113.1,40.7 107.5,41 101.9,40.8 C97.7,40.8 92.4,41.1 88.8,38.5 C88.7,38.4 88.7,38.3 88.7,38.2 C88.7,38.1 88.8,38 88.9,38 C93.5,37.9 98.1,38.6 102.7,38.5 C107.9,38.5 113.2,38.3 118.4,38.5 C119.2,38.6 119.4,39.8 118.6,39.9 Z M195.7,35.8 C176.7,40.6 157,42.5 137.4,41.2 C137.2,41.2 137.1,41 137.1,40.8 C137.1,40.6 137.2,40.5 137.4,40.4 C156.8,39.6 176.2,37.6 195.5,34.6 C196.1,34.7 196.4,35.7 195.7,35.8 Z" id="Shape_27_" fill="#87431F" fill-rule="nonzero"></path>
                <path d="M6.8,35.5 C7.6,38.7 6,43.8 7.8,46.4 C7.4,45.8 10.8,48 10.5,47.9 C13.2,48.9 14.6,48.1 17.6,48 C20.9,47.9 19.9,48.9 22.4,50.1 C23,50.4 26,51.9 26.1,51.9 C27.8,52.1 29.9,51.2 31.5,51.2 C31.5,51.2 32.5,52.4 33.1,52.4 C34.4,52.5 35.6,51.1 37.3,51.4 C37.6,55.7 40.6,55 43.3,53.9 C46.5,52.5 47.6,51.4 49.6,48.3 C49.7,49.6 49.7,56.1 51.4,56.5 C53.3,56.9 55.6,51.7 56.6,50.5 C57.6,53.9 58.9,59.6 63.8,57.5 C66.7,56.2 67.8,49.4 66.2,46.9 C63.8,43.1 57.4,45.9 53.9,44.4 C52.2,43.7 51,41.2 48.9,41.4 C46.8,41.6 46.7,43.5 45.1,45.1 C43.5,44.3 41.6,41.6 39.9,41.5 C38.3,41.5 37.6,43.1 36.1,43.5 C33.2,44.2 29.5,41.6 26.6,41.1 C24.6,40.7 22.7,40.1 20.8,39.8 C19.3,39.5 17.7,39.5 16.2,39.8 C14.7,40 14.6,41.7 12.8,40.9 C10.2,39.4 11.8,36.1 6.8,35.5 Z" id="Path_73_" fill="#B2832B"></path>
                <path d="M218.2,26.1 C217.2,31 207.9,33.1 203.9,33.6 C203.1,33.7 202.8,32.6 203.6,32.4 C207.3,31.6 216.7,29.2 216.9,24.3 C216.4,23.6 215.8,22.9 215.2,22.3 C211.7,19.1 207.5,16.8 203,15.3 C194.6,12.4 185.7,10.6 177,9 C144.3,2.9 110.8,2.4 77.6,3.5 C65.8,3.8 54.1,4.8 42.5,6.6 C38.7,12.4 37.8,19.2 41.7,26.9 C43.7,30.8 47.1,33.9 51.3,35.4 C59.9,35.7 68.4,36 76.9,36.5 C77.1,36.5 77.3,36.7 77.3,37 C77.3,37.2 77.1,37.4 76.9,37.5 C70.9,37.7 64.9,37.7 58.9,37.5 C64,38.1 69.2,38.5 74.4,38.6 C80.4,38.9 86.1,39.6 91.6,39.9 C90.6,39.6 89.7,39.1 88.9,38.5 C88.8,38.4 88.8,38.3 88.8,38.2 C88.8,38.1 88.9,38 89,38 C93.6,38 98.2,38.6 102.8,38.5 C108,38.5 113.3,38.3 118.5,38.5 C118.6,38.5 118.7,38.5 118.8,38.6 C122,38.5 125.1,38.7 128.2,39.4 C135.3,41 140.3,45.8 147.5,45.5 C156.5,45.1 159.3,48.3 154.7,57.5 C152.3,55.8 151.3,52.4 150.6,49.5 C148.6,51.8 148.3,56.3 148.4,59.3 C146.6,58.6 146,56.4 145.1,54.6 C141.9,57.4 142.9,60 137.5,60.7 C134.4,61.1 131,61.2 127.9,61.5 C123.6,61.8 118.7,63.3 114.5,62.9 L114.1,63.5 C116.2,63.2 118.2,62.9 120.3,62.7 C125.3,62.2 130.2,62.9 135.1,62.8 C139.8,62.7 144.5,62.1 149.1,61.6 C158.8,60.6 168.9,61.1 178.4,59 C182.3,58.1 186.2,56.9 190.2,56.5 C194.6,56 199,56.3 203.4,55.7 C210.6,54.8 218.7,52.8 220.6,44.8 C221.6,40.8 221.8,36.6 221.3,32.5 C220.5,30.2 219.4,28.1 218.2,26.1 Z M195.7,35.8 C176.7,40.6 157,42.5 137.4,41.2 C137.2,41.2 137.1,41 137.1,40.8 C137.1,40.6 137.2,40.5 137.4,40.4 C156.8,39.6 176.2,37.6 195.4,34.6 C196.1,34.7 196.4,35.7 195.7,35.8 Z" id="Shape_28_" fill="#572B14" fill-rule="nonzero"></path>
                <path d="M220.6,25.1 C220.5,24.9 220.2,24.7 220,24.7 C218.3,22.2 216.1,20.1 213.7,18.3 C206.9,13.4 198.3,11.5 190.3,9.6 C172.3,5.5 154,2.9 135.6,1.8 C117,0.8 98.4,0.8 79.8,1.4 C62.2,1.9 44.4,3.1 27.4,7.6 C19.5,9.8 9.4,12.1 4.2,19 C8.8817842e-16,24.6 0.1,31.6 0.5,38.4 C0.1,42.4 0.4,46.6 2.6,49.2 C4.2,51.2 7,51.5 9.3,52.3 C14.2,54.1 19.2,55.3 24.4,55.8 C27.4,55.9 30.3,56.4 33.2,57.2 C35.2,57.8 37.1,58.7 39.2,59.2 C43.5,60.1 47.9,59.5 52.2,60 C57.2,60.5 61.7,62.6 66.6,63.3 C72.1,64.1 77.7,63.5 83.3,63.4 C88.6,63.5 93.9,64.1 99.1,65.4 C103.7,66.2 108.4,66.3 113,65.5 C124.5,63.9 136,64.8 147.6,63.6 C152.8,63.1 158.1,62.5 163.3,62.2 C168.6,62 173.3,61.9 178.3,60.8 C183.5,59.6 188.5,58.2 193.9,58 C198.3,57.9 202.7,57.6 207.1,56.9 C214,55.7 220.6,52.5 222.4,45.1 C223.7,39.4 224.2,30.2 220.6,25.1 Z M220.6,44.8 C218.6,52.8 210.6,54.9 203.4,55.7 C199,56.2 194.6,56 190.2,56.5 C186.2,56.9 182.4,58.1 178.4,59 C168.9,61.2 158.8,60.7 149.1,61.7 C144.4,62.2 139.7,62.8 135.1,62.9 C130.1,63 125.2,62.2 120.3,62.8 C116,63.3 111.8,64.2 107.5,64.4 C102.3,64.7 97.7,63.1 92.7,62.2 C83.3,60.5 73.7,63.3 64.3,61.2 C60.7,60.4 57.3,59 53.5,58.5 C48.9,57.9 44.2,58.6 39.7,57.6 C35.7,56.7 32.1,54.9 27.9,54.5 C22.4,53.9 17.2,53.4 11.9,51.5 C10,50.8 7.8,50.5 6,49.7 C3.6,48.7 2.8,46.7 2.4,44.3 C1.8,40.4 1.8,36.5 2.4,32.6 C2.4,32.4 2.3,32.3 2.2,32.2 C2,32.1 1.9,32.2 1.8,32.3 C2.4,27.7 3.7,23.2 6.6,19.8 C11.8,13.8 21.3,11.7 28.7,9.8 C44.7,5.6 61.2,4.4 77.6,3.8 C110.8,2.6 144.3,3.1 177,9.2 C185.7,10.8 194.6,12.6 203,15.6 C207.5,17 211.7,19.4 215.2,22.5 C215.8,23.1 216.4,23.8 216.9,24.5 C216.7,29.5 207.3,31.9 203.6,32.7 C202.8,32.9 203.2,34 203.9,33.9 C207.9,33.4 217.2,31.3 218.2,26.4 C219.4,28.4 220.4,30.5 221.2,32.7 C221.8,36.6 221.6,40.7 220.6,44.8 Z" id="Shape_29_" fill="#3B1100" fill-rule="nonzero"></path>
            </g>
        </g>
    </g>
</svg>