<?xml version="1.0" encoding="UTF-8"?>
<svg width="16px" height="15px" viewBox="0 0 16 15" version="1.1" xmlns="http://www.w3.org/2000/svg" xmlns:xlink="http://www.w3.org/1999/xlink">
    <!-- Generator: Sketch 52.3 (67297) - http://www.bohemiancoding.com/sketch -->
    <title>ios-cart</title>
    <desc>Created with Sketch.</desc>
    <g id="Page-1" stroke="none" stroke-width="1" fill="none" fill-rule="evenodd">
        <g id="ios-cart" fill="#FFFFFF">
            <ellipse id="Oval" transform="translate(4.307520, 14.028003) rotate(-1.057000) translate(-4.307520, -14.028003) " cx="4.30751995" cy="14.0280029" rx="1" ry="1"></ellipse>
            <ellipse id="Oval" transform="translate(12.943138, 14.028382) rotate(-88.635063) translate(-12.943138, -14.028382) " cx="12.9431381" cy="14.028382" rx="1" ry="1"></ellipse>
            <path d="M15.9942287,2.56129101 C15.9672959,2.4712914 15.8864975,2.41129166 15.7941565,2.40379169 L3.26271492,1.22254683 C3.15498377,1.21129687 3.02416737,1.14379717 2.97414933,1.04629759 C2.82794277,0.780048748 2.73560178,0.6300494 2.50474931,0.348800622 C2.20848864,-0.00369784689 1.65059517,0.00755210423 0.627149212,5.21368149e-05 C0.280870506,-0.00369784689 0,0.19505129 0,0.52879984 C0,0.855048422 0.265480341,1.05754754 0.600216424,1.05754754 C0.934952507,1.05754754 1.4197427,1.07629746 1.60057713,1.12879723 C1.78141157,1.181297 1.92761813,1.47004575 1.98148371,1.72129466 C1.98148371,1.72504464 1.98148371,1.72879463 1.98533125,1.73254461 C1.99302633,1.77754441 2.06228207,2.11504295 2.06228207,2.11879293 L3.60129855,10.0537585 C3.69363953,10.5975061 3.88216905,11.0475041 4.15919202,11.3925026 C4.48238548,11.7975009 4.90946255,12 5.42503306,12 L14.5283155,12 C14.8207286,12 15.0708188,11.7825009 15.0823614,11.4975022 C15.0977516,11.1975035 14.851509,10.9500046 14.5437057,10.9500046 L5.41733798,10.9500046 C5.34038716,10.9500046 5.22880846,10.9500046 5.09799206,10.845005 C4.96332812,10.7325055 4.77864615,10.4737566 4.65552483,9.87000925 L4.49008056,8.98126312 C4.49008056,8.97001316 4.4939281,8.9625132 4.50547072,8.95876321 L15.1900926,7.19627087 C15.2901287,7.18127094 15.3670795,7.10252128 15.3786221,7.00127172 L15.9942287,2.65879059 C16.0019238,2.62879072 16.0019238,2.59504086 15.9942287,2.56129101 Z" id="Path"></path>
        </g>
    </g>
</svg>