<?xml version="1.0" encoding="UTF-8"?>
<svg width="245px" height="60px" viewBox="0 0 245 60" version="1.1" xmlns="http://www.w3.org/2000/svg" xmlns:xlink="http://www.w3.org/1999/xlink">
    <!-- Generator: Sketch 52.3 (67297) - http://www.bohemiancoding.com/sketch -->
    <title>cheese</title>
    <desc>Created with Sketch.</desc>
    <g id="Page-1" stroke="none" stroke-width="1" fill="none" fill-rule="evenodd">
        <g id="burger_group_selection" transform="translate(-5.000000, -101.000000)">
            <g id="cheese" transform="translate(5.000000, 101.000000)">
                <path d="M214.6,30.8 C201.6,32.8 188.7,35.4 175.8,38.5 C154.1,43.6 132.7,50.1 111.8,57.8 C96.8,48.6 80,42.9 62.9,39 C51.8,36.4 40.4,34.6 29.1,32.8 C21,31.5 12.6,30 4.2,29.7 C12.7,24.6 22.2,21.3 31.7,18.5 C46.2,14.3 60.8,10.7 75.6,7.8 C89.7,5.1 103.9,3.1 118.1,1.8 C139.1,3.3 160.1,4.4 180.8,8.3 C193.6,10.6 206.1,14.1 218.2,18.8 C224.8,21.3 231.1,24.3 237.3,27.7 C229.7,28.4 222,29.6 214.6,30.8 Z" id="Path_69_" fill="#FDD403"></path>
                <path d="M48.7,33.1 C42.6,31.2 36.3,29.8 30.1,28.2 C24.5,26.7 18.5,25.4 12.9,27.5 C12.6,27.6 12.4,27.9 12.5,28.2 C12.5,28.5 12.8,28.8 13.1,28.8 C25,29.8 36.9,31.5 48.6,34 C48.8,34 49.1,33.9 49.1,33.6 C49,33.4 48.9,33.1 48.7,33.1 Z" id="Path_70_" fill="#FFFFFF"></path>
                <path d="M111.2,51.9 C102.9,45 91.8,40.8 81.3,38.9 C80.5,38.8 80.1,39.9 81,40.2 C91.6,43.2 100.7,47.9 110.3,53.1 C111,53.6 111.9,52.5 111.2,51.9 Z" id="Path_71_" fill="#FFFFFF"></path>
                <path d="M237.3,27.7 C231.2,24.2 224.8,21.3 218.2,18.8 C206.1,14.1 193.6,10.6 180.8,8.3 C160,4.4 139.1,3.3 118.1,1.8 C103.9,3.1 89.7,5.1 75.6,7.8 C61.7,10.5 47.9,13.8 34.2,17.7 C35.7,18.1 37.1,18.5 38.6,18.9 C45.1,21 78,32.1 86.4,34.9 C92.6,36.9 98.7,38.8 104.9,40.4 C110.5,41.9 114.5,44.2 119.6,46.5 C125.6,49.2 132.4,44.2 138.7,42.6 C146,40.8 153.5,39.6 160.8,38.4 C176,36 191.7,32.4 207.1,31.5 L208.7,31.4 C210.6,31.1 212.5,30.8 214.4,30.5 C222,29.6 229.7,28.4 237.3,27.7 Z" id="Path_72_" fill="#ED9F03"></path>
                <path d="M241.4,27.4 C235.5,23.9 229.4,20.8 223,18.3 C210.5,13.1 197.6,9.2 184.3,6.7 C170.9,4.2 157.3,2.4 143.7,1.5 C140.1,1.2 136.4,1 132.8,0.8 L111.8,-2.66453526e-15 L104.2,1 C93.8,2.2 83.6,3.9 73.5,5.9 C58.2,8.8 43,12.7 28,17.4 C18.7,20.4 9.5,24 1.7,29.7 L0,31 L2,31.2 C22.3,33.1 42.5,36.3 62.4,41 C78.8,44.8 94.9,50.2 109.3,58.8 L110.8,59.7 L113.5,58.9 C133.9,52.8 154.1,46.1 174.9,41 C187.2,38 199.6,35.4 212.1,33.4 C221.8,31.9 231.5,31.1 241.1,30.2 L244.8,29.9 L241.4,27.4 Z M214.6,30.8 C201.6,32.8 188.7,35.4 175.8,38.5 C154.1,43.6 132.7,50.1 111.8,57.8 C96.8,48.6 80,42.9 62.9,39 C51.8,36.4 40.4,34.6 29.1,32.8 C21,31.5 12.6,30 4.2,29.7 C12.7,24.6 22.2,21.3 31.7,18.5 C46.2,14.3 60.8,10.7 75.6,7.8 C89.7,5.1 103.9,3.1 118.1,1.8 C139.1,3.3 160.1,4.4 180.8,8.3 C193.6,10.6 206.1,14.1 218.2,18.8 C224.8,21.3 231.1,24.3 237.3,27.7 C229.7,28.4 222,29.6 214.6,30.8 Z" id="Shape_26_" fill="#3B1100" fill-rule="nonzero"></path>
            </g>
        </g>
    </g>
</svg>