<?xml version="1.0" encoding="UTF-8"?>
<svg width="27px" height="16px" viewBox="0 0 27 16" version="1.1" xmlns="http://www.w3.org/2000/svg" xmlns:xlink="http://www.w3.org/1999/xlink">
    <!-- Generator: Sketch 52.3 (67297) - http://www.bohemiancoding.com/sketch -->
    <title>Shape</title>
    <desc>Created with Sketch.</desc>
    <g id="Page-1" stroke="none" stroke-width="1" fill="none" fill-rule="evenodd">
        <g id="dashboard" transform="translate(-27.000000, -187.000000)" fill="#FFFFFF" fill-rule="nonzero">
            <g id="Sidebar" transform="translate(-8.000000, -5.000000)">
                <g id="Sidebar_content_dashboard" transform="translate(7.000000, 5.000000)">
                    <g id="Dashboard-sidebar" transform="translate(0.000000, 169.000000)">
                        <g id="Dashboard-sidebar-content">
                            <g id="Dashboard-icon" transform="translate(28.000000, 17.000000)">
                                <g id="Group" transform="translate(0.000000, 0.933333)">
                                    <path d="M1.60091362e-07,13.2229116 C1.29315199e-05,13.3885472 0.152111067,13.5392515 0.319285874,13.5392515 L10.3568304,13.499709 C10.5499187,14.7757608 11.8119942,15.9315718 13.41,15.9315718 C15.0038807,15.9315718 16.2709149,14.7994546 16.4631696,13.499709 L26.5007143,13.499709 C26.6678888,13.499709 26.8199872,13.3490047 26.82,13.1833692 C26.82,5.90138986 20.8080738,0.12553315 13.5097768,0.114578301 C6.16620536,0.114578301 1.60091362e-07,5.90139302 1.60091362e-07,13.2229116 Z M13.0907143,0.747261203 L13.0907143,2.32896055 C13.0884793,2.49608607 13.241299,2.6498051 13.41,2.6498051 C13.578701,2.6498051 13.7316708,2.49608607 13.7292857,2.32896055 L13.7292857,0.747261203 C14.6219642,0.764343556 15.4935663,0.880547843 16.3334598,1.07348669 L15.9143973,2.60575793 C15.8699911,2.76621817 15.9769425,2.95224183 16.1388967,2.99623838 C16.3008483,3.04023809 16.4886075,2.93427373 16.5330134,2.77381349 L16.9520759,1.23165663 C17.8082533,1.47407103 18.6234632,1.79433035 19.3966071,2.20044748 L18.5784375,3.61409127 C18.4723995,3.75662452 18.5204204,3.98621451 18.6748908,4.07526102 C18.8293645,4.16430437 19.05455,4.09224847 19.1272098,3.93042797 L19.9453795,2.51678735 C20.7075339,2.96634426 21.4218141,3.48778625 22.070625,4.07871545 L20.8733036,5.25510434 C20.7531308,5.37415252 20.7531244,5.59080105 20.8732876,5.70985872 C20.9934543,5.82891323 21.2121203,5.8289069 21.3322768,5.7098429 L22.5295982,4.51367961 C23.1533963,5.14045644 23.715783,5.82779022 24.1958705,6.56989192 L22.6692857,7.43983922 C22.523005,7.52265699 22.4659649,7.72985961 22.5495536,7.87480654 C22.6331426,8.01972183 22.8422907,8.07625176 22.9885714,7.99343399 L24.5251339,7.12348669 C24.9630822,7.8842651 25.3243923,8.69944131 25.5927455,9.54546065 L23.8366741,10.0101007 C23.6747199,10.0541035 23.5677688,10.2401114 23.6121779,10.4005906 C23.6565845,10.5610382 23.8443405,10.667012 24.0062946,10.6230092 L25.7623661,10.1484993 C25.9906359,11.023875 26.1265462,11.932846 26.1514955,12.8670293 L16.2137277,12.8670293 C16.0465529,12.8670609 15.8944547,13.0177652 15.894442,13.1833692 C15.894442,14.1876533 14.8005056,15.298892 13.41,15.298892 C12.0252866,15.298892 10.925558,14.1380196 10.925558,13.1833692 C10.9255453,13.0177652 10.7734471,12.8670609 10.6062723,12.8670293 L0.668504784,12.9065718 C0.693824141,11.9608737 0.827767372,11.0420329 1.05763425,10.1583692 L2.82368304,10.6230092 C2.98565381,10.6644813 3.17109463,10.5561349 3.21289871,10.3956557 C3.25469991,10.2351765 3.14531901,10.0514779 2.98332589,10.0101007 L1.23723246,9.54546065 C1.50598451,8.69770144 1.85774477,7.88436 2.29486639,7.12348669 L3.83142857,7.99343399 C3.97770964,8.07625176 4.18685743,8.0196902 4.27044643,7.87480654 C4.35403543,7.72985961 4.29697907,7.52265699 4.15071429,7.43983922 L2.62412946,6.56989192 C3.10232719,5.82833749 3.66959541,5.14928549 4.29040179,4.52356839 L5.48772321,5.7098429 C5.60788033,5.8289069 5.82654634,5.82891323 5.94671239,5.70985872 C6.06687589,5.59080105 6.06686951,5.37415252 5.94669643,5.25510434 L4.749375,4.07871545 C5.39879256,3.48622669 6.11153119,2.96673652 6.87462054,2.51678735 L7.69279018,3.93042797 C7.77637918,4.07536225 7.98552729,4.13187637 8.13180804,4.04905859 C8.27808911,3.96624081 8.33512918,3.75902238 8.25154018,3.61409127 L7.43337054,2.20044748 C8.20419649,1.79649412 9.01458546,1.4727772 9.86792411,1.23165663 L10.2869866,2.77381349 C10.3313929,2.93427373 10.519152,3.04023809 10.6811033,2.99623838 C10.8430578,2.95224183 10.9500089,2.76621817 10.9056027,2.60575793 L10.4865402,1.07348669 C11.3264372,0.881000209 12.1979276,0.764277124 13.0907143,0.747261203 Z M16.483125,6.22389519 L13.6394866,11.097519 C13.0125531,11.0091969 12.357762,11.2942824 12.0231027,11.8685974 C11.5841359,12.6218975 11.8514706,13.5887271 12.6117857,14.0236627 C13.3721011,14.4585668 14.3579277,14.2035969 14.7968973,13.4502967 C15.2262571,12.7134779 14.9803911,11.7630664 14.2581027,11.3150026 L17.041875,6.54021924 C17.1402983,6.38790159 17.0497614,6.17149033 16.8961658,6.08825498 C16.672139,6.03247161 16.6604534,6.07632897 16.483125,6.22389519 Z" id="Shape"></path>
                                </g>
                            </g>
                        </g>
                    </g>
                </g>
            </g>
        </g>
    </g>
</svg>