<?xml version="1.0" encoding="UTF-8"?>
<svg width="522px" height="334px" viewBox="0 0 522 334" version="1.1" xmlns="http://www.w3.org/2000/svg" xmlns:xlink="http://www.w3.org/1999/xlink">
    <!-- Generator: Sketch 52.3 (67297) - http://www.bohemiancoding.com/sketch -->
    <title>Shape</title>
    <desc>Created with Sketch.</desc>
    <g id="Page-1" stroke="none" stroke-width="1" fill="none" fill-rule="evenodd">
        <g id="logo-googleplus" fill="#5A6FFE" fill-rule="nonzero">
            <path d="M318.2,145.9 L316.6,138.9 L160,138.9 L160,203 L250.7,203 C241.3,248 202.3,266.6 166.6,266.6 C140.6,266.6 116.4,258.8 98.3,241.3 C79.7,223.2 69.4,198.2 69.4,170.9 C69.4,143.8 79.2,119.1 97,101.3 C114.7,83.6 139,75.9 165.7,75.9 C196.2,75.9 215.6,89.7 223.8,97 L271.8,49.3 C258.3,37.6 221.5,8 164.1,8 C119.8,8 77.4,24.8 46.4,55.8 C15.9,86.3 0,130.2 0,171 C0,211.8 15,253.6 44.6,284.3 C76.3,317 121.2,334 167.5,334 C209.6,334 249.4,317.5 277.8,287.7 C305.8,258.3 320.2,217.6 320.2,175 C320.1,157 318.3,146.3 318.2,145.9 Z M522,57 L465,57 L465,0 L424,0 L424,57 L367,57 L367,98 L424,98 L424,155 L465,155 L465,98 L522,98 L522,57 Z" id="Shape"></path>
        </g>
    </g>
</svg>