<?xml version="1.0" encoding="UTF-8"?>
<svg width="244px" height="57px" viewBox="0 0 244 57" version="1.1" xmlns="http://www.w3.org/2000/svg" xmlns:xlink="http://www.w3.org/1999/xlink">
    <!-- Generator: Sketch 52.3 (67297) - http://www.bohemiancoding.com/sketch -->
    <title>lettuce-green</title>
    <desc>Created with Sketch.</desc>
    <g id="Page-1" stroke="none" stroke-width="1" fill="none" fill-rule="evenodd">
        <g id="burger_group_selection" transform="translate(0.000000, -65.000000)">
            <g id="lettuce-green" transform="translate(0.000000, 65.000000)">
                <path d="M87.9,42.6 C73,41.7 58.1,41.4 43.2,40.9 C42.6,40.9 42.6,41.8 43.2,41.9 C58.1,43.3 73,43.9 87.9,43.6 C88.2,43.6 88.4,43.4 88.4,43.1 C88.4,42.8 88.2,42.6 87.9,42.6 Z" id="Path_74_" fill="#3B1100"></path>
                <path d="M129.4,44.6 C124.2,44.4 118.9,44.6 113.7,44.6 C109.1,44.6 104.5,44 99.9,44.1 C99.8,44.1 99.7,44.2 99.7,44.3 C99.7,44.4 99.7,44.5 99.8,44.6 C103.4,47.2 108.6,46.8 112.9,46.9 C118.5,47.1 124.1,46.8 129.6,46 C130.4,45.8 130.2,44.6 129.4,44.6 Z" id="Path_75_" fill="#3B1100"></path>
                <path d="M206.4,40.8 C187.2,43.8 167.8,45.7 148.4,46.6 C148.2,46.6 148.1,46.8 148.1,47 C148.1,47.2 148.2,47.3 148.4,47.4 C168,48.7 187.7,46.8 206.7,42 C207.4,41.7 207.1,40.7 206.4,40.8 Z" id="Path_76_" fill="#3B1100"></path>
                <path d="M238,24.4 C236.8,23.3 235.4,22.2 234,21.3 C233.8,21.2 233.7,21 233.6,20.8 C232.2,20.2 230.7,19.7 229.2,19.3 C226,18.5 222,18.7 219.1,17 C216,15.2 216.9,10.9 213.9,9.5 C209.6,7.4 203.6,8.4 199.1,8.7 C195.7,9 193.5,8.7 190.8,6.8 C188.5,5.2 187.6,4.4 184.8,5 C183.9,5.2 183.1,5.4 182.3,5.6 C180.2,6.1 178.1,7 176,7.2 C175,7.3 174.1,7.1 173.2,6.7 C171.1,5.8 168.9,5.6 166.7,6.1 C165.6,6.3 164.5,6.4 163.5,6.2 C163.3,6.3 163.1,6.3 162.9,6.2 C159.3,4.4 156.7,1.8 152.3,3.8 C150.3,4.7 148.5,5.9 146.3,6.2 C144.9,6.3 143.4,6.1 142.1,5.6 C140,4.9 139,4 136.6,4.7 C135.6,5 134.7,5.5 133.7,5.8 C129,7.2 127.6,2.3 123.2,2.8 C119.4,3.2 116.4,6.1 112.4,4.5 C110.7,3.8 109.3,2.4 107.5,1.8 C104.5,0.9 101.6,2.8 99,4 C95.7,5.6 92.7,6.3 89.1,5 C86.6,4.1 84.5,3 81.7,2.9 C78.6,2.9 75.5,3.8 72.8,5.3 C71.7,6.1 70.5,6.7 69.3,7.3 C68.2,8 66.9,8.3 65.5,8.3 C63.1,8.2 61.2,6.9 58.7,7.4 C56.7,7.7 54.9,9.3 53,10 C51.4,10.7 49.5,10.7 47.9,10.1 C46.1,9.4 44.5,7.9 42.6,7.7 C39.7,7.3 38,8.3 35.8,10 C33.8,11.5 32.2,12.1 29.7,11.4 C27.2,10.7 25.9,9.5 23.4,10.6 C20.9,11.7 20.3,13.2 18.9,15.1 C18.2,16.2 17.3,17.1 16.2,17.8 C20,17.2 24.1,15.4 27.8,16.8 C27.9,16.8 27.9,16.9 28,17 C28,17.1 28,17.2 27.9,17.2 C27.8,17.3 27.8,17.3 27.7,17.3 C24,16.3 20.1,18.8 16.6,19.5 C13.1,20.2 9.2,19.6 6.2,22.5 C6.1,22.6 6,22.6 5.9,22.6 C5.7,24.2 6.6,26.1 7.3,27.8 C7.6,28.4 7.7,29.1 7.7,29.7 C9.2,29.1 10.7,28.6 12.2,28.2 C17.3,26.7 22,24.5 27.4,24.4 C27.8,24.4 27.7,24.9 27.4,24.9 C23.2,25.3 19.7,26.9 15.8,28.5 C12.8,29.7 8.4,30.4 6.6,33.3 C6.5,33.4 6.4,33.5 6.3,33.6 C5.4,34.6 4.6,35.7 3.9,36.9 C2.9,38.9 3.2,41.6 5.9,41.8 C7.2,41.8 8.5,41.6 9.7,41.2 C10.9,40.8 12.3,40.3 13.7,39.9 C20,36.6 26.7,34.3 33.7,33 C34.2,32.9 34.4,33.6 33.9,33.8 C28.3,35.1 22.9,37.1 17.7,39.7 C18.6,39.9 19.5,40.3 20.2,41 C21.3,42.2 22,43.6 22.4,45.1 C23.1,47.2 23,49 25.2,49.4 C28.4,49.9 27.8,47.1 30,45.5 L30.3,45.3 C30.4,45.2 30.5,45.1 30.6,45 L31.1,44.8 C31.5,44.6 31.9,44.4 32.3,44.3 C39.8,41.3 48,39.8 55,35.6 C55.4,35.3 55.8,36 55.4,36.3 C49.2,40.1 42.3,41.9 35.6,44.6 C36,44.9 36.4,45.2 36.7,45.7 C37.1,46.7 37.4,47.7 37.7,48.7 C38.5,50.7 40.3,52 42.4,52.1 C46,52.6 49.3,50.5 52.2,48.6 C53.8,47.5 55.4,46.6 57.2,46 C61.2,43.4 65.3,40.9 69.2,38.1 C69.6,37.8 70,38.4 69.6,38.7 C66.5,41 63.4,43.2 60.3,45.5 C61.4,45.6 62.5,46 63.4,46.6 C64.7,47.7 66,48.9 67.1,50.3 C69,52.2 70.4,52.8 72.7,50.2 C72.9,50 73.1,49.7 73.3,49.4 C73.1,49.1 73.1,48.7 73.4,48.4 C75.9,45.6 78.9,43.4 81.6,40.9 C84.4,38.4 87,35.5 90,33.1 C90.4,32.8 90.9,33.3 90.5,33.7 C87.8,36.4 85.4,39.3 82.6,42 C81.4,43.2 80,44.3 78.7,45.5 C79.4,45.5 80.2,45.8 80.7,46.3 C81.7,47.2 81.4,48.1 81.6,49.4 C82.7,56 89.4,53.3 93.2,51.4 C93.7,51.1 96.1,51.4 96.9,51.2 C99.1,50.7 99.7,49.9 101.1,48.2 C102.3,46.7 103.5,45.9 104.8,46 C103.2,42.2 102.6,37 104.4,34.2 C104.5,34.1 104.6,34 104.8,34 C105,34 105.1,34.1 105.2,34.2 C105.3,34.3 105.3,34.5 105.2,34.6 C102.9,38.6 105.7,44 107.5,47.7 C108,48.3 108.4,49.5 109,49.7 C110.9,50.6 111.4,48.5 112.7,47.8 C114.1,47 115.8,46.9 117.2,47.7 C118.1,48.2 118.9,48.8 119.7,49.4 C120.7,51.2 125.6,53.2 124.7,45.6 C124.6,44.9 125.5,44.7 126.1,44.4 C126.4,44.2 126.8,44.1 127.2,44 C125,41.6 123.2,38.7 121.9,35.7 C121.8,35.4 122.2,35.2 122.4,35.5 C124,39.1 126.7,41.7 129.6,44.1 C132.8,45.2 135.5,49.6 139.3,48.5 C143.4,47.3 146.7,45.4 149.5,49.8 C149.9,50.7 150.4,51.6 151,52.5 C153.8,55.9 157.1,54.3 159.7,52 C161.7,50.3 163.3,48.1 165.7,46.9 C166.8,46.3 168.1,46 169.3,45.9 C168.8,45.3 168.2,44.8 167.7,44.2 C166.1,42.9 164.5,41.8 162.7,40.9 C160.2,39.3 157.8,37.3 157.7,34.1 C157.7,33.8 158.2,33.7 158.2,34 C158.8,37.9 162.5,39.2 165.6,40.9 C168.7,42.6 170.7,45.7 173.8,47.3 C174,47.4 174.2,47.7 174.2,47.9 C176,49.4 177.8,51.1 180.2,50.2 C180.5,50.1 180.8,50.1 181,50.2 C182.7,49.4 184.3,48 186.1,47.3 C188.2,46.6 189.1,47.2 191.1,47.8 L192,48.5 C194.1,49.1 195.7,48.8 197,47.5 C197.7,47.1 198.2,46.5 198.9,46.2 C199.7,45.8 200.5,45.6 201.3,45.6 C198.1,43.6 194.6,41.9 192.6,38.8 C192.3,38.3 193,38 193.3,38.4 C196.3,42.4 202.1,42.3 205,46.2 C208.6,47.4 214.2,49.7 214,43.6 C214,42 213,40.7 213.7,39.1 C214.2,37.9 215.3,37.2 216.5,37.1 C213.9,35.6 210.9,35.4 207.5,34.9 C204.2,34.3 201,33.3 197.9,31.8 C197.5,31.6 197.8,31 198.3,31.2 C201.3,32.5 204.4,33.4 207.7,33.6 C209.8,33.8 212,33.6 214.1,34 C217,34.6 219.6,36.5 221.1,39.1 C221.3,39.4 221.3,39.8 221,40 C221.3,40.5 221.6,41.1 221.9,41.6 C223.3,43.9 225.4,44.3 226.7,42 C227,41.4 227.1,40.7 227.4,40.1 C229.1,36.4 231.1,37.1 234.5,37.4 C236.5,38.3 239.6,38.4 237.8,35.8 C237.4,35.4 237,35 236.6,34.6 C236.2,34.2 235.9,33.6 235.7,33.1 C235.4,32.2 235.5,31.2 236.1,30.5 C237.1,29.4 241.7,28.5 239.7,26.2 C239.3,25.5 238.7,24.9 238,24.4 Z M44.3,31.3 C42.4,31.6 39.8,31.6 38.3,32.9 C38,33.2 37.5,32.7 37.8,32.4 C39.4,30.8 42,30.7 44.1,30.3 C44.7,30.1 45,31.1 44.3,31.3 Z" id="Shape_30_" fill="#BED724" fill-rule="nonzero"></path>
                <path d="M231.6,27.1 C230,24.4 226.8,23.1 223.4,22.4 L222.9,22.1 C219.6,20.2 213.5,20 210.9,17.3 C208,14.2 210.5,11 205,10.3 C200,9.6 195.6,13.7 190.3,11.7 C188.4,11 187.8,9.9 185.7,9.5 C183.6,9.1 181.9,9.8 180.1,10.3 C176.9,11.2 177.6,11.1 174.9,10.2 C173.5,9.6 172,9.2 170.4,9.1 C168.1,9 165.9,9.5 163.6,9.5 C160,9.5 156.6,7.5 153.2,7.6 C150.2,7.7 148.5,10.4 145.5,10.6 C142.7,10.8 140.9,8.8 138.4,8.3 C135.1,7.7 134.8,9.6 131.9,10.5 C128.4,11.5 128.3,9.3 125.9,7.9 C121.4,5.2 115.9,7.8 111.5,10.1 C109.8,11.2 108.1,12.4 106.7,13.8 C104.1,10.7 97.9,11.8 94.5,13.1 C89.2,15.2 85,22.7 79.5,23 C75.3,23.3 74,21.9 70,25.3 C67.7,27.3 67.7,29.4 66,31.4 C63.7,34.2 55.5,35.4 59,40.4 C62.4,39.8 65.6,38.7 68.5,36.9 C72.8,34.6 72.3,35.5 73.5,39.5 C74.2,41.9 73.1,42.2 76.2,42.2 C78.6,42.2 80.4,40.4 82.2,39.2 C87.4,35.9 92.2,32.1 96.7,27.9 C96.5,29.1 95.8,30.3 94,31.9 C90.1,35.4 92.3,35.5 91.8,40 C91.4,43.5 86.6,47.3 92.9,47.4 C95.9,47.5 95.7,45.4 97.7,44.8 C99.4,44.3 99.4,45 101,44.9 C106.5,44.7 104.1,43.9 104,39.6 C103.9,37.4 105.4,30.5 108.5,31.5 C110.2,32.1 110.8,36.4 111.8,37.8 C112.6,38.9 114,39.7 114.7,40.7 C116.1,42.8 116.8,48 120.6,46.9 C123.3,46.2 122.5,43.6 126.5,43.5 C126.7,39.9 120.9,36.2 119.6,33.3 C123.4,32.6 126.4,37.7 130.3,38.8 C133.8,40.6 139.5,41.9 142,42.4 C144.8,43 147.5,41.8 149.8,43.9 C151.5,45.5 150.9,49 154.5,48.4 C159.5,47.5 159.9,40.4 166,43.2 C168.6,44.4 170.4,46.2 172.8,47.5 C174.2,48.3 175.7,48.7 177.2,48.8 C181.4,48.4 180,45.6 181.3,43.2 C185.3,35.9 190,44.4 194.3,44 C196,43.8 196.2,42 197.8,41.8 C199,41.7 200.8,43.1 202.1,43.2 C203.4,43.4 206.3,43.6 207.5,43.2 C211,41.8 208.4,41.7 208.1,39.1 C207.5,33.9 214.1,34.9 218,35.5 C221.5,36.1 227.3,40.3 226.5,33.3 C230,32.6 234.2,31.4 231.6,27.1 Z" id="Path_77_" fill="#60A43A"></path>
                <path d="M240.6,23.8 C239.2,22.2 237.5,20.9 235.6,19.9 L235.1,19.5 C234.9,19.4 234.7,19.3 234.5,19.3 C234.2,19.2 234,19.1 233.7,19 C229.6,17.5 223.5,18.1 219.8,15.8 C216.9,14 218.3,11.5 216.5,9.4 C215.5,8.4 214.2,7.8 212.8,7.6 C207.8,6.4 202.9,7.1 197.8,7.3 C192.7,7.5 190.9,2.8 186.2,3.2 C184.3,3.5 182.4,3.9 180.5,4.4 C179.3,4.8 178,5.1 176.8,5.4 C173.8,5.8 174.1,5.1 172.2,4.3 C169.2,3.1 166.1,5 163.2,4.9 C159.4,3 157.1,0.3 152.7,2 C149.7,3.1 147.1,5.5 143.6,4.7 C141.6,4.2 140.4,2.9 138.3,2.9 C136.4,2.9 134.9,4 133.1,4.4 C130,5.1 128.6,2.6 126.2,1.6 C122.2,4.52415883e-15 118.6,3.6 114.7,3.5 C110.8,3.4 108.6,-0.3 104.5,0.3 C99.8,1 96.1,5.3 91.1,4.3 C86.6,3.5 83.9,1.2 78.9,2 C76.9,2.3 75,2.9 73.2,3.8 C72.3,4.4 71.5,5 70.7,5.7 C70.6,5.7 70.6,5.7 70.5,5.7 C66.5,8.3 63.7,5.5 59.7,5.8 C55.7,6.1 52.9,9.8 48.9,8.8 C46,8.1 44,6.1 40.8,6.1 C37.6,6.1 36.7,8.1 34,9.3 C30.1,11.1 27.6,7.7 23.9,8.4 C22.2,8.8 20.7,9.8 19.6,11.1 C18.5,12.5 17.9,14.2 16.7,15.5 C15,17.2 13.5,17.1 11.3,17.2 C10.4,17.2 9.2,17.2 8.5,17.9 C5.8,18.5 3.5,20.1 3.3,23.2 C3.1,26.3 6.4,28.4 5,31.9 C4.1,34 1.9,35.4 1.1,37.6 C7.21644966e-15,40.7 1.9,43.4 5.1,43.9 C7.5,44.3 9.6,43.6 11.8,42.8 C13.4,42.2 15.8,41.2 17.6,41.8 C19.9,42.6 20.2,45.4 20.9,47.3 C22.2,50.7 25,52.6 28.3,50.1 C29.3,49.4 29.9,48.3 30.8,47.6 C33.7,45.1 34.1,47.4 35.3,49.4 C36.5,51.4 37.4,52.6 39.6,53.5 C45.2,55.8 50.2,52 54.8,49.2 C57.4,47.7 60.5,46.9 63,49 C63.8,49.7 64.4,50.6 65.2,51.3 C66.4,52.5 67.7,53.8 69.5,54 C71.5,54.2 72.9,53 74.1,51.5 C74.5,51 74.8,50.4 75.2,49.9 C75.6,49.1 76.3,48.4 77,47.9 C78.2,47.2 79.2,47.1 79.6,48.7 C80,49.3 79.7,51.2 80.1,52 C82.9,57.7 90.1,55.1 94.3,53 C94.5,52.9 100,53 102,50.6 C102.4,50.1 102.7,49.6 103,49.1 C104.6,47.9 105.8,48.1 106.4,49.6 C106.8,50 107.1,50.6 107.5,51.1 C108.2,51.9 109.3,52.3 110.4,52.2 C114.4,51.6 111.6,47.2 118.2,50.8 C119.8,51.7 120.8,53.3 122.9,53.4 C124.2,53.5 125.5,53 126.4,52 C127.7,50.3 126.2,44.5 131.5,47.6 C133.2,48.6 134.1,50.2 136.2,50.7 C138.3,51.1 140.1,50.2 141.9,49.5 C148.3,47.1 147.9,55.3 153.2,56.3 C158.9,57.4 161.5,51.6 165.7,49.3 C168,48 170.9,48 173,49.5 C173.9,50.3 174.8,51 175.8,51.7 C177.3,52.6 179.1,52.8 180.7,52.1 C181,52 181.2,51.8 181.3,51.6 C181.7,51.5 182.1,51.4 182.5,51.2 C185,50.2 186.5,48.1 189.9,49.5 C190.7,49.8 191.2,50.6 192,50.9 C193.8,51.7 195.2,51.2 196.8,50.2 C198.7,48.9 200.1,47.5 202.7,47.7 C204.5,47.8 206,48.7 207.7,49.1 C211,50 215.6,49.6 216.4,45.5 C216.6,44.4 215.5,42.4 215.8,41.6 C217.7,36.7 219.9,42.2 220.5,43 C221.4,44.4 222.6,45.8 224.3,46 C225.5,46.2 226.8,45.7 227.5,44.7 C228.1,44 228.5,43.2 228.8,42.3 C230,39.4 231.4,39 234.7,39.3 C236.4,39.5 237.9,40.3 239.5,39.1 C240.7,38.3 241.2,36.7 240.6,35.4 C240.4,34.9 239.9,34.5 239.6,34 C238.4,33.3 240.5,31.7 241,31.7 C242.4,31.2 243.4,31 243.8,29.4 C244.1,27.8 242.6,25.6 240.6,23.8 Z M235.8,33.3 C236,33.9 236.3,34.4 236.7,34.8 C237,35.2 237.4,35.6 237.9,36 C239.7,38.6 236.5,38.5 234.6,37.6 C231.2,37.3 229.1,36.6 227.5,40.3 C227.2,40.9 227.1,41.6 226.8,42.2 C225.5,44.6 223.4,44.2 222,41.8 C221.2,40.4 220.6,38.8 219.2,37.9 C217.3,36.7 214.8,36.9 213.8,39.1 C213.1,40.7 214,42 214.1,43.6 C214.3,51 206.2,46.1 203.2,45.8 C201.8,45.6 200.3,45.7 199,46.3 C198.3,46.6 197.8,47.3 197.1,47.6 C195.9,48.9 194.2,49.2 192.1,48.6 L191.2,47.9 C189.2,47.4 188.4,46.7 186.2,47.4 C184.4,48 182.8,49.4 181.1,50.3 C180.8,50.2 180.5,50.2 180.3,50.3 C176.7,51.7 174.5,47.2 171.5,46.3 C169.6,45.8 167.6,46.1 165.8,47 C163.4,48.2 161.8,50.3 159.8,52.1 C157.2,54.3 153.9,56 151.1,52.6 C150.6,51.7 150.1,50.8 149.7,49.9 C146.9,45.5 143.6,47.4 139.5,48.6 C134.4,50.1 131.4,41.7 126.3,44.5 C125.8,44.8 124.8,45.1 124.9,45.7 C125.8,53.3 121,51.3 119.9,49.5 C119.2,48.8 118.3,48.2 117.4,47.8 C116,47 114.3,47.1 112.9,47.9 C111.7,48.7 111.2,50.7 109.3,49.8 C108.6,49.5 108.2,48.2 107.6,47.6 C105.2,45.1 103.3,45.9 101.3,48.3 C99.9,50 99.3,50.8 97.1,51.3 C96.3,51.5 93.9,51.2 93.4,51.5 C89.6,53.5 82.9,56.1 81.8,49.5 C81.6,48.3 81.9,47.3 80.9,46.4 C78.9,44.6 75.9,46.2 74.5,47.9 C73.9,48.6 73.5,49.6 72.9,50.4 C70.6,53 69.2,52.4 67.3,50.5 C66.2,49.2 64.9,47.9 63.6,46.8 C59.7,44.2 55.8,46.6 52.4,48.7 C49.5,50.6 46.2,52.7 42.5,52.2 C40.4,52.1 38.6,50.7 37.9,48.8 C37.6,47.8 37.3,46.8 36.9,45.8 C35.3,43.4 32.4,44.1 30.3,45.6 C28.2,47.1 28.7,50 25.5,49.5 C23.3,49.1 23.4,47.3 22.7,45.2 C22.3,43.6 21.6,42.2 20.5,41.1 C17.4,38.3 13.3,40.4 10,41.4 C8.8,41.8 7.5,42.1 6.2,42 C3.5,41.8 3.2,39 4.2,37.1 C5.1,35.3 6.8,34.1 7.6,32.1 C8,30.8 8,29.2 7.4,27.9 C6.3,25.2 4.7,22.2 7.7,20.1 C9,19.3 10.5,18.7 12,18.4 C12.8,18.6 13.7,18.7 14.5,18.6 C16.4,18.2 17.7,16.8 18.8,15.3 C20.2,13.3 20.9,11.8 23.3,10.8 C25.7,9.8 27.3,10.9 29.6,11.6 C31.9,12.3 33.7,11.7 35.7,10.2 C37.9,8.6 39.5,7.5 42.5,7.9 C44.5,8.2 46,9.7 47.8,10.3 C49.5,10.9 51.3,10.9 52.9,10.2 C54.8,9.5 56.6,8 58.6,7.6 C61.1,7.2 63,8.4 65.4,8.5 C66.7,8.5 68,8.2 69.2,7.5 C70.4,6.9 71.6,6.3 72.7,5.5 C75.4,3.9 78.5,3.1 81.6,3.1 C84.3,3.1 86.5,4.3 89,5.2 C92.6,6.5 95.5,5.8 98.9,4.2 C101.5,3 104.5,1.1 107.5,2 C109.3,2.5 110.6,4 112.4,4.7 C116.3,6.3 119.4,3.4 123.2,3 C127.6,2.5 129,7.4 133.7,6 C134.7,5.7 135.6,5.2 136.6,4.9 C138.9,4.3 140,5.1 142.1,5.8 C143.4,6.3 144.9,6.5 146.3,6.4 C148.5,6.1 150.3,4.9 152.3,4 C156.7,2 159.2,4.6 162.9,6.4 C163.1,6.5 163.3,6.5 163.5,6.4 C164.6,6.5 165.7,6.5 166.7,6.3 C168.9,5.8 171.2,6 173.2,6.9 C174.1,7.3 175,7.5 176,7.4 C178.1,7.2 180.2,6.3 182.3,5.8 C183.2,5.6 184,5.4 184.9,5.2 C187.7,4.6 188.7,5.4 190.9,7 C193.6,8.9 195.8,9.2 199.2,8.9 C203.8,8.5 209.7,7.6 214,9.7 C217,11.1 216.1,15.4 219.2,17.2 C222.2,18.9 226.1,18.7 229.3,19.5 C230.8,19.9 232.3,20.4 233.7,21 C233.8,21.2 233.9,21.4 234.1,21.5 C235.5,22.4 236.9,23.4 238.1,24.6 C238.8,25.2 239.4,25.9 240,26.5 C242,28.8 237.3,29.7 236.4,30.8 C235.6,31.4 235.5,32.4 235.8,33.3 Z M90,33.4 C87,35.8 84.5,38.6 81.6,41.2 C78.8,43.8 75.8,45.9 73.4,48.7 C72.7,49.5 73.8,50.6 74.5,49.8 C77,47 80,44.8 82.7,42.2 C85.4,39.6 87.8,36.6 90.6,33.9 C90.9,33.5 90.4,33 90,33.4 Z M69.3,38.3 C65.2,41.2 61,43.8 56.8,46.5 C56,47 56.8,48.3 57.6,47.8 C61.6,44.8 65.7,41.9 69.7,39 C70.1,38.6 69.7,38 69.3,38.3 Z M55.1,35.9 C47.6,40.4 38.7,41.8 30.8,45.3 C29.9,45.7 30.7,47.1 31.6,46.7 C39.5,43 48,41.2 55.5,36.7 C55.9,36.3 55.5,35.6 55.1,35.9 Z M33.9,33.3 C26.6,34.8 19.3,37 12.8,40.8 C12.4,41 12.3,41.5 12.5,41.8 C12.7,42.2 13.2,42.3 13.5,42.1 C19.9,38.5 26.9,35.8 34,34 C34.6,33.9 34.4,33.2 33.9,33.3 Z M38.3,32.9 C39.9,31.6 42.4,31.6 44.3,31.3 C45,31.2 44.7,30.1 44,30.3 C41.9,30.7 39.3,30.9 37.7,32.4 C37.4,32.8 37.9,33.2 38.3,32.9 Z M104.6,34.4 C102.1,38.2 104,46.1 106.8,49.3 C107.4,49.9 108.2,49.1 107.9,48.4 C106.1,44.7 102.9,38.9 105.3,34.8 C105.4,34.7 105.4,34.5 105.3,34.4 C105.2,34.3 105.1,34.2 104.9,34.2 C104.8,34.1 104.7,34.2 104.6,34.4 Z M122,35.8 C123.9,40.5 127.1,44.6 131.1,47.7 C132,48.4 133.2,47.2 132.3,46.5 C128.5,43.2 124.6,40.4 122.5,35.6 C122.3,35.3 121.9,35.5 122,35.8 Z M157.7,34.3 C157.7,37.5 160.2,39.5 162.7,41.1 C164.5,42.1 166.1,43.2 167.7,44.5 C169.5,46.1 170.7,48 172.9,49.1 C173.9,49.6 174.8,48.1 173.8,47.6 C170.7,46 168.8,42.9 165.6,41.2 C162.4,39.5 158.8,38.2 158.2,34.3 C158.2,33.9 157.7,34 157.7,34.3 Z M198,32 C201,33.5 204.2,34.5 207.6,35.1 C212.5,35.9 216.6,35.8 219.7,40.2 C220.3,41.1 221.7,40.3 221.1,39.3 C219.6,36.7 217,34.8 214.1,34.2 C212,33.8 209.8,34 207.7,33.8 C204.5,33.5 201.3,32.7 198.3,31.4 C197.9,31.2 197.6,31.8 198,32 Z M192.6,39 C195.2,43 200.4,44.7 204,47.6 C204.7,48.1 205.8,47.4 205.3,46.6 C202.5,42.4 196.4,42.6 193.4,38.5 C193,38.1 192.3,38.5 192.6,39 Z M27.6,24.5 C22.2,24.6 17.5,26.9 12.4,28.3 C9.8,29 5.7,29.5 5.3,32.8 C5.2,33.2 5.4,33.6 5.8,33.8 C6.2,34 6.6,33.8 6.8,33.5 C8.6,30.6 13,29.9 16,28.7 C19.8,27.1 23.4,25.5 27.6,25.1 C27.9,25.1 28,24.5 27.6,24.5 Z M27.9,16.9 C23.9,15.4 19.4,17.5 15.5,18 C11.7,18.5 7.6,18 5.5,21.9 C5.4,22.1 5.5,22.4 5.6,22.5 C5.8,22.6 6,22.6 6.2,22.5 C9.2,19.6 12.9,20.3 16.6,19.5 C20.3,18.7 24.1,16.3 27.7,17.3 C27.8,17.3 27.9,17.3 28,17.1 C28,17 28,16.9 27.9,16.9 Z" id="Shape_31_" fill="#3B1100" fill-rule="nonzero"></path>
                <path d="M30.9,26.8 C22.8,30.5 13.5,31.2 6.4,36.8 C6,37.1 6.5,37.6 6.9,37.4 C14.9,33.8 23.6,31.7 31.4,27.6 C32,27.3 31.5,26.5 30.9,26.8 Z" id="Path_78_" fill="#FFFFFF"></path>
                <path d="M37.9,34.5 C32.1,35.5 25.7,36.3 21.1,40.2 C20.4,40.8 21.2,41.8 21.9,41.6 C27.6,40.3 32.5,37.1 38.3,35.8 C39,35.6 38.7,34.4 37.9,34.5 Z" id="Path_79_" fill="#FFFFFF"></path>
                <path d="M20.2,22.4 C16.7,23 13.2,23.2 9.8,24.5 C9.2,24.7 8.8,25.4 9,26 C9.2,26.6 9.8,27 10.4,26.9 C13.9,26.2 17.1,24.6 20.4,23.5 C20.7,23.4 20.8,23.1 20.7,22.8 C20.7,22.6 20.5,22.4 20.2,22.4 Z" id="Path_80_" fill="#FFFFFF"></path>
                <path d="M51.9,40 C48.1,41.3 43.9,42.4 40.7,44.8 C39.6,45.6 40.2,47.7 41.7,47.2 C45.6,45.9 48.9,43.2 52.4,41.1 C52.8,40.8 52.5,39.8 51.9,40 Z" id="Path_81_" fill="#FFFFFF"></path>
                <path d="M70.4,41.9 C69.6,42.4 68.8,42.8 68.1,43.4 C67.3,43.9 66.6,44.4 65.9,45 C65,45.9 66.3,47.1 67.2,46.3 C67.8,45.7 68.4,45 69,44.3 C69.6,43.6 70.1,42.9 70.7,42.2 C70.8,42 70.6,41.8 70.4,41.9 Z" id="Path_82_" fill="#FFFFFF"></path>
                <path d="M88.4,39.1 C86.4,41.2 84.2,43.3 82.8,45.8 C81.9,47.4 84.4,48.9 85.3,47.3 C86.6,44.7 87.5,42 89,39.6 C89.4,39.2 88.8,38.8 88.4,39.1 Z" id="Path_83_" fill="#FFFFFF"></path>
            </g>
        </g>
    </g>
</svg>