<?xml version="1.0" encoding="UTF-8"?>
<svg width="241px" height="70px" viewBox="0 0 241 70" version="1.1" xmlns="http://www.w3.org/2000/svg" xmlns:xlink="http://www.w3.org/1999/xlink">
    <!-- Generator: Sketch 52.3 (67297) - http://www.bohemiancoding.com/sketch -->
    <title>lettuce-lower</title>
    <desc>Created with Sketch.</desc>
    <g id="Page-1" stroke="none" stroke-width="1" fill="none" fill-rule="evenodd">
        <g id="burger_group_selection" transform="translate(-2.000000, -134.000000)">
            <g id="lettuce-lower" transform="translate(2.000000, 134.000000)">
                <path d="M117.4,53.9 C104.4,53.4 91.4,53.5 78.4,52.8 C66.2,52.1 51.6,52.6 40.5,47 C40.3,46.9 40,47.2 40.3,47.4 C51.2,53.2 63.2,53.9 75.3,54.8 C89.3,55.8 103.5,56.4 117.5,55.3 C117.7,55.3 117.9,55.2 118.1,55 C118.3,54.8 118.2,54.6 118.1,54.4 C117.9,54 117.7,53.9 117.4,53.9 Z" id="Path_8_" fill="#3B1100"></path>
                <path d="M197.4,47.1 C185.9,48.7 174.5,50.8 163,52.3 C152.4,53.7 141.7,54.3 131.2,56 C131,56 131.1,56.3 131.3,56.3 C142.6,56.8 154.2,55.3 165.4,53.9 C176.3,52.7 187.2,50.8 197.8,48.2 C198.5,48 198.1,47 197.4,47.1 Z" id="Path_9_" fill="#3B1100"></path>
                <path d="M235.8,36 C235.3,36.2 234.8,36.3 234.3,36.3 C231.5,35.6 228.9,34.3 226.7,32.5 C224.7,30.8 222.3,29.4 219.8,28.6 C219.6,28.6 219.4,28.6 219.4,28.8 C219.4,29 219.4,29.2 219.6,29.2 C224,30.7 227,36.1 231.3,37.7 C231.3,37.8 231.2,37.8 231.2,37.9 C230.7,39.5 232.3,40.9 233.2,41.9 C234.9,43.7 236.2,45.2 233.7,46.9 C230.9,48.8 229.5,46.6 226.8,45.5 C225.3,44.8 223.8,44.3 222.2,44 C220.3,43.8 218.4,44.4 217.1,45.8 C215.2,47.5 215,48.7 212.3,49.3 C210.5,49.7 208.6,49.2 207.3,48 C207.3,47.9 207.2,47.9 207.2,47.8 C205.3,45.8 204.1,43.3 202.2,41.4 C199.8,39 197.1,37.5 195.2,34.4 C195.1,34.2 194.8,34.2 194.7,34.3 C194.5,34.4 194.5,34.6 194.5,34.8 C196.1,37.9 198.6,39.7 200.8,42.3 C201.8,43.5 202.6,44.9 203.5,46.2 C203.5,46.2 203.5,46.3 203.4,46.3 C202.9,48 202.6,49.8 202.6,51.6 C199.2,50.5 195.5,49.7 192.1,51.3 C190,52.3 188.5,54.3 186.5,55.5 C184.4,56.7 180.8,55 180.2,54.7 C179.7,54.5 179.2,54.3 178.7,54.2 C176.9,51.4 175.3,49 174.4,45.7 C174.4,45.6 174.3,45.5 174.1,45.4 C174,45.4 173.8,45.4 173.7,45.5 C173.6,45.6 173.6,45.7 173.6,45.9 C174.1,48.7 175,51.5 176.3,54.1 C176.1,54.1 176,54.2 175.9,54.3 L175.5,54.4 C174.6,54.8 174.4,55.3 173.7,55.8 C173.4,56 173.3,56.5 173,56.8 C169.4,59.8 168.1,57.9 166,56.2 C163.9,54.4 158.9,51.8 157.3,56 C156.7,57.6 157.8,58.2 158.1,59.4 C159.7,66.4 153.2,63.6 149.3,62.4 C147.9,58.9 147.4,55.2 145.8,51.8 C143.8,47.9 141.5,44.2 138.9,40.7 C138.7,40.4 138.2,40.7 138.4,41 C140.9,45 143.1,49.3 144.8,53.7 C145.8,56.4 146.2,59.3 147.3,61.9 C144.8,61.8 143.8,63.2 141.6,64.2 C137.7,66.1 137.5,62.9 134.6,62.2 C132.6,61.7 130.7,62.9 129.2,64 C127.2,65.4 124.9,66.9 122.7,64.8 C121.7,63.9 121.3,62.8 120.3,62 C119,61 117.3,60.7 115.8,61.2 C112.3,62 110,64.2 106.2,64.2 C103.4,64.2 101.1,63.8 98.4,64.8 C97.2,65.3 96.2,66 95.1,66.5 C91.9,68.1 89.3,67.9 87.1,64.8 C86.3,63.5 85.2,62.4 83.9,61.6 C85.5,58 85.9,53.8 86,49.9 C86,49.3 85.1,49.3 85.1,49.9 C84.6,53.8 83.2,57.4 82.1,61.2 C80.2,61.2 78.6,62.4 76.7,62.6 C73.7,63 71.5,60.6 68.6,61.6 C66.4,62.4 64.2,63.5 62.1,61.7 C61.2,61 60.8,59.8 59.8,59.1 L59.6,59 C60.2,57.8 61.1,56.9 61.7,55.7 C62.2,54.5 62.6,53.2 62.7,51.9 C63.4,47.7 64.4,43.6 65.8,39.5 C66,39 65.1,38.7 65,39.3 C63.5,43.3 62.2,47.4 61.1,51.5 C60.5,53.8 58.9,56 58.4,58.3 C57.5,58 56.5,58.1 55.6,58.5 C54.4,59 53.6,60.2 52.4,60.7 C47.8,62.7 47.6,58 47.6,55.4 C47.6,55 47.4,54.7 47.1,54.6 C46.8,54.5 46.4,54.5 46.2,54.8 C45.2,55.6 44.3,56.5 43.5,57.5 C43.1,58 42.2,60 42.1,60 C41.1,60.1 39.8,56.9 38.8,56.4 C37.4,55.6 36.1,56 34.7,56.2 C32.4,56.6 30.5,57 28.7,55.2 C26.9,53.3 26.8,50.3 26.6,47.8 C26.6,47.8 26.6,47.7 26.6,47.7 C27.1,47.1 27.7,46.5 28.2,45.9 C28.8,45 29.4,44.1 29.8,43.1 C30.8,41 31.7,38.7 33.6,37.2 C34.1,36.8 33.6,36 33.1,36.4 C31.1,37.9 29.9,39.9 28.7,42 C27.7,43.6 26.2,45.2 25.5,47 C23.5,47.1 22.6,48.7 20.7,49.1 C17.7,49.9 17.2,46.1 15.1,45.1 C13.3,44.2 11.3,44.6 9.5,44.5 C7.1,44.6 6,43.1 6.1,40 L6.4,39.3 L6.5,39.2 C6.5,39.1 6.6,39 6.6,38.9 C6.6,38.7 6.6,38.4 6.6,38.2 C7.4,36.1 12.5,34 13.9,33.1 C16,31.7 18,30.2 20,28.6 C20.4,28.3 19.9,27.7 19.5,27.9 C16.1,30.5 12.4,32.7 8.5,34.4 C7.3,34.8 6.2,35.5 5.2,36.3 C4.2,36 3,36 2.6,34.6 C2,32.5 5.1,30.2 5.1,28.1 C5.1,26 1.6,23.1 4,21.2 C4.8,20.6 9.1,21.4 10.2,21.4 C12.3,21.5 14.3,21.5 16.4,21.5 C16.8,21.5 16.8,21 16.4,20.9 L13.8,20.6 C14.7,20.1 15.5,19.4 16.2,18.7 C18.3,16.2 17.8,15.2 22.4,15.8 C23.6,16 24,16.5 25.2,16.3 C26.5,16 27.6,15.3 28.4,14.3 C29.2,13.5 29.9,12.4 30.8,11.6 C33.3,9.4 35.3,10.3 38,11.3 C39.9,12.1 42,12.3 44,11.8 C46.1,11.2 48,10 50.1,9.1 C52.9,8 54.5,8.2 57,9.9 C57.6,10.5 58.4,10.9 59.2,11.2 C63.2,12.3 64.8,7.7 68,6.5 C70.5,5.5 72.3,8 74.6,6.9 C77.3,5.7 77.2,1.4 81.5,3.5 C83.1,4.3 84.2,5.7 86.1,6 C87.4,6.1 88.7,6 89.9,5.6 C92.2,5 94.6,4.9 96.9,5.2 C100.4,5.7 104.2,5.8 106.2,2.9 C109.6,6 114.3,1.3 118.3,2.1 C121.1,2.6 123.1,5 125.9,5.3 C126.8,5.3 127.7,5.2 128.6,5 C130.5,4.7 132.5,4.8 134.4,5.3 C136.4,5.8 137.3,6.3 139.2,5.2 C141.8,3.8 141,2.2 145.9,2.7 C147.7,2.9 149.6,3.9 151.4,4.3 C154.9,5 158.4,5.2 161.9,4.7 C165.9,4.1 170.6,1.3 174.3,4.3 C175.8,5.5 176.7,7 178.7,7.5 C179.9,7.7 181.1,7.6 182.2,7.2 C182.9,7 183.6,6.8 184.4,6.5 C186.2,6.3 188,7 189.2,8.3 C191,9.2 193.1,9.4 195,9 C199,8.2 202.1,9.4 205.6,11.1 C207.8,12.3 210.2,13.3 212.6,14 C215.2,14.6 219.7,13.2 221.4,15.3 C222.8,17.1 223,19.2 224.4,20.9 C224.2,21.1 224,21.4 224,21.7 C224,22 224.2,22.3 224.5,22.4 C225.8,23.1 227.1,23.7 228.5,24.1 C230.1,24.5 231.8,24.2 233.3,24.6 C234.6,25 236.5,27.2 236.4,28.3 C236.4,28.5 235.9,28.7 235.9,29 C235.8,29.8 235.4,30 235.6,30.8 C235.8,31.6 236.2,31.7 236.6,32.2 C236.8,32.6 237.8,32.7 238,33 C238.4,34.3 236.5,35.8 235.8,36 Z" id="Path_10_" fill="#BED724"></path>
                <path d="M20.5,23.6 C16,22.1 11.2,23.4 6.6,22.7 C6,22.6 5.6,23.4 6.2,23.7 C10.5,26.2 15.5,25.3 20.2,25.7 C21.5,25.9 21.6,23.9 20.5,23.6 Z" id="Path_11_" fill="#FFFFFF"></path>
                <path d="M29,26.5 C21.8,30 15.1,34.5 9.3,40 C9.1,40.2 9.1,40.5 9.3,40.7 C9.4,41 9.8,41 10,40.9 C16.8,37 23.5,32.5 30,28.2 C30.4,27.9 30.5,27.3 30.2,26.9 C29.9,26.5 29.4,26.4 29,26.5 Z" id="Path_12_" fill="#FFFFFF"></path>
                <path d="M37.5,36.4 C34.5,41.1 30.9,45.8 29,51.2 C28.5,52.5 30.4,53.1 31.2,52.1 C34.4,47.6 36.2,42 38.5,37 C38.7,36.7 38.6,36.3 38.3,36.2 C38,36 37.7,36.1 37.5,36.4 Z" id="Path_13_" fill="#FFFFFF"></path>
                <path d="M37.1,46.3 L34.1,52.1 C34,52.3 34,52.6 34.2,52.8 C34.4,53 34.6,53.1 34.9,53.1 C35.2,53.1 35.4,52.9 35.5,52.6 L37.8,46.5 C38,46.2 37.3,45.9 37.1,46.3 Z" id="Path_14_" fill="#FFFFFF"></path>
                <path d="M68.5,43.2 C67.7,45.9 67.1,48.6 66.3,51.2 C65.6,53.6 64.7,56.1 64.8,58.6 C64.8,60 67,60.8 67.6,59.4 C69.7,54.8 69.5,48.4 69.7,43.4 C69.7,43.1 69.5,42.8 69.1,42.7 C68.7,42.6 68.6,42.9 68.5,43.2 Z" id="Path_15_" fill="#FFFFFF"></path>
                <path d="M229.8,29.9 C229.4,28.8 230.3,27.4 230.2,27 C229.2,24 225.6,26.2 222.6,25.4 C217.9,24.2 220.1,19.3 217.3,16.5 C214.6,13.7 209.4,15.8 206.1,15.4 C203.2,15.1 202.4,13.7 199.9,12.9 C196.5,11.8 193.1,13.8 189.8,13.2 C186.4,12.7 186.2,11.5 182.7,12.2 C180.7,12.6 178.1,13.8 175.9,13.1 C174.1,12.5 173.1,10.3 171.4,9.5 C167.2,7.5 164.2,9.8 160.7,11.8 C156.3,14.4 152.1,12.9 147.7,11.2 C145.9,10.5 145.1,9.5 143,10.4 C140.9,11.3 141.6,12.6 140.2,14 C135.2,18.9 132.5,12.3 127.9,11.4 C124,10.6 123.3,13 119.6,9.8 C117.6,8 117,6.4 113.9,7 C110,7.8 109.9,10.5 108.9,13.6 C107.9,16.7 108.7,16.1 105.1,15.9 C104.4,15.9 103.7,15.8 103.1,15.8 C102.9,15.5 102.7,15.3 102.4,15.1 C100.7,13.7 100.5,13.9 98.3,13.4 C95.8,12.8 93.5,12.2 90.9,12.4 C86.5,12.8 81.1,15.5 79.2,19.8 C78.1,22.5 78.9,24.4 76.9,26.8 C75.4,28.6 70.2,34 75.6,35.5 C76.6,34.5 78.2,34.1 79.5,34.6 C82.1,36.1 80.3,38.5 80,40.5 C79.7,42.5 80.2,44.5 79.7,46.5 C79.1,48.6 76.7,50.9 78,53.3 C79.4,56 83.5,55.6 85.1,53.3 C87.2,50.4 86.4,46 89.9,43.9 C91.2,43.1 92.9,43.7 94.1,43.1 C95.3,42.4 95.3,41.1 96.5,40.6 C99.2,39.5 101.3,41.4 103,43.4 C102.9,47.1 101.3,50.6 100.5,54.1 C100.3,55.1 99.2,58.9 100.2,59.8 C102.4,61.6 104.5,57.4 104.9,56 C105.5,54.1 106.1,47.3 110.2,49 C111.5,49.5 111.4,51.1 112.4,52 C113.8,50.6 114.3,47.7 116.2,46.9 C118.8,45.8 119,47.5 120.6,48.6 L120.2,48.8 C121.4,51.5 120.9,59.6 124.7,60.3 C128.7,61.1 128.5,55.2 131.4,54.5 C133.9,53.9 134.3,57.1 136.1,58.2 C138.8,59.7 138.7,57.4 140.6,57.4 C142.2,57.4 143,59.3 144.7,59.1 C147.2,58.9 146.6,56.4 145.9,54.3 C147.1,55.5 148.9,55.9 150.5,55.3 C154.8,53.6 151.3,45.2 158.1,46 C159.8,46.4 161.3,47.1 162.7,48.2 C163.6,48.6 164.4,49.2 165.2,49.7 C166,50.5 166,52.5 167.4,52.8 C171.1,53.6 168,46.5 171.8,46 C176.9,45.3 176.3,54.2 180.6,55.4 C183.5,56.2 187.6,55.3 189,52.5 C190.2,49.9 188.9,46.7 192.5,45.7 C193.9,45.3 195,46.2 196.3,45.8 C197.4,45 198.4,44.2 199.3,43.2 C200.5,40.8 196.4,38.2 195.6,35.5 C198.7,37.5 201.9,44.8 205.4,45.4 C205.9,48.1 207.6,46.5 208.3,44.9 C209.9,41.1 206.8,39.7 212.3,39.4 C214.7,39.3 217.4,38.9 219.7,39.4 C222.2,40 225.2,41.7 227.8,41.6 C228.8,36.3 226,38.3 223.1,35.8 C220.8,33.8 221.5,31.2 224.7,31.6 C227.6,32 231.3,38 233.8,33.5 C233.1,32.5 230.3,31.2 229.8,29.9 Z" id="Path_16_" fill="#60A43A"></path>
                <path d="M238.5,31.2 C237.1,29.3 240.3,27.2 238.3,24.6 C237.5,23.6 236.3,23 235,22.8 C231.6,22.2 228.7,22.5 225.4,20.8 C224.3,20.2 223.3,21.9 224.4,22.5 C225.7,23.2 227,23.8 228.4,24.2 C229.9,24.6 231.7,24.3 233.2,24.7 C234.5,25.1 236.4,27.3 236.3,28.4 C236.3,28.6 235.8,28.8 235.8,29.1 C235.7,29.9 235.3,30.1 235.5,30.9 C235.7,31.7 236.1,31.8 236.5,32.3 C236.7,32.7 237.7,32.8 237.9,33.1 C238.5,34.3 236.6,35.7 235.8,36 C234.4,36.6 231.9,36.1 231.3,38 C230.8,39.6 232.4,41 233.3,42 C234.9,43.8 236.2,45.3 233.8,47 C231,48.9 229.6,46.7 226.9,45.6 C225.4,44.9 223.9,44.4 222.3,44.1 C220.4,43.9 218.5,44.5 217.2,45.9 C215.3,47.6 215.1,48.8 212.4,49.4 C209.2,50.2 207.3,48.2 205.2,45.9 C205,45.6 204.6,45.5 204.2,45.6 C203.8,45.7 203.5,46 203.5,46.4 C203,48.1 202.7,49.9 202.6,51.7 C199.2,50.6 195.5,49.8 192.1,51.4 C190,52.4 188.5,54.4 186.5,55.6 C184.4,56.8 180.8,55.1 180.2,54.8 C179.1,54.2 177.8,54 176.6,54.2 C176.5,54.1 176.4,54.1 176.3,54.1 C176.2,54.1 176.1,54.2 176,54.3 L175.6,54.4 C174.7,54.8 174.5,55.3 173.8,55.8 C173.5,56 173.4,56.5 173.1,56.8 C169.5,59.8 168.2,57.9 166.1,56.1 C164,54.3 159,51.7 157.4,55.9 C156.8,57.4 157.9,58.1 158.2,59.3 C160.1,67.7 150.3,62 147.5,61.9 C144.9,61.8 143.9,63.2 141.7,64.2 C137.8,66.1 137.6,62.9 134.7,62.2 C132.7,61.7 130.8,62.9 129.3,64 C127.3,65.4 125,66.9 122.8,64.8 C121.8,63.9 121.4,62.8 120.3,62 C119,61 117.3,60.7 115.8,61.2 C112.3,62 110,64.2 106.2,64.2 C103.4,64.2 101.1,63.8 98.4,64.8 C97.2,65.3 96.2,66 95.1,66.5 C91.9,68.1 89.3,67.9 87.1,64.8 C86.1,63.4 85.1,62 83.5,61.4 C81,60.6 79,62.3 76.7,62.6 C73.7,63 71.5,60.6 68.6,61.6 C66.4,62.4 64.2,63.5 62.1,61.7 C61.2,61 60.8,59.8 59.8,59.1 C58.6,58.1 57,57.9 55.6,58.5 C54.4,59 53.6,60.2 52.4,60.7 C47.8,62.7 47.6,58 47.6,55.4 C47.6,55 47.4,54.7 47.1,54.6 C46.8,54.5 46.4,54.5 46.2,54.8 C45.2,55.6 44.3,56.5 43.5,57.5 C43.1,58 42.2,60 42.1,60 C41.1,60.1 39.8,56.9 38.8,56.4 C37.4,55.6 36.1,56 34.7,56.2 C32.4,56.6 30.5,57 28.7,55.2 C26.9,53.3 26.8,50.3 26.6,47.8 C26.6,47.3 26.2,47 25.8,47 C23.6,47 22.6,48.7 20.7,49.2 C17.7,50 17.2,46.2 15.1,45.2 C13.3,44.3 11.3,44.7 9.5,44.6 C7.1,44.7 6,43.2 6.2,40.1 L6.6,39 C6.5,38.6 6.8,38.1 6.6,37.6 C5.9,35.7 3.3,36.9 2.7,34.7 C2.1,32.5 5.2,30.3 5.2,28.2 C5.2,26.1 1.7,23.2 4.1,21.3 C4.9,20.7 9.2,21.5 10.3,21.5 C12.4,21.5 14.4,21.6 16.5,21.6 C16.9,21.6 16.9,21.1 16.5,21 C13.9,20.7 11.4,20.4 8.8,20.2 C7.1,20.1 4.8,19.5 3.1,19.8 C1,20.1 0,21.3 0.6,23.3 C1.2,25.3 2.2,25.6 2.5,27.7 C2.8,30.3 1.5,30.9 1,33.1 C0.5,34.7 1.1,36.4 2.3,37.5 C3.3,38.5 2.8,36.9 3.7,38.9 C4.9,41.6 3.6,38.7 3.7,41.1 C3.6,41.9 3.7,42.6 4,43.4 C5,45.4 7.5,46 9.5,46.2 C10.8,46.3 12.3,46 13.5,46.4 C14.7,46.8 15.6,48.3 16.4,49.2 C17.1,50 17.3,50.8 18.4,51.2 C20.9,52.1 22.7,49.3 25.1,48.7 C25.4,52.7 26.5,57.6 31.1,58.4 C34.5,59 36.7,56.6 39.7,60.1 C40.7,61.3 40.9,62.3 42.7,62.2 C43.1,62.2 43.4,61.9 43.5,61.6 C44,60.1 44.9,58.7 46,57.6 C46.3,60.5 47.4,63.7 50.8,63.5 C51.6,63.4 52.3,63.2 53,62.8 C54.8,61.8 55.2,60.8 57.5,61 C59.9,61.2 59.6,61.6 60.9,63.2 C61.5,64 62.3,64.6 63.1,65 C65.3,65.9 66.4,64.2 68.4,63.8 C71.5,63.1 74.1,65.3 77.2,64.5 C79.5,63.9 81.9,62.7 84.3,64.2 C85.2,64.8 86,66.5 86.7,67.4 C88,69 89.5,70.1 91.7,70 C94.5,69.8 96.8,67.7 99.3,66.7 C102.9,65.3 106.7,66.9 110.4,65.8 C111.5,65.4 112.6,64.9 113.7,64.3 C116.7,62.9 118.6,63.1 120.9,65.4 C122,66.5 122.7,67.7 124.3,68.1 C127.2,68.8 129.1,66.3 131.3,65 C134.9,62.8 135.9,67.6 139.2,67.6 C141.9,67.6 143.8,64.7 146.5,64.3 C150.3,63.7 153.4,66.8 157.2,66.2 C159,66 160.6,64.8 161.3,63.1 C161.6,62.3 161.6,61.4 161.3,60.6 C161.2,60.2 160.7,59.8 160.6,59.5 C160.4,59.2 160.1,58.9 159.8,58.6 C159.7,55.4 161.6,55.7 164.3,57.3 C165.5,57.7 166.9,59.7 168.2,60.2 C169.1,60.6 170,60.8 171,60.7 C173.9,60.3 175,56.7 177.5,56.2 C179.9,58.4 183.4,59 186.4,58 C188.7,57.1 190.2,55.2 192.3,53.9 C195.9,51.7 199.9,53 203.5,54.2 C203.8,54.3 204.2,54.2 204.4,54 C204.7,53.8 204.8,53.5 204.8,53.2 C204.7,51.7 204.9,50.2 205.2,48.8 C207.3,50.8 209.8,52.6 212.8,52.1 C217.9,51.2 217.9,44.8 224.5,46.8 C227.9,47.8 231.4,50.7 235,48.2 C237.4,46.6 237.6,44 235.9,41.8 C235.6,41.4 234.7,40.9 234.5,40.4 C233.3,37.8 235.1,38.4 236.4,38.1 C237.8,37.8 239.4,37.3 240.3,35.9 C241.7,33.2 239.7,32.9 238.5,31.2 Z" id="Path_17_" fill="#3B1100"></path>
                <path d="M231.2,22.4 C228.4,22.2 225.9,20.5 224.6,18 C224.2,16.8 223.6,15.6 223.1,14.4 C222.5,13.3 221.5,12.6 220.3,12.3 C217.6,11.7 215,12.9 212.1,12 C209.2,11.1 206.8,9.5 204.1,8.4 C202,7.4 199.6,6.9 197.3,6.9 C196.2,6.9 195.8,7.2 194.6,7.3 C189.2,7.8 190.7,6.2 187.8,5 C186,4.3 184.6,4.8 182.8,5.2 C179.7,5.9 178.6,5.7 176,3.5 C175.3,2.8 174.6,2.2 173.7,1.7 C171.6,0.6 169.5,1.1 167.2,1.7 C163.6,2.9 159.8,3.4 155.9,3.3 C150.7,3 144.8,-1.2 140,2.2 C137.8,3.8 137,4 134.3,3.3 C133.5,2.9 132.7,2.6 131.8,2.4 C130.9,2.4 130,2.6 129.1,2.9 C126.4,3.4 125.1,3.5 122.6,2.3 C120.9,1.4 119.3,0.4 117.3,0.3 C114.3,0.2 108.9,4.6 106.6,1 C106.4,0.7 106,0.5 105.7,0.6 C105.3,0.6 105,0.9 104.9,1.2 C103.1,5.6 97.6,3.4 94.3,3.2 C91,3 87.7,5.2 84.6,3.8 C81.9,2.5 79.8,-0.7 76.7,1.6 C76,2.1 75.8,2.8 75.3,3.3 C73.8,4.7 72.6,4.8 70.7,4.6 C69.7,4.3 68.6,4.4 67.6,4.7 C66,5.3 64.8,6.7 63.5,7.8 C62.2,8.9 61,9.9 58.9,9 C57.9,8.6 57,7.4 55.9,6.9 C52.5,5.3 49.1,7.6 46.1,8.9 C42.3,10.7 40.3,9.8 36.5,8.7 C35,8 33.3,7.9 31.8,8.5 C30.4,9.2 29.1,10.3 28.2,11.6 C27.3,12.6 26.2,14.2 24.9,14.5 C23.6,14.8 22,13.2 20.8,13.2 C19.5,13.1 18.3,13.5 17.3,14.3 C15.8,15.6 12.9,22.7 10,19.7 C9.8,19.5 9.4,19.8 9.6,20 C11.5,22.6 14.5,20.7 16.2,18.8 C18.3,16.3 17.8,15.3 22.4,15.9 C23.6,16.1 24,16.6 25.2,16.4 C26.5,16.1 27.6,15.4 28.4,14.4 C29.2,13.6 29.9,12.5 30.8,11.7 C33.4,9.5 35.3,10.4 38,11.4 C39.9,12.2 42,12.4 44,11.9 C46.1,11.3 48,10 50,9.2 C52.8,8 54.4,8.1 56.9,9.9 C57.5,10.5 58.3,10.9 59.1,11.2 C63.1,12.3 64.7,7.7 67.9,6.5 C70.4,5.5 72.2,8 74.5,7 C77.2,5.8 77.1,1.5 81.4,3.6 C83,4.4 84.1,5.8 86,6.1 C87.3,6.2 88.6,6.1 89.8,5.7 C92.1,5.1 94.5,5 96.8,5.3 C100.3,5.8 104.1,5.9 106.1,3 C109.5,6.1 114.2,1.4 118.2,2.1 C121,2.6 123,5 125.8,5.3 C126.7,5.3 127.6,5.2 128.5,5 C130.4,4.7 132.4,4.8 134.3,5.3 C136.3,5.8 137.2,6.3 139.1,5.2 C141.7,3.8 140.9,2.2 145.8,2.7 C147.6,2.9 149.5,3.9 151.3,4.3 C154.8,5 158.3,5.2 161.8,4.7 C165.8,4.1 170.5,1.3 174.2,4.3 C175.7,5.5 176.6,7 178.6,7.4 C179.8,7.6 181,7.5 182.1,7.1 C182.8,6.9 183.5,6.7 184.3,6.5 C186.1,6.3 187.9,7 189.1,8.3 C190.9,9.2 193,9.4 194.9,9 C198.9,8.2 202,9.4 205.5,11.1 C207.7,12.3 210.1,13.3 212.5,14 C215.1,14.6 219.6,13.2 221.3,15.3 C223,17.5 222.9,19.9 225.1,21.8 C226.8,23.2 228.9,24 231.1,24 C232.3,24.1 232.2,22.5 231.2,22.4 Z" id="Path_18_" fill="#3B1100"></path>
                <path d="M19.4,27.9 C16,30.5 12.3,32.7 8.4,34.4 C6.3,35.3 3.8,36.3 4.6,39.1 C4.9,40.1 6.5,39.9 6.4,38.9 C6.2,36.6 12.2,34.2 13.8,33.1 C15.9,31.7 17.9,30.2 19.9,28.6 C20.2,28.2 19.8,27.6 19.4,27.9 Z" id="Path_19_" fill="#3B1100"></path>
                <path d="M33,36.3 C31,37.8 29.8,39.8 28.5,41.9 C27.2,44 25.2,45.8 24.9,48.2 C24.8,48.9 25.8,48.9 26,48.4 C26.4,47.4 27.4,46.7 28,45.8 C28.6,44.9 29.2,44 29.6,43 C30.6,40.9 31.5,38.6 33.4,37.1 C34,36.8 33.5,36 33,36.3 Z" id="Path_20_" fill="#3B1100"></path>
                <path d="M64.8,39.5 C63.3,43.5 62,47.6 60.9,51.7 C60.2,54.5 57.9,57.2 58.1,60.2 C58.1,60.7 59,60.9 59.1,60.3 C59.4,58.5 60.8,57.4 61.6,55.8 C62.1,54.6 62.5,53.3 62.6,52 C63.2,47.8 64.2,43.7 65.6,39.7 C65.8,39.2 65,39 64.8,39.5 Z" id="Path_21_" fill="#3B1100"></path>
                <path d="M149.6,63.1 C147.9,59.4 147.5,55.4 145.8,51.7 C143.8,47.9 141.5,44.2 138.9,40.7 C138.7,40.4 138.2,40.7 138.4,41 C140.9,45 143.1,49.3 144.8,53.7 C146,57.1 146.4,60.8 148.2,63.9 C148.4,64.3 148.9,64.4 149.3,64.2 C149.7,64 149.8,63.5 149.6,63.1 Z" id="Path_22_" fill="#3B1100"></path>
                <path d="M207.2,47.8 C205.3,45.8 204.1,43.3 202.2,41.4 C199.8,39 197,37.5 195.2,34.4 C195.1,34.2 194.8,34.2 194.7,34.3 C194.6,34.4 194.5,34.6 194.5,34.8 C196.1,37.9 198.6,39.7 200.8,42.2 C202.7,44.4 203.6,47.4 206.4,48.8 C206.7,49 207.1,48.9 207.3,48.6 C207.5,48.3 207.5,48.1 207.2,47.8 Z" id="Path_23_" fill="#3B1100"></path>
                <path d="M235.2,36.6 C232.1,36 229.1,34.6 226.6,32.6 C224.6,30.9 222.2,29.5 219.7,28.7 C219.5,28.7 219.3,28.7 219.3,28.9 C219.3,29.1 219.3,29.3 219.5,29.3 C225.1,31.2 228.5,39.4 235.1,38.2 C235.4,38.1 235.7,37.8 235.7,37.4 C235.8,37 235.6,36.7 235.2,36.6 Z" id="Path_24_" fill="#3B1100"></path>
                <path d="M179.2,55 C177.3,51.9 175.4,49.3 174.4,45.6 C174.3,45.4 174.1,45.3 173.9,45.3 C173.7,45.3 173.6,45.6 173.6,45.8 C174.3,49.3 175.4,53.3 177.7,56.1 C178.4,57 179.7,55.9 179.2,55 Z" id="Path_25_" fill="#3B1100"></path>
                <path d="M85,50 C84.5,54.1 83,57.7 81.9,61.7 C81.6,62.7 83.1,63.3 83.5,62.4 C85.4,58.6 85.8,54.2 85.9,50.1 C86,49.4 85.1,49.5 85,50 Z" id="Path_26_" fill="#3B1100"></path>
            </g>
        </g>
    </g>
</svg>