<svg id="Objects" xmlns="http://www.w3.org/2000/svg" viewBox="0 0 248.91 227.51"><defs><style>.cls-1{fill:#fcb641;}.cls-2{fill:#fff;}.cls-3{fill:#e8940f;}.cls-4{fill:#b36d00;}.cls-5{fill:#fdd403;}.cls-6{fill:#3b1100;}.cls-7{fill:#bed724;}.cls-8{fill:#60a43a;}.cls-9{fill:#87431f;}.cls-10{fill:#b2832b;}.cls-11{fill:#572b14;}.cls-12{fill:#d95e55;}.cls-13{fill:#c2392f;}.cls-14{fill:#912b23;}.cls-15{fill:#fffeff;}.cls-16{fill:#ed9f03;}</style></defs><title>burger</title><path class="cls-1" d="M245.48,193.9c-.06-.53-.13-1.11-.22-1.73a14.19,14.19,0,0,1-3.64,3.06,39.76,39.76,0,0,1-9,4.43.2.2,0,0,1-.16-.37,60.48,60.48,0,0,0,6.2-3.92c2.17-1.61,5-3.37,5.84-6.08a.91.91,0,0,1,.16-.31,25.55,25.55,0,0,0-1-3.74c-5-15.19-28.15-17.73-42-19.53a466.49,466.49,0,0,0-103.5-2c-9.15.85-18.29,2-27.35,3.43-6.42,1.05-13,2.45-18.8,5.44-6.61,3.4-11.48,8.93-12.93,16.34-.09.47-.16.94-.23,1.41,3.59,5.29,8.65,8.18,14.79,9.74.15,0,.11.26,0,.27-5.81.09-11.28-2.9-15-7.22-.06,1.08-.09,2.17-.07,3.26,0,.92.2,2.1.16,3a108.19,108.19,0,0,0,1.89,12.06c4.5,12.37,16.37,21.51,29,26,16.61,5.94,35,7.84,52.54,8.72a306.53,306.53,0,0,0,54.67-2.34c9.61-1.24,19.17-2.91,28.64-4.93,8.31-1.77,17-3.39,24.23-8.14C242.2,222.53,247.78,208,245.48,193.9Z" transform="translate(-20.55 -21.25)"/><path class="cls-2" d="M81.53,232.59c-4.06-1-7.19-3.15-10.83-5.07-2.9-1.53-5.84-3-8.71-4.56-6.06-3.34-12.29-7.12-17.28-12-.44-.43-1.23.13-.87.66,4.31,6.35,8.94,11.7,15.55,15.77,6.23,3.83,14.24,8.27,21.82,7.55C82.49,234.85,83,232.94,81.53,232.59Z" transform="translate(-20.55 -21.25)"/><path class="cls-3" d="M245.48,193.9c-.06-.53-.13-1.11-.22-1.73a14.19,14.19,0,0,1-3.64,3.06,39.76,39.76,0,0,1-9,4.43.2.2,0,0,1-.16-.37,60.48,60.48,0,0,0,6.2-3.92c2.17-1.61,5-3.37,5.84-6.08a.91.91,0,0,1,.16-.31,25.55,25.55,0,0,0-1-3.74c-5-15.19-28.15-17.73-42-19.53a466.49,466.49,0,0,0-103.5-2c-9.15.85-18.29,2-27.35,3.43-6.42,1.05-13,2.45-18.8,5.44A24.29,24.29,0,0,0,40.6,184.3c.07.5.15,1,.25,1.54.91,4.73,5.31,9.29,9.65,13.21,1,.37,2.11.7,3.22,1,.15,0,.11.26,0,.27a16.32,16.32,0,0,1-1.86-.09c1.77,1.56,3.47,3,4.86,4.3,4,3.76,11.13,9.26,16.82,9.85l10.93,5.46c2.89,1,5.59-.07,8.51.76,2,.56,3.45,2.42,5.45,2.91s4.42-.61,6.37-.05c2.17.63,3.2,2.85,5.3,3.55,5.63,1.87,9.57-3.12,15-1.87,2.75.63,4.32,3.55,7.26,3.84,2.2.21,4.79-1.79,6.81-2.31,5.56-1.43,8.19,0,13.21.49,5.92.59,10.32-4,16.13-3.67,4.58.23,7.34,2.47,7.46,7.31.13,5.17-2.3,6-7,7.7-11,3.87-22.48,3.81-34.18,3.81-11.51,0-22.43,1.37-33.58,2.15,7,.85,14.06,1.36,21,1.71a306.53,306.53,0,0,0,54.67-2.34c9.61-1.24,19.17-2.91,28.64-4.93,8.31-1.77,17-3.39,24.23-8.14C242.2,222.53,247.78,208,245.48,193.9Z" transform="translate(-20.55 -21.25)"/><path class="cls-4" d="M245.26,192.17a14.19,14.19,0,0,1-3.64,3.06,39.76,39.76,0,0,1-9,4.43.2.2,0,0,1-.16-.37,60.48,60.48,0,0,0,6.2-3.92c2.17-1.61,5-3.37,5.84-6.08a.91.91,0,0,1,.16-.31,25.55,25.55,0,0,0-1-3.74c-5-15.19-28.15-17.73-42-19.53q-17.36-2.25-34.83-3.24l4.94,3.43s48.86,13.6,54.4,21.15,9.57,18.13-4.54,34.75c-11.41,13.46-39.33,20.31-50.62,22.7,1.93-.22,3.85-.44,5.77-.69,9.61-1.24,19.17-2.91,28.64-4.93,8.31-1.77,17-3.39,24.23-8.14,12.47-8.21,18.05-22.72,15.75-36.84C245.42,193.37,245.35,192.79,245.26,192.17Z" transform="translate(-20.55 -21.25)"/><path class="cls-5" d="M245.48,193.9c-.06-.53-.13-1.11-.22-1.73a11.52,11.52,0,0,1-2.82,2.51,20.9,20.9,0,0,1,.07,2.72c-.36,11.31-4,24.08-14.59,30.65-7.87,4.89-30.88,11.38-42.6,14.54q10.14-1.58,20.18-3.71c8.31-1.77,17-3.39,24.23-8.14C242.2,222.53,247.78,208,245.48,193.9Z" transform="translate(-20.55 -21.25)"/><path class="cls-5" d="M242.15,192.72a7.66,7.66,0,0,0,2.39-3.43.91.91,0,0,1,.16-.31,25.55,25.55,0,0,0-1-3.74c-5-15.19-28.15-17.73-42-19.53q-19.45-2.52-39.08-3.47a31.34,31.34,0,0,0,5.79.86C226.87,167.87,240,181.75,242.15,192.72Z" transform="translate(-20.55 -21.25)"/><path class="cls-6" d="M246.37,187.58c-2.43-12.81-17-19.3-29-21.54-19-3.54-38.6-5.13-57.91-5.92a464.06,464.06,0,0,0-59.66,1.41c-9.66.87-19.31,2-28.89,3.54-6.8,1.08-13.68,2.56-19.85,5.72-6.62,3.4-11.78,9-13.57,16.31A26.44,26.44,0,0,0,37,190a.79.79,0,0,0-.1.69A37,37,0,0,0,37.51,202c-.67,13.48,8.86,25.65,20.28,32.37,16,9.42,36.26,11.7,54.41,13.3a297.68,297.68,0,0,0,61.59-1.24q15.51-1.86,30.81-5.06c8.78-1.83,18.11-3.44,25.8-8.34A39.18,39.18,0,0,0,246.37,187.58Zm-16.64,43.16c-7.21,4.75-15.92,6.37-24.23,8.14-9.47,2-19,3.69-28.64,4.93a306.53,306.53,0,0,1-54.67,2.34c-17.51-.88-35.93-2.78-52.54-8.72-12.65-4.52-24.52-13.66-29-26a108.19,108.19,0,0,1-1.89-12.06c0-.9-.12-2.08-.16-3,0-1.09,0-2.18.07-3.26,3.75,4.32,9.22,7.31,15,7.22.15,0,.19-.24,0-.27-6.14-1.56-11.2-4.45-14.79-9.74.07-.47.14-.94.23-1.41,1.45-7.41,6.32-12.94,12.93-16.34,5.83-3,12.38-4.39,18.8-5.44,9.06-1.48,18.2-2.58,27.35-3.43a466.49,466.49,0,0,1,103.5,2c13.84,1.8,37,4.34,42,19.53a25.55,25.55,0,0,1,1,3.74.91.91,0,0,0-.16.31c-.81,2.71-3.67,4.47-5.84,6.08a60.48,60.48,0,0,1-6.2,3.92.2.2,0,0,0,.16.37,39.76,39.76,0,0,0,9-4.43,14.19,14.19,0,0,0,3.64-3.06c.09.62.16,1.2.22,1.73C247.78,208,242.2,222.53,229.73,230.74Z" transform="translate(-20.55 -21.25)"/><path class="cls-6" d="M139,209.11c-13-.49-26-.36-39-1.1-12.21-.7-26.77-.24-37.93-5.85-.25-.13-.48.25-.22.38,10.94,5.78,22.89,6.55,35,7.38,14,1,28.19,1.62,42.16.49A.65.65,0,0,0,139,209.11Z" transform="translate(-20.55 -21.25)"/><path class="cls-6" d="M218.94,202.32c-11.5,1.56-22.91,3.71-34.43,5.21-10.57,1.38-21.31,2-31.84,3.74-.19,0-.13.33.05.33,11.32.5,22.9-1,34.11-2.39a252.21,252.21,0,0,0,32.44-5.71C220.05,203.29,219.7,202.21,218.94,202.32Z" transform="translate(-20.55 -21.25)"/><path class="cls-7" d="M257.31,191.29a5.74,5.74,0,0,1-1.48.35,19.21,19.21,0,0,1-7.6-3.78,21,21,0,0,0-6.87-3.94.32.32,0,0,0-.18.62c4.36,1.48,7.42,6.88,11.72,8.52,0,.07-.06.13-.09.21-.53,1.56,1.13,3,2,4,1.65,1.84,2.95,3.33.51,5-2.83,1.92-4.19-.3-6.87-1.44a15.57,15.57,0,0,0-4.64-1.5,6.46,6.46,0,0,0-5.14,1.76c-1.91,1.69-2.1,2.87-4.75,3.51a5.38,5.38,0,0,1-5-1.33.63.63,0,0,0-.12-.18c-1.87-2-3.07-4.48-5-6.4-2.43-2.43-5.15-3.92-7-7a.41.41,0,0,0-.7.41c1.63,3.06,4.07,4.86,6.26,7.45,1,1.21,1.77,2.63,2.67,3.9a1.39,1.39,0,0,0-.06.13,20.71,20.71,0,0,0-.85,5.3c-3.41-1.07-7.12-1.88-10.48-.26-2.14,1-3.57,3-5.64,4.16s-5.71-.5-6.33-.8a8.2,8.2,0,0,0-1.5-.54c-1.75-2.77-3.4-5.23-4.3-8.53a.37.37,0,0,0-.72.2,28.75,28.75,0,0,0,2.68,8.18.4.4,0,0,0-.39.25l-.41.15c-.9.41-1.08.9-1.82,1.43-.32.22-.44.72-.74,1-3.62,3-4.9,1.14-7-.65s-7.07-4.41-8.69-.21c-.6,1.55.51,2.15.79,3.39,1.57,7-4.95,4.22-8.77,3-1.4-3.46-1.87-7.2-3.53-10.59A84.63,84.63,0,0,0,160.38,196c-.2-.29-.66,0-.48.28A78.22,78.22,0,0,1,166.35,209c1,2.68,1.39,5.58,2.46,8.21-2.53-.09-3.53,1.28-5.68,2.32-3.86,1.87-4.14-1.35-7-2-2-.48-3.85.71-5.42,1.82-2,1.37-4.26,2.94-6.48.85-1-.88-1.38-2-2.45-2.83a5.19,5.19,0,0,0-4.5-.83c-3.47.82-5.83,3-9.63,3-2.76,0-5.13-.4-7.77.62-1.16.46-2.2,1.17-3.31,1.73-3.21,1.63-5.82,1.38-8-1.66a9,9,0,0,0-3.19-3.2c1.61-3.63,2-7.77,2.1-11.7,0-.62-.87-.58-.94,0-.52,3.94-1.9,7.52-3,11.29-1.89,0-3.53,1.17-5.44,1.39-3,.36-5.16-2-8.14-1-2.22.79-4.37,1.89-6.51.11-.87-.73-1.32-1.9-2.27-2.59l-.16-.11c.57-1.16,1.52-2.11,2.1-3.27a12.05,12.05,0,0,0,1-3.78A73.72,73.72,0,0,1,87.2,195c.18-.55-.65-.76-.85-.23A113.78,113.78,0,0,0,82.49,207c-.58,2.28-2.21,4.46-2.69,6.79A4.12,4.12,0,0,0,77,214c-1.2.5-2,1.71-3.16,2.2-4.58,1.95-4.8-2.68-4.77-5.32a.88.88,0,0,0-1.49-.62,12.75,12.75,0,0,0-2.67,2.67c-.24.34-1.16,2.27-1.25,2.28-1,.11-2.33-3.08-3.26-3.61-1.39-.8-2.66-.43-4.14-.2-2.3.36-4.25.85-6-1s-1.93-4.89-2.1-7.35a.7.7,0,0,0,0-.14c.47-.63,1.11-1.16,1.58-1.78a15.22,15.22,0,0,0,1.58-2.81c1-2.13,1.85-4.42,3.8-5.87.47-.35,0-1.16-.47-.8-2,1.5-3.18,3.49-4.45,5.63-1,1.63-2.49,3.16-3.2,5-2,.14-2.92,1.66-4.75,2.13-3,.79-3.46-3-5.6-4-1.78-.86-3.76-.47-5.64-.64q-3.57.14-3.34-4.49l.29-.72.05-.1c0-.1.08-.19.11-.28a2.46,2.46,0,0,1,.05-.71c.83-2.12,5.85-4.15,7.28-5.09a66.67,66.67,0,0,0,6.06-4.52c.35-.3-.12-.93-.5-.65a56,56,0,0,1-11,6.53,9.59,9.59,0,0,0-3.26,1.91c-1-.32-2.19-.34-2.58-1.72-.58-2.06,2.5-4.38,2.52-6.54s-3.53-5-1.08-6.87c.83-.63,5.06.19,6.16.21,2.05.05,4.11.06,6.16.08.38,0,.36-.54,0-.59l-2.63-.29a8.55,8.55,0,0,0,2.35-1.93c2.09-2.47,1.6-3.51,6.2-2.88,1.16.16,1.55.72,2.82.49a6.4,6.4,0,0,0,3.24-2c.85-.85,1.53-1.89,2.43-2.68,2.55-2.2,4.5-1.27,7.2-.27a9.26,9.26,0,0,0,6,.5c2.15-.56,4.05-1.79,6.07-2.66,2.81-1.21,4.44-1.07,6.94.69a7.14,7.14,0,0,0,2.2,1.31c4,1.08,5.65-3.46,8.8-4.68,2.5-1,4.26,1.51,6.56.45,2.69-1.23,2.61-5.47,6.89-3.37,1.6.79,2.7,2.21,4.55,2.53a9.13,9.13,0,0,0,3.77-.45,17.76,17.76,0,0,1,7-.39c3.5.47,7.28.56,9.34-2.31,3.4,3.07,8.14-1.59,12.14-.85,2.75.51,4.78,2.89,7.62,3.18a9.71,9.71,0,0,0,2.73-.32,14.54,14.54,0,0,1,5.84.26c2,.52,2.89,1,4.8-.08,2.58-1.44,1.84-3,6.66-2.47,1.84.21,3.7,1.24,5.53,1.64a30.19,30.19,0,0,0,10.51.4c4-.56,8.67-3.44,12.41-.39,1.48,1.21,2.42,2.73,4.42,3.15a7.56,7.56,0,0,0,3.5-.29c.72-.23,1.45-.44,2.18-.65a6,6,0,0,1,4.84,1.81,8.5,8.5,0,0,0,5.84.67c4-.75,7.07.41,10.64,2.14a36.77,36.77,0,0,0,7,2.89c2.55.63,7.07-.81,8.76,1.34,1.38,1.77,1.6,3.89,3,5.63a.93.93,0,0,0,.12,1.55,16.54,16.54,0,0,0,4,1.71c1.55.39,3.28.06,4.77.46,1.32.35,3.19,2.58,3.08,3.66,0,.24-.51.39-.54.68-.07.78-.48,1-.29,1.83s.62.85,1,1.44c.25.38,1.18.45,1.36.84C260,189.56,258.08,191,257.31,191.29Z" transform="translate(-20.55 -21.25)"/><path class="cls-2" d="M42,178.81c-4.53-1.48-9.3-.18-13.92-.89-.58-.09-1,.68-.43,1,4.29,2.45,9.32,1.63,14.05,2C43,181.1,43.12,179.18,42,178.81Z" transform="translate(-20.55 -21.25)"/><path class="cls-2" d="M50.54,181.78a76.66,76.66,0,0,0-19.68,13.47.57.57,0,0,0,.69.89c6.78-3.89,13.46-8.36,20-12.67A1,1,0,0,0,50.54,181.78Z" transform="translate(-20.55 -21.25)"/><path class="cls-2" d="M59.05,191.64c-3,4.72-6.57,9.44-8.45,14.76-.47,1.34,1.44,1.94,2.17.91,3.17-4.51,5-10.06,7.34-15.05A.61.61,0,0,0,59.05,191.64Z" transform="translate(-20.55 -21.25)"/><path class="cls-2" d="M58.68,201.56l-3,5.83a.75.75,0,1,0,1.38.59l2.34-6.12C59.56,201.45,58.88,201.16,58.68,201.56Z" transform="translate(-20.55 -21.25)"/><path class="cls-2" d="M90.06,198.46c-.76,2.66-1.44,5.35-2.15,8-.65,2.44-1.56,4.85-1.54,7.4,0,1.41,2.21,2.23,2.85.77,2.06-4.64,1.94-11,2.14-16A.66.66,0,0,0,90.06,198.46Z" transform="translate(-20.55 -21.25)"/><path class="cls-8" d="M251.36,185.15c-.42-1.14.52-2.55.41-2.9-1-3.05-4.59-.82-7.61-1.57-4.72-1.17-2.53-6.05-5.26-8.89s-7.86-.68-11.23-1.06c-2.87-.32-3.73-1.66-6.21-2.5-3.35-1.14-6.75.85-10.11.34s-3.63-1.7-7.1-1c-2,.43-4.65,1.55-6.76.85-1.82-.6-2.83-2.83-4.49-3.61-4.25-2-7.2.28-10.7,2.32-4.42,2.57-8.55,1.13-13-.57-1.82-.7-2.58-1.7-4.66-.82s-1.38,2.22-2.78,3.58c-5,4.86-7.74-1.68-12.31-2.65-3.9-.83-4.64,1.57-8.32-1.64-2-1.79-2.57-3.36-5.66-2.77-3.92.75-4,3.52-5,6.55s-.23,2.49-3.79,2.35c-.72,0-1.4-.1-2-.14a3.64,3.64,0,0,0-.67-.71c-1.73-1.38-1.91-1.2-4.11-1.7-2.48-.57-4.84-1.24-7.43-1-4.4.41-9.85,3.07-11.68,7.38-1.14,2.7-.31,4.6-2.31,6.95-1.49,1.75-6.71,7.25-1.34,8.69a3.84,3.84,0,0,1,3.94-.88c2.59,1.46.81,3.89.51,5.89s.22,4-.32,6c-.59,2.13-3,4.36-1.73,6.84,1.35,2.71,5.48,2.27,7.11,0,2.1-2.86,1.3-7.33,4.76-9.38,1.32-.79,3-.17,4.23-.83s1.24-2,2.45-2.45c2.66-1.06,4.85.78,6.49,2.84-.15,3.66-1.73,7.15-2.49,10.74-.22,1.05-1.32,4.85-.27,5.7,2.21,1.79,4.26-2.4,4.71-3.8.61-1.9,1.17-8.68,5.34-7,1.34.54,1.2,2.12,2.15,3,1.41-1.41,1.86-4.28,3.82-5.13,2.56-1.11,2.78.56,4.4,1.71l-.4.22c1.22,2.71.73,10.78,4.49,11.53,4.05.8,3.77-5.12,6.69-5.8,2.53-.59,2.94,2.64,4.74,3.66,2.65,1.48,2.55-.8,4.53-.83,1.63,0,2.37,1.87,4.06,1.74,2.45-.19,1.94-2.71,1.16-4.76a4.33,4.33,0,0,0,4.61,1c4.29-1.72.8-10.06,7.57-9.31a12,12,0,0,1,4.61,2.17,17.44,17.44,0,0,1,2.5,1.54c.81.79.79,2.81,2.18,3.11,3.71.79.59-6.29,4.36-6.82,5.11-.72,4.52,8.25,8.75,9.36,2.9.77,7-.08,8.35-2.88,1.19-2.55-.06-5.79,3.51-6.8,1.36-.39,2.47.51,3.83.1a20.11,20.11,0,0,0,3-2.58c1.18-2.39-2.93-5-3.65-7.72,3.08,2,6.26,9.26,9.83,9.95.54,2.68,2.19,1.12,2.88-.48,1.64-3.8-1.52-5.18,4-5.51,2.42-.14,5.08-.53,7.37,0,2.54.61,5.46,2.31,8.13,2.19,1-5.35-1.84-3.32-4.71-5.79-2.3-2-1.65-4.65,1.64-4.25,2.86.36,6.6,6.39,9.13,1.87C254.6,187.71,251.83,186.42,251.36,185.15Z" transform="translate(-20.55 -21.25)"/><path class="cls-6" d="M260.07,186.45c-1.35-1.94,1.78-4-.15-6.6a5.05,5.05,0,0,0-3.33-1.78c-3.43-.62-6.27-.28-9.58-2-1.1-.57-2.06,1.05-1,1.67a16.54,16.54,0,0,0,4,1.71c1.55.39,3.28.06,4.77.46,1.32.35,3.19,2.58,3.08,3.66,0,.24-.51.39-.54.68-.07.78-.48,1-.29,1.83s.62.85,1,1.44c.25.38,1.18.45,1.36.84.57,1.2-1.35,2.6-2.12,2.93-1.39.61-3.87.13-4.5,2-.53,1.56,1.13,3,2,4,1.65,1.84,2.95,3.33.51,5-2.83,1.92-4.19-.3-6.87-1.44a15.57,15.57,0,0,0-4.64-1.5,6.46,6.46,0,0,0-5.14,1.76c-1.91,1.69-2.1,2.87-4.75,3.51-3.18.77-5.1-1.23-7.2-3.45a1,1,0,0,0-1.74.45,20.71,20.71,0,0,0-.85,5.3c-3.41-1.07-7.12-1.88-10.48-.26-2.14,1-3.57,3-5.64,4.16s-5.71-.5-6.33-.8a5.79,5.79,0,0,0-3.62-.62.4.4,0,0,0-.61.18l-.41.15c-.9.41-1.08.9-1.82,1.43-.32.22-.44.72-.74,1-3.62,3-4.9,1.14-7-.65s-7.07-4.41-8.69-.21c-.6,1.55.51,2.15.79,3.39,1.89,8.41-7.92,2.7-10.67,2.57-2.6-.11-3.59,1.28-5.77,2.33-3.86,1.87-4.14-1.35-7-2-2-.48-3.85.71-5.42,1.82-2,1.37-4.26,2.94-6.48.85-1-.88-1.38-2-2.45-2.83a5.19,5.19,0,0,0-4.5-.83c-3.47.82-5.83,3-9.63,3-2.76,0-5.13-.4-7.77.62-1.16.46-2.2,1.17-3.31,1.73-3.21,1.63-5.82,1.38-8-1.66-1-1.36-2-2.82-3.62-3.38-2.51-.84-4.46.88-6.83,1.16-3,.36-5.16-2-8.14-1-2.22.79-4.37,1.89-6.51.11-.87-.73-1.32-1.9-2.27-2.59A4.07,4.07,0,0,0,77,214c-1.2.5-2,1.71-3.16,2.2-4.58,1.95-4.8-2.68-4.77-5.32a.88.88,0,0,0-1.49-.62,12.75,12.75,0,0,0-2.67,2.67c-.24.34-1.16,2.27-1.25,2.28-1,.11-2.33-3.08-3.26-3.61-1.39-.8-2.66-.43-4.14-.2-2.3.36-4.25.85-6-1s-1.93-4.89-2.1-7.35a.85.85,0,0,0-.84-.84c-2.22,0-3.16,1.66-5.1,2.16-3,.79-3.46-3-5.6-4-1.78-.86-3.76-.47-5.64-.64q-3.57.14-3.34-4.49l.45-1.1c-.08-.44.2-.91,0-1.36-.72-1.93-3.33-.71-3.94-2.89s2.5-4.38,2.52-6.54-3.53-5-1.08-6.87c.83-.63,5.06.19,6.16.21,2.05.05,4.11.06,6.16.08.38,0,.36-.54,0-.59-2.57-.28-5.13-.57-7.7-.8-1.74-.15-4-.72-5.7-.4-1.92.34-2.94,1.55-2.37,3.53s1.6,2.28,1.85,4.45c.28,2.55-1,3.21-1.5,5.42a4.12,4.12,0,0,0,1.35,4.39c1,1,.47-.61,1.36,1.43,1.18,2.7-.1-.15,0,2.25a4.37,4.37,0,0,0,.27,2.26c1,1.95,3.51,2.6,5.47,2.76,1.26.1,2.82-.22,4,.2s2.07,1.85,2.86,2.82c.68.82.93,1.63,2,2,2.54.87,4.34-1.93,6.66-2.49.31,4,1.35,8.91,6,9.71,3.39.59,5.62-1.81,8.63,1.66,1,1.18,1.24,2.16,3,2.12a.9.9,0,0,0,.84-.64,10.86,10.86,0,0,1,2.45-4c.29,2.89,1.41,6.14,4.76,5.92a5.16,5.16,0,0,0,2.15-.74c1.8-1,2.18-2,4.54-1.83s2.09.65,3.44,2.19a6.21,6.21,0,0,0,2.25,1.85c2.24.9,3.33-.75,5.32-1.18,3.11-.67,5.66,1.46,8.78.69,2.29-.57,4.72-1.84,7.07-.35.9.56,1.68,2.34,2.36,3.2,1.29,1.6,2.81,2.71,5,2.57,2.83-.17,5.08-2.31,7.63-3.26,3.64-1.35,7.39.18,11.06-.87A21.7,21.7,0,0,0,135,219.5c3-1.42,4.87-1.23,7.25,1.08,1.13,1.1,1.79,2.32,3.43,2.71,2.88.69,4.79-1.76,7-3.08,3.63-2.19,4.63,2.57,7.87,2.56,2.73,0,4.58-2.86,7.3-3.29,3.81-.6,6.9,2.51,10.69,1.91a5.16,5.16,0,0,0,4.15-3.12,3.67,3.67,0,0,0,0-2.55c-.13-.4-.64-.76-.66-1.11a11.59,11.59,0,0,0-.79-.92c-.05-3.18,1.84-2.94,4.5-1.34,1.24.38,2.56,2.35,3.87,2.93a5.4,5.4,0,0,0,2.77.51c2.88-.4,4-4,6.51-4.52a9,9,0,0,0,8.95,1.76c2.31-.86,3.8-2.81,5.87-4.08,3.56-2.18,7.56-.89,11.21.34a1,1,0,0,0,1.31-1,18.87,18.87,0,0,1,.36-4.4c2.07,2,4.64,3.78,7.55,3.29,5.14-.86,5.1-7.29,11.74-5.35,3.45,1,6.93,3.94,10.51,1.45,2.36-1.65,2.6-4.16.9-6.36-.3-.38-1.15-.93-1.37-1.4-1.17-2.6.56-2,1.94-2.31s3-.77,3.9-2.19C263.29,188.46,261.23,188.11,260.07,186.45Z" transform="translate(-20.55 -21.25)"/><path class="cls-6" d="M252.73,177.6a8.26,8.26,0,0,1-6.62-4.44,35.82,35.82,0,0,0-1.53-3.55,4.46,4.46,0,0,0-2.78-2.15c-2.72-.62-5.27.55-8.16-.32s-5.35-2.47-8-3.6A16.18,16.18,0,0,0,218.8,162c-1.13,0-1.53.31-2.69.43-5.36.53-3.89-1.11-6.82-2.35-1.75-.74-3.21-.23-4.95.19-3.08.74-4.21.48-6.83-1.67a15.34,15.34,0,0,0-2.26-1.85c-2.14-1.14-4.23-.64-6.46,0a33.55,33.55,0,0,1-11.26,1.58c-5.21-.33-11.14-4.47-15.89-1.07-2.21,1.57-3,1.82-5.74,1.06a10.89,10.89,0,0,0-2.46-.87,9.71,9.71,0,0,0-2.67.49c-2.69.45-4,.65-6.51-.6-1.72-.87-3.31-1.91-5.3-2-3-.14-8.38,4.28-10.71.72a1,1,0,0,0-1.74.22c-1.81,4.39-7.29,2.16-10.6,2s-6.6,2-9.65.56c-2.69-1.26-4.8-4.49-7.94-2.19-.66.49-.87,1.18-1.44,1.71-1.48,1.37-2.65,1.45-4.56,1.26a5.57,5.57,0,0,0-3.13.14c-1.62.64-2.83,2-4.13,3.13s-2.49,2.26-4.59,1.35c-1-.44-1.88-1.62-3-2.12-3.41-1.58-6.78.66-9.83,2-3.82,1.76-5.76.93-9.61-.25a6.55,6.55,0,0,0-4.71-.13,11.11,11.11,0,0,0-3.63,3.05c-.86,1-2,2.63-3.34,2.9s-2.86-1.26-4.15-1.35a4.36,4.36,0,0,0-3.46,1.15c-1.52,1.29-4.36,8.35-7.29,5.35-.21-.22-.61.07-.43.32,1.88,2.58,4.95.66,6.56-1.24,2.09-2.47,1.6-3.51,6.2-2.88,1.16.16,1.55.72,2.82.49a6.4,6.4,0,0,0,3.24-2c.85-.85,1.53-1.89,2.43-2.68,2.55-2.2,4.5-1.27,7.2-.27a9.26,9.26,0,0,0,6,.5c2.15-.56,4.05-1.79,6.07-2.66,2.81-1.21,4.44-1.07,6.94.69a7.14,7.14,0,0,0,2.2,1.31c4,1.08,5.65-3.46,8.8-4.68,2.5-1,4.26,1.51,6.56.45,2.69-1.23,2.61-5.47,6.89-3.37,1.6.79,2.7,2.21,4.55,2.53a9.13,9.13,0,0,0,3.77-.45,17.76,17.76,0,0,1,7-.39c3.5.47,7.28.56,9.34-2.31,3.4,3.07,8.14-1.59,12.14-.85,2.75.51,4.78,2.89,7.62,3.18a9.71,9.71,0,0,0,2.73-.32,14.54,14.54,0,0,1,5.84.26c2,.52,2.89,1,4.8-.08,2.58-1.44,1.84-3,6.66-2.47,1.84.21,3.7,1.24,5.53,1.64a30.19,30.19,0,0,0,10.51.4c4-.56,8.67-3.44,12.41-.39,1.48,1.21,2.42,2.73,4.42,3.15a7.56,7.56,0,0,0,3.5-.29c.72-.23,1.45-.44,2.18-.65a6,6,0,0,1,4.84,1.81,8.5,8.5,0,0,0,5.84.67c4-.75,7.07.41,10.64,2.14a36.77,36.77,0,0,0,7,2.89c2.55.63,7.07-.81,8.76,1.34s1.63,4.64,3.77,6.5a9.43,9.43,0,0,0,6,2.21C253.84,179.33,253.78,177.73,252.73,177.6Z" transform="translate(-20.55 -21.25)"/><path class="cls-6" d="M40.93,183.11a56,56,0,0,1-11,6.53c-2.11.93-4.56,1.87-3.84,4.65.26,1,1.92.82,1.84-.25-.18-2.34,5.82-4.72,7.4-5.76a66.67,66.67,0,0,0,6.06-4.52C41.78,183.46,41.31,182.83,40.93,183.11Z" transform="translate(-20.55 -21.25)"/><path class="cls-6" d="M54.57,191.6c-2,1.5-3.18,3.49-4.45,5.63s-3.27,3.87-3.56,6.27c-.07.66.89.69,1.08.15.38-1,1.37-1.71,2-2.57a15.22,15.22,0,0,0,1.58-2.81c1-2.13,1.85-4.42,3.8-5.87C55.51,192.05,55.05,191.24,54.57,191.6Z" transform="translate(-20.55 -21.25)"/><path class="cls-6" d="M86.35,194.77A113.78,113.78,0,0,0,82.49,207c-.72,2.81-3,5.48-2.8,8.45,0,.51.85.71,1,.13.34-1.78,1.74-2.93,2.51-4.46a12.05,12.05,0,0,0,1-3.78A73.72,73.72,0,0,1,87.2,195C87.38,194.45,86.55,194.24,86.35,194.77Z" transform="translate(-20.55 -21.25)"/><path class="cls-6" d="M171.11,218.38c-1.66-3.66-2.06-7.71-3.84-11.35A84.63,84.63,0,0,0,160.38,196c-.2-.29-.66,0-.48.28A78.22,78.22,0,0,1,166.35,209c1.22,3.37,1.55,7.1,3.44,10.18A.76.76,0,0,0,171.11,218.38Z" transform="translate(-20.55 -21.25)"/><path class="cls-6" d="M228.79,203.05c-1.87-2-3.07-4.48-5-6.4-2.43-2.43-5.15-3.92-7-7a.41.41,0,0,0-.7.41c1.63,3.06,4.07,4.86,6.26,7.45,1.89,2.24,2.82,5.21,5.57,6.61A.7.7,0,0,0,228.79,203.05Z" transform="translate(-20.55 -21.25)"/><path class="cls-6" d="M256.78,191.84a18.71,18.71,0,0,1-8.55-4,21,21,0,0,0-6.87-3.94.32.32,0,0,0-.18.62c5.56,1.89,9,10.14,15.6,8.88A.82.82,0,0,0,256.78,191.84Z" transform="translate(-20.55 -21.25)"/><path class="cls-6" d="M200.71,210.25c-1.94-3.13-3.83-5.74-4.82-9.36a.37.37,0,0,0-.72.2c.67,3.51,1.79,7.46,4.07,10.29C199.91,212.21,201.26,211.13,200.71,210.25Z" transform="translate(-20.55 -21.25)"/><path class="cls-6" d="M106.56,205.28c-.54,4.06-2,7.74-3.08,11.65-.27,1,1.18,1.63,1.64.69,1.86-3.78,2.27-8.18,2.38-12.34C107.52,204.66,106.63,204.7,106.56,205.28Z" transform="translate(-20.55 -21.25)"/><path class="cls-9" d="M248.09,170.93c-.45-2.1-.89-4.18-1.5-6.16-1.63,3-5,4.82-8.21,6.07A71.4,71.4,0,0,1,218.61,175c-.37,0-.45-.59-.09-.66a107.21,107.21,0,0,0,15.55-4.1c4.68-1.6,9.14-3.27,11.74-7.66a15.61,15.61,0,0,0-6.26-7.75c-5.86-3.68-13.86-4.13-20.54-5.19-14.57-2.32-29.27-3.4-43.95-4.74-9.33-.54-18.66-1.11-28-1.27q-20.62-.35-41.23,1.09c-13.36.93-26.93,2.05-40,4.91a88.93,88.93,0,0,0-19.29,6.32c-5.31,2.52-8.6,5.63-10,10.42,0,3.87-.15,7.73-.14,11.6,0,3.21-.24,6.59,2.74,8.8a16.48,16.48,0,0,0,5,2.06c8.71,2.64,17.52,5.07,26.33,7.42,32.12,8.55,66.8,8.36,99.78,6.2,16.3-1.07,32.87-2.58,48.85-6.05A82.83,82.83,0,0,0,240.52,189c1.94-1,4.21-2.14,5.6-3.87s1.73-4,1.93-6.28A49.25,49.25,0,0,0,248.09,170.93Z" transform="translate(-20.55 -21.25)"/><path class="cls-10" d="M42.5,174.09c-1,1.18-2,11-.79,12.16,0,0,6.61.43,6.54.47,1.24-.65,1.74-3.51,2.56-4.59,1,2.18,1.56,4.59,2.45,6.79,2.07-.34,4.3-4.57,6-6.06.49,1.21.56,4.23,1.42,5.17s1.28,0,2.11.54a38.68,38.68,0,0,0,5.52,3.06c2.47,1,6.63,1.32,9.24,1.94,3.2.75,4,1.17,5.76-1.93,1,2.78,1.17,5.22,4.08,5.71,2.21.38,5.89-2,8.57-1.9-.34-1.51-.94-6.17-2-7.3-1.29-1.45-4.9-1.76-6.85-2.42-1.44-.49-2.66-1.71-4.3-1.34-2.23.51-2.34,3-4,4.24a18.78,18.78,0,0,1-2.37-3.87c-5.08,2.75-5-1.14-9.3-2.64-5.78-2-12.52-2.55-17.73-6-.48,1.17-1.29,2.19-1.87,3.3C47.12,178,46.73,176.61,42.5,174.09Z" transform="translate(-20.55 -21.25)"/><path class="cls-11" d="M246.59,164.77c-1.63,3-5,4.82-8.21,6.07A71.4,71.4,0,0,1,218.61,175c-.37,0-.45-.59-.09-.66a107.21,107.21,0,0,0,15.55-4.1c4.68-1.6,9.14-3.27,11.74-7.66a15.61,15.61,0,0,0-6.26-7.75c-5.86-3.68-13.86-4.13-20.54-5.19-14.57-2.32-29.27-3.4-43.95-4.74-9.33-.54-18.66-1.11-28-1.27q-20.62-.35-41.23,1.09c-13.36.93-26.93,2.05-40,4.91a89.55,89.55,0,0,0-19,6.2c2.56,6.64,9.71,9.79,16.55,13.22,5.33,2.67,10.31,5.88,15.73,8.46,11,5.19,20.27,5.62,32.14,5.6,10.81,0,21,2.7,31.74,2.71,13.08,0,26.32-3.52,39.24-2.31,4.9.45,7,2.83,6.76,8.55-.16,3.25-2.58,5.19-5.36,6.11-2-2.79-2.35-6.57-4.06-9.66-1.29,2.8-.83,6.67-2.12,9.62-1.34-1.58-2.1-4-2.79-6-2.39,1.35-.79,3-1.57,4.94-1.1,2.81-2.75,3.38-6,4.37a59.5,59.5,0,0,1-7.07,1.64q5.16-.27,10.26-.6c16.3-1.07,32.87-2.58,48.85-6.05A82.83,82.83,0,0,0,240.52,189c1.94-1,4.21-2.14,5.6-3.87s1.73-4,1.93-6.28a49.25,49.25,0,0,0,0-7.87C247.64,168.83,247.2,166.75,246.59,164.77Z" transform="translate(-20.55 -21.25)"/><path class="cls-6" d="M249.33,164.92a.81.81,0,0,0-.39-.6,23,23,0,0,0-4.48-8.07c-4.91-5.55-12.62-6.58-19.52-7.75a270.1,270.1,0,0,0-39.42-4.13c-13.77-2-27.76-2.51-41.65-2.66q-23.4-.26-46.76,1.78c-13.89,1.22-28.12,2.56-41.47,6.81-5.42,1.72-11.5,3.82-16,7.44-3.64,2.95-4.51,6.43-4.56,10.51a52.68,52.68,0,0,0-.65,7.34c-.06,3.33-.5,7.53,1.43,10.46,1.39,2.12,3.75,3.16,6.08,3.93,4.37,1.44,8.91,2.5,13.34,3.76,9,2.57,18,5.31,27.19,7.21a200.06,200.06,0,0,0,27.72,3.4,461.25,461.25,0,0,0,57.6.15c17.9-1.06,36.29-2.59,53.8-6.67,8.17-1.91,17.71-4.62,24.43-9.89C252.31,183,250.51,171.73,249.33,164.92Zm-1.28,13.88c-.2,2.28-.45,4.43-1.93,6.28s-3.66,2.83-5.6,3.87A82.83,82.83,0,0,1,219,196.38c-16,3.47-32.55,5-48.85,6.05-33,2.16-67.66,2.35-99.78-6.2-8.81-2.35-17.62-4.78-26.33-7.42a16.48,16.48,0,0,1-5-2.06c-3-2.21-2.72-5.59-2.74-8.8,0-3.87.13-7.73.14-11.6,1.45-4.79,4.74-7.9,10-10.42a88.93,88.93,0,0,1,19.29-6.32c13.11-2.86,26.68-4,40-4.91q20.58-1.42,41.23-1.09c9.36.16,18.69.73,28,1.27,14.68,1.34,29.38,2.42,43.95,4.74,6.68,1.06,14.68,1.51,20.54,5.19a15.61,15.61,0,0,1,6.26,7.75c-2.6,4.39-7.06,6.06-11.74,7.66a107.21,107.21,0,0,1-15.55,4.1c-.36.07-.28.69.09.66a71.4,71.4,0,0,0,19.77-4.14c3.2-1.25,6.58-3,8.21-6.07.61,2,1,4.06,1.5,6.16A49.25,49.25,0,0,1,248.05,178.8Z" transform="translate(-20.55 -21.25)"/><path class="cls-6" d="M85.24,179.93c-7-2.46-14.39-2.37-21.63-3.73-7.5-1.41-14.36-5.11-21.81-6.73a.23.23,0,0,0-.18.41,74.25,74.25,0,0,0,20.89,7.62c7.52,1.39,15.23.67,22.63,2.8C85.38,180.37,85.47,180,85.24,179.93Z" transform="translate(-20.55 -21.25)"/><path class="cls-6" d="M145,182.7c-15.35.43-30.6.59-45.88-1.38-.37,0-.45.58-.08.66,15.1,3,30.79,4.19,46.1,1.73C145.72,183.62,145.58,182.68,145,182.7Z" transform="translate(-20.55 -21.25)"/><path class="cls-6" d="M209.19,175.77c-15.69,2.87-31.59,5.63-47.49,7.09-.38,0-.39.61,0,.61,16.29-.36,32.07-2.2,47.75-6.76A.49.49,0,0,0,209.19,175.77Z" transform="translate(-20.55 -21.25)"/><path class="cls-12" d="M173.88,151.54a3.65,3.65,0,0,0-1.94,1c-.2.27-.89,1.49-.6,1.86.13.17,1.7-.15,1.86-.18,1-.18,3.32-.59,2.65-2.15C175.58,151.48,174.72,151.44,173.88,151.54Z" transform="translate(-20.55 -21.25)"/><path class="cls-12" d="M149.22,163.26c-.83.44-1.67.88-2.49,1.35-1.49.87-4,2-5.06,3.44-1,.5-.91,1.23.4,2.18a5.2,5.2,0,0,0,2.7-.86,15.64,15.64,0,0,0,3-2.56,17.27,17.27,0,0,0,3.38-4.05c-.46.18-.9.37-1.36.58A.49.49,0,0,1,149.22,163.26Z" transform="translate(-20.55 -21.25)"/><path class="cls-12" d="M154.06,150.66c-1-.19-1.93.43-1.47,1.8a6.13,6.13,0,0,0,1.35,2.72c.18.35.24.33.17-.06a6.73,6.73,0,0,0,.39-.91,10.08,10.08,0,0,0,.35-1.44,4.12,4.12,0,0,0,.18-1.28C154.93,151.06,154.45,150.86,154.06,150.66Z" transform="translate(-20.55 -21.25)"/><path class="cls-13" d="M191,149.76a1.66,1.66,0,0,1-.26-.27,15.61,15.61,0,0,0-7-4c-9.71-2.78-20.89-1.55-30.86-1-10.48.58-23.15,1.24-31.64,8.22-6.9,5.67-8,13.33-5.59,20.74a12.8,12.8,0,0,0,5.79,6.71c3.26,1.66,7.18,2.26,10.72,3a103.12,103.12,0,0,0,24.51,2.5A65.72,65.72,0,0,0,179,181.19c5.9-2.36,22-6.53,16-24.42A18.75,18.75,0,0,0,191,149.76ZM148.53,176c-9.95,1.45-22.36-.65-30.44-6.95-.08-.06,0-.18.09-.16,4.81,1.23,9.42,3.06,14.27,4.16a124.28,124.28,0,0,0,16,2.15C148.84,175.25,149,175.94,148.53,176Zm-6.28-19.29a.48.48,0,0,1,.29.11h0a1.45,1.45,0,0,1,.9,1,1.74,1.74,0,0,1-.09,1.89c-.9,1.47-3.22,1.42-4.69,1.54-2.92.25-6.56.63-9.42-.1-1-.26-2-.78-2-2,0-.91.67-1.35,1.45-1.67,2.36-.95,5.68-.76,8.2-1A14.57,14.57,0,0,1,142.25,156.72Zm-1.57-5.6c.32-.24.8-.1,1.15,0a17.59,17.59,0,0,1,2.77.71,6.44,6.44,0,0,1,1.6.79,1.9,1.9,0,0,1,1.28,1.17c.31.71.74,2.41.16,3.11-.82,1-2.34-.35-3-.82s-1.45-1.06-2.17-1.59a9.93,9.93,0,0,1-1.69-1.24C140.35,152.72,140.05,151.59,140.68,151.12Zm-9.47,12c.73-.13,1.46-.22,2.19-.28a.32.32,0,0,1,.21-.13c1.23-.24,7.6-1.56,6.1,1.63-.53,1.13-2.32,1.68-3.37,2.09a41.33,41.33,0,0,1-6.32,2c-1.21.25-2,.24-2.86-.77-.54-.66-1.21-2.18-.65-3C127.21,163.53,130.09,163.32,131.21,163.12ZM152.73,162c-.88,3.27-8.68,12.6-12.6,8.68-1.63-1.63.36-3,1.6-4A29.59,29.59,0,0,1,152,161.2a.25.25,0,0,1,.21,0A.6.6,0,0,1,152.73,162Zm1.41-5.53c-.78.23-1.26-.69-1.56-1.27a10.58,10.58,0,0,1-1.14-3.37,1.57,1.57,0,0,1,.74-1.62,2.4,2.4,0,0,1,1.76-.38.43.43,0,0,1,.35,0c.61.33,1.38.65,1.51,1.39a8.31,8.31,0,0,1-.46,3.23C155.15,155.1,154.87,156.23,154.14,156.45Zm32.77,11.83c-7.56,7.52-21.1,8.9-31.09,6.53-.22-.05-.12-.36.09-.33,5.55.82,12.59-.49,18-1.61a34,34,0,0,0,12.62-5.06C186.83,167.62,187.14,168.05,186.91,168.28Zm-12.74-12.84c-1.29.32-4.57,1-4.16-1.3a4.76,4.76,0,0,1,1.47-2.49c.8-.64,1.87-.67,2.77-1.1a.39.39,0,0,1,.46.08,2,2,0,0,1,2.33,1.16C177.87,154,176,155,174.17,155.44Zm5.12,6.87c-.7,2.15-5.79,1.89-7.53,1.85-1.56,0-7.13-.07-7.55-2a.55.55,0,0,1,.25-.6,13.35,13.35,0,0,1,2.55-.76c1.39-.48,2.77-1,4.15-1.53,1.54-.57,3.63-1.62,5.35-1.27C178,158.29,179.8,160.78,179.29,162.31Zm-13.89-6.86c-2.75,1.88-5.48,3.69-8.89,3.91a.51.51,0,0,1-.36-.86c.58-.58,1.17-1.15,1.77-1.7a34.31,34.31,0,0,1,7.18-7c1.35-.9,4.58-1.8,5.27.49S166.66,154.59,165.4,155.45ZM162.84,166c-.15,1.06-1.35,1.74-2.28,2a3.51,3.51,0,0,1-1.15.13.47.47,0,0,1-.67.09c-1-1-1.36-2.55-1.75-3.85-.21-.72-1-2.45-.48-3.2s1.77-.17,2.36.06a6.62,6.62,0,0,1,2.77,2A4.05,4.05,0,0,1,162.84,166Zm26.87-9.28c-3.36-7.4-11.67-7.85-18.84-8.32a107,107,0,0,0-17.63.34,103.75,103.75,0,0,0-19.18,3.9c-6.46,2-15.32,4.37-15.47,12.55a.27.27,0,0,1-.53.07c-1.3-6,3.89-10.07,8.88-12.12a92.79,92.79,0,0,1,23.38-5.91,101.88,101.88,0,0,1,26.4,0c5.59.74,12.72,2.63,13.82,9.11C190.62,156.87,189.94,157.25,189.71,156.75Z" transform="translate(-20.55 -21.25)"/><path class="cls-14" d="M195,156.77a18.75,18.75,0,0,0-4-7,1.66,1.66,0,0,1-.26-.27,15.61,15.61,0,0,0-7-4c-9.71-2.78-20.89-1.55-30.86-1l-2.33.13c-2.47,1.23-4.92,2.52-7.35,3.85q3.59-.7,7.16-1.17a101.88,101.88,0,0,1,26.4,0c5.59.74,12.72,2.63,13.82,9.11a.58.58,0,0,1,0,.29A10.94,10.94,0,0,1,191,160c-.08,5.57-3.67,9-8.05,11.34a31,31,0,0,1-11.07,3.94c-3.06.79-6.18,1.49-9.29,2.39-2.56.74-4,.65-4.62,3.3-.46,1.79-.74,3.52-1.7,4.62h.4A65.72,65.72,0,0,0,179,181.19C184.87,178.83,201,174.66,195,156.77Z" transform="translate(-20.55 -21.25)"/><path class="cls-12" d="M160.32,163a5.39,5.39,0,0,0-2.18-1.21c-.38-.11-.93-.35-1,.39,0,.24.3.77.4,1,.19.49.36,1,.52,1.51.11.23.2.46.31.68.41.88.63,1.84,1.86,1.51,1-.28,1.66-1,1.38-2A4.27,4.27,0,0,0,160.32,163Z" transform="translate(-20.55 -21.25)"/><path class="cls-12" d="M129.77,167.52l1.6-.46c1.7-.5,4.75-1.05,6.06-2.24.63-.1.85-.4.66-.91.12-.62-.19-.77-.9-.47a7.62,7.62,0,0,0-2-.05A37.29,37.29,0,0,0,131,164c-.75.16-4,.54-3.64,1.94Z" transform="translate(-20.55 -21.25)"/><path class="cls-12" d="M164.69,151.38l-.7.61c-.8.69-1.57,1.45-2.34,2.19l-.88.84a.37.37,0,0,1-.08.49c-.92.84-1.83,1.71-2.71,2.59a17,17,0,0,0,5.34-2.58c.77-.51,1.52-1,2.26-1.58.47-.35,2.69-1.6,2.81-2.15Q166.4,149.23,164.69,151.38Z" transform="translate(-20.55 -21.25)"/><path class="cls-12" d="M172.32,159.78c-.85.27-1.69.57-2.53.85a.32.32,0,0,1-.18.3c-.85.44-1.86.62-2.68,1a4.52,4.52,0,0,1-.49.22c.52.15,1,.29,1.56.4,2.46.51,6.09,1,8.51.09a1.55,1.55,0,0,0,1.7-1.32,2.86,2.86,0,0,0-3.07-2.36A11.69,11.69,0,0,0,172.32,159.78Z" transform="translate(-20.55 -21.25)"/><path class="cls-12" d="M71.89,162.21c-.32.19-.63.81-.86,1.12l-.07.06v0c-.23.42-.79,1.07-.83,1.55-.12,1.28,2.67,1,3.37.67s.86-.81.45-1.53a7.24,7.24,0,0,0-.88-1.18C72.74,162.55,72.37,161.91,71.89,162.21Z" transform="translate(-20.55 -21.25)"/><path class="cls-12" d="M69.17,151a15.16,15.16,0,0,0-1.37-1.41,4.87,4.87,0,0,0-2.37-1.39c-1.37-.12-1.93.62-1.67,2.21.39,1.39,2.6,2.65,3.68,3.48,1.39,1.07,2.76,2.17,4.13,3.29,1,.13-.39-3.54-.52-3.76A14.67,14.67,0,0,0,69.17,151Z" transform="translate(-20.55 -21.25)"/><path class="cls-12" d="M82.22,149.78c-.85.08-2.17,1.71-2.71,2.36a16.41,16.41,0,0,0-1.45,2.14c-.31.77-.62,1.55-.94,2.31s-1.46,1.84-.33,2c.7.11.94-.23,1.5-.66a24.28,24.28,0,0,0,4.56-4.61A14.55,14.55,0,0,0,84,151.74l.45-.94C84.27,149.77,83.68,149.27,82.22,149.78Z" transform="translate(-20.55 -21.25)"/><path class="cls-12" d="M129.29,158.56c-1.26,2.14,4.8,1.77,5.37,1.77,1,0,1.91-.05,2.87-.12.59,0,5.55-.55,4.74-2.07-1.26-1.43-6.18-.39-7.17-.28C134.28,158,129.66,157.94,129.29,158.56Z" transform="translate(-20.55 -21.25)"/><path class="cls-12" d="M147,155.89c.11-.09-.12-1.14-.15-1.24a4.3,4.3,0,0,0-.2-.54,5.13,5.13,0,0,0-1.18-.83h-.17a.33.33,0,0,1-.31-.22l-.24-.1a11.93,11.93,0,0,0-3.25-.91c.23.9,3.06,2.36,3.62,2.74C145.41,155,146.57,156.18,147,155.89Z" transform="translate(-20.55 -21.25)"/><path class="cls-12" d="M81.78,161.42a17.46,17.46,0,0,0,2.7-.32c1.11-.19,2.2-.46,3.32-.63.77-.13,1.55-.17,2.32-.27,2.49,0,3.22-4.45-1.23-3.46-.57.14-1.12.31-1.67.5-.93.48-1.88.93-2.83,1.39-.77.37-2.82.93-3.31,1.62C80.18,160.52,80.41,160.91,81.78,161.42Z" transform="translate(-20.55 -21.25)"/><path class="cls-13" d="M91.82,143.63c-4-1.38-8.41-1.89-12.59-2.44-9.52-1.25-19.81-2.2-29.29-.27a32.87,32.87,0,0,0-11.15,4.29c-2.81,1.8-4.56,3.65-5.07,7.17a19.86,19.86,0,0,0,.37,6.08c1.78,6.09,6.92,9.82,13,13.19A67.8,67.8,0,0,0,67.58,179a120.2,120.2,0,0,0,23.34,2.17c7.13-.1,14.87-2.37,18.57-8.6,3.27-7.51-1.56-16.08-7-21.57C99.41,147.81,96.08,145.1,91.82,143.63Zm10.31,26.62C82.23,177.59,58.63,173,42,160.2c-.17-.14,0-.41.23-.3,18.26,10.95,38.9,13.58,59.57,9.28A.56.56,0,0,1,102.13,170.25ZM71.67,157.89a.29.29,0,0,1-.32,0c-2-1.4-3.94-2.81-5.86-4.28a8.81,8.81,0,0,1-2.61-2.69c-1.23-2.3.43-4,2.89-3.7,1.44.17,2.48,1.35,3.44,2.34a15.65,15.65,0,0,1,3.14,4.19C72.82,154.75,73.58,158.16,71.67,157.89Zm2.11,4.31c.93,1.06,2.26,2.68.88,3.88a4.65,4.65,0,0,1-5.23.16,1.21,1.21,0,0,1-.2-1.63,15.74,15.74,0,0,1,1.43-2.15c.29-.62.65-1.38,1.23-1.48C72.66,160.83,73.34,161.7,73.78,162.2ZM64,157.7a.35.35,0,0,1,0,.46,1.51,1.51,0,0,1-.22,1.66c-1.16,1.35-4.43.33-5.81,0a21.78,21.78,0,0,1-7.55-3.2c-2.43-1.77-5.79-5.73-1-6.69C54.59,148.87,60.77,154.25,64,157.7Zm20.65-5.89a19.15,19.15,0,0,1-3.55,4.8c-1,1-2.58,2.76-4.06,3.15-3.67,1,.25-5.26.75-6.16l.06-.06a11,11,0,0,1,4.08-4.29C84.13,148,85.77,149.49,84.63,151.81Zm7.8,4.44c2.65,1.71,1,4.52-1.5,5s-5.18.92-7.72,1.24c-1.2.15-3.64.56-4.29-.91-.84-1.91,2.79-3.45,5.77-4.37C87.41,155.91,90.42,155,92.43,156.25Zm11.35,5.57c-3.36-13.63-19.09-16.24-31.06-16.76-6.11-.26-12.27-.68-18.39-.54-6.45.15-13.8,2.4-15.42,9.52a.23.23,0,0,1-.46-.06c1-15.14,24.67-11,34.27-10.41,7.87.45,14.76,1.47,21.85,5.14,4.9,2.54,10.2,7,10.07,13A.44.44,0,0,1,103.78,161.82Z" transform="translate(-20.55 -21.25)"/><path class="cls-14" d="M91.82,143.63c-.46-.16-.93-.3-1.4-.44-3.35.21-6.71.61-10.06,1.11a43.64,43.64,0,0,1,14.21,4.41c4.9,2.54,10.2,7,10.07,13a.44.44,0,0,1-.86.12,18,18,0,0,0-2.33-5.47c1.5,3.31,2.3,7.22,1,10.77a7.52,7.52,0,0,1-1.28,2.19l.68-.13a.56.56,0,0,1,.3,1.07c-1.24.46-2.49.86-3.75,1.23-3.74,1.94-9,2.05-12.82,2.2-3.41.14-6.81.91-10.25,1-1.83,0-3.18-.5-4.65.42-1.8,1.13-1.88,2.35-4.45,3l-1.5.35c1,.22,1.91.42,2.87.6a120.2,120.2,0,0,0,23.34,2.17c7.13-.1,14.87-2.37,18.57-8.6,3.27-7.51-1.56-16.08-7-21.57C99.41,147.81,96.08,145.1,91.82,143.63Z" transform="translate(-20.55 -21.25)"/><path class="cls-14" d="M93.69,149.59c.76.42,1.52.84,2.26,1.29-5.38-3.57-12.55-5-19.18-5.56C82.21,147,88.3,146.59,93.69,149.59Z" transform="translate(-20.55 -21.25)"/><path class="cls-12" d="M51.14,155.69a18.7,18.7,0,0,0,5,2.33c1.13.37,4.1,1.52,5.2,1.09,2.35-.93-.08-2.35-1-3.18-1.25-1.1-4.28-2.87-4.27-3-1.64-.86-3.83-2.22-5.75-2C45.52,151.62,49.63,154.64,51.14,155.69Z" transform="translate(-20.55 -21.25)"/><path class="cls-13" d="M224.16,139.81a82.57,82.57,0,0,0-19,1.85c-4.8,1.07-9.75,2.8-12.3,7.24a15.84,15.84,0,0,1,1.59,2.23c2-3.31,5.86-4.56,9.54-5.6a64.61,64.61,0,0,1,16.31-2.31c9.34-.2,22.56.07,29.79,6.88.54.51-.26,1.28-.82.81-6.83-5.88-18.91-6.21-27.48-6.22a68.24,68.24,0,0,0-14.54,1.51c-4.22.92-9.73,2-12.33,5.78a32,32,0,0,1,2.75,8.57,18.79,18.79,0,0,1,.5,7,8.33,8.33,0,0,1-.73,2.62,45.65,45.65,0,0,0,18.17,4,144.55,144.55,0,0,0,18.38-.31c10.53-.93,30.32-7.19,22.9-21.71C251.32,141.26,234.86,140,224.16,139.81Zm4,9.9c.93-2.13,6.2-.52,7.93-.11,2.1.49,5.78,1.26,6.6,3.64a2.07,2.07,0,0,1-2.29,2.82c-1.66-.1-3.58-1.45-5-2.16s-2.72-1.4-4.07-2.11c-.94-.45-1.89-.89-2.85-1.3A.54.54,0,0,1,228.12,149.71Zm-7.84-2.53a2.92,2.92,0,0,1,1.65-1,6,6,0,0,1,2-.1c.5.08,1.06.39,1.06,1a1.41,1.41,0,0,1-.79,1.06,3.36,3.36,0,0,1-3.56-.14.82.82,0,0,1-.22-.3A.28.28,0,0,1,220.28,147.18Zm.41,3.37c2.47,1,4,4.09,5.49,6.16,1.17,1.65,2.12,3.29.23,4.75-4.09,3.17-5.45-2-5.79-6a31.11,31.11,0,0,1-.48-4.49A.44.44,0,0,1,220.69,150.55Zm-6.8-3.47a5,5,0,0,1,2.19-.89,2.45,2.45,0,0,1,1.73,0c1,.58.08,2.39-.53,3-1.1,1.05-2.33.13-3.12-.78C213.68,148,213.37,147.58,213.89,147.08Zm.18,6.29c.62-.53,1.85-1.84,2.8-1.24,1.63,1-2.32,5.48-3.05,6.34-.91,1.07-1.79,2.2-3.28,2.34-.68.07-2.39.12-2.68-.75s1.37-2.11,1.91-2.59l.27-.24A54.46,54.46,0,0,1,214.07,153.37Zm-10.32,4.23a.88.88,0,0,1-.52-1.33,7.68,7.68,0,0,1,2.42-2.36,14.65,14.65,0,0,1,1.22-.84c1.2-1,4-3.26,4.39-1.55.22.91-1.06,1.91-1.59,2.46a20.71,20.71,0,0,1-3,2.62C206,157.09,204.69,157.88,203.75,157.6ZM255,155.46c-4.08,7.23-14.13,9.12-21.59,10.67-8.39,1.73-18.78,3.36-26.71-.73-.2-.1-.06-.39.14-.34,8.31,2.12,17.74.75,26-.89,7.16-1.41,16.61-3.27,21.45-9.24C254.6,154.53,255.19,155,255,155.46Z" transform="translate(-20.55 -21.25)"/><path class="cls-14" d="M224.59,139.82a76.54,76.54,0,0,0-9.17,3.67c1.62-.14,3.25-.23,4.87-.27,9.34-.2,22.56.07,29.79,6.88.54.51-.26,1.28-.82.81a18.43,18.43,0,0,0-3.74-2.45c3.58,1.87,6.36,4.58,5.8,8.88,0,.15,0,.29-.08.44a16.47,16.47,0,0,0,3-2.85c.32-.4.91.11.68.53a15.17,15.17,0,0,1-5.08,5.21c-1.7,2-4.61,2.83-7.63,3.35-3,.92-6.13,1.54-8.88,2.11l-1.85.37a7.17,7.17,0,0,0-1.79,2.22c-1.34,2.37-2.08,2.56-5,2.58-3.47,0-8.22-.61-9.59,2.84l.43,0a144.55,144.55,0,0,0,18.38-.31c10.53-.93,30.32-7.19,22.9-21.71C251.39,141.41,235.3,140,224.59,139.82Z" transform="translate(-20.55 -21.25)"/><path class="cls-14" d="M245.44,148.42c-.22-.11-.43-.23-.65-.33Z" transform="translate(-20.55 -21.25)"/><path class="cls-12" d="M215.83,148.73a1.05,1.05,0,0,0,1.11-.4,3.84,3.84,0,0,0,.51-.85c.13-.27.15-.61-.23-.73a1.45,1.45,0,0,0-.54.08,6.42,6.42,0,0,0-1.19.34,2.55,2.55,0,0,0-.79.35c-.16.14-.3,0-.06.32A11.89,11.89,0,0,0,215.83,148.73Z" transform="translate(-20.55 -21.25)"/><path class="cls-12" d="M221.82,147.62a2.56,2.56,0,0,0,1.86-.24c.35-.12.35-.26,0-.42h-.37l-.81,0a5.13,5.13,0,0,0-1.29.27.18.18,0,0,0,0,.09C221.19,147.53,221.69,147.59,221.82,147.62Z" transform="translate(-20.55 -21.25)"/><path class="cls-12" d="M234.45,152.45l2.4,1.06,2,.93q2.43,1.62,1.79-2.52c-.64-.76-2.46-1-3.41-1.23-.71-.16-6.93-1.54-7.47-.74C229.9,149.71,232.48,151.24,234.45,152.45Z" transform="translate(-20.55 -21.25)"/><path class="cls-12" d="M221.5,157.41c.31,1.59,1.48,6.22,4.35,3.37,1.64-1.62-.35-3.62-1.33-5s-2-3.22-3.46-4.09c.13,1.77.25,3.54.37,5.31C221.46,157.13,221.48,157.27,221.5,157.41Z" transform="translate(-20.55 -21.25)"/><path class="cls-12" d="M209,159.57c.05.39.85.37,1.34.32a4.92,4.92,0,0,0,3-2,21.11,21.11,0,0,0,2.33-3.08c.13-.21.67-.92.63-1.12.19-1-.17-1.08-.94-.52l-.73.65c-.69.63-1.36,1.27-2,1.91-.87.85-1.73,1.7-2.58,2.57C209.65,158.65,208.9,159.17,209,159.57Z" transform="translate(-20.55 -21.25)"/><path class="cls-12" d="M209.92,152.48c.64-.74.31-.64-.15-.37a.24.24,0,0,1-.14.16c-.21.09-.41.2-.62.31h0c-.74.47-1.46.94-2.23,1.35h0a13.4,13.4,0,0,0-1.18.93c-.3.26-1.76,1.34-1.06,1.82.3.19,1.64-.77,1.94-1A19.09,19.09,0,0,0,209.92,152.48Z" transform="translate(-20.55 -21.25)"/><path class="cls-6" d="M110.89,169.45c-2.72,8.6-11.76,11.6-20,11.71A120.2,120.2,0,0,1,67.58,179a67.8,67.8,0,0,1-20.52-7.34c-7.73-4.3-14-9.18-13.64-18.84a.13.13,0,0,0-.25,0c-2,8.09,1.69,13.35,8.23,17.7a69.65,69.65,0,0,0,26.42,10.46c13.26,2.31,39.73,6.93,44.37-11.13A.68.68,0,0,0,110.89,169.45Z" transform="translate(-20.55 -21.25)"/><path class="cls-6" d="M254.28,154.93c-4.84,6-14.29,7.83-21.45,9.24-8.29,1.64-17.72,3-26,.89-.2-.05-.34.24-.14.34,7.93,4.09,18.32,2.46,26.71.73,7.46-1.55,17.51-3.44,21.59-10.67C255.19,155,254.6,154.53,254.28,154.93Z" transform="translate(-20.55 -21.25)"/><path class="cls-6" d="M186.55,167.81a34,34,0,0,1-12.62,5.06c-5.43,1.12-12.47,2.43-18,1.61-.21,0-.31.28-.09.33,10,2.37,23.53,1,31.09-6.53C187.14,168.05,186.83,167.62,186.55,167.81Z" transform="translate(-20.55 -21.25)"/><path class="cls-6" d="M101.83,169.18c-20.67,4.3-41.31,1.67-59.57-9.28-.18-.11-.4.16-.23.3,16.6,12.82,40.2,17.39,60.1,10.05A.56.56,0,0,0,101.83,169.18Z" transform="translate(-20.55 -21.25)"/><path class="cls-6" d="M106.93,153.12a37.33,37.33,0,0,0-10.77-9.65c-5-2.71-11-3.36-16.56-4.09-13.14-1.74-56.75-4.19-45.54,20.84.08.19.35,0,.32-.14-.44-2.45-1-5.21-.66-7.7.51-3.52,2.26-5.37,5.07-7.17a32.87,32.87,0,0,1,11.15-4.29c9.48-1.93,19.77-1,29.29.27,4.18.55,8.59,1.06,12.59,2.44,4.26,1.47,7.59,4.18,10.71,7.36,6.11,6.21,11.5,16.37,5.23,24.48-.43.57.31,1.37.8.81C114.8,169.21,112.34,160,106.93,153.12Z" transform="translate(-20.55 -21.25)"/><path class="cls-6" d="M197.66,160.55c-1-5-2.55-10.12-6.62-13.44-9.61-7.83-26-5.34-37.43-4.77-12,.61-26.79,1.35-35.72,10.53-6.89,7.08-7,16.46-2,24.06a9.62,9.62,0,0,0,2.49,3.38c2.6,2.27,6.19,3.09,9.44,3.91,10.39,2.62,21.25,4.12,32,3.34a63.89,63.89,0,0,0,25.59-7.13c4.77-2.56,12.26-6.92,12.83-12.87A18.79,18.79,0,0,0,197.66,160.55ZM179,181.19a65.72,65.72,0,0,1-22.34,4.44,103.12,103.12,0,0,1-24.51-2.5c-3.54-.75-7.46-1.35-10.72-3a12.8,12.8,0,0,1-5.79-6.71c-2.4-7.41-1.31-15.07,5.59-20.74,8.49-7,21.16-7.64,31.64-8.22,10-.55,21.15-1.78,30.86,1,5.9,1.69,9.33,5.57,11.26,11.32C201,174.66,184.87,178.83,179,181.19Z" transform="translate(-20.55 -21.25)"/><path class="cls-6" d="M252.42,144.37c-9-6.18-22.16-7.12-32.75-6.81-9.34.28-24.34,1-29,10.78-.61,1.27,1.27,2.39,1.91,1.12,2.44-4.86,7.61-6.69,12.61-7.8a82.57,82.57,0,0,1,19-1.85c10.7.17,27.16,1.45,32.72,12.33,7.42,14.52-12.37,20.78-22.9,21.71a144.55,144.55,0,0,1-18.38.31,45.47,45.47,0,0,1-19.25-4.48.34.34,0,0,0-.35.58A26,26,0,0,0,210.82,176a150.22,150.22,0,0,0,19.79.2c9.32-.51,20.48-2.09,26.68-9.9C263.14,158.89,259.64,149.31,252.42,144.37Z" transform="translate(-20.55 -21.25)"/><path class="cls-6" d="M148.42,175.21a124.28,124.28,0,0,1-16-2.15c-4.85-1.1-9.46-2.93-14.27-4.16-.08,0-.17.1-.09.16,8.08,6.3,20.49,8.4,30.44,6.95C149,175.94,148.84,175.25,148.42,175.21Z" transform="translate(-20.55 -21.25)"/><path class="cls-6" d="M94.57,148.71c-7.09-3.67-14-4.69-21.85-5.14-9.6-.56-33.27-4.73-34.27,10.41a.23.23,0,0,0,.46.06c1.62-7.12,9-9.37,15.42-9.52,6.12-.14,12.28.28,18.39.54,12,.52,27.7,3.13,31.06,16.76a.44.44,0,0,0,.86-.12C104.77,155.67,99.47,151.25,94.57,148.71Z" transform="translate(-20.55 -21.25)"/><path class="cls-6" d="M176.72,147.29a101.88,101.88,0,0,0-26.4,0,92.79,92.79,0,0,0-23.38,5.91c-5,2.05-10.18,6.1-8.88,12.12a.27.27,0,0,0,.53-.07c.15-8.18,9-10.59,15.47-12.55a103.75,103.75,0,0,1,19.18-3.9,107,107,0,0,1,17.63-.34c7.17.47,15.48.92,18.84,8.32.23.5.91.12.83-.35C189.44,149.92,182.31,148,176.72,147.29Z" transform="translate(-20.55 -21.25)"/><path class="cls-6" d="M250.08,150.1c-7.23-6.81-20.45-7.08-29.79-6.88A64.61,64.61,0,0,0,204,145.53c-4,1.14-8.21,2.51-10.07,6.56-.2.44.41.83.67.39,2.44-4.18,8.26-5.32,12.66-6.28a68.24,68.24,0,0,1,14.54-1.51c8.57,0,20.65.34,27.48,6.22C249.82,151.38,250.62,150.61,250.08,150.1Z" transform="translate(-20.55 -21.25)"/><path class="cls-6" d="M152.17,161.24a.25.25,0,0,0-.21,0,29.59,29.59,0,0,0-10.23,5.46c-1.24,1-3.23,2.37-1.6,4,3.92,3.92,11.72-5.41,12.6-8.68A.6.6,0,0,0,152.17,161.24Zm-4.39,5.57a15.64,15.64,0,0,1-3,2.56,5.2,5.2,0,0,1-2.7.86c-1.31-.95-1.44-1.68-.4-2.18,1-1.42,3.57-2.57,5.06-3.44.82-.47,1.66-.91,2.49-1.35a.49.49,0,0,0,.58.08c.46-.21.9-.4,1.36-.58A17.27,17.27,0,0,1,147.78,166.81Z" transform="translate(-20.55 -21.25)"/><path class="cls-6" d="M170.37,150.27c-.69-2.29-3.92-1.39-5.27-.49a34.31,34.31,0,0,0-7.18,7c-.6.55-1.19,1.12-1.77,1.7a.51.51,0,0,0,.36.86c3.41-.22,6.14-2,8.89-3.91C166.66,154.59,171,152.48,170.37,150.27Zm-4.79,3.67c-.74.54-1.49,1.07-2.26,1.58A17,17,0,0,1,158,158.1c.88-.88,1.79-1.75,2.71-2.59a.37.37,0,0,0,.08-.49l.88-.84c.77-.74,1.54-1.5,2.34-2.19l.7-.61q1.71-2.16,3.7.41C168.27,152.34,166.05,153.59,165.58,153.94Z" transform="translate(-20.55 -21.25)"/><path class="cls-6" d="M177,151.79a2,2,0,0,0-2.33-1.16.39.39,0,0,0-.46-.08c-.9.43-2,.46-2.77,1.1a4.76,4.76,0,0,0-1.47,2.49c-.41,2.33,2.87,1.62,4.16,1.3C176,155,177.87,154,177,151.79Zm-3.84,2.47c-.16,0-1.73.35-1.86.18-.29-.37.4-1.59.6-1.86a3.65,3.65,0,0,1,1.94-1c.84-.1,1.7-.06,2,.57C176.52,153.67,174.21,154.08,173.2,154.26Z" transform="translate(-20.55 -21.25)"/><path class="cls-6" d="M155.8,151.22c-.13-.74-.9-1.06-1.51-1.39a.43.43,0,0,0-.35,0,2.4,2.4,0,0,0-1.76.38,1.57,1.57,0,0,0-.74,1.62,10.58,10.58,0,0,0,1.14,3.37c.3.58.78,1.5,1.56,1.27s1-1.35,1.2-2A8.31,8.31,0,0,0,155.8,151.22Zm-1,1.55a10.08,10.08,0,0,1-.35,1.44,6.73,6.73,0,0,1-.39.91c.07.39,0,.41-.17.06a6.13,6.13,0,0,1-1.35-2.72c-.46-1.37.51-2,1.47-1.8.39.2.87.4,1,.83A4.12,4.12,0,0,1,154.85,152.77Z" transform="translate(-20.55 -21.25)"/><path class="cls-6" d="M147.48,153.75a1.9,1.9,0,0,0-1.28-1.17,6.44,6.44,0,0,0-1.6-.79,17.59,17.59,0,0,0-2.77-.71c-.35-.06-.83-.2-1.15,0-.63.47-.33,1.6.09,2.09a9.93,9.93,0,0,0,1.69,1.24c.72.53,1.44,1.08,2.17,1.59s2.19,1.81,3,.82C148.22,156.16,147.79,154.46,147.48,153.75Zm-.52,2.14c-.39.29-1.55-.87-1.88-1.1-.56-.38-3.39-1.84-3.62-2.74a11.93,11.93,0,0,1,3.25.91l.24.1a.33.33,0,0,0,.31.22h.17a5.13,5.13,0,0,1,1.18.83,4.3,4.3,0,0,1,.2.54C146.84,154.75,147.07,155.8,147,155.89Z" transform="translate(-20.55 -21.25)"/><path class="cls-6" d="M143.46,157.86a1.45,1.45,0,0,0-.9-1h0a.48.48,0,0,0-.29-.11,14.57,14.57,0,0,0-5.37-.22c-2.52.27-5.84.08-8.2,1-.78.32-1.44.76-1.45,1.67,0,1.21,1,1.73,2,2,2.86.73,6.5.35,9.42.1,1.47-.12,3.79-.07,4.69-1.54A1.74,1.74,0,0,0,143.46,157.86Zm-5.93,2.35c-1,.07-1.91.11-2.87.12-.57,0-6.63.37-5.37-1.77.37-.62,5-.61,5.81-.7,1-.11,5.91-1.15,7.17.28C143.08,159.66,138.12,160.17,137.53,160.21Z" transform="translate(-20.55 -21.25)"/><path class="cls-6" d="M133.61,162.71a.32.32,0,0,0-.21.13c-.73.06-1.46.15-2.19.28-1.12.2-4,.41-4.7,1.48-.56.86.11,2.38.65,3,.82,1,1.65,1,2.86.77a41.33,41.33,0,0,0,6.32-2c1-.41,2.84-1,3.37-2.09C141.21,161.15,134.84,162.47,133.61,162.71Zm3.82,2.11c-1.31,1.19-4.36,1.74-6.06,2.24l-1.6.46-2.42-1.58c-.31-1.4,2.89-1.78,3.64-1.94a37.29,37.29,0,0,1,4.22-.61,7.62,7.62,0,0,1,2,.05c.71-.3,1-.15.9.47C138.28,164.42,138.06,164.72,137.43,164.82Z" transform="translate(-20.55 -21.25)"/><path class="cls-6" d="M176.51,158c-1.72-.35-3.81.7-5.35,1.27-1.38.51-2.76,1.05-4.15,1.53a13.35,13.35,0,0,0-2.55.76.55.55,0,0,0-.25.6c.42,1.94,6,2,7.55,2,1.74,0,6.83.3,7.53-1.85C179.8,160.78,178,158.29,176.51,158Zm0,4.7c-2.42.88-6,.42-8.51-.09-.52-.11-1-.25-1.56-.4a4.52,4.52,0,0,0,.49-.22c.82-.43,1.83-.61,2.68-1a.32.32,0,0,0,.18-.3c.84-.28,1.68-.58,2.53-.85a11.69,11.69,0,0,1,2.82-.77,2.86,2.86,0,0,1,3.07,2.36A1.55,1.55,0,0,1,176.51,162.69Z" transform="translate(-20.55 -21.25)"/><path class="cls-6" d="M161.64,163.28a6.62,6.62,0,0,0-2.77-2c-.59-.23-1.87-.73-2.36-.06s.27,2.48.48,3.2c.39,1.3.71,2.89,1.75,3.85a.47.47,0,0,0,.67-.09,3.51,3.51,0,0,0,1.15-.13c.93-.26,2.13-.94,2.28-2A4.05,4.05,0,0,0,161.64,163.28Zm-1.41,3.56c-1.23.33-1.45-.63-1.86-1.51-.11-.22-.2-.45-.31-.68-.16-.51-.33-1-.52-1.51-.1-.23-.43-.76-.4-1,.07-.74.62-.5,1-.39a5.39,5.39,0,0,1,2.18,1.21,4.27,4.27,0,0,1,1.29,1.87C161.89,165.85,161.23,166.56,160.23,166.84Z" transform="translate(-20.55 -21.25)"/><path class="cls-6" d="M81.91,149.25a11,11,0,0,0-4.08,4.29l-.06.06c-.5.9-4.42,7.12-.75,6.16,1.48-.39,3-2.1,4.06-3.15a19.15,19.15,0,0,0,3.55-4.8C85.77,149.49,84.13,148,81.91,149.25ZM84,151.74a14.55,14.55,0,0,1-1.12,1.58,24.28,24.28,0,0,1-4.56,4.61c-.56.43-.8.77-1.5.66-1.13-.16,0-1.31.33-2s.63-1.54.94-2.31a16.41,16.41,0,0,1,1.45-2.14c.54-.65,1.86-2.28,2.71-2.36,1.46-.51,2,0,2.2,1Z" transform="translate(-20.55 -21.25)"/><path class="cls-6" d="M64,158.16a.35.35,0,0,0,0-.46c-3.21-3.45-9.39-8.83-14.55-7.79-4.78,1-1.42,4.92,1,6.69A21.78,21.78,0,0,0,58,159.8c1.38.35,4.65,1.37,5.81,0A1.51,1.51,0,0,0,64,158.16Zm-2.68,1c-1.1.43-4.07-.72-5.2-1.09a18.7,18.7,0,0,1-5-2.33c-1.51-1.05-5.62-4.07-.84-4.74,1.92-.27,4.11,1.09,5.75,2,0,.16,3,1.93,4.27,3C61.26,156.76,63.69,158.18,61.34,159.11Z" transform="translate(-20.55 -21.25)"/><path class="cls-6" d="M72.35,153.74a15.65,15.65,0,0,0-3.14-4.19c-1-1-2-2.17-3.44-2.34-2.46-.29-4.12,1.4-2.89,3.7a8.81,8.81,0,0,0,2.61,2.69c1.92,1.47,3.89,2.88,5.86,4.28a.29.29,0,0,0,.32,0C73.58,158.16,72.82,154.75,72.35,153.74Zm-.78,3.42c-1.37-1.12-2.74-2.22-4.13-3.29-1.08-.83-3.29-2.09-3.68-3.48-.26-1.59.3-2.33,1.67-2.21a4.87,4.87,0,0,1,2.37,1.39A15.16,15.16,0,0,1,69.17,151a14.67,14.67,0,0,1,1.88,2.42C71.18,153.62,72.57,157.29,71.57,157.16Z" transform="translate(-20.55 -21.25)"/><path class="cls-6" d="M73.78,162.2c-.44-.5-1.12-1.37-1.89-1.22-.58.1-.94.86-1.23,1.48a15.74,15.74,0,0,0-1.43,2.15,1.21,1.21,0,0,0,.2,1.63,4.65,4.65,0,0,0,5.23-.16C76,164.88,74.71,163.26,73.78,162.2Zm-.29,3.43c-.7.35-3.49.61-3.37-.67,0-.48.6-1.13.83-1.55v0l.07-.06c.23-.31.54-.93.86-1.12.48-.3.85.34,1.17.71a7.24,7.24,0,0,1,.88,1.18C74.35,164.82,74.25,165.25,73.49,165.63Z" transform="translate(-20.55 -21.25)"/><path class="cls-6" d="M92.43,156.25c-2-1.29-5-.34-7.74,1-3,.92-6.61,2.46-5.77,4.37.65,1.47,3.09,1.06,4.29.91,2.54-.32,5.21-.74,7.72-1.24S95.08,158,92.43,156.25Zm-2.31,3.95c-.77.1-1.55.14-2.32.27-1.12.17-2.21.44-3.32.63a17.46,17.46,0,0,1-2.7.32c-1.37-.51-1.6-.9-.7-1.17.49-.69,2.54-1.25,3.31-1.62,1-.46,1.9-.91,2.83-1.39.55-.19,1.1-.36,1.67-.5C93.34,155.75,92.61,160.2,90.12,160.2Z" transform="translate(-20.55 -21.25)"/><path class="cls-6" d="M226.18,156.71c-1.45-2.07-3-5.19-5.49-6.16a.44.44,0,0,0-.55.42,31.11,31.11,0,0,0,.48,4.49c.34,4,1.7,9.17,5.79,6C228.3,160,227.35,158.36,226.18,156.71Zm-.33,4.07c-2.87,2.85-4-1.78-4.35-3.37,0-.14,0-.28-.07-.42-.12-1.77-.24-3.54-.37-5.31,1.51.87,2.51,2.75,3.46,4.09S227.49,159.16,225.85,160.78Z" transform="translate(-20.55 -21.25)"/><path class="cls-6" d="M216.87,152.13c-1-.6-2.18.71-2.8,1.24a54.46,54.46,0,0,0-4,3.86l-.27.24c-.54.48-2.22,1.66-1.91,2.59s2,.82,2.68.75c1.49-.14,2.37-1.27,3.28-2.34C214.55,157.61,218.5,153.15,216.87,152.13Zm-1.26,2.72a21.11,21.11,0,0,1-2.33,3.08,4.92,4.92,0,0,1-3,2c-.49.05-1.29.07-1.34-.32s.7-.92,1-1.23c.85-.87,1.71-1.72,2.58-2.57.69-.64,1.36-1.28,2-1.91l.73-.65c.77-.56,1.13-.46.94.52C216.28,153.93,215.74,154.64,215.61,154.85Z" transform="translate(-20.55 -21.25)"/><path class="cls-6" d="M211.26,151.52c-.41-1.71-3.19.55-4.39,1.55a14.65,14.65,0,0,0-1.22.84,7.68,7.68,0,0,0-2.42,2.36.88.88,0,0,0,.52,1.33c.94.28,2.22-.51,2.93-1a20.71,20.71,0,0,0,3-2.62C210.2,153.43,211.48,152.43,211.26,151.52Zm-1.34,1a19.09,19.09,0,0,1-3.48,3.24c-.3.2-1.64,1.16-1.94,1-.7-.48.76-1.56,1.06-1.82a13.4,13.4,0,0,1,1.18-.93h0c.77-.41,1.49-.88,2.23-1.35h0c.21-.11.41-.22.62-.31a.24.24,0,0,0,.14-.16C210.23,151.84,210.56,151.74,209.92,152.48Z" transform="translate(-20.55 -21.25)"/><path class="cls-6" d="M242.65,153.24c-.82-2.38-4.5-3.15-6.6-3.64-1.73-.41-7-2-7.93.11a.54.54,0,0,0,.32.78c1,.41,1.91.85,2.85,1.3,1.35.71,2.7,1.42,4.07,2.11s3.34,2.06,5,2.16A2.07,2.07,0,0,0,242.65,153.24Zm-3.82,1.2-2-.93-2.4-1.06c-2-1.21-4.55-2.74-4.71-2.5.54-.8,6.76.58,7.47.74.95.2,2.77.47,3.41,1.23Q241.27,156.06,238.83,154.44Z" transform="translate(-20.55 -21.25)"/><path class="cls-6" d="M217.81,146.2a2.45,2.45,0,0,0-1.73,0,5,5,0,0,0-2.19.89c-.52.5-.21.94.27,1.31.79.91,2,1.83,3.12.78C217.89,148.59,218.84,146.78,217.81,146.2Zm-.36,1.28a3.84,3.84,0,0,1-.51.85,1.05,1.05,0,0,1-1.11.4,11.89,11.89,0,0,1-1.19-.89c-.24-.29-.1-.18.06-.32a2.55,2.55,0,0,1,.79-.35,6.42,6.42,0,0,1,1.19-.34,1.45,1.45,0,0,1,.54-.08C217.6,146.87,217.58,147.21,217.45,147.48Z" transform="translate(-20.55 -21.25)"/><path class="cls-6" d="M224,146.07a6,6,0,0,0-2,.1,2.92,2.92,0,0,0-1.65,1,.28.28,0,0,0,.16.47.82.82,0,0,0,.22.3,3.36,3.36,0,0,0,3.56.14A1.41,1.41,0,0,0,225,147C225,146.46,224.45,146.15,224,146.07Zm-.27,1.31a2.56,2.56,0,0,1-1.86.24c-.13,0-.63-.09-.64-.25a.18.18,0,0,1,0-.09,5.13,5.13,0,0,1,1.29-.27l.81,0h.37C224,147.12,224,147.26,223.68,147.38Z" transform="translate(-20.55 -21.25)"/><path class="cls-15" d="M141.19,180.33c-7.43-1.48-15-3.28-21.37-7.55-.4-.27-.82.32-.5.65,5.45,5.76,13.83,8.41,21.59,8.92A1,1,0,0,0,141.19,180.33Z" transform="translate(-20.55 -21.25)"/><path class="cls-15" d="M208.39,168.54a46.18,46.18,0,0,0-8-1.44c-.36,0-.4.45-.17.63a17.06,17.06,0,0,0,7.57,2.94C209.17,170.88,209.8,168.9,208.39,168.54Z" transform="translate(-20.55 -21.25)"/><path class="cls-15" d="M45.9,167a50,50,0,0,1-10.39-11.19.41.41,0,0,0-.75.32,22.64,22.64,0,0,0,9.73,12.7C45.59,169.45,46.94,167.79,45.9,167Z" transform="translate(-20.55 -21.25)"/><path class="cls-15" d="M54.49,170.26a66.33,66.33,0,0,1-6.57-1.14.48.48,0,0,0-.37.87,14.23,14.23,0,0,0,6.71,1.93C55.18,171.92,55.46,170.42,54.49,170.26Z" transform="translate(-20.55 -21.25)"/><path class="cls-5" d="M239.1,153c-13,2-25.95,4.63-38.76,7.74a554.47,554.47,0,0,0-64,19.29c-15-9.14-31.78-14.88-48.87-18.81C76.34,158.63,65,156.78,53.69,155c-8.19-1.29-16.54-2.77-24.89-3.06,8.5-5.08,18-8.42,27.52-11.2q21.71-6.34,43.9-10.68c14.13-2.73,28.28-4.66,42.49-6,21,1.45,42,2.55,62.71,6.46A202.47,202.47,0,0,1,242.78,141a138.39,138.39,0,0,1,19.07,8.94C254.21,150.65,246.55,151.85,239.1,153Z" transform="translate(-20.55 -21.25)"/><path class="cls-2" d="M73.21,155.31c-6.11-1.93-12.41-3.29-18.62-4.86C49,149,43,147.66,37.37,149.8a.67.67,0,0,0,.18,1.3A285.39,285.39,0,0,1,73,156.26.49.49,0,0,0,73.21,155.31Z" transform="translate(-20.55 -21.25)"/><path class="cls-2" d="M135.72,174.18c-8.26-6.89-19.41-11.12-29.89-13-.83-.14-1.19,1.05-.35,1.28,10.6,3,19.73,7.66,29.29,12.94C135.52,175.83,136.44,174.78,135.72,174.18Z" transform="translate(-20.55 -21.25)"/><path class="cls-16" d="M261.85,149.94A138.39,138.39,0,0,0,242.78,141a202.47,202.47,0,0,0-37.36-10.49c-20.75-3.91-41.73-5-62.71-6.46-14.21,1.34-28.36,3.27-42.49,6-13.93,2.69-27.72,6-41.36,9.95,1.46.35,2.93.76,4.43,1.25,6.53,2.11,39.42,13.23,47.84,16,6.17,2,12.26,3.91,18.54,5.55,5.6,1.46,9.63,3.8,14.67,6.09,6,2.71,12.79-2.3,19.1-3.88,7.26-1.82,14.75-3,22.1-4.19,15.21-2.44,30.88-6,46.26-6.88l1.64-.07c1.88-.31,3.77-.62,5.66-.91C246.55,151.85,254.21,150.65,261.85,149.94Z" transform="translate(-20.55 -21.25)"/><path class="cls-6" d="M265.91,149.6a129.48,129.48,0,0,0-18.41-9.13,193,193,0,0,0-38.72-11.65,342.18,342.18,0,0,0-40.6-5.2q-5.44-.41-10.92-.75l-21-.84-7.62,1q-15.4,2.07-30.55,5.09a416.43,416.43,0,0,0-45.52,11.49c-9.31,3-18.52,6.59-26.32,12.32l-1.66,1.27,2,.16A437,437,0,0,1,87,163.19c16.39,3.77,32.49,9.21,46.94,17.76l1.51.91,2.65-.79c20.41-6.14,40.64-12.8,61.37-17.88,12.31-3,24.73-5.62,37.25-7.62,9.66-1.55,19.35-2.31,29-3.19l3.72-.34ZM239.1,153c-13,2-25.95,4.63-38.76,7.74a554.47,554.47,0,0,0-64,19.29c-15-9.14-31.78-14.88-48.87-18.81C76.34,158.63,65,156.78,53.69,155c-8.19-1.29-16.54-2.77-24.89-3.06,8.5-5.08,18-8.42,27.52-11.2q21.71-6.34,43.9-10.68c14.13-2.73,28.28-4.66,42.49-6,21,1.45,42,2.55,62.71,6.46A202.47,202.47,0,0,1,242.78,141a138.39,138.39,0,0,1,19.07,8.94C254.21,150.65,246.55,151.85,239.1,153Z" transform="translate(-20.55 -21.25)"/><path class="cls-9" d="M234.47,125.85c-.75.11-1.11-1-.32-1.18,3.72-.77,13.14-3.16,13.32-8.15a18.68,18.68,0,0,0-1.74-2,32.88,32.88,0,0,0-12.18-6.95c-8.38-2.93-17.29-4.72-26-6.35-32.71-6.14-66.25-6.62-99.42-5.45-16.44.57-33,1.78-48.94,6-7.36,1.92-16.9,4-22.08,10-3,3.42-4.27,7.92-4.82,12.53a.36.36,0,0,1,.64.28,36.78,36.78,0,0,0,0,11.66c.4,2.39,1.14,4.32,3.56,5.36,1.81.77,4,1.15,5.89,1.81,5.29,1.87,10.49,2.36,16,3,4.15.48,7.76,2.28,11.79,3.13,4.52.94,9.25.28,13.83.88,3.73.48,7.12,1.92,10.76,2.73,9.35,2.08,19-.72,28.37,1,5,.93,9.58,2.52,14.77,2.25,4.31-.22,8.55-1.15,12.84-1.6,5-.52,9.86.2,14.83.13,4.69-.06,9.38-.69,14-1.17,9.69-1,19.81-.48,29.31-2.65,3.91-.89,7.75-2.06,11.75-2.47,4.38-.45,8.79-.25,13.16-.77,7.23-.86,15.26-2.92,17.23-10.94a34.41,34.41,0,0,0,.66-12.32,35,35,0,0,0-3-6.31C247.78,123.26,238.48,125.3,234.47,125.85Zm-179-.39c-6.67-.31-15.12-2-20.25-6.59-.38-.33.11-1,.52-.68,3,2,6.69,2.71,10.1,3.76a91.48,91.48,0,0,0,9.76,2.55C56.16,124.6,56,125.49,55.48,125.46Zm52,4.27a372.81,372.81,0,0,1-44.71-1.65c-.62-.06-.64-1,0-1,14.9.52,29.82.81,44.71,1.72A.46.46,0,0,1,107.5,129.73Zm41.68,2.42a86,86,0,0,1-16.67.9c-4.25-.05-9.46.32-13.09-2.3a.24.24,0,0,1,.12-.44c4.56-.05,9.15.58,13.75.53,5.23,0,10.48-.22,15.71,0C149.74,130.84,150,132,149.18,132.15Zm77.1-4.05a188,188,0,0,1-58.3,5.41.37.37,0,0,1,0-.73A514.92,514.92,0,0,0,226,127C226.68,126.9,227,127.91,226.28,128.1Z" transform="translate(-20.55 -21.25)"/><path class="cls-10" d="M37.33,127.71c.82,3.22-.79,8.29,1,10.91-.43-.62,3,1.58,2.72,1.46,2.71,1,4.15.17,7.11.1,3.26-.08,2.3.86,4.78,2.07.57.28,3.59,1.8,3.66,1.81,1.71.21,3.81-.67,5.43-.74-.05,0,1,1.16,1.61,1.21,1.3.11,2.54-1.27,4.16-1,.29,4.27,3.32,3.62,6,2.45,3.25-1.39,4.29-2.47,6.26-5.63.12,1.32.11,7.81,1.78,8.17,1.9.41,4.22-4.75,5.23-6,1,3.39,2.34,9.12,7.2,7,2.94-1.31,4-8.12,2.36-10.64-2.41-3.81-8.82-1-12.26-2.49-1.66-.73-2.91-3.22-5-3s-2.24,2.08-3.8,3.66c-1.61-.82-3.47-3.55-5.25-3.6-1.59-.05-2.3,1.64-3.83,2-2.92.66-6.64-1.86-9.55-2.42-2-.39-3.88-1-5.81-1.34a11.61,11.61,0,0,0-4.59,0c-1.5.25-1.55,1.92-3.37,1.13C40.79,131.68,42.36,128.34,37.33,127.71Z" transform="translate(-20.55 -21.25)"/><path class="cls-11" d="M248.76,118.33c-1,4.93-10.28,7-14.29,7.52-.75.11-1.11-1-.32-1.18,3.72-.77,13.14-3.16,13.32-8.15a18.68,18.68,0,0,0-1.74-2,32.88,32.88,0,0,0-12.18-6.95c-8.38-2.93-17.29-4.72-26-6.35-32.71-6.14-66.25-6.62-99.42-5.45a276.46,276.46,0,0,0-35.08,3.05c-3.75,5.84-4.68,12.59-.78,20.32a17.78,17.78,0,0,0,9.58,8.52c8.56.27,17.11.59,25.65,1.11a.46.46,0,0,1,0,.91c-6,.2-12,.17-18,0a140.58,140.58,0,0,0,15.45,1.07c6,.29,11.65,1,17.25,1.33a10,10,0,0,1-2.73-1.37.24.24,0,0,1,.12-.44c4.56-.05,9.15.58,13.75.53,5.23,0,10.48-.22,15.71,0a.76.76,0,0,1,.31.1,40.85,40.85,0,0,1,9.41.76c7.12,1.58,12.05,6.41,19.34,6.08,9-.41,11.83,2.84,7.23,12-2.42-1.71-3.43-5.09-4.11-8-2,2.35-2.26,6.75-2.17,9.77-1.8-.72-2.36-2.92-3.35-4.7-3.22,2.84-2.2,5.4-7.63,6.06-3.12.39-6.48.55-9.61.77-4.35.32-9.18,1.77-13.44,1.43l-.36.62c2.06-.3,4.12-.63,6.19-.85,5-.52,9.86.2,14.83.13,4.69-.06,9.38-.69,14-1.17,9.69-1,19.81-.48,29.31-2.65,3.91-.89,7.75-2.06,11.75-2.47,4.38-.45,8.79-.25,13.16-.77,7.23-.86,15.26-2.92,17.23-10.94a34.41,34.41,0,0,0,.66-12.32A35,35,0,0,0,248.76,118.33Zm-22.48,9.77a188,188,0,0,1-58.3,5.41.37.37,0,0,1,0-.73A514.92,514.92,0,0,0,226,127C226.68,126.9,227,127.91,226.28,128.1Z" transform="translate(-20.55 -21.25)"/><path class="cls-6" d="M251.19,117.33a.92.92,0,0,0-.64-.42,25.68,25.68,0,0,0-6.33-6.36c-6.8-4.88-15.4-6.77-23.4-8.66a326.08,326.08,0,0,0-54.66-7.75C147.59,93,129,93,110.35,93.61c-17.6.56-35.36,1.74-52.45,6.26C50,102,40,104.34,34.8,111.2c-4.29,5.63-4.13,12.67-3.74,19.41-.41,3.95-.12,8.16,2.07,10.85,1.63,2,4.42,2.33,6.72,3.09a64.33,64.33,0,0,0,15.09,3.54,40.18,40.18,0,0,1,8.79,1.4c2,.63,3.91,1.53,6,2,4.28.9,8.71.34,13,.79,5,.51,9.5,2.62,14.43,3.33,5.49.8,11.13.17,16.66.11a70.58,70.58,0,0,1,15.79,2,39.88,39.88,0,0,0,13.87.08c11.54-1.61,23-.71,34.59-1.91,5.24-.54,10.48-1.13,15.74-1.37s10-.28,15-1.41c5.25-1.18,10.19-2.57,15.61-2.82a100.1,100.1,0,0,0,13.17-1.09c6.91-1.25,13.51-4.37,15.26-11.75C254.28,131.62,254.74,122.5,251.19,117.33ZM251.13,137c-2,8-10,10.08-17.23,10.94-4.37.52-8.78.32-13.16.77-4,.41-7.84,1.58-11.75,2.47-9.5,2.17-19.62,1.65-29.31,2.65-4.66.48-9.35,1.11-14,1.17-5,.07-9.86-.65-14.83-.13-4.29.45-8.53,1.38-12.84,1.6-5.19.27-9.76-1.32-14.77-2.25-9.37-1.73-19,1.07-28.37-1-3.64-.81-7-2.25-10.76-2.73-4.58-.6-9.31.06-13.83-.88-4-.85-7.64-2.65-11.79-3.13-5.53-.64-10.73-1.13-16-3-1.87-.66-4.08-1-5.89-1.81-2.42-1-3.16-3-3.56-5.36a36.78,36.78,0,0,1,0-11.66.36.36,0,0,0-.64-.28c.55-4.61,1.87-9.11,4.82-12.53,5.18-6,14.72-8.1,22.08-10,16-4.17,32.5-5.38,48.94-6,33.17-1.17,66.71-.69,99.42,5.45,8.71,1.63,17.62,3.42,26,6.35a32.88,32.88,0,0,1,12.18,6.95,18.68,18.68,0,0,1,1.74,2c-.18,5-9.6,7.38-13.32,8.15-.79.17-.43,1.29.32,1.18,4-.55,13.31-2.59,14.29-7.52a35,35,0,0,1,3,6.31A34.41,34.41,0,0,1,251.13,137Z" transform="translate(-20.55 -21.25)"/><path class="cls-6" d="M55.61,124.5A91.48,91.48,0,0,1,45.85,122c-3.41-1-7.1-1.79-10.1-3.76-.41-.27-.9.35-.52.68,5.13,4.54,13.58,6.28,20.25,6.59C56,125.49,56.16,124.6,55.61,124.5Z" transform="translate(-20.55 -21.25)"/><path class="cls-6" d="M107.5,128.82c-14.89-.91-29.81-1.2-44.71-1.72-.64,0-.62.92,0,1a372.81,372.81,0,0,0,44.71,1.65A.46.46,0,0,0,107.5,128.82Z" transform="translate(-20.55 -21.25)"/><path class="cls-6" d="M149,130.81c-5.23-.19-10.48,0-15.71,0-4.6,0-9.19-.58-13.75-.53a.24.24,0,0,0-.12.44c3.63,2.62,8.84,2.25,13.09,2.3a86,86,0,0,0,16.67-.9C150,132,149.74,130.84,149,130.81Z" transform="translate(-20.55 -21.25)"/><path class="cls-6" d="M226,127a514.92,514.92,0,0,1-58,5.77.37.37,0,0,0,0,.73,188,188,0,0,0,58.3-5.41C227,127.91,226.68,126.9,226,127Z" transform="translate(-20.55 -21.25)"/><path class="cls-7" d="M257.57,110.62a28,28,0,0,0-4-3.09,1,1,0,0,1-.41-.49,28,28,0,0,0-4.38-1.46c-3.24-.75-7.19-.56-10.15-2.26-3.12-1.79-2.2-6.08-5.2-7.53-4.28-2.06-10.26-1.12-14.82-.75-3.42.28-5.59,0-8.3-1.88-2.26-1.59-3.23-2.4-6-1.84-.86.17-1.7.39-2.55.6-2.06.53-4.17,1.43-6.31,1.61a5.1,5.1,0,0,1-2.8-.48,10.63,10.63,0,0,0-6.53-.57,9.81,9.81,0,0,1-3.25.11.67.67,0,0,1-.62,0c-3.64-1.81-6.16-4.38-10.55-2.37-2,.9-3.81,2.12-6,2.38a9.51,9.51,0,0,1-4.22-.6c-2.09-.69-3.14-1.57-5.48-.93-1,.27-1.88.77-2.86,1.07-4.73,1.42-6.08-3.46-10.52-3-3.79.41-6.83,3.33-10.75,1.75-1.72-.69-3.08-2.15-4.86-2.69-3-.92-5.93,1-8.49,2.25-3.35,1.59-6.27,2.27-9.87,1-2.48-.9-4.63-2-7.36-2.07a18.2,18.2,0,0,0-8.87,2.43,23.48,23.48,0,0,1-3.53,2,6.74,6.74,0,0,1-3.76,1c-2.38-.14-4.3-1.35-6.82-.91-2,.35-3.82,1.88-5.72,2.57a7,7,0,0,1-5.11.11c-1.82-.68-3.36-2.17-5.34-2.45-2.94-.41-4.56.64-6.76,2.26-2,1.47-3.62,2.14-6.06,1.39s-3.84-1.87-6.28-.83-3.09,2.59-4.47,4.54a9.48,9.48,0,0,1-2.69,2.7c3.77-.65,7.9-2.39,11.65-1a.22.22,0,0,1-.12.43c-3.67-1-7.58,1.51-11.13,2.24s-7.41.08-10.37,3a.49.49,0,0,1-.26.13c-.22,1.65.68,3.47,1.4,5.22a5.75,5.75,0,0,1,.45,1.93A29.2,29.2,0,0,1,32,114.66c5.09-1.47,9.81-3.74,15.18-3.84.35,0,.33.5,0,.53-4.18.42-7.74,2.05-11.58,3.63-3,1.22-7.45,1.87-9.23,4.8a.75.75,0,0,1-.26.27,23.68,23.68,0,0,0-2.39,3.28c-1,2-.68,4.71,2,4.94a10,10,0,0,0,3.81-.61c1.25-.38,2.59-.91,4-1.28a70.27,70.27,0,0,1,20-6.92c.49-.1.7.64.21.75a78.42,78.42,0,0,0-16.19,5.85A5.21,5.21,0,0,1,40,127.35a9,9,0,0,1,2.2,4.14c.69,2.1.58,3.93,2.75,4.29,3.16.52,2.65-2.27,4.79-3.87l.26-.18a.62.62,0,0,1,.3-.27l.47-.2a7.11,7.11,0,0,1,1.19-.49c7.52-3,15.66-4.52,22.67-8.68.44-.26.83.42.4.69-6.22,3.79-13.15,5.63-19.83,8.27a3.56,3.56,0,0,1,1.1,1.06,22.08,22.08,0,0,1,1,3A5.29,5.29,0,0,0,62,138.5c3.64.51,6.91-1.62,9.85-3.5a23.34,23.34,0,0,1,5-2.64c4-2.58,8.08-5.1,12-7.87.39-.28.75.35.37.63-3.1,2.29-6.23,4.55-9.35,6.82A6.39,6.39,0,0,1,83,133.07a28.42,28.42,0,0,1,3.7,3.66c1.93,1.92,3.32,2.49,5.64-.1a5,5,0,0,0,.57-.79.79.79,0,0,1,.07-1c2.48-2.84,5.48-5,8.25-7.51s5.39-5.4,8.36-7.82c.38-.31.92.19.55.55-2.73,2.68-5.14,5.64-7.86,8.32-1.25,1.23-2.57,2.35-3.88,3.48a3,3,0,0,1,2,.78c1,.94.71,1.84.92,3.09,1.13,6.59,7.8,3.94,11.59,2,.52-.26,2.89,0,3.68-.2,2.17-.49,2.81-1.29,4.2-3,1.2-1.48,2.4-2.33,3.7-2.2-1.62-3.75-2.21-8.95-.35-11.82a.43.43,0,0,1,.74.44c-2.32,4,.51,9.36,2.35,13.09.48.63.9,1.75,1.5,2,1.91.87,2.41-1.15,3.65-1.94a4.59,4.59,0,0,1,4.51-.09,11.78,11.78,0,0,1,2.46,1.74c1,1.75,5.9,3.82,5-3.82-.08-.65.84-.91,1.39-1.22a5.36,5.36,0,0,1,1.06-.43,28.37,28.37,0,0,1-5.26-8.32c-.12-.27.35-.46.47-.2,1.64,3.64,4.31,6.16,7.19,8.62,3.24,1.09,5.89,5.54,9.71,4.43,4.09-1.19,7.37-3.11,10.18,1.29a30.42,30.42,0,0,0,1.45,2.71c2.79,3.45,6.08,1.75,8.67-.48,2-1.72,3.64-3.85,6-5.06a8.87,8.87,0,0,1,3.65-1c-.53-.56-1.06-1.13-1.65-1.68a36,36,0,0,0-5-3.35c-2.5-1.62-4.95-3.58-5-6.79,0-.29.47-.36.52-.07.58,3.92,4.29,5.23,7.37,6.87s5.09,4.77,8.19,6.4a.75.75,0,0,1,.43.63c1.81,1.51,3.57,3.19,6,2.26a.91.91,0,0,1,.81,0c1.72-.82,3.28-2.24,5.09-2.85,2.13-.71,3-.08,5,.47l.91.67c2.06.64,3.72.31,5-1,.69-.37,1.2-1,1.94-1.33a6.61,6.61,0,0,1,2.44-.59c-3.17-2-6.7-3.66-8.71-6.77-.3-.46.4-.84.72-.42,2.95,4,8.8,3.93,11.68,7.76,3.63,1.17,9.19,3.51,9-2.65,0-1.58-1-2.86-.29-4.49a3.15,3.15,0,0,1,2.8-2c-2.59-1.51-5.6-1.65-9-2.19a35.06,35.06,0,0,1-9.57-3.06c-.42-.19-.05-.81.36-.62a28.6,28.6,0,0,0,9.38,2.45c2.1.2,4.31,0,6.39.41a10.59,10.59,0,0,1,7,5.07.74.74,0,0,1-.07.93c.29.53.56,1.07.87,1.58,1.38,2.33,3.49,2.72,4.81.36.32-.58.44-1.3.72-1.91,1.67-3.71,3.69-3,7.12-2.68,2,.86,5.09,1,3.34-1.6a7,7,0,0,1-1.18-1.2,4.28,4.28,0,0,1-.91-1.54,2.66,2.66,0,0,1,.41-2.63c1-1.09,5.64-2,3.64-4.32A24.09,24.09,0,0,0,257.57,110.62Zm-193.7,6.89c-1.93.32-4.46.33-6,1.62-.34.28-.81-.17-.49-.49,1.59-1.57,4.18-1.72,6.26-2.15C64.26,116.34,64.53,117.4,63.87,117.51Z" transform="translate(-20.55 -21.25)"/><path class="cls-8" d="M251.17,113.4c-1.64-2.71-4.8-4.05-8.17-4.72l-.48-.27c-3.32-1.86-9.37-2.13-12-4.84-2.93-3.08-.45-6.26-5.85-7C219.65,95.88,215.25,100,210,98c-1.93-.74-2.49-1.82-4.57-2.17s-3.79.34-5.63.83c-3.25.87-2.51.79-5.24-.09a15.22,15.22,0,0,0-4.49-1.09c-2.33-.14-4.49.38-6.81.38-3.58,0-7-2-10.42-1.87-3,.11-4.74,2.77-7.73,3-2.84.23-4.57-1.8-7.13-2.27-3.31-.61-3.56,1.31-6.55,2.17-3.47,1-3.64-1.15-6-2.55-4.55-2.68-10-.12-14.37,2.16a27.92,27.92,0,0,0-4.82,3.69c-2.57-3.15-8.76-2-12.15-.67-5.34,2.06-9.5,9.56-15,9.93-4.25.29-5.52-1.12-9.5,2.31-2.3,2-2.35,4.12-4,6.13-2.26,2.8-10.49,4-7,9a28.13,28.13,0,0,0,9.54-3.46c4.32-2.29,3.84-1.43,5,2.58.68,2.35-.38,2.71,2.65,2.74,2.39,0,4.19-1.85,6-3a101,101,0,0,0,14.5-11.28c-.23,1.2-.89,2.39-2.66,4-3.91,3.55-1.68,3.57-2.21,8.11-.4,3.53-5.24,7.29,1.08,7.42,3,.06,2.85-2,4.84-2.63,1.67-.53,1.74.17,3.31.12,5.51-.19,3.12-1,3-5.26-.09-2.18,1.42-9.14,4.46-8.09,1.73.59,2.29,4.85,3.32,6.32.79,1.11,2.19,1.88,2.88,2.94,1.37,2.13,2.12,7.26,5.94,6.24,2.69-.72,1.91-3.32,5.92-3.41.25-3.65-5.62-7.33-6.92-10.24,3.82-.65,6.77,4.43,10.74,5.54,3.48,1.8,9.25,3.08,11.68,3.57,2.75.56,5.52-.64,7.81,1.53,1.68,1.61,1.12,5.11,4.67,4.5,5-.87,5.42-8,11.5-5.21,2.59,1.18,4.36,3,6.8,4.27a9.92,9.92,0,0,0,4.45,1.28c4.19-.37,2.77-3.2,4.06-5.55,4-7.35,8.7,1.23,13,.75,1.73-.19,1.87-2,3.51-2.2,1.23-.13,3,1.26,4.26,1.45s4.24.44,5.36,0c3.54-1.4.95-1.52.65-4.14-.58-5.22,6-4.25,9.89-3.62,3.5.56,9.27,4.83,8.54-2.16C249.54,118.83,253.72,117.6,251.17,113.4Z" transform="translate(-20.55 -21.25)"/><path class="cls-6" d="M260.19,110a17,17,0,0,0-5-3.89l-.53-.35a.92.92,0,0,0-.57-.17c-.27-.11-.53-.22-.79-.31-4.12-1.45-10.2-.89-13.9-3.17-2.86-1.77-1.45-4.29-3.28-6.36A6.67,6.67,0,0,0,232.41,94c-5-1.18-9.9-.53-15-.28s-6.93-4.5-11.65-4.07a34.45,34.45,0,0,0-5.66,1.24,29.22,29.22,0,0,1-3.74,1c-3,.36-2.66-.33-4.62-1.13-3-1.21-6.07.68-9,.61-3.78-1.94-6.08-4.57-10.49-2.91-3,1.12-5.61,3.47-9.06,2.68-2-.46-3.19-1.83-5.31-1.84-1.88,0-3.41,1.08-5.17,1.46-3.07.67-4.46-1.83-6.87-2.81-4-1.6-7.58,2-11.47,1.91s-6.09-3.77-10.18-3.19c-4.74.68-8.39,5-13.45,4-4.6-.92-7.28-3.21-12.25-2.41a18,18,0,0,0-5.67,1.83,21.67,21.67,0,0,0-2.52,1.89.34.34,0,0,0-.19,0c-4,2.63-6.79-.15-10.79.13s-6.79,4-10.81,3c-2.89-.67-4.89-2.74-8.06-2.71s-4.14,2-6.75,3.25c-3.91,1.82-6.36-1.57-10.12-.91a7.46,7.46,0,0,0-4.27,2.74c-1.1,1.35-1.71,3.13-2.93,4.37-1.68,1.71-3.24,1.59-5.35,1.71-.92,0-2.13,0-2.77.73-2.66.65-5,2.16-5.18,5.32s3.1,5.22,1.68,8.67c-.88,2.14-3.11,3.49-3.9,5.74-1.09,3.12.79,5.77,3.95,6.33,2.36.42,4.54-.35,6.73-1.12,1.63-.57,4-1.6,5.76-.95,2.26.84,2.61,3.59,3.32,5.53,1.26,3.43,4.07,5.26,7.4,2.82,1-.73,1.63-1.76,2.54-2.55,2.87-2.47,3.27-.18,4.49,1.78s2.13,3.24,4.28,4.12c5.64,2.33,10.62-1.54,15.24-4.27,2.62-1.55,5.69-2.34,8.16-.16.79.71,1.44,1.56,2.18,2.32,1.2,1.24,2.53,2.52,4.34,2.67,2,.17,3.43-1,4.59-2.49.4-.52.7-1.11,1.1-1.63a6.61,6.61,0,0,1,1.77-2c1.2-.67,2.2-.79,2.59.78.39.58.08,2.45.51,3.32,2.84,5.68,10,3.14,14.17,1,.21-.11,5.65,0,7.68-2.4.37-.48.71-1,1-1.47,1.63-1.19,2.75-1,3.37.49.45.4.69,1.05,1.13,1.46a3.3,3.3,0,0,0,2.88,1.08c4-.62,1.17-5,7.77-1.4,1.64.88,2.59,2.51,4.69,2.62a4.07,4.07,0,0,0,3.46-1.37c1.31-1.74-.2-7.5,5.11-4.38,1.68,1,2.64,2.65,4.7,3.07s3.86-.48,5.71-1.15c6.44-2.36,6,5.8,11.26,6.8,5.71,1.1,8.3-4.66,12.47-7a6.89,6.89,0,0,1,7.35.24,19.74,19.74,0,0,0,2.81,2.18,5.51,5.51,0,0,0,4.9.42,1.06,1.06,0,0,0,.59-.52,10.16,10.16,0,0,0,1.22-.4c2.51-1,4-3.06,7.42-1.7.75.3,1.31,1.09,2.08,1.41,1.82.76,3.17.3,4.75-.74,1.9-1.26,3.34-2.71,5.87-2.54,1.75.12,3.31,1,5,1.41,3.3.89,7.93.53,8.69-3.58.19-1.06-.91-3.14-.61-3.88,1.95-4.86,4.11.55,4.65,1.43.86,1.39,2.06,2.81,3.79,3a3.59,3.59,0,0,0,3.25-1.28,7.77,7.77,0,0,0,1.26-2.4c1.23-2.89,2.6-3.27,5.88-3,1.7.17,3.15,1,4.75-.18a3,3,0,0,0,1.08-3.69c-.21-.55-.74-.91-1-1.42-1.23-.66.95-2.31,1.37-2.28,1.41-.47,2.39-.66,2.79-2.31C263.64,114,262.15,111.84,260.19,110Zm-4.82,9.55a4.28,4.28,0,0,0,.91,1.54,7,7,0,0,0,1.18,1.2c1.75,2.59-1.37,2.46-3.34,1.6-3.43-.32-5.45-1-7.12,2.68-.28.61-.4,1.33-.72,1.91-1.32,2.36-3.43,2-4.81-.36-.82-1.38-1.38-3-2.8-3.86-1.87-1.2-4.42-1-5.37,1.24-.7,1.63.25,2.91.29,4.49.18,7.4-7.88,2.54-10.93,2.16a7.5,7.5,0,0,0-4.24.51c-.74.34-1.25,1-1.94,1.33-1.25,1.32-2.91,1.65-5,1l-.91-.67c-2-.55-2.83-1.18-5-.47-1.81.61-3.37,2-5.09,2.85a.91.91,0,0,0-.81,0c-3.63,1.4-5.77-3.09-8.81-4a7.69,7.69,0,0,0-5.67.72c-2.41,1.21-4,3.34-6,5.06-2.59,2.23-5.88,3.93-8.67.48a30.42,30.42,0,0,1-1.45-2.71c-2.81-4.4-6.09-2.48-10.18-1.29-5.07,1.48-8.09-6.88-13.17-4.1-.55.31-1.47.57-1.39,1.22.91,7.64-3.95,5.57-5,3.82a11.78,11.78,0,0,0-2.46-1.74,4.59,4.59,0,0,0-4.51.09c-1.24.79-1.74,2.81-3.65,1.94-.66-.3-1.11-1.65-1.66-2.22-2.39-2.47-4.32-1.72-6.28.69-1.39,1.7-2,2.5-4.2,3-.79.18-3.16-.06-3.68.2-3.79,1.95-10.46,4.6-11.59-2-.21-1.25.13-2.15-.92-3.09-2-1.78-5-.19-6.44,1.49-.64.74-1,1.73-1.64,2.45-2.32,2.59-3.71,2-5.64.1a28.42,28.42,0,0,0-3.7-3.66c-3.87-2.63-7.75-.24-11.17,1.93-2.94,1.88-6.21,4-9.85,3.5a5.29,5.29,0,0,1-4.65-3.42,22.08,22.08,0,0,0-1-3c-1.64-2.37-4.51-1.73-6.56-.2s-1.63,4.39-4.79,3.87c-2.17-.36-2.06-2.19-2.75-4.29a9,9,0,0,0-2.2-4.14c-3.11-2.82-7.17-.7-10.52.31a10,10,0,0,1-3.81.61c-2.66-.23-3-3-2-4.94.88-1.8,2.63-3,3.36-5a5.47,5.47,0,0,0-.07-4.24c-1.13-2.74-2.73-5.67.33-7.83a12.42,12.42,0,0,1,4.34-1.7,8.38,8.38,0,0,0,2.54.2c1.92-.36,3.23-1.79,4.31-3.32,1.38-2,2.14-3.54,4.47-4.54s4,.12,6.28.83,4.08.08,6.06-1.39c2.2-1.62,3.82-2.67,6.76-2.26,2,.28,3.52,1.77,5.34,2.45a7,7,0,0,0,5.11-.11c1.9-.69,3.73-2.22,5.72-2.57,2.52-.44,4.44.77,6.82.91a6.74,6.74,0,0,0,3.76-1,23.48,23.48,0,0,0,3.53-2,18.2,18.2,0,0,1,8.87-2.43c2.73,0,4.88,1.17,7.36,2.07,3.6,1.3,6.52.62,9.87-1C121,89.27,124,87.32,127,88.24c1.78.54,3.14,2,4.86,2.69,3.92,1.58,7-1.34,10.75-1.75,4.44-.49,5.79,4.39,10.52,3,1-.3,1.88-.8,2.86-1.07,2.34-.64,3.39.24,5.48.93a9.51,9.51,0,0,0,4.22.6c2.21-.26,4-1.48,6-2.38,4.39-2,6.91.56,10.55,2.37a.67.67,0,0,0,.62,0,9.81,9.81,0,0,0,3.25-.11,10.63,10.63,0,0,1,6.53.57,5.1,5.1,0,0,0,2.8.48c2.14-.18,4.25-1.08,6.31-1.61.85-.21,1.69-.43,2.55-.6,2.79-.56,3.76.25,6,1.84,2.71,1.91,4.88,2.16,8.3,1.88,4.56-.37,10.54-1.31,14.82.75,3,1.45,2.08,5.74,5.2,7.53,3,1.7,6.91,1.51,10.15,2.26a28,28,0,0,1,4.38,1.46,1,1,0,0,0,.41.49,28,28,0,0,1,4,3.09,24.09,24.09,0,0,1,1.85,1.93c2,2.31-2.67,3.23-3.64,4.32A2.66,2.66,0,0,0,255.37,119.5Zm-145.79.06c-3,2.42-5.54,5.24-8.36,7.82s-5.77,4.67-8.25,7.51c-.66.76.44,1.88,1.12,1.11,2.49-2.8,5.52-4.95,8.18-7.57s5.13-5.64,7.86-8.32c.37-.36-.17-.86-.55-.55Zm-20.73,4.93c-4.07,2.88-8.28,5.5-12.49,8.18-.82.53,0,1.85.75,1.29,4-3,8.09-5.87,12.11-8.84.38-.28,0-.91-.37-.63Zm-14.2-2.4c-7.53,4.47-16.36,5.88-24.33,9.37-.91.4-.12,1.78.79,1.35,7.89-3.72,16.43-5.45,23.94-10,.43-.27,0-1-.4-.69Zm-21.2-2.63c-7.33,1.5-14.6,3.72-21.09,7.52a.76.76,0,0,0,.77,1.32,81.23,81.23,0,0,1,20.53-8.09c.49-.11.28-.85-.21-.75Zm4.37-.33c1.59-1.29,4.12-1.3,6-1.62.66-.11.39-1.17-.28-1-2.08.43-4.67.58-6.26,2.15-.32.32.15.77.49.49Zm66.33,1.43c-2.47,3.8-.63,11.73,2.23,14.92.57.63,1.45-.17,1.12-.87-1.81-3.73-5-9.47-2.61-13.61a.43.43,0,0,0-.74-.44ZM141.54,122a29.11,29.11,0,0,0,9.09,11.9c.86.68,2.1-.49,1.23-1.23-3.83-3.28-7.71-6.12-9.85-10.87-.12-.26-.59-.07-.47.2Zm35.7-1.49c0,3.21,2.49,5.17,5,6.79a36,36,0,0,1,5,3.35c1.76,1.62,3,3.48,5.17,4.58,1,.5,1.89-1,.89-1.52-3.1-1.63-5-4.71-8.19-6.4s-6.79-3-7.37-6.87c0-.29-.53-.22-.52.07Zm40.29-2.29a35.06,35.06,0,0,0,9.57,3.06c4.88.77,9,.72,12.12,5.1.62.86,2,.1,1.45-.85a10.59,10.59,0,0,0-7-5.07c-2.08-.44-4.29-.21-6.39-.41a28.6,28.6,0,0,1-9.38-2.45c-.41-.19-.78.43-.36.62Zm-5.38,7c2.61,4,7.76,5.66,11.38,8.64.65.54,1.81-.16,1.26-1-2.78-4.17-8.89-4-11.92-8.08-.32-.42-1,0-.72.42Zm-165-14.43c-5.37.1-10.09,2.37-15.18,3.84-2.58.74-6.66,1.23-7.14,4.48a.83.83,0,0,0,1.51.64c1.78-2.93,6.22-3.58,9.23-4.8,3.84-1.58,7.4-3.21,11.58-3.63.33,0,.35-.54,0-.53Zm.31-7.67c-4-1.46-8.45.62-12.42,1.13-3.76.49-7.92,0-10,3.92a.48.48,0,0,0,.75.57c3-2.87,6.67-2.2,10.37-3s7.46-3.23,11.13-2.24a.22.22,0,0,0,.12-.43Z" transform="translate(-20.55 -21.25)"/><path class="cls-2" d="M50.47,113c-8.08,3.69-17.35,4.41-24.47,10-.38.3.1.79.48.62,8-3.65,16.66-5.73,24.48-9.79C51.53,113.59,51,112.78,50.47,113Z" transform="translate(-20.55 -21.25)"/><path class="cls-2" d="M57.43,120.77c-5.84,1-12.16,1.79-16.84,5.7-.68.57.07,1.57.82,1.4,5.67-1.31,10.65-4.51,16.36-5.85C58.59,121.83,58.23,120.63,57.43,120.77Z" transform="translate(-20.55 -21.25)"/><path class="cls-2" d="M39.73,108.67c-3.48.63-7,.84-10.37,2.08A1.22,1.22,0,0,0,30,113.1c3.47-.73,6.65-2.31,10-3.37A.55.55,0,0,0,39.73,108.67Z" transform="translate(-20.55 -21.25)"/><path class="cls-2" d="M71.44,126.26c-3.76,1.34-8,2.4-11.24,4.75-1.11.79-.5,2.87,1,2.36,3.86-1.3,7.22-4,10.67-6.07C72.4,127,72.06,126,71.44,126.26Z" transform="translate(-20.55 -21.25)"/><path class="cls-2" d="M89.94,128.11c-.76.51-1.56.94-2.32,1.47a15.37,15.37,0,0,0-2.17,1.57c-.87.87.4,2.06,1.31,1.32a15,15,0,0,0,1.76-2c.59-.68,1.08-1.4,1.65-2.09C90.3,128.26,90.14,128,89.94,128.11Z" transform="translate(-20.55 -21.25)"/><path class="cls-2" d="M108,125.36c-2,2.07-4.24,4.18-5.58,6.74-.86,1.64,1.64,3.09,2.48,1.45,1.31-2.57,2.15-5.27,3.74-7.7C108.91,125.46,108.33,125,108,125.36Z" transform="translate(-20.55 -21.25)"/><path class="cls-1" d="M251,79.44a73.33,73.33,0,0,0-8.1-19.58c-6.59-11.08-17-18.61-28.62-24-12.4-5.69-26-8.72-39.51-10.39a195.73,195.73,0,0,0-23.46-1.36c-2.78,0-5.58-.05-8.38-.06-26.47,2.49-53.06,5.28-76.09,19.78-21.08,13.28-35.29,36.56-32.29,62,.06.49,3.4,8.23,7.18,10.72,6.21,4.09,13.34,4.5,20.47,4.68a23.71,23.71,0,0,1-4.59-4.2.82.82,0,0,1,1.16-1.16,26.75,26.75,0,0,0,9.59,5.63h0a43.72,43.72,0,0,0,11.74,2.07,13.77,13.77,0,0,1-3.69-7.08.36.36,0,0,1,.7-.2c1.14,3.5,3.5,5.62,6.43,7.38.83,0,1.67,0,2.51,0a18.33,18.33,0,0,1-4.77-5.22c-.34-.54.5-1,.85-.5,2,3,4.74,4.31,7.83,5.61,5.53-.22,11-.64,16.07-.52,16.47.41,33.89,2.45,49.73-3.26.52-.19.88.67.37.89a55.4,55.4,0,0,1-7.17,2.64c10.12.75,20.12,1.78,30.36,1.08A131,131,0,0,0,203,120.54a.25.25,0,0,1,0-.11,28.64,28.64,0,0,0,4.15-9.67.44.44,0,0,1,.85.12,13.84,13.84,0,0,1-4.07,9.41c4-1,8-2.23,12-3.54,1.14-.37,1.54,1.34.48,1.77s-2.25.87-3.38,1.28c2.94.08,5.89.08,8.83,0a39.72,39.72,0,0,0,5.89-5.92.42.42,0,0,1,.73.43,24.38,24.38,0,0,1-3.84,5.33l1.9-.17c2.47-2.35,4.85-4.48,6.46-7.63.14-.27.61-.07.49.21a25.18,25.18,0,0,1-4.22,7.1c1-.14,2-.3,3.08-.48a21.73,21.73,0,0,0,5.41-9.79.34.34,0,0,1,.67.09,14,14,0,0,1-3.69,9.2,55.45,55.45,0,0,0,6.21-1.79c5.9-2.12,10.06-5.74,11.75-11.89,1.14-4.19,1-8.42.88-12.68C252.75,87.64,252,83.52,251,79.44ZM36.57,94.75c-.32-4.38,1.2-8,3.87-11.4.25-.32.76.09.56.43a28.69,28.69,0,0,0-3.45,11A.49.49,0,0,1,36.57,94.75Zm2.21,6.48c0,.46-.78.64-.86.11-.74-4.48.74-8.32,3.71-11.65a.43.43,0,0,1,.68.52A23.24,23.24,0,0,0,38.78,101.23Zm3.95-1.85a20.52,20.52,0,0,0-.63,5.47.66.66,0,0,1-1.32,0A17.41,17.41,0,0,1,42,99.16C42.12,98.67,42.89,98.88,42.73,99.38Zm5.38,15.87c-2.62-4.27-3.24-8.45-1.38-13.18a.44.44,0,0,1,.84.23,21.31,21.31,0,0,0,1,12.68C48.71,115.29,48.29,115.56,48.11,115.25Zm3.33-1.48a11.79,11.79,0,0,1-1-8.13c.1-.54.89-.3.81.23a12.83,12.83,0,0,0,1.36,7.24C52.88,113.86,51.87,114.5,51.44,113.77Zm8.65-.45c-2.4-2.13-2.51-6-1.25-8.78.18-.41.73-.09.67.28-.48,3,.4,5.11,1.56,7.74A.63.63,0,0,1,60.09,113.32Zm8.75,5a10.5,10.5,0,0,1-4.26-9.4.4.4,0,0,1,.8,0c.09,3.43,1.89,6,4.46,8.11C70.56,117.62,69.61,118.83,68.84,118.32Zm97.68,3.12c-.61.37-1.14-.56-.55-.94a19.19,19.19,0,0,0,1.94-1.41c.59-.49,1.08-1.07,1.64-1.6a.26.26,0,0,1,.41.32A8.43,8.43,0,0,1,166.52,121.44Zm10-7.62c-1,3.24-3.07,7.43-6.53,8.57a.77.77,0,0,1-.75-1.28c1.17-1.07,2.58-1.8,3.71-2.93a11.86,11.86,0,0,0,2.9-4.54C176,113.22,176.62,113.39,176.49,113.82Zm6.58-.46a19,19,0,0,1-3.61,5.76c-.47.46-1.35-.17-.94-.73a47.2,47.2,0,0,0,3.86-5.43C182.63,112.5,183.28,112.91,183.07,113.36Zm9.77,4.67c-.41.51-1.22-.26-.73-.73a5.84,5.84,0,0,0,1.46-2.27.27.27,0,0,1,.52.14A5.64,5.64,0,0,1,192.84,118Zm4.07,2.85c-.38.28-.85-.34-.5-.64a17.09,17.09,0,0,0,4.76-8.07.27.27,0,0,1,.52.07C201.8,115.85,199.73,118.82,196.91,120.88ZM242,112.44c-.38.48-1.08-.14-.81-.63a13.42,13.42,0,0,0,1.8-5,.34.34,0,0,1,.68,0A8.45,8.45,0,0,1,242,112.44Z" transform="translate(-20.55 -21.25)"/><path class="cls-2" d="M181.7,34.17c-26.73-5.73-56.44-3.3-82.25,5.55-21.7,7.45-42,21.54-54.16,41.26-.16.26.22.56.42.33,15.39-17,35-28.63,56.69-35.67,25.77-8.37,52.16-7.34,78.85-8.18C183.07,37.4,183.61,34.58,181.7,34.17Z" transform="translate(-20.55 -21.25)"/><path class="cls-3" d="M216.35,118.52c-1.12.45-2.25.87-3.38,1.28,2.94.08,5.89.08,8.83,0a39.72,39.72,0,0,0,5.89-5.92.42.42,0,0,1,.73.43,24.38,24.38,0,0,1-3.84,5.33l1.9-.17c2.47-2.35,4.85-4.48,6.46-7.63.14-.27.61-.07.49.21a25.18,25.18,0,0,1-4.22,7.1c1-.14,2-.3,3.08-.48a21.73,21.73,0,0,0,5.41-9.79.34.34,0,0,1,.67.09,14,14,0,0,1-3.69,9.2,55.45,55.45,0,0,0,6.21-1.79c5.9-2.12,10.06-5.74,11.75-11.89,1.14-4.19,1-8.42.88-12.68-.77-4.12-1.52-8.24-2.53-12.32a73.33,73.33,0,0,0-8.1-19.58c-6.59-11.08-17-18.61-28.62-24q-2.57-1.17-5.19-2.2a40.87,40.87,0,0,1,3.58,3.81c21.37,26,3.8,51.15-23.91,61.1-32,11.49-68.26,13.32-102,10.86a195.87,195.87,0,0,1-27.31-4c-.27,2.64.55,4.68,1.63,7.13a.63.63,0,0,1-1,.76c-2.2-2-2.47-5.4-1.53-8.08-1.3-.29-2.59-.59-3.86-.91-2.27-.55-4.77-1-7.24-1.45A21.16,21.16,0,0,0,48.58,115c.13.31-.29.58-.47.27-2.5-4.09-3.17-8.09-1.6-12.57a37.28,37.28,0,0,1-4.22-1.13c-.13,1.09-.16,2.2-.19,3.3a.66.66,0,0,1-1.32,0,14,14,0,0,1,.54-3.65,17.2,17.2,0,0,1-2.41-1.14c0,.39-.1.78-.13,1.17s-.78.64-.86.11a13.22,13.22,0,0,1-.18-2A10.1,10.1,0,0,1,34.3,95a58.4,58.4,0,0,0,.24,10.88c.06.49,3.4,8.23,7.18,10.72,6.21,4.09,13.34,4.5,20.47,4.68a23.71,23.71,0,0,1-4.59-4.2.82.82,0,0,1,1.16-1.16,26.75,26.75,0,0,0,9.59,5.63h0a43.72,43.72,0,0,0,11.74,2.07,13.77,13.77,0,0,1-3.69-7.08.36.36,0,0,1,.7-.2c1.14,3.5,3.5,5.62,6.43,7.38.83,0,1.67,0,2.51,0a18.33,18.33,0,0,1-4.77-5.22c-.34-.54.5-1,.85-.5,2,3,4.74,4.31,7.83,5.61,5.53-.22,11-.64,16.07-.52,16.47.41,33.89,2.45,49.73-3.26.52-.19.88.67.37.89a55.4,55.4,0,0,1-7.17,2.64c10.12.75,20.12,1.78,30.36,1.08A131,131,0,0,0,203,120.54a.25.25,0,0,1,0-.11,28.64,28.64,0,0,0,4.15-9.67.44.44,0,0,1,.85.12,13.84,13.84,0,0,1-4.07,9.41c4-1,8-2.23,12-3.54C217,116.38,217.41,118.09,216.35,118.52Zm24.81-6.71a13.42,13.42,0,0,0,1.8-5,.34.34,0,0,1,.68,0,8.45,8.45,0,0,1-1.67,5.63C241.59,112.92,240.89,112.3,241.16,111.81Zm-189.72,2a11.79,11.79,0,0,1-1-8.13c.1-.54.89-.3.81.23a12.83,12.83,0,0,0,1.36,7.24C52.88,113.86,51.87,114.5,51.44,113.77Zm17.4,4.55a10.5,10.5,0,0,1-4.26-9.4.4.4,0,0,1,.8,0c.09,3.43,1.89,6,4.46,8.11C70.56,117.62,69.61,118.83,68.84,118.32Zm97.68,3.12c-.61.37-1.14-.56-.55-.94a19.19,19.19,0,0,0,1.94-1.41c.59-.49,1.08-1.07,1.64-1.6a.26.26,0,0,1,.41.32A8.43,8.43,0,0,1,166.52,121.44Zm10-7.62c-1,3.24-3.07,7.43-6.53,8.57a.77.77,0,0,1-.75-1.28c1.17-1.07,2.58-1.8,3.71-2.93a11.86,11.86,0,0,0,2.9-4.54C176,113.22,176.62,113.39,176.49,113.82Zm6.58-.46a19,19,0,0,1-3.61,5.76c-.47.46-1.35-.17-.94-.73a47.2,47.2,0,0,0,3.86-5.43C182.63,112.5,183.28,112.91,183.07,113.36Zm9.77,4.67c-.41.51-1.22-.26-.73-.73a5.84,5.84,0,0,0,1.46-2.27.27.27,0,0,1,.52.14A5.64,5.64,0,0,1,192.84,118Zm4.07,2.85c-.38.28-.85-.34-.5-.64a17.09,17.09,0,0,0,4.76-8.07.27.27,0,0,1,.52.07C201.8,115.85,199.73,118.82,196.91,120.88Z" transform="translate(-20.55 -21.25)"/><path class="cls-4" d="M224.58,119.59l1.9-.17c2.47-2.35,4.85-4.48,6.46-7.63.14-.27.61-.07.49.21a25.18,25.18,0,0,1-4.22,7.1c1-.14,2-.3,3.08-.48a21.73,21.73,0,0,0,5.41-9.79.34.34,0,0,1,.67.09,14,14,0,0,1-3.69,9.2,55.45,55.45,0,0,0,6.21-1.79c5.9-2.12,10.06-5.74,11.75-11.89,1.14-4.19,1-8.42.88-12.68-.77-4.12-1.52-8.24-2.53-12.32a73.33,73.33,0,0,0-8.1-19.58,51.06,51.06,0,0,0-8-10.19,12.41,12.41,0,0,0,.66,1.66c6.54,13.82,10.54,27.28,8,44.37s-17.1,9.45-32,13.09c-6.43,1.56-18.05,4.08-29.38,6.49a14.79,14.79,0,0,1-2.68,3.84c-.47.46-1.35-.17-.94-.73.7-1,1.43-1.86,2.13-2.8l-5.27,1.12c-1.17,2.48-2.94,4.86-5.42,5.68a.77.77,0,0,1-.75-1.28c1.17-1.07,2.58-1.8,3.71-2.93a12.68,12.68,0,0,0,1-1.17l-4,.85a8.56,8.56,0,0,1-3.42,3.58c-.61.37-1.14-.56-.55-.94a19.19,19.19,0,0,0,1.94-1.41c.38-.32.72-.67,1.07-1-5.4,1.14-10.09,2.14-13.26,2.83q-1.69.73-3.39,1.35l3.5,1.63a161.6,161.6,0,0,0,23.51.55A131,131,0,0,0,203,120.54a.25.25,0,0,1,0-.11,28.64,28.64,0,0,0,4.15-9.67.44.44,0,0,1,.85.12,13.84,13.84,0,0,1-4.07,9.41c4-1,8-2.23,12-3.54,1.14-.37,1.54,1.34.48,1.77s-2.25.87-3.38,1.28c2.94.08,5.89.08,8.83,0a39.72,39.72,0,0,0,5.89-5.92.42.42,0,0,1,.73.43A24.38,24.38,0,0,1,224.58,119.59Zm16.58-7.78a13.42,13.42,0,0,0,1.8-5,.34.34,0,0,1,.68,0,8.45,8.45,0,0,1-1.67,5.63C241.59,112.92,240.89,112.3,241.16,111.81ZM192.84,118c-.41.51-1.22-.26-.73-.73a5.84,5.84,0,0,0,1.46-2.27.27.27,0,0,1,.52.14A5.64,5.64,0,0,1,192.84,118Zm4.07,2.85c-.38.28-.85-.34-.5-.64a17.09,17.09,0,0,0,4.76-8.07.27.27,0,0,1,.52.07C201.8,115.85,199.73,118.82,196.91,120.88Z" transform="translate(-20.55 -21.25)"/><path class="cls-5" d="M179.34,124.43A131,131,0,0,0,203,120.54a.25.25,0,0,1,0-.11,35,35,0,0,0,2.7-5.06l-1.05.29c-1.21.35-2.55.7-4,1a12.47,12.47,0,0,1-3.74,4.19c-.38.28-.85-.34-.5-.64A13.17,13.17,0,0,0,199,117c-7.78,1.67-17.95,3-26.78,4a6.82,6.82,0,0,1-2.3,1.33.78.78,0,0,1-.93-1c-8.94,1-15.87,1.55-16.35,1.72l.92.56C162.15,124.37,170.66,125,179.34,124.43Z" transform="translate(-20.55 -21.25)"/><path class="cls-5" d="M232.29,118.62a22.72,22.72,0,0,0,4.05-5.92,19.23,19.23,0,0,1-3.69,1,22.42,22.42,0,0,1-3.44,5.35C230.24,119,231.26,118.8,232.29,118.62Z" transform="translate(-20.55 -21.25)"/><path class="cls-5" d="M216.35,118.52c-1.12.45-2.25.87-3.38,1.28,2.94.08,5.89.08,8.83,0a41.47,41.47,0,0,0,5.68-5.64c-5.5-.1-11.46-1.22-20.26.87a12.83,12.83,0,0,1-3.3,5.31c4-1,8-2.23,12-3.54C217,116.38,217.41,118.09,216.35,118.52Z" transform="translate(-20.55 -21.25)"/><path class="cls-5" d="M228.42,114.26a24.38,24.38,0,0,1-3.84,5.33l1.9-.17a38.42,38.42,0,0,0,5.17-5.52,26,26,0,0,1-3.18.21A.44.44,0,0,1,228.42,114.26Z" transform="translate(-20.55 -21.25)"/><path class="cls-5" d="M252.64,104.44c1.14-4.19,1-8.42.88-12.68-.77-4.12-1.52-8.24-2.53-12.32a73.33,73.33,0,0,0-8.1-19.58,51.65,51.65,0,0,0-10.08-12.12c6.47,9.28,15.79,26.58,17.81,41.75,1.64,12.28-1.7,17-7.26,20.09a7.67,7.67,0,0,1-1.39,2.86c-.38.48-1.08-.14-.81-.63s.51-1,.75-1.48c-1.25.61-2.59,1.17-4,1.74a13.61,13.61,0,0,1-3.24,6.05,55.45,55.45,0,0,0,6.21-1.79C246.79,114.21,251,110.59,252.64,104.44Z" transform="translate(-20.55 -21.25)"/><path class="cls-6" d="M255.54,91.51v-.44c-3-18.19-9.72-35.94-24.34-48-16.46-13.59-38.74-18.64-59.56-20.82a160.73,160.73,0,0,0-22.69-.9c-1.64.06-3.26.19-4.88.35a1.29,1.29,0,0,0-.71-.19c-27.74.37-57.82,4.81-81,21.2C45.7,54.51,32,73.3,31.33,93.74c-.69,8.41.12,17.79,6.71,23.52,7.56,6.58,19,7.25,28.62,6.46,11.13,4.73,25.4,1.83,37.07,2,13.85.15,27.56,1.62,40.86-1.22,11.29,3.42,23.86,3.33,35.47,2.32a135.09,135.09,0,0,0,28.23-5.4c11.83,3.16,26.58,2,37.39-3.71C255.61,112.47,256.86,101.58,255.54,91.51Zm-2.9,12.93c-1.69,6.15-5.85,9.77-11.75,11.89-9,3.22-18.48,3.72-27.92,3.47,1.13-.41,2.26-.83,3.38-1.28s.66-2.14-.48-1.77c-12,3.93-23.93,6.83-36.53,7.68-10.24.7-20.24-.33-30.36-1.08a55.4,55.4,0,0,0,7.17-2.64c.51-.22.15-1.08-.37-.89-15.84,5.71-33.26,3.67-49.73,3.26-11.86-.29-26,2.44-37.67-1.53h0a26.75,26.75,0,0,1-9.59-5.63.82.82,0,0,0-1.16,1.16,23.71,23.71,0,0,0,4.59,4.2c-7.13-.18-14.26-.59-20.47-4.68-3.78-2.49-7.12-10.23-7.18-10.72-3-25.43,11.21-48.71,32.29-62,23-14.5,49.62-17.29,76.09-19.78,2.8,0,5.6,0,8.38.06a195.73,195.73,0,0,1,23.46,1.36c13.5,1.67,27.11,4.7,39.51,10.39,11.61,5.34,22,12.87,28.62,24A73.33,73.33,0,0,1,251,79.44c1,4.08,1.76,8.2,2.53,12.32C253.61,96,253.78,100.25,252.64,104.44Z" transform="translate(-20.55 -21.25)"/><path class="cls-6" d="M40.44,83.35c-2.67,3.41-4.19,7-3.87,11.4a.49.49,0,0,0,1,0,28.69,28.69,0,0,1,3.45-11C41.2,83.44,40.69,83,40.44,83.35Z" transform="translate(-20.55 -21.25)"/><path class="cls-6" d="M41.63,89.69c-3,3.33-4.45,7.17-3.71,11.65.08.53.83.35.86-.11a23.24,23.24,0,0,1,3.53-11A.43.43,0,0,0,41.63,89.69Z" transform="translate(-20.55 -21.25)"/><path class="cls-6" d="M42,99.16a17.41,17.41,0,0,0-1.18,5.69.66.66,0,0,0,1.32,0,20.52,20.52,0,0,1,.63-5.47C42.89,98.88,42.12,98.67,42,99.16Z" transform="translate(-20.55 -21.25)"/><path class="cls-6" d="M48.58,115a21.31,21.31,0,0,1-1-12.68.44.44,0,0,0-.84-.23c-1.86,4.73-1.24,8.91,1.38,13.18C48.29,115.56,48.71,115.29,48.58,115Z" transform="translate(-20.55 -21.25)"/><path class="cls-6" d="M52.56,113.11a12.83,12.83,0,0,1-1.36-7.24c.08-.53-.71-.77-.81-.23a11.79,11.79,0,0,0,1,8.13C51.87,114.5,52.88,113.86,52.56,113.11Z" transform="translate(-20.55 -21.25)"/><path class="cls-6" d="M61.07,112.56c-1.16-2.63-2-4.78-1.56-7.74.06-.37-.49-.69-.67-.28-1.26,2.76-1.15,6.65,1.25,8.78A.63.63,0,0,0,61.07,112.56Z" transform="translate(-20.55 -21.25)"/><path class="cls-6" d="M69.84,117c-2.57-2.12-4.37-4.68-4.46-8.11a.4.4,0,0,0-.8,0,10.5,10.5,0,0,0,4.26,9.4C69.61,118.83,70.56,117.62,69.84,117Z" transform="translate(-20.55 -21.25)"/><path class="cls-6" d="M85.09,124.59c-3.63-2-6.63-4.15-8-8.25a.36.36,0,0,0-.7.2c.77,4.14,3.71,8.52,8,9.59C85.34,126.36,86,125.05,85.09,124.59Z" transform="translate(-20.55 -21.25)"/><path class="cls-6" d="M91.13,124.09c-3.56-1.5-6.75-2.71-9-6.1-.35-.52-1.19,0-.85.5,2.07,3.3,5.37,6.63,9.42,7.13A.83.83,0,0,0,91.13,124.09Z" transform="translate(-20.55 -21.25)"/><path class="cls-6" d="M182.38,113a47.2,47.2,0,0,1-3.86,5.43c-.41.56.47,1.19.94.73a19,19,0,0,0,3.61-5.76C183.28,112.91,182.63,112.5,182.38,113Z" transform="translate(-20.55 -21.25)"/><path class="cls-6" d="M175.82,113.64a11.86,11.86,0,0,1-2.9,4.54c-1.13,1.13-2.54,1.86-3.71,2.93a.77.77,0,0,0,.75,1.28c3.46-1.14,5.56-5.33,6.53-8.57C176.62,113.39,176,113.22,175.82,113.64Z" transform="translate(-20.55 -21.25)"/><path class="cls-6" d="M169.55,117.49c-.56.53-1.05,1.11-1.64,1.6A19.19,19.19,0,0,1,166,120.5c-.59.38-.06,1.31.55.94a8.43,8.43,0,0,0,3.44-3.63A.26.26,0,0,0,169.55,117.49Z" transform="translate(-20.55 -21.25)"/><path class="cls-6" d="M243,106.81a13.42,13.42,0,0,1-1.8,5c-.27.49.43,1.11.81.63a8.45,8.45,0,0,0,1.67-5.63A.34.34,0,0,0,243,106.81Z" transform="translate(-20.55 -21.25)"/><path class="cls-6" d="M237.7,108.83a21.9,21.9,0,0,1-6.37,10.76.51.51,0,0,0,.62.8,13.84,13.84,0,0,0,6.42-11.47A.34.34,0,0,0,237.7,108.83Z" transform="translate(-20.55 -21.25)"/><path class="cls-6" d="M232.94,111.79c-1.74,3.42-4.39,5.62-7.07,8.22-.62.6.19,1.7.93,1.21,3.18-2.09,5.19-5.81,6.63-9.22C233.55,111.72,233.08,111.52,232.94,111.79Z" transform="translate(-20.55 -21.25)"/><path class="cls-6" d="M227.69,113.83a40.39,40.39,0,0,1-5.94,6c-.72.64.24,1.93,1,1.35a20.8,20.8,0,0,0,5.64-6.89A.42.42,0,0,0,227.69,113.83Z" transform="translate(-20.55 -21.25)"/><path class="cls-6" d="M207.14,110.76a28.64,28.64,0,0,1-4.15,9.67c-.18.28.21.53.43.34a13.67,13.67,0,0,0,4.57-9.89A.44.44,0,0,0,207.14,110.76Z" transform="translate(-20.55 -21.25)"/><path class="cls-6" d="M201.17,112.17a17.09,17.09,0,0,1-4.76,8.07c-.35.3.12.92.5.64,2.82-2.06,4.89-5,4.78-8.64A.27.27,0,0,0,201.17,112.17Z" transform="translate(-20.55 -21.25)"/><path class="cls-6" d="M193.57,115a5.84,5.84,0,0,1-1.46,2.27c-.49.47.32,1.24.73.73a5.64,5.64,0,0,0,1.25-2.86A.27.27,0,0,0,193.57,115Z" transform="translate(-20.55 -21.25)"/><path class="cls-6" d="M79.45,54.8c-.25-.5-1.14-.14-.92.39.74,1.83-1.67,5.38-3.77,4.23-1.53-.85,2.07-3.53,3.07-3.6.09,0,.12-.14,0-.16-2.19-.49-6.61,2.92-4,5C77,63.21,81,57.78,79.45,54.8Z" transform="translate(-20.55 -21.25)"/><path class="cls-6" d="M81.81,44.34a4.93,4.93,0,0,1-2.07,1.9c-.44.19-.86.14-.85-.46a2.19,2.19,0,0,1,1.22-1.57.16.16,0,0,0-.08-.29c-1.62.08-3.16,2.93-1,3.5,1.49.4,3.26-1.44,3.72-2.71C82.89,44.19,82.07,43.86,81.81,44.34Z" transform="translate(-20.55 -21.25)"/><path class="cls-6" d="M92.71,39.05a.32.32,0,0,0-.1.47,5.32,5.32,0,0,0-1.91,2.13c-.69,1.58.87,2.49,2.27,2.24,1.7-.31,3.32-1.49,3.25-3.37S94.17,38.15,92.71,39.05Zm2.15,2.55a3.72,3.72,0,0,1-2.35,1.31c-1.47.21-1.3-1.08-.64-1.92A6.2,6.2,0,0,1,94,39.29a1,1,0,0,1,1,.4A1.81,1.81,0,0,1,94.86,41.6Z" transform="translate(-20.55 -21.25)"/><path class="cls-6" d="M101.17,48.15c-2.15,0-4,2.44-5,4-.16.24,0,.45.26.47A1.49,1.49,0,0,0,98,54.78c1.69-.07,3.58-1.82,4.44-3.16S103.2,48.15,101.17,48.15Zm.49,2.53a6.3,6.3,0,0,1-1.74,1.93,4.33,4.33,0,0,1-2,1.09c-.93.08-.87-.56-.56-1.2a7.4,7.4,0,0,1,2.26-2.71l.1-.06a3.47,3.47,0,0,1,.45-.26h0l.43-.16.21,0C101.84,49.08,102,49.94,101.66,50.68Z" transform="translate(-20.55 -21.25)"/><path class="cls-6" d="M74.31,73.75a1.83,1.83,0,0,0-2.06-1.49c-1,.22-1.7,1.2-2.4,1.86a.26.26,0,0,0-.07.27,6.22,6.22,0,0,0-1.59,2.33,1.3,1.3,0,0,0,.49,1.61,2.33,2.33,0,0,0,2.29-.2C72.36,77.43,74.7,75.57,74.31,73.75Zm-1.22.62a6.17,6.17,0,0,1-2.86,2.85c-.31.16-1,.5-1.25.06s.33-1.19.54-1.51a11.82,11.82,0,0,1,1-1.42c.44-.3.84-.66,1.31-.92s.76-.32,1.09.08A.72.72,0,0,1,73.09,74.37Z" transform="translate(-20.55 -21.25)"/><path class="cls-6" d="M63.32,59.4a1.64,1.64,0,0,0-2.77-.8A4.4,4.4,0,0,0,59,62.24c0,.24.36.26.51.12a1.62,1.62,0,0,0,1.83.5A3.36,3.36,0,0,0,63.32,59.4Zm-1.27,1.24c-.24.57-1.77,2.31-2.15.92a1.73,1.73,0,0,1,0-.72A4.4,4.4,0,0,1,61,59.6c.25-.2.63-.49,1-.34C62.44,59.49,62.21,60.26,62.05,60.64Z" transform="translate(-20.55 -21.25)"/><path class="cls-6" d="M88.62,70.38c-1.05-1.12-2.48-.43-3.26.57-.67.85-1.45,2.62,0,3.11a.32.32,0,0,0,.35-.08,2.73,2.73,0,0,0,1.79-.29C88.72,73.13,89.72,71.55,88.62,70.38ZM86,73c-.67-.22.44-2.08,1.12-1.89a.17.17,0,0,0,.18-.07.59.59,0,0,1,.58.61A1.79,1.79,0,0,1,86,73Z" transform="translate(-20.55 -21.25)"/><path class="cls-6" d="M101.92,64.25c-.77-.83-1.68-.12-2.4.52-1,.61-2.19,1.48-1.94,2.74.33,1.72,2.33.94,3.21.21S103,65.4,101.92,64.25Zm-.52,1.47a3.09,3.09,0,0,1-.86,1.07c-.42.38-2.43,1.66-2.17.16.16-1,1.46-1.64,2.21-2.1a.1.1,0,0,0,0,0,1.58,1.58,0,0,1,.37-.11C101.58,64.61,101.58,65.33,101.4,65.72Z" transform="translate(-20.55 -21.25)"/><path class="cls-6" d="M107.28,78.79a1.39,1.39,0,0,0-1.64-.64,2.62,2.62,0,0,0-1.16.62,4.64,4.64,0,0,0-2.08,2c-.66,1.59,1.41,2.07,2.57,1.72S108,80.22,107.28,78.79Zm-2.91,2.9c-.36,0-1.17,0-1.23-.42s.42-.83.63-1.06l0,0,.06,0c.41-.35,2.76-2.28,2.81-.8A2.85,2.85,0,0,1,104.37,81.69Z" transform="translate(-20.55 -21.25)"/><path class="cls-6" d="M117.8,49.44c-1.41-.39-3.18,1.22-4.18,2a.19.19,0,0,0-.07.2c-1.26,1.24-2,2.77-.41,3.33s3.5-1,4.48-2.12C118.27,52.1,119.42,49.88,117.8,49.44Zm-.53,2.25a6.84,6.84,0,0,1-2,1.83c-.43.26-1.44.85-2,.44-.35-.26.08-.84.27-1.12a8.47,8.47,0,0,1,1.49-1.72l.21-.13a4.34,4.34,0,0,1,2-.76C118.16,50.31,117.57,51.28,117.27,51.69Z" transform="translate(-20.55 -21.25)"/><path class="cls-6" d="M123.38,36.89a1.19,1.19,0,0,0-1.29-.82c-1.15.13-2,1.38-2.66,2.23a.22.22,0,0,0,.15.34.94.94,0,0,0,.08.45c.57,1.3,2.27.06,2.92-.51C123,38.17,123.56,37.56,123.38,36.89Zm-1.42,1c-.23.23-1.65,1.49-1.76.77-.08-.55,1.06-1.22,1.43-1.49a.18.18,0,0,0,.07-.21.6.6,0,0,1,.58,0C122.68,37.16,122.16,37.66,122,37.87Z" transform="translate(-20.55 -21.25)"/><path class="cls-6" d="M121.1,31.09c-.7-1-2.53-.66-3.52-.55a.28.28,0,0,0-.24.2c-2,.29-4,1.26-4.54,3.26s1.67,1.88,3,1.48a12.19,12.19,0,0,0,5-2.58C121.17,32.41,121.56,31.72,121.1,31.09Zm-1,1c-.24.46-1.17.89-1.63,1.14a19.85,19.85,0,0,1-2.35,1.06c-.78.3-3.26,1.19-2.16-.57,1.19-1.91,3.57-2.47,5.66-2.51C120.09,31.35,120.37,31.6,120.11,32.11Z" transform="translate(-20.55 -21.25)"/><path class="cls-6" d="M148.57,33.41a3.35,3.35,0,0,0-3.08-.36,4.26,4.26,0,0,0-1.38.29,4.21,4.21,0,0,0-2.56,2.41c-.54,1.79,1.62,1.82,2.8,1.63A7,7,0,0,0,148.59,35,1.15,1.15,0,0,0,148.57,33.41Zm-1.84,2a7,7,0,0,1-2.61,1.12,2.85,2.85,0,0,1-1.56,0c-.71-.45.76-1.43,1.13-1.68a6.08,6.08,0,0,1,2.41-1,5.77,5.77,0,0,0,.83-.15c.55,0,1,.17,1.1.5S147,35.25,146.73,35.42Z" transform="translate(-20.55 -21.25)"/><path class="cls-6" d="M157.58,32.38a1.49,1.49,0,0,0-2.3.06.31.31,0,0,0-.22.12,6.18,6.18,0,0,0-1.64,3.75c.07,1.69,2.07,1.57,3.12.86C158,36.16,159,33.85,157.58,32.38Zm-2.1,4.35c-2.07.65-1-2-.25-3.22.63-.68,1.38-1.21,2-.12S156.67,36.35,155.48,36.73Z" transform="translate(-20.55 -21.25)"/><path class="cls-6" d="M173.67,33.31c-.42-.8-1.4-1.81-2.36-1.74a1.26,1.26,0,0,0-1.17.89c-1.12,1.53.87,6.26,3.19,5.17C174.76,37,174.23,34.38,173.67,33.31Zm-1.11,3.52c-1.12-.13-2.42-2.76-2-3.91a.84.84,0,0,1,1.13-.3,2.81,2.81,0,0,1,1.41,2C173.27,35.15,173.58,36.94,172.56,36.83Z" transform="translate(-20.55 -21.25)"/><path class="cls-6" d="M189.8,38.57c-.43-1.3-2.07-2.78-3.54-2.21a1.2,1.2,0,0,0-.79,1.16.37.37,0,0,0-.09.21c-.07,1.54.41,3.36,2.13,3.73S190.31,40.12,189.8,38.57ZM188.74,40a1.13,1.13,0,0,1-1.52.32,2.68,2.68,0,0,1-1.13-2.42,1,1,0,0,1,.25-.67c.79-.68,2,.78,2.26,1.37A1.62,1.62,0,0,1,188.74,40Z" transform="translate(-20.55 -21.25)"/><path class="cls-6" d="M196.11,50.9a2.19,2.19,0,0,0-2.68.06,2.17,2.17,0,0,0-.6,1.95,3.63,3.63,0,0,0,0,.57v.11a.29.29,0,0,0,0,.14,3,3,0,0,0,.79,1.66,2.28,2.28,0,0,0,3.2-.39A2.84,2.84,0,0,0,196.11,50.9ZM194.69,55c-.59-.1-1.05-1-1.19-1.86,0-.63.07-1.27.83-1.51a1.7,1.7,0,0,1,1.77,1C196.59,53.57,196,55.18,194.69,55Z" transform="translate(-20.55 -21.25)"/><path class="cls-6" d="M178.64,62.32c-.74-1.6-3-2.76-4.57-1.7a.4.4,0,0,0-.17.4,2.82,2.82,0,0,0-.55,2c.23,1.81,2.08,3.51,4,3C179,65.6,179.26,63.67,178.64,62.32Zm-1.28,2.2c-.61.87-2,.13-2.52-.47a2.55,2.55,0,0,1-.61-1.63,1.56,1.56,0,0,1,.44-1.14C176.12,61.19,178.42,63.05,177.36,64.52Z" transform="translate(-20.55 -21.25)"/><path class="cls-6" d="M172.1,46.17a1.23,1.23,0,0,0-2-.34.17.17,0,0,0-.27,0c-.69,1-1.51,2.45-.73,3.65a1.77,1.77,0,0,0,2.86.06A3,3,0,0,0,172.1,46.17Zm-1,2.52a.89.89,0,0,1-1.71-.16,2.76,2.76,0,0,1,.42-2,.22.22,0,0,0,.21,0c.65-.22.83-.4,1.07.38A2.48,2.48,0,0,1,171.1,48.69Z" transform="translate(-20.55 -21.25)"/><path class="cls-6" d="M169.55,46.6a3.54,3.54,0,0,0-.84,1.83c0,.11.16.13.19,0a5.84,5.84,0,0,1,.68-1.84S169.57,46.58,169.55,46.6Z" transform="translate(-20.55 -21.25)"/><path class="cls-6" d="M149.58,49.55A2.18,2.18,0,0,0,146,48a.44.44,0,0,0-.15.38c-1,1.17-.76,3.49,1.12,3.9C148.58,52.61,149.75,51,149.58,49.55Zm-2.82,1.39a1.46,1.46,0,0,1-.28-2.06h.08c.43-.17.83-.32,1.23,0a1.46,1.46,0,0,1,.48,1.18C148.18,50.8,147.47,51.41,146.76,50.94Z" transform="translate(-20.55 -21.25)"/><path class="cls-6" d="M134.76,48.1a1.7,1.7,0,0,0-1.69-1.18A3.29,3.29,0,0,0,130.68,48a3,3,0,0,0-.92,2.55,1,1,0,0,0,1.46.81l0,0h0C132.77,51.65,135.13,49.7,134.76,48.1Zm-3.35,2.31c-1.08.11.16-1.45.48-1.81l.24-.15c.35-.19,1.42-.47,1.29.22A2.91,2.91,0,0,1,131.41,50.41Z" transform="translate(-20.55 -21.25)"/><path class="cls-6" d="M132.07,62.28a1.83,1.83,0,0,0-2.18-1.13,4,4,0,0,0-2.95,3.42,1.29,1.29,0,0,0,0,.91c.77,1.54,3.46-.18,4.19-.88A2.35,2.35,0,0,0,132.07,62.28Zm-1.28.72c-.11.52-.74,1-1.14,1.31s-1.94,1.29-2,.45a2.66,2.66,0,0,1,2.22-2.36C130.3,62.4,130.91,62.45,130.79,63Z" transform="translate(-20.55 -21.25)"/><path class="cls-6" d="M132.19,73.32a2.79,2.79,0,0,0-2,1.11,3.49,3.49,0,0,0-1.39,2c-.24,1.42,1,2.08,2.22,1.63a4.42,4.42,0,0,0,2.41-2.3C133.93,74.68,133.62,73.32,132.19,73.32Zm-.44,2.81c-.3.39-1.56,1.52-2,.91a.82.82,0,0,1-.05-.75,8,8,0,0,1,1-1.05,2.72,2.72,0,0,1,1.36-.8C133,74.39,132,75.8,131.75,76.13Z" transform="translate(-20.55 -21.25)"/><path class="cls-6" d="M155.37,62.46c-.82.33-1,1.22-1.09,2.13-.41,1.1-.44,2.39.76,2.9,1.67.72,2.66-1.35,2.74-2.66S157,61.83,155.37,62.46Zm.27,4.11c-1.39.28-.7-2-.34-2.76.64-.63,1.19,0,1.25.71S156.42,66.41,155.64,66.57Z" transform="translate(-20.55 -21.25)"/><path class="cls-6" d="M148.18,80.35c-1.28.26-2.23,1.93-2.54,3.33a2.85,2.85,0,0,0-.32,1.24,1.71,1.71,0,0,0,1.74,1.82c1.75-.1,2.53-2,2.8-3.46C150.08,82.12,149.9,80,148.18,80.35Zm.39,2.39A5.33,5.33,0,0,1,147.7,85c-.43.49-1.23.72-1.48-.1a.59.59,0,0,1,0-.13.31.31,0,0,0,0-.17,3.75,3.75,0,0,1,.59-1.83c.11-.14.22-.28.33-.4a.15.15,0,0,0,0-.15,4.08,4.08,0,0,1,.56-.6C148.78,80.75,148.71,82.06,148.57,82.74Z" transform="translate(-20.55 -21.25)"/><path class="cls-6" d="M166.91,84.69c-.17-1.65-1.1-4.18-3.2-3.8-1.73.32-1.88,1.88-1.76,3.37-.16,1.75.13,3.71,1.74,4.36C166,89.53,167.09,86.4,166.91,84.69Zm-1.38,1.17c-.16,1-1.06,2.22-2,1.13a2.51,2.51,0,0,1-.5-1v0c.06-1-.23-2.52.32-3.36,1-1.59,2,1,2.1,1.74A4.34,4.34,0,0,1,165.53,85.86Z" transform="translate(-20.55 -21.25)"/><path class="cls-6" d="M194.57,81.21c-1.45-1.12-2.87.42-2.5,1.88a6.37,6.37,0,0,0,1.09,4.39c1.05,1.49,2.76,1.23,3.15-.59S196.06,82.35,194.57,81.21Zm.48,5.71c-.6,1.11-1.53-.71-1.78-1.33a5.66,5.66,0,0,1-.43-2.36h0a3.08,3.08,0,0,1,.37-1.33,0,0,0,0,1,0,0c.63-.31.92.42,1.1.79a9.32,9.32,0,0,1,.73,1.9A4,4,0,0,1,195.05,86.92Z" transform="translate(-20.55 -21.25)"/><path class="cls-6" d="M205.82,63.81c-.51-1.41-2.44-2.57-3.84-1.61-1.18.82-1.38,2.81-1,4.09a.33.33,0,0,0,.42.25c0,.11.08.23.13.34a2.4,2.4,0,0,0,2.3,1.54C205.67,68.14,206.37,65.35,205.82,63.81Zm-1.94,3.48c-1,.59-1.92-.85-2.12-1.68a6.16,6.16,0,0,1-.1-1.77,3.18,3.18,0,0,1,.23-.58c.69-1.27,2.25-.45,2.74.58S204.92,66.7,203.88,67.29Z" transform="translate(-20.55 -21.25)"/><path class="cls-6" d="M214.58,73.14c-1.3-.56-2.85,1.12-3.18,2.27a.43.43,0,0,0,.06.34,3,3,0,0,0,.06,3.33c1.26,1.59,3.26-.26,3.86-1.51S216.22,73.84,214.58,73.14Zm-.48,3.51c-.24.53-1.13,2.14-1.8,1.31s0-2.39.64-3.35a1,1,0,0,1,.95-.48C214.9,74.31,214.34,76.1,214.1,76.65Z" transform="translate(-20.55 -21.25)"/><path class="cls-6" d="M212.88,45.92a2.94,2.94,0,0,0-2.79-1.31,1.87,1.87,0,0,0-1.31,2.1c.13,1.63,1.63,4.59,3.52,4.68a.29.29,0,0,0,.29-.2l.4,0C215.72,50.7,213.9,47.11,212.88,45.92Zm.41,3.86c-.23.59-1,.62-1.51.38-1.26-.59-1.69-2.41-2-3.72a.76.76,0,0,1,.53-.71c.7-.22,1.46.61,1.86,1.09a5.38,5.38,0,0,1,1.07,1.83A1.9,1.9,0,0,1,213.29,49.78Z" transform="translate(-20.55 -21.25)"/><path class="cls-6" d="M228.3,51.68c-1.16-1.31-3.5-1.6-4.29.31-.68,1.64.63,4,2.13,5.07,1,.95,2.29,1.22,3.18-.19S229.41,52.94,228.3,51.68Zm-1.39,4.69c-1.14-.75-2.07-2.67-1.28-3.93a.23.23,0,0,0-.2-.34,1.25,1.25,0,0,1,1.55.08,4,4,0,0,1,1.23,2C228.48,55.15,228.43,57.35,226.91,56.37Z" transform="translate(-20.55 -21.25)"/><path class="cls-6" d="M227.74,70c-.26-1.72-2.21-2.85-3.58-1.41a4.3,4.3,0,0,0-.27,4.72.49.49,0,0,0,.87,0l.2.09C226.92,74.07,228,71.51,227.74,70Zm-2.17,2.47a1,1,0,0,1-1-.55,4,4,0,0,1,.15-1.81c.3-.9,1.41-1.52,1.87-.35C226.88,70.63,226.66,72.21,225.57,72.47Z" transform="translate(-20.55 -21.25)"/><path class="cls-6" d="M238.66,76.83C237,75.57,235.3,77.37,235,79a.26.26,0,0,0,.06.26,2.44,2.44,0,0,0,.17,1.2,2.16,2.16,0,0,0,3.5.46A2.77,2.77,0,0,0,238.66,76.83Zm-1,3.29a1.11,1.11,0,0,1-1.86-.37,2,2,0,0,1-.12-1c.49-.92,1.6-2.2,2.49-1.09A1.93,1.93,0,0,1,237.67,80.12Z" transform="translate(-20.55 -21.25)"/></svg>