<?xml version="1.0" encoding="UTF-8"?>
<svg width="456px" height="387px" viewBox="0 0 456 387" version="1.1" xmlns="http://www.w3.org/2000/svg" xmlns:xlink="http://www.w3.org/1999/xlink">
    <!-- Generator: Sketch 52.3 (67297) - http://www.bohemiancoding.com/sketch -->
    <title>lowerelement</title>
    <desc>Created with Sketch.</desc>
    <defs>
        <linearGradient x1="100%" y1="0.868511057%" x2="0%" y2="100%" id="linearGradient-1">
            <stop stop-color="#FFA32A" offset="0%"></stop>
            <stop stop-color="#FE9C24" offset="21.8862987%"></stop>
            <stop stop-color="#FE941D" offset="40.220465%"></stop>
            <stop stop-color="#FF7C01" offset="100%"></stop>
        </linearGradient>
        <path d="M146.286212,350.995797 C12.2785456,351.849816 -52.2904969,222.339143 51.0438177,157.892351 C144.399743,99.6682383 105.689911,19.8125417 193.744888,3.24488449 C234.275877,-4.38109836 316.051736,-2.20453163 365.459156,50.5907342 C414.868094,103.386762 439.30106,205.044694 401.708376,274.00232 C364.115692,342.959184 297.177171,350.033598 146.286212,350.995797 Z" id="path-2"></path>
        <filter x="-6.9%" y="-9.4%" width="113.8%" height="116.5%" filterUnits="objectBoundingBox" id="filter-3">
            <feOffset dx="0" dy="-4" in="SourceAlpha" result="shadowOffsetOuter1"></feOffset>
            <feGaussianBlur stdDeviation="9" in="shadowOffsetOuter1" result="shadowBlurOuter1"></feGaussianBlur>
            <feColorMatrix values="0 0 0 0 0.329411765   0 0 0 0 0.670588235   0 0 0 0 1  0 0 0 0.148352582 0" type="matrix" in="shadowBlurOuter1"></feColorMatrix>
        </filter>
        <linearGradient x1="100%" y1="0.868511057%" x2="1.48798772%" y2="98.5249356%" id="linearGradient-4">
            <stop stop-color="#FFA32A" offset="0%"></stop>
            <stop stop-color="#FE9C24" offset="21.8862987%"></stop>
            <stop stop-color="#FE941D" offset="40.220465%"></stop>
            <stop stop-color="#FF7C01" offset="100%"></stop>
        </linearGradient>
        <path d="M64.165821,271.140539 C93.2190411,263.551815 122.273024,255.963092 145.791426,235.956871 C181.763168,204.912368 159.626184,158.00005 149.250306,120.055671 C140.948841,91.7703583 135.415548,58.6562728 157.55177,36.5797089 C171.118173,22.8468636 186.347309,12.1925417 202.608696,3.48387097 C199.751327,3.87391358 197.036521,4.31261648 194.486388,4.78933523 C106.092448,21.3239486 144.95053,101.020375 51.2359983,159.12836 C1.55757633,189.931082 -9.45716886,235.626133 7.32186816,274.791581 C26.3125453,275.269821 45.3771724,276.369999 64.165821,271.140539 Z" id="path-5"></path>
        <filter x="-14.3%" y="-12.1%" width="128.6%" height="121.3%" filterUnits="objectBoundingBox" id="filter-6">
            <feOffset dx="0" dy="-4" in="SourceAlpha" result="shadowOffsetOuter1"></feOffset>
            <feGaussianBlur stdDeviation="9" in="shadowOffsetOuter1" result="shadowBlurOuter1"></feGaussianBlur>
            <feColorMatrix values="0 0 0 0 0.329411765   0 0 0 0 0.670588235   0 0 0 0 1  0 0 0 0.148352582 0" type="matrix" in="shadowBlurOuter1"></feColorMatrix>
        </filter>
        <path d="M365.528642,51.335882 C319.277538,1.97366525 244.627579,-3.0290516 202.115762,2.80276507 C185.937471,11.5079332 170.786156,22.1570401 157.289077,35.8824038 C135.26597,57.948162 140.771747,91.0460393 149.030033,119.317507 C159.35289,157.242554 181.375997,204.131911 145.588827,235.161978 C122.189845,255.158407 93.2850861,262.743415 64.3803272,270.328425 C45.6869296,275.555326 26.7204807,274.455685 7.82608696,273.97768 C25.9900684,316.571828 76.8951799,351.439617 146.636283,350.99581 C297.334071,350.035999 364.186139,342.979151 401.731456,274.193505 C439.276772,205.407098 414.874327,104.000819 365.528642,51.335882 Z" id="path-7"></path>
        <filter x="-7.0%" y="-9.4%" width="114.1%" height="116.6%" filterUnits="objectBoundingBox" id="filter-8">
            <feOffset dx="0" dy="-4" in="SourceAlpha" result="shadowOffsetOuter1"></feOffset>
            <feGaussianBlur stdDeviation="9" in="shadowOffsetOuter1" result="shadowBlurOuter1"></feGaussianBlur>
            <feColorMatrix values="0 0 0 0 0.329411765   0 0 0 0 0.670588235   0 0 0 0 1  0 0 0 0.148352582 0" type="matrix" in="shadowBlurOuter1"></feColorMatrix>
        </filter>
        <path d="M364.608826,50.3343795 C363.271923,48.9047171 361.906931,47.5185165 360.523719,46.1612903 C339.102906,94.0584109 320.173698,142.277301 296.70312,190.496191 C287.059351,209.867925 277.415582,229.240422 262.26098,245.84433 C220.241539,291.506602 162.378167,305.343447 103.826226,314.337739 C82.7690569,317.433434 61.8060256,318.218795 40.8695652,317.665993 C66.3306939,337.972536 102.311676,351.271064 145.516186,350.995807 C296.352382,350.032786 363.26585,342.952336 400.84565,273.936624 C438.424691,204.920912 413.999832,103.175463 364.608826,50.3343795 Z" id="path-9"></path>
        <filter x="-7.7%" y="-10.8%" width="115.3%" height="119.0%" filterUnits="objectBoundingBox" id="filter-10">
            <feOffset dx="0" dy="-4" in="SourceAlpha" result="shadowOffsetOuter1"></feOffset>
            <feGaussianBlur stdDeviation="9" in="shadowOffsetOuter1" result="shadowBlurOuter1"></feGaussianBlur>
            <feColorMatrix values="0 0 0 0 0.329411765   0 0 0 0 0.670588235   0 0 0 0 1  0 0 0 0.148352582 0" type="matrix" in="shadowBlurOuter1"></feColorMatrix>
        </filter>
        <linearGradient x1="-20.3753004%" y1="72.3476315%" x2="79.291763%" y2="41.0305569%" id="linearGradient-11">
            <stop stop-color="#EEF4FB" offset="0%"></stop>
            <stop stop-color="#E3EDF8" offset="31.15%"></stop>
            <stop stop-color="#CFE1F3" offset="100%"></stop>
        </linearGradient>
    </defs>
    <g id="Login-version2" stroke="none" stroke-width="1" fill="none" fill-rule="evenodd">
        <g id="Register" transform="translate(-516.000000, -613.000000)">
            <g id="contents" transform="translate(11.000000, -56.000000)">
                <g id="lowerelement" transform="translate(523.000000, 691.000000)">
                    <g id="elements-lower">
                        <g id="background-color">
                            <g id="Path" opacity="0.641601562">
                                <use fill="black" fill-opacity="1" filter="url(#filter-3)" xlink:href="#path-2"></use>
                                <use fill="url(#linearGradient-1)" fill-rule="evenodd" xlink:href="#path-2"></use>
                            </g>
                            <g id="Path" opacity="0.962588356">
                                <use fill="black" fill-opacity="1" filter="url(#filter-6)" xlink:href="#path-5"></use>
                                <use fill="url(#linearGradient-4)" fill-rule="evenodd" xlink:href="#path-5"></use>
                            </g>
                            <g id="Path" opacity="0.641601562">
                                <use fill="black" fill-opacity="1" filter="url(#filter-8)" xlink:href="#path-7"></use>
                                <use fill="url(#linearGradient-1)" fill-rule="evenodd" xlink:href="#path-7"></use>
                            </g>
                            <g id="Path" opacity="0.641601562">
                                <use fill="black" fill-opacity="1" filter="url(#filter-10)" xlink:href="#path-9"></use>
                                <use fill="url(#linearGradient-1)" fill-rule="evenodd" xlink:href="#path-9"></use>
                            </g>
                        </g>
                    </g>
                    <g id="element3" transform="translate(69.000000, 116.000000)">
                        <g id="Group">
                            <g transform="translate(37.747827, 140.270380)" fill="#C7C7C7" id="Path">
                                <polygon points="0.275174233 99.4415464 2.7433014 99.4415464 23.0690546 0.275437689 17.9876163 0.275437689"></polygon>
                                <polygon points="192.063174 99.4415464 189.595047 99.4415464 169.269293 0.275437689 174.495916 0.275437689"></polygon>
                            </g>
                            <g transform="translate(6.372900, 48.704196)">
                                <path d="M28.4560544,32.1677253 C27.5849507,33.038877 27.1493989,34.2004127 26.859031,35.3619484 C27.2945828,34.4907966 27.7301347,33.6196449 28.4560544,33.038877 C29.4723421,32.4581092 30.7789976,32.4581092 31.9404692,31.8773413 C32.9567569,31.2965735 33.3923088,30.1350378 33.8278606,29.1186941 C32.9567569,29.6994619 32.2308372,30.4254217 31.2145495,30.7158057 C30.0530779,31.0061896 29.1819742,31.4417655 28.4560544,32.1677253 Z" id="Path" fill="#482C3B"></path>
                                <g transform="translate(0.000000, 45.670578)">
                                    <g transform="translate(18.873914, 78.403658)">
                                        <rect id="Rectangle" fill="#A6AEBA" transform="translate(20.112913, 37.356149) rotate(-180.000000) translate(-20.112913, -37.356149) " x="18.2255221" y="18.9893661" width="3.77478273" height="36.7335659"></rect>
                                        <rect id="Rectangle" fill="#D2DCEB" transform="translate(20.112913, 16.386800) rotate(-180.000000) translate(-20.112913, -16.386800) " x="17.0640505" y="13.7007489" width="6.09772595" height="5.37210252"></rect>
                                        <rect id="Rectangle" fill="#D2DCEB" transform="translate(20.112768, 47.377443) rotate(-180.000000) translate(-20.112768, -47.377443) " x="17.7898251" y="41.6423609" width="4.64588644" height="11.4701648"></rect>
                                        <rect id="Rectangle" fill="#D2DCEB" transform="translate(20.112913, 55.743985) rotate(-180.000000) translate(-20.112913, -55.743985) " x="17.0640505" y="53.0579335" width="6.09772595" height="5.37210252"></rect>
                                        <rect id="Rectangle" fill="#A6AEBA" transform="translate(20.112768, 8.704548) rotate(-180.000000) translate(-20.112768, -8.704548) " x="12.7083868" y="3.62282979" width="14.808763" height="10.1634372"></rect>
                                        <path d="M1.16147161,8.13074976 L40.6515063,8.13074976 C41.0870582,8.13074976 41.3774261,7.84036584 41.3774261,7.40478996 L41.3774261,1.4519196 C41.3774261,1.01634372 41.0870582,0.7259598 40.6515063,0.7259598 L1.16147161,0.7259598 C0.725919756,0.7259598 0.435551853,1.01634372 0.435551853,1.4519196 L0.435551853,7.40478996 C0.290367902,7.84036584 0.725919756,8.13074976 1.16147161,8.13074976 Z" id="Path" fill="#A6AEBA"></path>
                                        <polygon id="Path" fill="#A6AEBA" points="5.51699014 63.5940785 17.1317062 57.7864001 17.1317062 53.7210252 3.91996668 62.5777348"></polygon>
                                        <ellipse id="Oval" fill="#A6AEBA" cx="3.91996668" cy="64.7556142" rx="2.75849507" ry="2.75864724"></ellipse>
                                        <ellipse id="Oval" fill="#A6AEBA" cx="20.1805692" cy="64.7556142" rx="2.75849507" ry="2.75864724"></ellipse>
                                        <polygon id="Path" fill="#A6AEBA" points="34.8441483 63.5940785 23.2294322 57.7864001 23.2294322 53.7210252 36.2959878 62.5777348"></polygon>
                                        <path d="M39.0544829,64.7556142 C39.0544829,66.2075338 37.8930112,67.5142614 36.2959878,67.5142614 C34.8441483,67.5142614 33.5374927,66.3527257 33.5374927,64.7556142 C33.5374927,63.1585026 34.6989643,61.9969669 36.2959878,61.9969669 C37.8930112,61.9969669 39.0544829,63.1585026 39.0544829,64.7556142 Z" id="Path" fill="#A6AEBA"></path>
                                        <rect id="Rectangle" fill="#A6AEBA" transform="translate(20.112913, 60.255099) rotate(-180.000000) translate(-20.112913, -60.255099) " x="19.3869937" y="55.8267442" width="1.45183951" height="8.85670956"></rect>
                                    </g>
                                    <path d="M12.3406358,83.1949931 C11.0339803,83.1949931 9.72732473,82.3238414 9.43695682,81.0171137 C8.42066917,76.9517388 6.67846175,69.2565649 6.5332778,50.0912262 C6.5332778,29.038392 2.03257532,12.9220844 0.580735805,6.24325428 C0.145183951,4.3557588 1.01628766,2.46826332 2.61331112,1.4519196 C3.48441483,0.87115176 4.50070249,0.7259598 5.51699014,0.7259598 L42.2485298,0.7259598 C42.2485298,0.7259598 57.3476607,27.7316644 59.2350521,36.8787579 C61.2676274,46.1710433 64.0261224,81.5978816 64.0261224,81.5978816 L12.3406358,83.1949931 Z" id="Path" fill="#088424"></path>
                                    <path d="M13.5021075,83.1949931 C13.5021075,83.1949931 10.0176926,76.5161629 10.0176926,50.0912262 C10.0176926,28.3124322 5.66217409,10.4538211 4.35551853,3.48460704 C4.06515063,2.03268744 5.22662224,0.58076784 6.8236457,0.58076784 L45.8781286,0.58076784 C45.8781286,0.58076784 60.9772595,27.5864724 62.8646508,36.7335659 C64.8972262,46.0258513 67.6557212,81.4526896 67.6557212,81.4526896 L13.5021075,83.1949931 Z" id="Path" fill="#046121"></path>
                                    <path d="M12.0502679,83.1949931 L49.2173594,83.1949931 L49.2173594,75.2094353 L10.0176926,75.2094353 L10.0176926,81.3074976 C10.0176926,82.4690333 10.8887963,83.1949931 12.0502679,83.1949931 Z" id="Path" fill="#088424"></path>
                                    <path d="M19.1642815,83.1949931 L74.0438151,83.1949931 C75.3504706,83.1949931 76.3667583,82.1786494 76.3667583,80.8719218 L76.3667583,77.5325067 C76.3667583,76.225779 75.3504706,75.2094353 74.0438151,75.2094353 L21.6324087,75.2094353 C20.3257532,75.2094353 19.3094655,76.225779 19.3094655,77.5325067 L19.3094655,83.1949931 L19.1642815,83.1949931 Z" id="Path" fill="#046121"></path>
                                </g>
                                <path d="M24.6812717,36.9590599 C24.6812717,36.9590599 30.3434458,35.2167564 30.9241816,32.7484931 C31.3597334,30.7158057 32.0856532,24.4725514 32.0856532,24.4725514 L42.1033458,24.4725514 C42.1033458,24.4725514 41.667794,29.9898459 42.1033458,31.8773413 C42.9744495,36.3782921 48.6366236,37.8302117 48.6366236,37.8302117 L49.5077273,51.7686399 L34.9893322,63.9647645 L20.906489,49.8811444 L24.6812717,36.9590599 Z" id="Path" fill="#FFFFFF"></path>
                                <path d="M47.3299681,9.22739557 C49.7980952,12.5668107 49.3625434,13.0023865 48.9269915,17.6485293 C48.6366236,21.5687122 47.620336,25.3437031 46.8944162,27.0860067 C46.1684965,28.8283102 42.6840816,36.2331001 36.4411717,33.4744529 C32.9567569,32.0225333 29.0367902,28.2475423 27.8753186,25.779279 C27.0042149,23.8917835 26.5686631,20.5523685 26.5686631,17.5033373 C26.5686631,14.4543061 26.4234791,10.5341232 26.5686631,8.21105185 C27.0042149,0.225494047 42.8292656,3.12933325 47.3299681,9.22739557 Z" id="XMLID_98_" fill="#FFFFFF"></path>
                                <g transform="translate(15.970235, 36.959060)" id="Path">
                                    <path d="M47.620336,66.6431097 C52.9921422,65.481574 56.0410051,67.2238775 59.2350521,71.1440604 C62.429099,75.0642433 61.1224434,84.3565288 59.2350521,92.1968946 C57.3476607,99.8920685 49.7980952,151.725598 49.7980952,151.725598 L44.2811051,151.725598 C44.2811051,151.725598 42.8292656,131.398724 41.9581619,116.443952 C40.9418742,101.48918 44.2811051,80.2911539 44.2811051,80.2911539 L23.2294322,66.7883016 C23.3746161,66.6431097 42.8292656,67.6594534 47.620336,66.6431097 Z" fill="#FE8F1A"></path>
                                    <path d="M47.475152,59.2383197 C51.5403027,63.1585026 63.7357545,69.5469489 61.2676274,77.6776986 L45.0070249,84.5017208 C45.0070249,84.5017208 28.4560544,78.5488504 23.3746161,66.7883016 C18.2931778,55.0277529 18.2931778,55.0277529 18.2931778,55.0277529 L29.1819742,50.6719941 L47.475152,59.2383197 Z" fill="#F9BC71"></path>
                                    <path d="M35.570068,69.5469489 C38.618931,71.7248283 46.6040483,75.2094353 45.0070249,84.5017208 C44.1359211,89.1478635 30.9241816,117.460296 23.810168,129.366036 C20.1805692,135.464099 13.6472914,148.095799 13.6472914,148.095799 L7.54956546,149.547719 C7.54956546,149.547719 12.3406358,134.157371 15.5346828,119.928559 C18.7287297,105.699747 28.1656865,88.7122876 28.1656865,88.7122876 C28.1656865,88.7122876 21.1968569,84.0661449 15.9702346,81.7430735 C10.7436124,79.4200021 7.98511731,78.5488504 15.8250507,71.1440604 C23.3746161,63.7392705 29.76271,65.336382 35.570068,69.5469489 Z" fill="#FE901B"></path>
                                    <path d="M47.475152,25.6989769 C48.3462557,29.3287759 49.3625434,32.813383 50.6691989,34.9912624 C51.9758545,37.3143337 78.6897015,47.0421951 78.6897015,47.0421951 L63.0098348,47.0421951 C63.0098348,47.0421951 48.2010718,45.1546996 43.9907372,39.3470212 C39.7804026,33.6845347 35.8604359,25.553785 35.8604359,25.553785 L47.475152,25.553785 L47.475152,25.6989769 Z" fill="#FFFFFF"></path>
                                    <path d="M37.8930112,2.9038392 C40.6515063,4.06537488 43.2648174,11.034589 45.2973928,16.9874593 C47.3299681,22.9403297 47.475152,25.6989769 47.475152,25.6989769 C47.475152,25.6989769 40.3611384,29.7643518 36.5863557,28.7480081 C36.5863557,28.7480081 32.9567569,15.8259236 35.4248841,9.29228544 C37.8930112,2.9038392 37.8930112,2.9038392 37.8930112,2.9038392 Z" fill="#3751FE"></path>
                                    <path d="M24.1005359,59.6738956 C31.9404692,59.3835117 39.6352187,59.2383197 47.475152,59.2383197 C43.7003693,56.7700564 40.3611384,55.0277529 39.6352187,54.3017931 C38.0381952,52.7046815 38.618931,38.3306775 39.7804026,33.8297267 C40.9418742,29.3287759 40.9418742,24.1018654 40.0707705,21.923986 C39.1996668,19.6009146 38.0381952,2.9038392 38.0381952,2.9038392 L32.811573,1.01634372 C32.811573,1.01634372 34.4085964,13.0672764 21.7775927,13.0672764 C9.00140497,13.0672764 9.00140497,0.14519196 9.00140497,0.14519196 L0.871103707,1.88749548 C0.871103707,1.88749548 0.290367902,17.5682272 0.580735805,24.8278252 C0.871103707,31.9422312 4.21033458,44.2835478 5.22662224,50.817186 C5.952542,55.8989046 4.64588644,58.9479358 3.62959878,62.5777348 C9.87250868,59.9642795 16.9865223,59.3835117 24.1005359,59.6738956 Z" fill="#5A6FFE"></path>
                                    <path d="M13.9376593,147.079456 C12.1954519,146.789072 11.6147161,147.369839 10.0176926,148.531375 C8.42066917,149.547719 6.67846175,149.547719 6.67846175,149.547719 L6.67846175,154.193862 L18.8739136,154.193862 L13.9376593,147.079456 Z" fill="#5A6FFE"></path>
                                    <path d="M50.9595668,147.950607 C50.9595668,147.950607 50.8143829,149.547719 48.2010718,150.273679 C45.5877607,150.999638 43.8455532,148.821759 43.8455532,148.821759 L43.2648174,154.193862 L64.0261224,154.339054 L50.9595668,147.950607 Z" fill="#3751FE"></path>
                                </g>
                                <path d="M67.3653533,82.8397193 C65.0424101,82.5493354 62.8646508,80.371456 53.8632459,80.226264 C52.2662224,80.226264 41.52261,78.0483846 38.618931,77.3224248 C32.9567569,75.5801213 30.0530779,73.5474339 30.0530779,73.5474339 C30.0530779,73.5474339 26.713847,61.2061173 25.5523754,53.5109434 C21.9227766,53.0753675 18.2931778,52.6397916 14.6635791,52.0590238 C14.5183951,61.7868851 21.4872248,79.0647284 23.664984,80.8070319 C28.1656865,84.146447 38.618931,84.001255 41.2322421,84.001255 C47.0396002,84.146447 72.0112398,84.7272148 72.0112398,84.7272148 C72.0112398,84.7272148 73.7534472,83.5656791 67.3653533,82.8397193 Z" id="Path" fill="#FFFFFF"></path>
                                <path d="M28.3108705,65.85226 C28.3108705,65.85226 24.9716396,46.3965373 24.1005359,44.3638499 C19.1642815,33.7648368 12.3406358,39.4273233 13.3569235,47.558073 C13.7924754,51.0426801 14.0828433,60.0445816 15.8250507,68.6109072 C19.7450174,68.7560992 25.5523754,67.4493716 28.3108705,65.85226 Z" id="Path" fill="#3751FE"></path>
                                <g transform="translate(37.182285, 50.026336)">
                                    <polygon id="Path" fill="#A6AEBA" points="24.811262 34.8460704 34.6837707 34.8460704 44.4110954 0.43557588 37.0067139 0.43557588"></polygon>
                                    <polygon id="Path" fill="#D2DCEB" points="27.714941 34.8460704 65.8983201 34.8460704 75.7708288 0.43557588 37.4422657 0.43557588"></polygon>
                                    <rect id="Rectangle" fill="#D2DCEB" transform="translate(43.944329, 35.341320) rotate(-180.000000) translate(-43.944329, -35.341320) " x="21.9489604" y="34.0345925" width="43.9907372" height="2.61345528"></rect>
                                    <rect id="Rectangle" fill="#A6AEBA" transform="translate(11.002381, 35.341320) rotate(-180.000000) translate(-11.002381, -35.341320) " x="0.0409925198" y="34.0345925" width="21.9227766" height="2.61345528"></rect>
                                    <path d="M48.7666139,19.3105307 C47.6051423,21.923986 48.476246,24.8278252 50.5088213,25.6989769 C52.5413966,26.5701287 55.1547078,25.1182091 56.3161794,22.5047538 C57.477651,19.8912985 56.6065473,16.9874593 54.573972,16.1163076 C52.3962127,15.2451558 49.7829016,16.6970754 48.7666139,19.3105307 Z" id="Path" fill="#A6AEBA"></path>
                                </g>
                                <path d="M19.3094655,99.5367947 C17.857626,106.506009 21.3420408,121.751165 43.9907372,125.671348 L56.9121088,130.898258 C56.9121088,130.898258 61.9935471,125.09058 60.3965237,117.105022 C58.7995002,109.119464 49.6529113,106.070433 43.7003693,96.4877636 C43.7003693,96.4877636 34.2634125,92.5675806 28.3108705,94.6002681 C22.2131445,96.7781475 19.3094655,99.5367947 19.3094655,99.5367947 Z" id="Path" fill="#F9BC71"></path>
                                <path d="M49.2173594,14.0187303 C49.2173594,14.0187303 46.4588644,14.1639222 43.1196335,9.08220361 C43.1196335,9.08220361 43.4100014,11.405275 40.2159545,14.4543061 C37.0219075,17.5033373 33.9730446,16.6321855 33.5374927,18.2292971 C33.1019409,19.6812167 32.9567569,20.9879443 32.9567569,20.9879443 C32.9567569,20.9879443 32.3760211,20.9879443 31.9404692,20.1167926 C31.6501013,19.5360247 31.3597334,18.3744891 30.7789976,17.9389132 C29.3271581,16.9225695 26.713847,18.2292971 27.5849507,21.1331363 C28.1656865,22.8754398 30.0530779,24.1821675 30.0530779,24.1821675 C30.0530779,29.1186941 32.0856532,30.5706137 32.0856532,30.5706137 C32.0856532,30.5706137 28.7464223,32.0225333 27.0042149,31.4417655 C24.5360877,30.4254217 23.9553519,28.9735021 23.9553519,26.0696629 C23.9553519,26.0696629 22.0679606,25.779279 20.6161211,24.3273594 C17.2768902,20.9879443 21.1968569,11.260083 22.6486964,10.0985473 C22.6486964,10.0985473 18.8739136,4.87163677 23.664984,1.24183777 C28.4560544,-2.38796123 30.1982618,3.41971717 30.1982618,3.41971717 C31.7952853,2.25818149 38.1833791,1.82260561 41.52261,3.12933325 C51.1047508,6.75913225 49.2173594,14.0187303 49.2173594,14.0187303 Z" id="Path" fill="#3751FE"></path>
                                <path d="M42.9744495,9.08220361 C43.2648174,10.9696991 42.9744495,15.3254579 37.8930112,18.8100649" id="Path" stroke="#5A6FFE" stroke-width="0.25"></path>
                            </g>
                            <g transform="translate(220.679606, 94.374774)">
                                <g transform="translate(15.970235, 78.403658)">
                                    <rect id="Rectangle" fill="#A6AEBA" x="19.5846397" y="19.1653387" width="3.77478273" height="36.7335659"></rect>
                                    <rect id="Rectangle" fill="#D2DCEB" x="18.4231681" y="13.7932362" width="6.09772595" height="5.37210252"></rect>
                                    <rect id="Rectangle" fill="#D2DCEB" x="19.1490879" y="41.6700925" width="4.64588644" height="11.4701648"></rect>
                                    <rect id="Rectangle" fill="#D2DCEB" x="18.4231681" y="53.1402574" width="6.09772595" height="5.37210252"></rect>
                                    <rect id="Rectangle" fill="#A6AEBA" x="14.0676496" y="3.629799" width="14.808763" height="10.1634372"></rect>
                                    <path d="M40.6363126,8.13074976 L1.00109399,8.13074976 C0.565542135,8.13074976 0.275174233,7.84036584 0.275174233,7.40478996 L0.275174233,1.4519196 C0.275174233,1.01634372 0.565542135,0.7259598 1.00109399,0.7259598 L40.6363126,0.7259598 C41.0718645,0.7259598 41.3622324,1.01634372 41.3622324,1.4519196 L41.3622324,7.40478996 C41.3622324,7.84036584 40.9266805,8.13074976 40.6363126,8.13074976 Z" id="Path" fill="#A6AEBA"></path>
                                    <polygon id="Path" fill="#A6AEBA" points="36.1356102 63.5940785 24.5208941 57.7864001 24.5208941 53.7210252 37.7326336 62.5777348"></polygon>
                                    <path d="M40.4911287,64.7556142 C40.4911287,66.2075338 39.3296571,67.5142614 37.7326336,67.5142614 C36.2807941,67.5142614 34.9741386,66.3527257 34.9741386,64.7556142 C34.9741386,63.1585026 36.1356102,61.9969669 37.7326336,61.9969669 C39.1844731,61.9969669 40.4911287,63.1585026 40.4911287,64.7556142 Z" id="Path" fill="#A6AEBA"></path>
                                    <ellipse id="Oval" fill="#A6AEBA" cx="21.4720311" cy="64.7556142" rx="2.75849507" ry="2.75864724"></ellipse>
                                    <polygon id="Path" fill="#A6AEBA" points="6.80845203 63.5940785 18.4231681 57.7864001 18.4231681 53.7210252 5.35661252 62.5777348"></polygon>
                                    <ellipse id="Oval" fill="#A6AEBA" cx="5.35661252" cy="64.7556142" rx="2.75849507" ry="2.75864724"></ellipse>
                                    <rect id="Rectangle" fill="#A6AEBA" x="20.7461113" y="55.7537127" width="1.45183951" height="8.85670956"></rect>
                                </g>
                                <path d="M64.1561127,83.1949931 C65.4627683,83.1949931 66.7694239,82.3238414 67.0597918,81.0171137 C68.0760794,76.9517388 69.8182868,69.2565649 69.9634708,50.0912262 C69.9634708,29.038392 81.142635,12.9220844 82.5944745,6.24325428 C83.0300264,4.3557588 82.1589227,2.46826332 80.5618992,1.4519196 C79.6907955,0.87115176 78.6745078,0.7259598 77.6582202,0.7259598 L34.2482188,0.7259598 C34.2482188,0.7259598 19.1490879,27.7316644 17.2616965,36.8787579 C15.2291212,46.1710433 12.4706261,81.5978816 12.4706261,81.5978816 L64.1561127,83.1949931 Z" id="Path" fill="#088424"></path>
                                <path d="M62.9946411,83.1949931 C62.9946411,83.1949931 66.4790559,76.5161629 66.4790559,50.0912262 C66.4790559,28.3124322 77.5130362,10.4538211 78.8196918,3.48460704 C79.1100597,2.03268744 77.9485881,0.58076784 76.3515646,0.58076784 L30.61862,0.58076784 C30.61862,0.58076784 15.5194891,27.5864724 13.6320977,36.7335659 C11.5995224,46.0258513 8.84102735,81.4526896 8.84102735,81.4526896 L62.9946411,83.1949931 Z" id="Path" fill="#046121"></path>
                                <g transform="translate(0.000000, 74.933998)" id="Path">
                                    <path d="M64.4464806,8.26099549 L15.3743052,8.26099549 L15.3743052,0.275437689 L66.333872,0.275437689 L66.333872,6.37350001 C66.4790559,7.53503569 65.6079522,8.26099549 64.4464806,8.26099549 Z" fill="#088424"></path>
                                    <path d="M21.762399,8.26099549 L2.4529335,8.26099549 C1.14627794,8.26099549 0.129990282,7.24465177 0.129990282,5.93792413 L0.129990282,2.59850905 C0.129990282,1.29178141 1.14627794,0.275437689 2.4529335,0.275437689 L19.4394558,0.275437689 C20.7461113,0.275437689 21.762399,1.29178141 21.762399,2.59850905 L21.762399,8.26099549 Z" fill="#046121"></path>
                                </g>
                            </g>
                            <g transform="translate(183.497321, 85.002187)" id="Path">
                                <path d="M61.5579953,2.11298953 C58.0735805,5.59759657 57.7832126,23.3110157 54.1536138,32.4581092 C54.1536138,32.4581092 29.76271,42.0407785 18.7287297,44.7994258 L22.6486964,48.8648007 C22.6486964,48.8648007 55.6054533,40.8792429 59.8157879,38.1205956 C66.2038817,33.9100288 69.9786644,16.6321855 70.5594002,8.06585989 C71.1401361,-0.645657713 65.332778,-1.66200143 61.5579953,2.11298953 Z" fill="#FFFFFF"></path>
                                <path d="M21.4872248,45.3801936 L18.7287297,44.7994258 C18.7287297,44.7994258 13.2117396,44.2186579 11.3243482,44.073466 C9.58214077,43.7830821 7.40438151,45.8157695 4.93625434,46.6869213 C2.46812717,47.4128811 0.145183951,49.0099926 0.145183951,49.0099926 L2.03257532,49.0099926 L5.952542,49.5907605 L9.58214077,49.0099926 C9.58214077,49.0099926 13.7924754,48.5744167 16.2606025,49.0099926 C18.7287297,49.4455685 22.3583285,49.0099926 22.3583285,49.0099926 L21.4872248,45.3801936 Z" fill="#E6E6F2"></path>
                            </g>
                            <g transform="translate(177.124420, 47.913347)" id="Path">
                                <path d="M51.9606608,100.327644 C44.4110954,102.795908 35.1193225,106.861283 32.3608274,109.329546 C29.6023324,111.797809 24.2305262,115.427608 28.5860447,129.366036 C31.3445398,138.222746 43.3948077,183.087062 43.3948077,183.087062 L49.4925337,182.070718 C49.4925337,182.070718 47.3147744,156.081357 45.1370151,136.625634 C44.1207275,127.188157 43.6851756,124.574702 43.6851756,124.574702 L51.8154769,121.235287 C62.1235374,117.02472 58.6391226,99.1661087 58.6391226,99.1661087 L51.9606608,100.327644 Z" fill="#FFFFFF"></path>
                                <path d="M35.1193225,106.570899 C32.3608274,109.039162 30.4734361,108.313202 26.4082854,122.25163 C23.7949743,131.10834 14.3580175,176.117848 14.3580175,176.117848 L20.0201916,178.586111 C27.714941,157.097701 27.714941,157.097701 36.571162,139.674666 C40.9266805,131.253532 42.668888,122.832398 42.668888,122.832398 L59.2198584,121.816054 C69.5279189,117.605488 66.0435041,102.505524 66.0435041,102.505524 C66.0435041,102.505524 37.7326336,104.102635 35.1193225,106.570899 Z" fill="#FFFFFF"></path>
                                <path d="M97.8387894,93.2132384 C97.8387894,100.472836 103.065412,108.458394 96.9676857,116.734336 C91.4506955,124.139126 59.2198584,121.816054 59.2198584,121.816054 C59.2198584,121.816054 63.7205609,113.975689 59.5102263,108.022818 C56.7517312,104.247827 50.3636374,100.76322 50.3636374,100.76322 L68.3664473,94.9555419 L82.8848424,83.775761 L97.8387894,93.2132384 Z" fill="#508CFF"></path>
                                <path d="M79.6907955,37.6047177 C78.6745078,40.9441327 71.8508621,40.7989408 66.7694239,34.7008785 C61.6879856,28.4576242 57.9132028,18.003803 62.9946411,10.5990131 C68.0760794,3.19422312 74.8997251,17.5682272 77.2226683,25.263401 C79.5456116,32.9585749 79.6907955,37.6047177 79.6907955,37.6047177 Z" fill="#3751FE"></path>
                                <path d="M63.7205609,10.3086292 C62.4139053,11.9057407 63.7205609,18.148995 63.8657448,19.0201468 C64.3012967,20.7624503 63.430193,23.2307136 64.0109288,23.6662895 C64.5916646,24.1018654 64.7368485,23.8114814 65.6079522,23.9566734 C65.7531362,23.9566734 68.0760794,28.7480081 68.5116313,29.6191599 C69.0923671,31.0710795 72.5767819,28.4576242 73.7382535,29.6191599 C74.4641733,30.4903116 74.4641733,31.9422312 74.7545412,33.8297267 L72.7219658,42.1056684 L89.2729363,38.9114453 C89.2729363,38.9114453 84.4818659,31.6518473 83.1752103,28.4576242 C81.8685548,25.263401 83.4655782,21.4884101 83.0300264,17.1326513 C82.5944745,12.6317005 80.7070832,6.96921408 74.3189893,6.38844624 C68.9471831,5.8076784 65.3175843,8.42113368 63.7205609,10.3086292 Z" fill="#FFFFFF"></path>
                                <path d="M68.9471831,93.9391982 C68.9471831,93.9391982 73.1575177,93.0680464 80.1263474,93.9391982 C87.095177,94.8103499 97.2580536,92.9228544 97.2580536,92.9228544 C97.2580536,92.9228544 93.047719,71.2892524 93.3380869,61.5613911 C93.6284548,51.8335297 94.3543746,41.2345167 94.3543746,41.2345167 L75.9160128,38.1854855 C75.9160128,38.1854855 71.4153103,39.7825971 68.9471831,46.8970031 C66.4790559,54.0114091 66.7694239,84.9372966 68.9471831,93.9391982 Z" fill="#868DF1"></path>
                                <path d="M74.7545412,33.8297267 C73.4478856,35.1364543 68.9471831,36.8787579 68.9471831,38.9114453 C68.9471831,40.9441327 65.4627683,57.4960162 65.6079522,60.9806232 C65.7531362,64.4652303 67.0597918,77.6776986 66.333872,81.7430735 C65.6079522,85.8084484 65.6079522,94.8103499 65.6079522,94.8103499 L68.9471831,94.0843901 C68.9471831,94.0843901 67.9308955,71.1440604 68.9471831,62.5777348 C69.9634708,54.0114091 75.9160128,38.3306775 75.9160128,38.3306775 L73.5930696,37.6047177 L74.7545412,33.8297267 Z" fill="#3751FE"></path>
                                <path d="M81.4330029,38.3306775 L75.9160128,38.1854855 C75.9160128,38.1854855 74.0286214,46.7518111 74.0286214,63.0133107 C74.0286214,76.8065469 76.7871165,95.3911178 76.7871165,95.3911178 C76.7871165,95.3911178 80.9974511,96.9882293 86.8048091,97.2786132 C92.6121672,97.4238052 96.9676857,95.3911178 96.9676857,95.3911178 C96.9676857,95.3911178 95.951398,81.8882655 96.9676857,68.8209891 C97.9839733,55.6085207 101.468388,52.7046815 100.742468,43.9931639 C99.5809968,29.7643518 86.6596252,34.7008785 86.6596252,34.7008785 L81.4330029,38.3306775 Z" fill="#3751FE"></path>
                                <path d="M75.9160128,38.0402935 C75.9160128,38.0402935 84.7722338,33.8297267 86.2240733,31.0710795 C86.2240733,31.0710795 87.240361,33.3941508 86.9499931,34.5556865 C86.8048091,35.7172222 78.238956,43.8479719 78.238956,43.8479719 L75.9160128,38.0402935 Z" fill="#5A6FFE"></path>
                                <path d="M83.3203943,39.0566373 C85.4981535,28.0220483 79.6907955,24.8278252 73.3027017,20.9076422 C66.9146078,16.9874593 63.1398251,10.4538211 63.1398251,10.4538211 C63.1398251,10.4538211 65.6079522,2.46826332 72.8671498,0.7259598 C80.1263474,-0.87115176 89.2729363,3.629799 91.5958795,14.9547719 C93.192903,23.0855216 95.3706622,25.8441689 100.887652,29.7643518 C107.42093,34.5556865 109.453505,46.6066192 101.758756,52.4142976 C94.6447425,57.7864001 98.7098931,45.0095076 96.096582,37.7499096 C95.6610301,36.5883739 90.14404,42.6864363 87.095177,43.70278 C83.7559461,45.0095076 82.8848424,40.9441327 83.3203943,39.0566373 Z" fill="#5A6FFE"></path>
                                <path d="M74.7545412,33.8297267 C74.7545412,33.8297267 74.1738054,36.5883739 75.9160128,38.0402935 L72.5767819,42.6864363 C72.5767819,42.6864363 71.5604942,39.0566373 72.5767819,37.4595257 C73.5930696,36.0076061 74.7545412,33.8297267 74.7545412,33.8297267 Z" fill="#5A6FFE"></path>
                                <path d="M43.1044398,179.892839 C43.1044398,179.892839 43.2496238,181.48995 45.8629349,182.21591 C48.476246,182.94187 50.2184534,180.76399 50.2184534,180.76399 L50.7991892,186.136093 L42.3785201,192.088963 L35.4096904,192.088963 L39.1844731,187.878396 L43.1044398,179.892839 Z" fill="#3751FE"></path>
                                <path d="M15.2291212,172.488049 C15.2291212,172.488049 14.0676496,174.81112 16.2454089,176.26304 C18.5683521,177.714959 20.8912953,176.26304 20.8912953,176.26304 L19.8750076,181.48995 L0.129990282,175.246696 L15.2291212,172.488049 Z" fill="#3751FE"></path>
                                <g transform="translate(24.681272, 37.749910)">
                                    <path d="M67.0597918,3.04903116 C65.1724004,7.69517388 59.5102263,22.7951377 56.0258115,31.9422312 C56.0258115,31.9422312 30.0378842,40.2181729 19.0039039,43.1220121 L22.9238706,47.187387 C22.9238706,47.187387 54.573972,42.3960523 61.3976177,39.2018292 C68.3664473,36.0076061 74.8997251,13.6480442 76.0611967,7.84036584 C77.8034041,-0.7259598 69.0923671,-1.88749548 67.0597918,3.04903116 Z" fill="#FFFFFF"></path>
                                    <path d="M21.617215,43.70278 L18.85872,43.1220121 C18.85872,43.1220121 13.3417298,42.5412443 11.4543385,42.3960523 C9.71213106,42.1056684 7.53437179,44.1383559 5.06624462,45.0095076 C2.59811745,45.7354674 0.275174233,47.332579 0.275174233,47.332579 L2.1625656,47.332579 L6.08253228,47.9133468 L9.71213106,47.332579 C9.71213106,47.332579 13.9224656,46.8970031 16.3905928,47.332579 C18.85872,47.7681549 22.4883188,47.332579 22.4883188,47.332579 L21.617215,43.70278 Z" fill="#E6E6F2"></path>
                                </g>
                            </g>
                            <g transform="translate(113.243482, 16.857214)" fill="#364469" id="Path">
                                <path d="M7.24400389,1.87254925 L0.275174233,18.1340488 L2.01738165,18.8600086 L9.13139525,2.45331709 C9.2765792,2.30812513 9.13139525,2.01774121 8.9862113,2.01774121 C8.55065945,1.87254925 8.26029155,1.72735729 7.82473969,1.58216533 C7.53437179,1.58216533 7.38918784,1.72735729 7.24400389,1.87254925 Z"></path>
                                <path d="M7.38918784,5.79273217 L6.22771623,5.35715629 L8.26029155,0.711013569 C8.4054755,0.420629649 8.84102735,0.275437689 9.13139525,0.420629649 C9.42176315,0.565821609 9.56694711,1.00139749 9.42176315,1.29178141 L7.38918784,5.79273217 Z"></path>
                            </g>
                            <g transform="translate(99.290629, 0.000000)">
                                <path d="M39.7804026,57.4960162 C39.7804026,57.4960162 32.811573,76.5161629 30.3434458,76.370971 C28.4560544,76.370971 15.8250507,58.9479358 13.7924754,56.0440966 C11.7599,52.9950654 7.83993336,46.0258513 7.83993336,46.0258513 L12.9213717,44.4287398 C12.9213717,44.4287398 21.7775927,55.1729448 24.1005359,57.0604403 C26.4234791,58.9479358 27.2945828,59.6738956 27.2945828,59.6738956 L29.9078939,52.4142976 L39.7804026,57.4960162 Z" id="Path" fill="#E6E6F2"></path>
                                <path d="M36.0056199,37.6047177 C33.2471248,38.3306775 32.2308372,40.7989408 31.0693655,45.8806594 C29.9078939,50.962378 28.1656865,55.8989046 28.1656865,55.8989046 L37.3122754,60.1094715 C37.3122754,60.1094715 38.9092989,50.962378 39.6352187,45.2998915 C40.0707705,39.6374051 38.3285631,37.0239498 36.0056199,37.6047177 Z" id="Path" fill="#3751FE"></path>
                                <path d="M73.6082632,233.468672 L73.6082632,240.147502 L60.6868916,240.147502 C60.6868916,240.147502 61.1224434,237.679239 67.3653533,236.517703 L68.236457,233.32348 L73.6082632,233.32348 L73.6082632,233.468672 Z" id="Path" fill="#FE8F1A"></path>
                                <path d="M46.1684965,233.468672 L46.1684965,240.147502 L33.2471248,240.147502 C33.2471248,240.147502 33.6826767,237.679239 39.9255866,236.517703 L40.7966903,233.32348 L46.1684965,233.32348 L46.1684965,233.468672 Z" id="Path" fill="#FE8F1A"></path>
                                <path d="M70.7045842,97.7141891 C70.7045842,97.7141891 73.0275274,119.057407 73.1727114,142.142929 C73.3178953,165.083259 74.6245509,233.468672 74.6245509,233.468672 L65.332778,233.468672 C65.332778,233.468672 55.7506372,167.40633 52.2662224,152.59675 C48.7818076,137.78717 39.7804026,98.004573 39.7804026,98.004573 L70.7045842,97.7141891 Z" id="Path" fill="#F9BC71"></path>
                                <path d="M56.476557,19.8912985 C56.476557,19.8912985 57.0572928,24.5374412 57.6380286,27.0057046 C58.0735805,29.3287759 58.5091323,30.6355036 58.9446842,31.3614634 C59.8157879,32.9585749 64.7520422,37.8951016 64.7520422,37.8951016 C64.7520422,37.8951016 49.3625434,46.0258513 44.8618409,46.0258513 C40.3611384,46.0258513 41.9581619,36.8787579 41.9581619,36.8787579 C41.9581619,36.8787579 46.8944162,32.9585749 47.620336,31.0710795 C48.3462557,29.038392 48.7818076,23.3759056 48.7818076,23.3759056 L56.476557,19.8912985 Z" id="Path" fill="#FFFFFF"></path>
                                <path d="M50.524015,121.235287 C50.524015,121.235287 48.7818076,156.226549 48.4914397,163.195763 C48.2010718,170.164977 48.4914397,233.468672 48.4914397,233.468672 C48.4914397,233.468672 39.7804026,233.759056 39.7804026,233.468672 C39.7804026,233.178288 31.5049174,166.68037 30.4886297,149.692911 C29.4723421,132.705451 30.0530779,112.523769 28.6012384,110.200698 C27.1493989,107.877626 32.3760211,98.004573 32.3760211,98.004573 L44.7166569,101.343988 L50.524015,121.235287 Z" id="Path" fill="#F9BC71"></path>
                                <path d="M61.4128113,33.2489589 L77.237862,40.072981 C77.237862,40.072981 74.0438151,52.8498735 73.8986311,57.9315921 C73.7534472,63.0133107 71.8660558,103.231484 71.8660558,103.231484 C71.8660558,103.231484 67.0749854,110.781466 43.5551853,107.732434 C34.5537804,106.570899 30.0530779,102.21514 30.0530779,102.21514 C30.0530779,102.21514 32.5212051,57.9315921 33.2471248,52.8498735 C33.9730446,47.7681549 35.715252,37.6047177 35.715252,37.6047177 L43.4100014,35.2816463 L46.4588644,39.927789 L61.4128113,33.2489589 Z" id="Path" fill="#868DF1"></path>
                                <polygon id="Path" fill="#5A6FFE" points="60.6868916 30.4903116 46.6040483 39.927789 50.524015 44.4287398 61.4128113 33.2489589"></polygon>
                                <polygon id="Path" fill="#5A6FFE" points="46.6040483 39.927789 42.8292656 42.9768202 43.5551853 35.2816463 45.0070249 33.2489589"></polygon>
                                <g transform="translate(0.000000, 34.280249)">
                                    <path d="M31.7952853,33.2340126 L18.2931778,37.1541955 C16.8413383,37.5897714 15.2443149,36.8638116 14.6635791,35.557084 L1.45183951,7.38984373 C0.871103707,6.08311609 1.45183951,4.77638845 2.90367902,4.34081257 L16.2606025,0.420629649 C18.7287297,0.130245729 19.8902013,0.711013569 20.4709371,2.01774121 L33.6826767,29.8945975 C34.4085964,31.2013252 34.2634125,32.2176689 31.7952853,33.2340126 Z" id="XMLID_60_" fill="#97A3CC"></path>
                                    <path d="M31.0693655,33.5243965 L17.4220741,37.4445795 C15.9702346,37.8801553 14.3732112,37.1541955 13.7924754,35.8474679 L0.580735805,7.53503569 C-7.89923682e-14,6.22830805 0.580735805,4.92158041 2.03257532,4.48600453 L15.5346828,0.565821609 C16.9865223,0.130245729 18.7287297,0.856205529 19.3094655,2.16293317 L32.666389,30.3301734 C33.2471248,31.782093 32.5212051,33.0888207 31.0693655,33.5243965 Z" id="XMLID_55_" fill="url(#linearGradient-11)"></path>
                                </g>
                                <g transform="translate(18.873914, 37.184088)" id="Path">
                                    <path d="M51.3951187,23.0705754 C51.3951187,23.0705754 38.764115,43.9782177 37.1670915,44.7041775 C35.4248841,45.4301373 13.7924754,31.3465171 9.72732473,28.7330619 C5.66217409,26.1196066 2.17775927,23.5061513 1.74220741,23.0705754 C1.16147161,22.6349995 0,18.4244327 0,18.4244327 C0,18.4244327 0.580735805,17.6984729 0.580735805,17.6984729 L1.16147161,17.9888568 L0.871103707,16.2465533 L1.45183951,15.2302096 L1.88739136,15.3754015 L2.03257532,13.633098 L2.75849507,12.3263704 C2.75849507,12.3263704 4.93625434,14.7946337 6.2429099,16.2465533 C7.54956546,17.6984729 9.14658892,18.7148166 9.14658892,18.7148166 C9.14658892,18.7148166 9.00140497,16.3917453 9.14658892,15.9561694 C9.29177287,15.5205935 8.85622102,13.9234819 8.85622102,13.9234819 L10.8887963,15.2302096 C10.8887963,15.2302096 12.7761877,21.037888 13.0665556,21.4734639 C13.3569235,21.9090397 14.3732112,25.5388387 19.4546495,27.4263342 C28.4560544,30.9109413 33.3923088,32.2176689 33.3923088,32.2176689 C33.1019409,32.2176689 41.52261,16.6821292 41.52261,16.6821292 L51.3951187,23.0705754 Z" fill="#FFFFFF"></path>
                                    <path d="M58.9446842,10.8744508 C57.7832126,16.5369372 49.3625434,29.0234458 49.3625434,29.0234458 L39.1996668,21.3282719 C39.1996668,21.3282719 43.2648174,13.3427141 45.4425767,9.13214725 C47.9107039,4.48600453 50.2336471,-1.17648191 54.5891656,0.565821609 C58.7995002,2.01774121 59.9609718,6.22830805 58.9446842,10.8744508 Z" fill="#3751FE"></path>
                                </g>
                                <path d="M38.618931,7.9855578 C37.6026433,9.00190152 35.715252,10.889397 35.8604359,12.0509327 C36.0056199,13.2124684 36.2959878,16.6970754 36.8767236,18.5845709 C37.4574594,20.4720664 38.618931,25.553785 39.3448508,27.7316644 C40.2159545,29.9095438 41.0870582,32.9585749 41.8129779,33.2489589 C42.5388977,33.5393428 48.4914397,32.5229991 49.5077273,31.6518473 C50.6691989,30.7806955 56.6217409,24.2470573 55.3150854,19.4557226 C55.3150854,19.4557226 56.9121088,19.6009146 57.7832126,14.8095799 C58.0735805,13.5028523 52.9921422,10.0182452 52.1210385,8.85670956 C50.2336471,5.8076784 43.2648174,8.27594172 41.2322421,8.42113368 C39.3448508,8.56632564 38.618931,7.9855578 38.618931,7.9855578 Z" id="Path" fill="#FFFFFF"></path>
                                <path d="M35.8604359,12.0509327 C35.8604359,12.0509327 36.2959878,10.3086292 37.7478273,10.744205 C39.3448508,11.034589 42.3937137,10.889397 44.7166569,10.3086292 C47.0396002,9.72786132 49.0721755,8.27594172 49.0721755,8.27594172 C49.0721755,8.27594172 49.6529113,11.3249729 50.524015,11.9057407 C51.2499347,12.6317005 51.8306706,13.9384282 52.1210385,14.9547719 C52.4114064,15.9711156 53.572878,16.2614995 53.572878,16.2614995 C53.572878,16.2614995 54.1536138,13.5028523 55.3150854,13.3576603 C57.6380286,12.9220844 57.3476607,16.2614995 56.476557,17.2778432 C55.6054533,18.294187 54.4439817,19.1653387 54.4439817,19.1653387 C54.4439817,19.1653387 54.7343496,20.6172583 55.1699014,21.4884101 C55.6054533,22.5047538 57.0572928,23.9566734 57.0572928,23.9566734 C57.0572928,23.9566734 57.6380286,17.5682272 59.2350521,14.664388 C60.6868916,11.7605488 60.6868916,6.24325428 56.331373,5.22691056 C56.331373,5.22691056 55.3150854,0.29038392 49.5077273,0.58076784 C43.7003693,0.87115176 39.1996668,3.19422312 36.5863557,2.9038392 C33.9730446,2.61345528 33.2471248,2.1778794 33.2471248,2.1778794 C33.2471248,2.1778794 31.9404692,6.38844624 33.6826767,8.56632564 C35.2797001,10.5990131 35.8604359,12.0509327 35.8604359,12.0509327 Z" id="Path" fill="#5A6FFE"></path>
                            </g>
                            <g transform="translate(177.689963, 98.730533)">
                                <polygon id="Path" fill="#A6AEBA" points="28.0205026 34.8460704 22.6486964 34.8460704 17.2768902 0.43557588 21.3420408 0.43557588"></polygon>
                                <polygon id="Path" fill="#D2DCEB" points="26.5686631 34.8460704 5.51699014 34.8460704 0.145183951 0.43557588 21.1968569 0.43557588"></polygon>
                                <rect id="Rectangle" fill="#D2DCEB" x="5.22662224" y="33.9749187" width="22.7938803" height="2.61345528"></rect>
                                <rect id="Rectangle" fill="#A6AEBA" x="28.0205026" y="33.9749187" width="28.7464223" height="2.61345528"></rect>
                                <path d="M14.953947,19.3105307 C15.5346828,21.923986 15.0991309,24.8278252 13.9376593,25.6989769 C12.7761877,26.5701287 11.3243482,25.1182091 10.7436124,22.5047538 C10.1628766,19.8912985 10.5984284,16.9874593 11.7599,16.1163076 C12.9213717,15.2451558 14.3732112,16.6970754 14.953947,19.3105307 Z" id="Path" fill="#A6AEBA"></path>
                            </g>
                            <g transform="translate(0.000000, 135.028523)">
                                <rect id="Rectangle" fill="#5A6FFE" transform="translate(129.450127, 3.039158) rotate(-180.000000) translate(-129.450127, -3.039158) " x="0.163818142" y="0.570894787" width="258.572617" height="4.93652664"></rect>
                                <g transform="translate(27.584951, 5.241857)" fill="#3751FE" id="Path">
                                    <polygon points="0.129990282 99.4415464 2.59811745 99.4415464 23.0690546 0.275437689 17.8424323 0.275437689"></polygon>
                                    <polygon points="192.063174 99.4415464 189.449863 99.4415464 169.124109 0.275437689 174.350732 0.275437689"></polygon>
                                </g>
                            </g>
                        </g>
                    </g>
                </g>
            </g>
        </g>
    </g>
</svg>