<?xml version="1.0" encoding="UTF-8"?>
<svg width="384px" height="224px" viewBox="0 0 384 224" version="1.1" xmlns="http://www.w3.org/2000/svg" xmlns:xlink="http://www.w3.org/1999/xlink">
    <!-- Generator: Sketch 52.3 (67297) - http://www.bohemiancoding.com/sketch -->
    <title>Shape</title>
    <desc>Created with Sketch.</desc>
    <g id="Page-1" stroke="none" stroke-width="1" fill="none" fill-rule="evenodd">
        <g id="ios-menu" fill="#494A54" fill-rule="nonzero">
            <path d="M368,32 L16,32 C7.2,32 0,24.8 0,16 C0,7.2 7.2,0 16,0 L368,0 C376.8,0 384,7.2 384,16 C384,24.8 376.8,32 368,32 Z M368,128 L16,128 C7.2,128 0,120.8 0,112 C0,103.2 7.2,96 16,96 L368,96 C376.8,96 384,103.2 384,112 C384,120.8 376.8,128 368,128 Z M368,224 L16,224 C7.2,224 0,216.8 0,208 C0,199.2 7.2,192 16,192 L368,192 C376.8,192 384,199.2 384,208 C384,216.8 376.8,224 368,224 Z" id="Shape"></path>
        </g>
    </g>
</svg>