<?xml version="1.0" encoding="UTF-8"?>
<svg width="339px" height="226px" viewBox="0 0 339 226" version="1.1" xmlns="http://www.w3.org/2000/svg" xmlns:xlink="http://www.w3.org/1999/xlink">
    <!-- Generator: Sketch 52.3 (67297) - http://www.bohemiancoding.com/sketch -->
    <title>Shape</title>
    <desc>Created with Sketch.</desc>
    <g id="Page-1" stroke="none" stroke-width="1" fill="none" fill-rule="evenodd">
        <path d="M4.03571429,202 L334.964286,202 C337.193149,202 339,203.790861 339,206 L339,222 C339,224.209139 337.193149,226 334.964286,226 L4.03571429,226 C1.80685083,226 2.72957049e-16,224.209139 0,222 L0,206 C-2.72957049e-16,203.790861 1.80685083,202 4.03571429,202 Z M4.03125,101 L253.96875,101 C256.195148,101 258,102.790861 258,105 L258,121 C258,123.209139 256.195148,125 253.96875,125 L4.03125,125 C1.8048521,125 2.72655106e-16,123.209139 0,121 L0,105 C-2.72655106e-16,102.790861 1.8048521,101 4.03125,101 Z M4.03571429,1.18423789e-15 L334.964286,1.18423789e-15 C337.193149,7.78425643e-16 339,1.790861 339,4 L339,20 C339,22.209139 337.193149,24 334.964286,24 L4.03571429,24 C1.80685083,24 2.72957049e-16,22.209139 0,20 L0,4 C-2.72957049e-16,1.790861 1.80685083,4.05812251e-16 4.03571429,1.18423789e-15 Z" id="Shape" fill="#494A54" fill-rule="nonzero"></path>
    </g>
</svg>