<?xml version="1.0" encoding="UTF-8"?>
<svg width="416px" height="416px" viewBox="0 0 416 416" version="1.1" xmlns="http://www.w3.org/2000/svg" xmlns:xlink="http://www.w3.org/1999/xlink">
    <!-- Generator: Sketch 52.3 (67297) - http://www.bohemiancoding.com/sketch -->
    <title>network</title>
    <desc>Created with Sketch.</desc>
    <g id="Page-1" stroke="none" stroke-width="1" fill="none" fill-rule="evenodd">
        <g id="network" fill="#F8E71C">
            <path d="M360.4,3.8 C357.8,1.3 354.3,0 350.7,0 C347,0 343.5,1.4 340.8,3.9 C338.1,6.5 336.7,9.9 336.7,13.5 C336.7,17.1 338.2,20.5 340.9,23.1 C371.3,51.6 388,89.6 388,130.2 C388,170.7 371.3,208.7 340.9,237.3 C338.2,239.8 336.7,243.2 336.7,246.9 C336.7,250.5 338.1,253.9 340.8,256.5 C343.4,259 346.9,260.4 350.7,260.4 C354.4,260.4 357.8,259 360.4,256.6 C396.3,223 416,178.1 416,130.2 L416,130.1 C416,82.2 396.2,37.4 360.4,3.8 Z" id="Path"></path>
            <path d="M303,48.8 C300.6,46.5 297.4,45.3 294,45.3 C290.7,45.3 287.5,46.5 285.1,48.7 C282.6,51 281.2,54.1 281.2,57.4 C281.2,60.7 282.5,63.8 285,66.1 C303,83.1 312.8,105.9 312.8,130.1 C312.8,154.3 302.9,177.1 285,194.1 C282.5,196.4 281.2,199.5 281.2,202.8 C281.2,206.1 282.6,209.2 285.1,211.5 C287.5,213.7 290.6,214.9 294,214.9 C297.4,214.9 300.6,213.6 303,211.4 C325.8,189.7 338.4,160.9 338.4,130.1 L338.4,130 C338.4,99.3 325.8,70.5 303,48.8 Z M75.1,23.1 C77.8,20.6 79.3,17.2 79.3,13.5 C79.3,9.9 77.9,6.5 75.2,3.9 C72.6,1.4 69.1,0 65.3,0 C61.6,0 58.2,1.4 55.6,3.8 C19.7,37.4 0,82.3 0,130.2 L0,130.4 C0,178.2 19.8,223 55.6,256.6 C58.2,259.1 61.7,260.4 65.3,260.4 C69,260.4 72.5,259 75.2,256.5 C77.9,253.9 79.3,250.5 79.3,246.9 C79.3,243.3 77.8,239.9 75.1,237.3 C44.7,208.8 28,170.8 28,130.2 C27.9,89.6 44.7,51.6 75.1,23.1 Z" id="Shape" fill-rule="nonzero"></path>
            <path d="M131,66.1 C133.5,63.8 134.8,60.7 134.8,57.4 C134.8,54.1 133.4,51 130.9,48.7 C128.5,46.5 125.4,45.3 122,45.3 C118.6,45.3 115.4,46.6 113,48.8 C90.2,70.5 77.6,99.3 77.6,130.1 L77.6,130.2 C77.6,161 90.2,189.8 113,211.4 C115.4,213.7 118.6,214.9 122,214.9 C125.3,214.9 128.5,213.7 130.9,211.5 C133.4,209.2 134.8,206.1 134.8,202.8 C134.8,199.5 133.5,196.4 131,194.1 C113,177.1 103.2,154.3 103.2,130.1 C103.1,105.9 113,83.2 131,66.1 Z M208,75.2 C181.5,75.2 160,96.7 160,123.2 C160,144.8 174.3,163.1 194,169.1 L194,402.1 C194,409.8 200.3,416 208,416 C215.7,416 222,409.8 222,402.1 L222,169.1 C241.7,163.1 256,144.8 256,123.2 C256,96.7 234.5,75.2 208,75.2 Z" id="Shape" fill-rule="nonzero"></path>
        </g>
    </g>
</svg>