<?xml version="1.0" encoding="UTF-8"?>
<svg width="171px" height="160px" viewBox="0 0 171 160" version="1.1" xmlns="http://www.w3.org/2000/svg" xmlns:xlink="http://www.w3.org/1999/xlink">
    <!-- Generator: Sketch 52.3 (67297) - http://www.bohemiancoding.com/sketch -->
    <title>order</title>
    <desc>Created with Sketch.</desc>
    <defs>
        <path d="M20.4651817,106.745992 L22.395508,106.745992 L22.395508,112.575385 L29.7326686,112.575385 L29.7326686,106.745992 L31.6629948,106.745992 L31.6629948,120.8537 L29.7326686,120.8537 L29.7326686,114.256018 L22.395508,114.256018 L22.395508,120.8537 L20.4651817,120.8537 L20.4651817,106.745992 Z M41.8620321,115.072325 L39.7204264,108.83958 L37.44437,115.072325 L41.8620321,115.072325 Z M38.7216506,106.745992 L40.8824636,106.745992 L46.0011895,120.8537 L43.9076018,120.8537 L42.4766634,116.62811 L36.8969641,116.62811 L35.3699896,120.8537 L33.4108524,120.8537 L38.7216506,106.745992 Z M47.6914254,106.745992 L50.4284552,106.745992 L54.48118,118.67368 L58.5050939,106.745992 L61.2133129,106.745992 L61.2133129,120.8537 L59.39823,120.8537 L59.39823,112.527367 C59.39823,112.239257 59.4046323,111.762283 59.4174372,111.096429 C59.4302421,110.430575 59.4366444,109.716714 59.4366444,108.954823 L55.4127305,120.8537 L53.5208187,120.8537 L49.4680938,108.954823 L49.4680938,109.386986 C49.4680938,109.732718 49.4760968,110.25931 49.4921029,110.96678 C49.508109,111.67425 49.5161119,112.19444 49.5161119,112.527367 L49.5161119,120.8537 L47.6914254,120.8537 L47.6914254,106.745992 Z M69.4244022,112.709836 C70.2311098,112.709836 70.8585396,112.597795 71.3067104,112.373709 C72.0109789,112.021575 72.3631079,111.387743 72.3631079,110.472194 C72.3631079,109.550243 71.9885707,108.929215 71.2394852,108.609093 C70.8169241,108.429825 70.1894943,108.340192 69.357177,108.340192 L65.9478942,108.340192 L65.9478942,112.709836 L69.4244022,112.709836 Z M70.0678443,119.221086 C71.239491,119.221086 72.074997,118.881761 72.5743874,118.203103 C72.888107,117.774139 73.0449645,117.255549 73.0449645,116.647317 C73.0449645,115.622927 72.5871968,114.925071 71.6716478,114.55373 C71.1850622,114.355254 70.5416266,114.256018 69.7413215,114.256018 L65.9478942,114.256018 L65.9478942,119.221086 L70.0678443,119.221086 Z M64.0751896,106.745992 L70.1350696,106.745992 C71.7868994,106.745992 72.9617296,107.238973 73.6595957,108.224949 C74.0693519,108.807571 74.274227,109.479817 74.274227,110.241707 C74.274227,111.131647 74.0213343,111.861514 73.5155415,112.431331 C73.2530414,112.732246 72.8753031,113.007547 72.3823151,113.257242 C73.105791,113.532547 73.6467891,113.843061 74.0053258,114.188792 C74.6391674,114.803427 74.9560835,115.651737 74.9560835,116.73375 C74.9560835,117.642897 74.6711792,118.465598 74.1013619,119.201879 C73.2498373,120.303098 71.8957413,120.8537 70.0390335,120.8537 L64.0751896,120.8537 L64.0751896,106.745992 Z M79.3161239,106.745992 L79.3161239,115.466073 C79.3161239,116.490463 79.5081943,117.341975 79.8923407,118.020634 C80.462158,119.045025 81.4225097,119.557212 82.7734247,119.557212 C84.3932422,119.557212 85.4944456,119.003409 86.0770677,117.895787 C86.3907873,117.293958 86.5476447,116.484061 86.5476447,115.466073 L86.5476447,106.745992 L88.4875746,106.745992 L88.4875746,114.668973 C88.4875746,116.404035 88.253889,117.738923 87.7865108,118.67368 C86.9285838,120.376729 85.3087905,121.228241 82.9270825,121.228241 C80.5453745,121.228241 78.9287824,120.376729 78.0772578,118.67368 C77.6098796,117.738923 77.376194,116.404035 77.376194,114.668973 L77.376194,106.745992 L79.3161239,106.745992 Z M98.0047554,113.209224 C98.9010971,113.209224 99.6101568,113.029958 100.131956,112.671421 C100.653755,112.312885 100.91465,111.666248 100.91465,110.731492 C100.91465,109.726308 100.549717,109.041257 99.8198383,108.676318 C99.4292894,108.484245 98.9074983,108.38821 98.2544493,108.38821 L93.5870933,108.38821 L93.5870933,113.209224 L98.0047554,113.209224 Z M91.6759742,106.745992 L98.2064312,106.745992 C99.2820413,106.745992 100.168766,106.90285 100.866632,107.216569 C102.191937,107.818399 102.85458,108.929205 102.85458,110.549023 C102.85458,111.394145 102.680116,112.085598 102.331183,112.623403 C101.98225,113.161208 101.494071,113.593367 100.866632,113.919891 C101.417242,114.143977 101.831794,114.438485 102.1103,114.803424 C102.388806,115.168363 102.544063,115.76058 102.576075,116.580092 L102.643301,118.472004 C102.662508,119.009809 102.707324,119.409955 102.777751,119.672456 C102.892995,120.120626 103.09787,120.408732 103.392382,120.536781 L103.392382,120.8537 L101.049101,120.8537 C100.985076,120.732054 100.933858,120.575196 100.895443,120.383123 C100.857028,120.19105 100.825017,119.819714 100.799407,119.269104 L100.684163,116.916219 C100.639346,115.994267 100.296821,115.376441 99.6565769,115.062721 C99.2916377,114.889855 98.7186279,114.803424 97.9375301,114.803424 L93.5870933,114.803424 L93.5870933,120.8537 L91.6759742,120.8537 L91.6759742,106.745992 Z M111.747526,106.381055 C113.072831,106.381055 114.218851,106.637149 115.18562,107.149344 C116.587754,107.885625 117.445668,109.175697 117.759388,111.0196 L115.867476,111.0196 C115.636988,109.988807 115.160014,109.238132 114.436538,108.767553 C113.713062,108.296973 112.800728,108.061687 111.699508,108.061687 C110.39341,108.061687 109.293807,108.551466 108.400667,109.53104 C107.507526,110.510613 107.060963,111.970348 107.060963,113.910288 C107.060963,115.587727 107.429098,116.953027 108.165378,118.006229 C108.901659,119.05943 110.102099,119.586023 111.766733,119.586023 C113.040819,119.586023 114.095605,119.216288 114.931124,118.476806 C115.766642,117.737324 116.193999,116.541686 116.213206,114.889856 L111.795544,114.889856 L111.795544,113.30526 L117.989875,113.30526 L117.989875,120.8537 L116.760612,120.8537 L116.299639,119.038617 C115.652992,119.749288 115.079982,120.242269 114.580592,120.517574 C113.741872,120.991354 112.675882,121.228241 111.382589,121.228241 C109.711552,121.228241 108.274225,120.687243 107.070566,119.60523 C105.758066,118.247913 105.101826,116.38483 105.101826,114.015927 C105.101826,111.653427 105.74206,109.774338 107.022548,108.378606 C108.239012,107.046899 109.813989,106.381055 111.747526,106.381055 Z M121.130256,106.745992 L131.415726,106.745992 L131.415726,108.474642 L122.993357,108.474642 L122.993357,112.757854 L130.781887,112.757854 L130.781887,114.390468 L122.993357,114.390468 L122.993357,119.173068 L131.55978,119.173068 L131.55978,120.8537 L121.130256,120.8537 L121.130256,106.745992 Z M140.625591,113.209224 C141.521933,113.209224 142.230993,113.029958 142.752791,112.671421 C143.27459,112.312885 143.535486,111.666248 143.535486,110.731492 C143.535486,109.726308 143.170552,109.041257 142.440674,108.676318 C142.050125,108.484245 141.528334,108.38821 140.875285,108.38821 L136.207929,108.38821 L136.207929,113.209224 L140.625591,113.209224 Z M134.29681,106.745992 L140.827267,106.745992 C141.902877,106.745992 142.789602,106.90285 143.487468,107.216569 C144.812773,107.818399 145.475416,108.929205 145.475416,110.549023 C145.475416,111.394145 145.300952,112.085598 144.952019,112.623403 C144.603086,113.161208 144.114907,113.593367 143.487468,113.919891 C144.038078,114.143977 144.45263,114.438485 144.731136,114.803424 C145.009642,115.168363 145.164899,115.76058 145.196911,116.580092 L145.264136,118.472004 C145.283344,119.009809 145.32816,119.409955 145.398587,119.672456 C145.513831,120.120626 145.718706,120.408732 146.013218,120.536781 L146.013218,120.8537 L143.669937,120.8537 C143.605912,120.732054 143.554693,120.575196 143.516279,120.383123 C143.477864,120.19105 143.445852,119.819714 143.420243,119.269104 L143.304999,116.916219 C143.260182,115.994267 142.917657,115.376441 142.277413,115.062721 C141.912473,114.889855 141.339464,114.803424 140.558366,114.803424 L136.207929,114.803424 L136.207929,120.8537 L134.29681,120.8537 L134.29681,106.745992 Z M149.518537,116.301587 C149.563354,117.101892 149.752223,117.75173 150.08515,118.251121 C150.718992,119.185877 151.836201,119.653248 153.436811,119.653248 C154.153885,119.653248 154.806924,119.550811 155.395948,119.345933 C156.535583,118.948981 157.105392,118.238321 157.105392,117.213931 C157.105392,116.445638 156.865304,115.898237 156.385121,115.571713 C155.898535,115.251591 155.136656,114.973089 154.099461,114.736198 L152.188342,114.304036 C150.939866,114.022328 150.056342,113.711815 149.537744,113.372485 C148.641403,112.783461 148.193238,111.903138 148.193238,110.731492 C148.193238,109.463808 148.631799,108.423427 149.508933,107.610317 C150.386068,106.797207 151.628123,106.390658 153.235135,106.390658 C154.714099,106.390658 155.970559,106.747589 157.004554,107.461461 C158.038548,108.175333 158.555537,109.316551 158.555537,110.885149 L156.759661,110.885149 C156.663625,110.129661 156.45875,109.550249 156.14503,109.146895 C155.562408,108.410615 154.573246,108.04248 153.177514,108.04248 C152.050684,108.04248 151.240787,108.279367 150.7478,108.753147 C150.254812,109.226928 150.008321,109.77753 150.008321,110.404969 C150.008321,111.096432 150.296427,111.602218 150.872646,111.92234 C151.25039,112.127218 152.105104,112.383312 153.436811,112.690629 L155.415156,113.141999 C156.369119,113.359682 157.105389,113.657391 157.623987,114.035135 C158.520328,114.694586 158.968492,115.651737 158.968492,116.906615 C158.968492,118.468811 158.400284,119.58602 157.263851,120.258276 C156.127418,120.930532 154.806934,121.266655 153.302361,121.266655 C151.548092,121.266655 150.174789,120.818491 149.182411,119.92215 C148.190032,119.03221 147.703454,117.825368 147.722661,116.301587 L149.518537,116.301587 Z" id="path-1"></path>
    </defs>
    <g id="Page-1" stroke="none" stroke-width="1" fill="none" fill-rule="evenodd">
        <g id="order">
            <g id="Group">
                <g transform="translate(34.000000, 15.000000)" fill="#F39744" id="Path">
                    <g>
                        <g>
                            <g>
                                <polygon points="51.2205405 50.5816277 50.5589189 50.5816277 49.1805405 0.439362673 52.6540541 0.439362673"></polygon>
                                <polygon points="51.0551351 50.471787 50.4486486 50.801309 24.0389189 8.01836878 27.0713514 6.31583842"></polygon>
                                <polygon points="50.7794595 50.4168667 50.4486486 51.0209904 6.12 27.130645 7.88432432 24.1100267"></polygon>
                                <polygon points="50.5589189 50.5267074 50.5589189 51.1857514 0.165405405 52.5587597 0.165405405 49.0987787"></polygon>
                                <polygon points="50.3935135 50.6914684 50.7243243 51.295592 7.82918919 77.6024321 6.06486486 74.5818137"></polygon>
                                <polygon points="50.3935135 50.96607 50.9448649 51.295592 26.9610811 95.4515406 23.9837838 93.7490103"></polygon>
                                <polygon points="50.5037838 51.1857514 51.1654054 51.1857514 52.5437838 101.382937 49.0702703 101.382937"></polygon>
                                <polygon points="50.6691892 51.3505124 51.2756757 51.0209904 77.6854054 93.8039306 74.652973 95.506461"></polygon>
                                <polygon points="50.9448649 51.4054327 51.2756757 50.801309 95.6043243 74.6916543 93.84 77.6573524"></polygon>
                                <polygon points="51.1654054 51.295592 51.1654054 50.636548 101.558919 49.2086193 101.558919 52.6686004"></polygon>
                                <polygon points="51.3308108 51.0759107 51 50.5267074 93.8951351 24.2198673 95.6594595 27.1855654"></polygon>
                                <polygon points="51.3308108 50.8562294 50.7794595 50.471787 74.7632432 6.31583842 77.7405405 8.07328911"></polygon>
                            </g>
                            <g transform="translate(1.102703, 1.647610)">
                                <polygon points="49.8421622 48.7692567 49.3459459 49.2635397 12.7362162 14.7186495 15.1621622 12.3021548"></polygon>
                                <polygon points="49.5664865 48.824177 49.4010811 49.4283007 0.385945946 37.7851898 1.26810811 34.4899698"></polygon>
                                <polygon points="49.3459459 48.9340177 49.5664865 49.5930617 1.21297297 63.9272689 0.330810811 60.5771285"></polygon>
                                <polygon points="49.2908108 49.2086193 49.7318919 49.647982 15.107027 86.1150838 12.6810811 83.6985891"></polygon>
                                <polygon points="49.2908108 49.4283007 49.9524324 49.5930617 38.2637838 98.472159 34.9005405 97.5385133"></polygon>
                                <polygon points="49.4562162 49.647982 50.1178378 49.483221 64.5081081 97.5934337 61.1448649 98.472159"></polygon>
                                <polygon points="49.6767568 49.7578227 50.172973 49.2635397 86.7827027 83.7535095 84.3567568 86.2249245"></polygon>
                                <polygon points="49.9524324 49.7029023 50.1178378 49.0438583 99.132973 60.6869692 98.2508108 64.0371095"></polygon>
                                <polygon points="50.172973 49.5381413 49.9524324 48.8790973 98.3059459 34.5448901 99.1881081 37.8950305"></polygon>
                                <polygon points="50.2281081 49.31846 49.787027 48.824177 84.4118919 12.3570752 86.8378378 14.8284902"></polygon>
                                <polygon points="50.2281081 49.0438583 49.5664865 48.8790973 61.2551351 0.0549203341 64.6183784 0.933645679"></polygon>
                                <polygon points="50.0627027 48.8790973 49.4010811 49.0438583 35.0108108 0.933645679 38.3740541 0.0549203341"></polygon>
                            </g>
                        </g>
                        <g transform="translate(0.000000, 0.549203)">
                            <g>
                                <polygon points="51.2205405 49.977504 50.5589189 50.0873447 42.5643243 0.494283007 46.0378378 0.0549203341"></polygon>
                                <polygon points="51 49.8676633 50.4486486 50.307026 18.6908108 11.3135888 21.4475676 9.22661613"></polygon>
                                <polygon points="50.7243243 49.8676633 50.4486486 50.471787 3.41837838 32.5677581 4.74162162 29.3823787"></polygon>
                                <polygon points="50.5037838 50.0324243 50.6140541 50.6914684 0.827027027 58.5999965 0.385945946 55.1949357"></polygon>
                                <polygon points="50.3935135 50.2521057 50.7794595 50.7463887 11.6886486 82.4354215 9.59351351 79.6894047"></polygon>
                                <polygon points="50.3935135 50.471787 51 50.7463887 33.0259459 97.648354 29.8281081 96.330266"></polygon>
                                <polygon points="50.5037838 50.6914684 51.1654054 50.636548 59.16 100.174689 55.6864865 100.614052"></polygon>
                                <polygon points="50.7243243 50.801309 51.2756757 50.4168667 83.0335135 89.4103039 80.2767568 91.4972766"></polygon>
                                <polygon points="51 50.801309 51.2756757 50.1971853 98.3059459 68.1012143 96.9827027 71.2865936"></polygon>
                                <polygon points="51.2205405 50.6914684 51.1102703 50.0324243 100.897297 42.1238962 101.338378 45.528957"></polygon>
                                <polygon points="51.3308108 50.471787 50.9448649 49.9225837 90.0356757 18.2884712 92.1308108 21.034488"></polygon>
                                <polygon points="51.3308108 50.1971853 50.7243243 49.977504 68.6983784 3.07553871 71.8962162 4.39362673"></polygon>
                            </g>
                            <g>
                                <polygon points="50.8345946 49.8676633 50.4486486 50.4168667 9.64864865 20.9246473 11.7437838 18.2335509"></polygon>
                                <polygon points="50.6140541 49.9225837 50.5037838 50.5816277 0.385945946 45.4191163 0.827027027 42.0140556"></polygon>
                                <polygon points="50.4486486 50.0873447 50.6691892 50.7463887 4.68648649 71.2316733 3.36324324 68.0462939"></polygon>
                                <polygon points="50.3935135 50.3619464 50.8897297 50.7463887 21.3372973 91.4423562 18.5805405 89.3004632"></polygon>
                                <polygon points="50.4486486 50.5816277 51.1102703 50.6914684 45.9275676 100.614052 42.4540541 100.174689"></polygon>
                                <polygon points="50.6140541 50.7463887 51.2205405 50.5267074 71.7859459 96.330266 68.5881081 97.648354"></polygon>
                                <polygon points="50.8897297 50.8562294 51.2756757 50.307026 92.0756757 79.7443251 89.9805405 82.4903418"></polygon>
                                <polygon points="51.1102703 50.7463887 51.2205405 50.0873447 101.338378 55.3047764 100.897297 58.7098371"></polygon>
                                <polygon points="51.2756757 50.5816277 51.0551351 49.977504 97.0378378 29.4922194 98.3610811 32.6775988"></polygon>
                                <polygon points="51.3308108 50.3619464 50.8345946 49.9225837 80.387027 9.28153646 83.1437838 11.3685092"></polygon>
                                <polygon points="51.2756757 50.0873447 50.6140541 50.0324243 55.7967568 0.0549203341 59.2702703 0.549203341"></polygon>
                                <polygon points="51.1102703 49.9225837 50.5037838 50.1971853 29.9383784 4.33870639 33.1362162 3.02061837"></polygon>
                            </g>
                        </g>
                    </g>
                </g>
                <g transform="translate(0.000000, 52.000000)">
                    <path d="M157.4,26.3 L87.8,7.4 C87,7.2 86.1,7.1 85.3,7.1 C84.5,7.1 83.6,7.2 82.8,7.4 L13.3,26.3 C9.2,27.4 6.3,31.2 6.3,35.5 L6.3,70 C6.3,74.2 9,77.8 13,79.1 L82.5,100.9 C84.3,101.5 86.3,101.5 88.2,100.9 L157.7,79.1 C161.7,77.8 164.4,74.2 164.4,70 L164.4,35.5 C164.4,31.2 161.5,27.4 157.4,26.3 Z" id="Path" fill="#CB2636"></path>
                    <path d="M159,20.2 L89.5,1.3 C86.8,0.6 83.9,0.6 81.2,1.3 L11.7,20.2 C4.8,22.1 0,28.3 0,35.5 L0,70 C0,77 4.5,83 11.1,85.1 L80.6,106.9 C82.1,107.4 83.7,107.6 85.3,107.6 C86.9,107.6 88.5,107.4 90,106.9 L159.5,85.1 C166.1,83 170.6,77 170.6,70 L170.6,35.5 C170.7,28.3 165.9,22.1 159,20.2 Z M164.4,70 C164.4,74.2 161.7,77.8 157.7,79.1 L88.2,100.9 C86.4,101.5 84.4,101.5 82.5,100.9 L13,79.1 C9,77.8 6.3,74.2 6.3,70 L6.3,35.5 C6.3,31.2 9.2,27.4 13.3,26.3 L82.8,7.4 C83.6,7.2 84.5,7.1 85.3,7.1 C86.1,7.1 87,7.2 87.8,7.4 L157.3,26.3 C161.4,27.4 164.3,31.2 164.3,35.5 L164.3,70 L164.4,70 Z" id="Shape" fill="#3D2314" fill-rule="nonzero"></path>
                </g>
                <path d="M157.4,78.3 L87.8,59.4 C87,59.2 86.1,59.1 85.3,59.1 C84.5,59.1 83.6,59.2 82.8,59.4 L13.3,78.3 C9.2,79.4 6.3,83.2 6.3,87.5 L6.3,111.6 L164.4,111.6 L164.4,87.5 C164.4,83.2 161.5,79.4 157.4,78.3 Z" id="Path" fill="#F39744"></path>
                <g transform="translate(24.000000, 0.000000)" fill="#3D2314" id="Path">
                    <polygon points="61.4 0.5 63.8 58 58.9 58"></polygon>
                    <g transform="translate(0.000000, 2.000000)">
                        <g transform="translate(60.000000, 0.000000)">
                            <polygon points="15.2 0.1 4.8 56.7 0 55.6"></polygon>
                            <polygon points="28.2 4.7 5.4 57.6 1 55.5"></polygon>
                            <polygon points="39.8 12.1 5.8 58.6 2 55.5"></polygon>
                            <polygon points="49.4 21.9 6 59.6 2.9 55.8"></polygon>
                            <polygon points="56.7 33.6 5.9 60.7 3.8 56.3"></polygon>
                            <polygon points="61.1 46.6 5.6 61.7 4.5 56.9"></polygon>
                            <polygon points="62.6 60.3 5.1 62.6 5.1 57.7"></polygon>
                        </g>
                        <g>
                            <polygon points="47.5 0.1 57.9 56.7 62.7 55.6"></polygon>
                            <polygon points="34.5 4.7 57.3 57.6 61.7 55.5"></polygon>
                            <polygon points="22.9 12.1 56.9 58.6 60.7 55.5"></polygon>
                            <polygon points="13.3 21.9 56.7 59.6 59.8 55.8"></polygon>
                            <polygon points="6 33.6 56.8 60.7 58.9 56.3"></polygon>
                            <polygon points="1.6 46.6 57.1 61.7 58.2 56.9"></polygon>
                            <polygon points="0.1 60.3 57.7 62.6 57.6 57.7"></polygon>
                        </g>
                    </g>
                </g>
                <g transform="translate(49.000000, 27.000000)">
                    <path d="M72.3,36.5 C72.3,56.3 56.2,72.4 36.4,72.4 C16.6,72.4 0.5,56.3 0.5,36.5 C0.5,16.7 16.6,0.6 36.4,0.6 C56.2,0.6 72.3,16.6 72.3,36.5 Z" id="Path" fill="#3D2314"></path>
                    <path d="M68.8,36.5 C68.8,54.4 54.3,68.9 36.4,68.9 C18.5,68.9 4,54.4 4,36.5 C4,18.6 18.5,4.1 36.4,4.1 C54.2,4.1 68.8,18.6 68.8,36.5 Z" id="Path" fill="#F6F1C7"></path>
                    <g transform="translate(12.000000, 12.000000)" fill="#3D2314">
                        <g transform="translate(1.000000, 0.000000)">
                            <path d="M20.5,11.6 C21.3,12.7 19.7,13.7 18.9,14 C18,14.4 16.9,14.4 16,14.8 C16,14.8 16,14.9 16,14.9 C17.5,14.6 19.1,14.7 20.3,13.5 C21.4,12.4 20.6,11.2 19.5,10.7 C19.5,10.7 19.4,10.7 19.5,10.8 C19.8,11.1 20.2,11.3 20.5,11.6 Z" id="Path"></path>
                            <path d="M15.7,15 C15.4,15 15.1,15 14.7,15.1 C14.4,15.1 13.9,15.1 13.7,15.3 C13.7,15.3 13.7,15.4 13.7,15.4 C14,15.5 14.3,15.5 14.5,15.4 C14.9,15.3 15.3,15.2 15.7,15 C15.7,15 15.7,15 15.7,15 Z" id="Path"></path>
                            <path d="M10.4,15.2 C11.4,15.2 12.3,15.2 13.3,15 C14.7,14.8 16.1,14.5 17.5,14.2 C18.1,14.1 21,13.3 20.1,12 C20.1,12 20.1,12 20.1,12 C20.7,13.7 16.4,14 15.5,14.2 C14.5,14.4 13.6,14.7 12.6,14.8 C11.9,14.9 11.2,14.8 10.5,14.8 C10.3,15 10.3,15.2 10.4,15.2 Z" id="Path"></path>
                            <path d="M4.8,15.1 C5.7,15.6 7.1,15.9 8.1,15.8 C8.3,15.8 8.3,15.5 8.1,15.5 C6.5,15.3 5.2,14.9 3.8,14.1 C3.2,13.7 3,13.2 3.2,12.5 C3.3,11.8 4,11.5 4.5,11.2 C5.2,10.8 5.9,10.6 6.5,10.2 C6.5,10.2 6.5,10.1 6.5,10.1 C5,10.6 2.3,11.4 2.8,13.5 C3.1,14.4 4.3,14.8 4.8,15.1 Z" id="Path"></path>
                            <path d="M8.9,15.8 C9.3,15.9 9.7,15.9 10.1,16 C10.6,16 11.1,16.1 11.5,16 C11.5,16 11.5,15.9 11.5,15.9 C11.1,15.8 10.7,15.8 10.3,15.7 C9.9,15.6 9.3,15.5 8.9,15.6 C8.8,15.7 8.8,15.8 8.9,15.8 Z" id="Path"></path>
                            <path d="M4.3,13.5 C3.5,12.9 4.1,12.3 4.6,11.8 C4.6,11.8 4.6,11.7 4.5,11.7 C3.5,12.2 3.2,13.2 4.2,13.9 C5.5,14.9 7.2,15.3 8.8,15.2 C8.8,15.2 8.8,15.1 8.8,15.1 C7.7,14.7 6.5,14.8 5.5,14.2 C5.1,14 4.7,13.8 4.3,13.5 Z" id="Path"></path>
                            <path d="M10,5.5 C10.2,6.4 10.3,7.2 10.4,8.1 C10.5,8.8 10.5,9.5 10.9,10.1 C10.9,10.1 10.9,10.1 10.9,10.1 C11,9.3 10.7,8.5 10.6,7.8 C10.6,7 10.4,6.2 10,5.5 C10,5.5 10,5.5 10,5.5 Z" id="Path"></path>
                            <path d="M10.9,10.3 C10.8,10.5 10.8,10.7 10.9,10.9 C10.9,11 11,11.2 11,11.3 C11,11.4 11,11.4 11.1,11.5 C11.1,11.5 11.2,11.5 11.2,11.5 C11.4,11.4 11.3,11.2 11.3,11 C11.2,10.7 11.1,10.5 10.9,10.3 C11,10.2 11,10.2 10.9,10.3 Z" id="Path"></path>
                            <path d="M7.3,3.2 C6.6,3.2 6,3.3 5.3,3.4 C4.9,3.5 4.2,3.4 4,3.8 C4,3.8 4,3.9 4,3.9 C4.2,3.9 4.2,3.9 4.4,3.9 C4.8,3.8 5.2,3.8 5.5,3.7 C6.1,3.6 6.7,3.4 7.3,3.3 C7.4,3.3 7.4,3.2 7.3,3.2 Z" id="Path"></path>
                            <path d="M15.3,37.5 C14.3,37.8 13.3,37.8 12.3,37.8 C11.2,37.8 10.1,37.6 9,37.4 C8.1,37.2 7.2,36.9 6.6,36.2 C6.5,36.1 6.4,36 6.3,35.8 C6.3,35.7 6.3,35.6 6.3,35.5 C7.5,36.6 9.4,36.8 11,37.1 C12.1,37.3 13.3,37.2 14.4,37 C14.6,37 14.8,36.9 15,36.9 C15,36.8 14.9,36.7 14.9,36.6 C14.7,36.6 14.5,36.6 14.3,36.7 C13.3,36.9 12.4,36.9 11.4,36.8 C10.4,36.7 9.4,36.6 8.5,36.3 C7.6,36.1 7,35.5 6.3,35.1 C6.3,35.1 6.3,35 6.3,35 C7,35.3 7.7,35.6 8.4,35.7 C8.5,35.7 8.5,35.6 8.4,35.6 C7.6,35.3 6.9,34.9 6.1,34.4 C6.1,34.3 6.1,34.3 6.1,34.2 C6.8,34.5 7.7,34.6 8.4,34.6 C8.4,34.6 8.4,34.6 8.4,34.5 C8,34.3 7.6,34.2 7.2,34.1 C6.8,34 6.4,33.8 6,33.7 C6,33.6 6,33.5 5.9,33.4 C6.7,33.7 7.8,33.6 8.5,33.1 C8.5,33.1 8.5,33 8.5,33 C8.1,33 7.6,33 7.2,33 C6.7,33 6.3,32.8 5.8,32.7 C5.8,32.5 5.7,32.3 5.7,32 C6.3,32.2 7.2,32.1 7.7,31.9 C7.7,31.9 7.7,31.8 7.7,31.8 C7.4,31.7 7,31.7 6.7,31.7 C6.3,31.7 5.9,31.6 5.6,31.4 C5.6,31.2 5.5,31.1 5.5,30.9 C5.7,30.9 5.8,31 6,31 C6.5,31 6.9,30.9 7.4,30.8 C7.5,30.8 7.5,30.7 7.4,30.7 C7,30.7 6.7,30.6 6.3,30.6 C6,30.6 5.7,30.4 5.4,30.4 C5.4,30.2 5.3,30 5.3,29.8 C5.5,29.9 5.7,29.9 5.9,29.9 C6.3,30 6.7,29.9 7.1,29.8 C7.2,29.8 7.2,29.7 7.1,29.7 C6.7,29.6 6.3,29.6 5.9,29.5 C5.7,29.4 5.5,29.3 5.3,29.3 C5.3,29.2 5.3,29.1 5.2,28.9 C5.7,29.1 6.5,29.1 6.9,28.8 C6.9,28.8 6.9,28.7 6.9,28.7 C6.7,28.5 6.3,28.6 6,28.6 C5.7,28.6 5.4,28.5 5.1,28.5 C5.1,28.3 5,28.2 5,28 C5.6,28.2 6.4,28.1 6.9,27.9 C6.9,27.9 6.9,27.8 6.9,27.8 C6.4,27.7 5.9,27.8 5.4,27.7 C5.2,27.7 5,27.6 4.8,27.5 C4.8,27.4 4.8,27.4 4.8,27.3 C5.3,27.4 5.9,27.2 6.4,27.1 C6.5,27.1 6.5,26.9 6.4,26.9 C6.1,26.9 5.8,26.9 5.5,26.8 C5.2,26.8 5,26.7 4.8,26.7 C4.8,26.5 4.7,26.3 4.7,26.1 C4.9,26.1 5.1,26.1 5.3,26.2 C5.6,26.2 5.9,26.2 6.2,26.1 C6.2,26.1 6.2,26 6.2,26 C5.9,26 5.5,26 5.2,25.9 C5,25.8 4.8,25.8 4.6,25.7 C4.6,25.5 4.5,25.4 4.5,25.2 C4.7,25.2 4.9,25.2 5.1,25.2 C5.5,25.2 5.8,25.2 6.2,25.1 C6.2,25.1 6.2,25 6.2,25 C5.8,25 5.4,24.9 5.1,24.8 C4.9,24.8 4.7,24.7 4.5,24.7 C4.5,24.6 4.5,24.5 4.4,24.4 C4.9,24.4 5.5,24.4 6,24.3 C6.1,24.3 6.1,24.2 6,24.1 C5.4,24 4.9,24.1 4.3,24 C4.3,23.9 4.3,23.8 4.2,23.7 C4.6,23.7 5.1,23.6 5.5,23.5 C5.5,23.5 5.5,23.5 5.5,23.5 C5.1,23.4 4.7,23.5 4.4,23.4 C4.3,23.4 4.3,23.4 4.2,23.4 C4.1,23.1 4.1,22.8 4,22.5 C4.5,22.6 5,22.5 5.5,22.5 C5.5,22.5 5.5,22.4 5.5,22.4 C5,22.3 4.4,22.3 3.9,22.1 C3.9,21.9 3.8,21.8 3.8,21.6 C4.4,21.8 5,21.7 5.6,21.8 C5.7,21.8 5.7,21.7 5.6,21.6 C5,21.4 4.3,21.3 3.7,21.1 C3.7,21 3.7,20.9 3.6,20.7 C4.1,20.9 4.8,20.9 5.4,20.9 C5.5,20.9 5.5,20.8 5.4,20.8 C4.7,20.7 4.1,20.5 3.5,20.3 C3.5,20.2 3.5,20.1 3.4,20 C4,20.3 4.7,20.3 5.4,20.2 C5.4,20.2 5.4,20.2 5.4,20.2 C4.8,20.1 4.1,20 3.5,19.7 C3.4,19.7 3.4,19.7 3.3,19.7 C3.3,19.5 3.2,19.3 3.2,19.1 C3.3,19.1 3.3,19.2 3.4,19.2 C3.9,19.5 4.6,19.4 5.2,19.6 C5.3,19.6 5.3,19.5 5.2,19.5 C4.8,19.4 4.5,19.3 4.1,19.2 C3.7,19.1 3.5,18.8 3.2,18.7 C3.2,18.7 3.2,18.7 3.1,18.7 C3.1,18.5 3,18.4 3,18.2 C3.9,18.9 5.7,19.3 6.7,19 C6.7,19 6.7,19 6.7,18.9 C6.1,18.7 5.4,18.7 4.8,18.5 C4.1,18.3 3.5,17.9 2.9,17.6 C2.9,17.4 2.8,17.2 2.8,17 C4.3,17.9 6.6,18.8 8.3,18.3 C8.3,18.3 8.3,18.3 8.3,18.2 C7.4,17.9 6.4,17.9 5.5,17.7 C4.5,17.4 3.6,17 2.7,16.5 C2.7,16.4 2.6,16.3 2.6,16.2 C2.7,16.2 2.7,16.3 2.8,16.3 C4.7,17.6 7.3,17.9 9.6,18 C13,18.3 16.8,18 20,16.7 C20.5,16.5 21.1,16.2 21.6,15.8 C21.5,16 21.5,16.3 21.4,16.5 C20.6,17 19.7,17.3 18.8,17.6 C17.9,17.9 16.9,17.8 16,18.1 C16,18.1 16,18.1 16,18.2 C17.6,18.7 19.8,17.8 21.3,17 C21.3,17.2 21.2,17.4 21.2,17.5 C20.7,17.7 20.2,18 19.7,18.2 C19,18.4 18.3,18.4 17.6,18.7 C17.6,18.7 17.6,18.7 17.6,18.8 C18.5,19.1 20.2,18.8 21.2,18.1 C21.2,18.2 21.2,18.4 21.1,18.5 C20.8,18.6 20.6,18.8 20.4,18.9 C20,19.1 19.5,19.1 19.1,19.3 C19,19.3 19.1,19.4 19.1,19.4 C19.7,19.2 20.3,19.3 20.9,19 C20.9,19 20.9,19 21,19 C21,19 21,19.1 21,19.1 C21,19.2 20.9,19.4 20.9,19.5 C20.9,19.5 20.8,19.5 20.8,19.5 C20.2,19.8 19.5,19.9 18.9,20 C18.9,20 18.9,20 18.9,20 C19.2,20.1 19.6,20.1 19.9,20.1 C20.4,19.8 21.1,19.5 21.8,19.4 C21.8,19.4 21.9,19.4 21.9,19.4 C21.9,19.4 21.9,19.3 21.9,19.3 C21.9,19 22,18.7 22.1,18.4 C22.3,17.5 22.4,16.5 22.5,15.6 C22.7,15.4 22.8,15.2 22.9,15 C23.3,14.2 23.3,13 23.1,11.9 C23.3,10.4 22,9.2 19.3,8.2 C17.3,7.5 15.1,7.4 13,7.4 C12.9,7.4 12.7,7.4 12.6,7.4 L12.6,7.2 C12.5,6.8 12.4,6.5 12.4,6.1 C12.2,5.3 12.1,4.5 11.8,3.7 C11.8,3.7 11.8,3.6 11.8,3.6 C11.9,3.4 11.9,3.3 11.9,3.2 C11.9,3 11.9,2.8 11.9,2.6 C11.8,2.1 11.5,1.8 11,1.8 C10.8,1.3 10.4,1 9.9,1 C9.8,1 9.8,1 9.7,1 C9.7,1 9.6,1 9.6,1 C9.5,0.9 9.2,0.8 9,0.8 C8.9,0.8 8.8,0.8 8.7,0.8 C8.6,0.8 8.4,0.8 8.3,0.9 C8.2,0.9 8.1,0.8 8,0.8 C7.6,0.8 7.2,1.1 7,1.5 C6.9,1.5 6.9,1.5 6.8,1.5 C6.4,1.5 5.9,1.6 5.5,1.6 C5.4,1.6 5.3,1.6 5.2,1.6 C5.1,1.6 4.9,1.6 4.8,1.6 C4.2,1.6 3.5,1.7 3,2 C2.5,2.3 2.3,2.9 2.5,3.5 C2.6,4.2 3.2,5 3.9,5.1 C3.9,5.1 4,5.1 4,5.1 C4.1,5.1 4.1,5.1 4.2,5.1 C4.4,5.1 4.6,5.1 4.8,5 L4.9,5 C5.1,5 5.2,4.9 5.4,4.9 C5.9,4.8 6.4,4.7 6.9,4.5 C7,4.5 7.1,4.5 7.1,4.4 C7.2,4.5 7.3,4.5 7.4,4.5 C7.5,4.5 7.5,4.5 7.6,4.5 C7.6,4.5 7.7,4.5 7.7,4.5 C7.8,4.7 8.1,4.9 8.3,5 C8.4,5 8.5,5 8.6,5 C8.7,5 8.8,5 8.8,5 C8.8,5.3 8.9,5.6 8.9,5.9 L8.9,6.1 C8.9,6.1 8.9,6.2 8.9,6.2 C8.9,6.7 9,7.1 9,7.6 C9,7.6 8.9,7.6 8.9,7.6 C6.7,7.9 4.2,8.3 2.4,9.7 C1.3,10.6 0.8,11.5 0.9,12.5 C0.6,13.9 0.8,15 1.6,15.8 C2,18.7 2.5,21.4 2.9,24 L4,30.1 C4.1,30.5 4.1,31 4.2,31.5 C4.4,32.9 4.6,34.3 5.1,35.5 C5.2,35.7 5.3,35.8 5.4,35.8 C5.5,35.9 5.6,36 5.7,36.1 C5.8,36.2 5.8,36.2 5.8,36.3 C6.4,37 7.3,37.3 8.2,37.6 C9.4,38 10.8,38.2 12.4,38.2 C12.5,38.2 12.5,38.2 12.6,38.2 C13.7,38.2 14.8,38 15.9,37.7 C15.8,38.2 16,37.3 15.3,37.5 Z M7.5,4.2 C6.4,4.5 5.3,4.9 4.1,4.9 C3.7,4.6 3.5,4.2 3.6,3.6 C3.6,3.5 4.5,3.4 4.6,3.3 C5.5,3.1 6.5,3.1 7.5,2.9 C7.6,2.9 7.6,2.9 7.6,2.8 C7.6,2.8 7.6,2.8 7.7,2.8 C7.9,3.2 7.7,3.8 7.5,4.2 Z M10.6,3.4 C10.7,3.4 10.8,3.3 10.9,3.4 C10.9,3.4 10.9,3.4 10.9,3.4 C10.9,3.5 10.9,3.5 10.9,3.6 C10.9,3.9 10.8,4.1 10.8,4.3 C10.6,4.5 10.4,4.6 10.2,4.8 C10.2,4.8 10.2,4.9 10.2,4.9 C10.4,4.8 10.6,4.7 10.8,4.6 C10.8,4.6 10.8,4.6 10.9,4.6 C11,5.7 11.3,6.9 11.5,7.9 C11.7,8.8 11.9,9.7 12,10.7 C12,10.9 12.1,11.2 12.1,11.4 C12.1,11.4 12.1,11.5 12.2,11.5 C12,11.6 11.7,11.7 11.4,11.7 C11.3,11.7 11.1,11.7 11,11.6 C11,11.6 11,11.5 11,11.4 C10.4,9.6 10.3,7.8 9.9,6 C9.9,6 9.9,6 9.9,6 C9.9,5.7 9.7,5.3 9.7,5 C9.7,5 9.7,4.9 9.6,4.9 C9.8,4.7 10,4.3 10.1,4.1 C10.2,3.9 10.4,3.6 10.4,3.3 C10.5,3.4 10.5,3.4 10.6,3.4 Z M12.8,11.4 C12.8,11.4 12.8,11.4 12.8,11.4 C12.8,11.1 12.7,10.9 12.7,10.7 C13.5,10.7 17,11.1 16.6,11.8 C15.9,12.9 13.7,12.8 12.6,12.9 C11.4,13 10.1,13 8.9,12.7 C8.3,12.6 6.2,12.3 7.4,11.5 C8.2,11 9.4,10.9 10.3,10.8 C10.4,11.1 10.5,11.4 10.6,11.7 C10.7,11.9 10.8,11.9 10.9,11.9 C11.1,12 11.3,12.1 11.5,12.1 C12,12.2 12.6,12.1 12.9,11.7 C12.9,11.6 12.9,11.5 12.8,11.4 Z M16.9,12.1 C17,12.3 17.1,12.6 17.2,12.8 C15.5,13.7 13.6,14 11.7,14.1 C9.8,14.2 7.9,13.9 6.3,12.9 C6.4,12.8 6.4,12.6 6.4,12.5 C6.4,12.5 6.4,12.4 6.4,12.4 C6.5,12.5 6.6,12.6 6.7,12.7 C8.2,13.8 10.8,13.6 12.5,13.5 C13.6,13.4 16.3,13.3 16.9,12.1 Z M8,4.1 C8.1,3.8 8.1,3.5 8.1,3.3 C8.1,3.1 8,2.8 7.9,2.6 C7.9,2.6 7.9,2.6 7.9,2.6 C8,2.4 8.2,2.3 8.3,2.4 C8.4,2.8 8.4,3.1 8.4,3.5 C8.3,3.8 8.2,4 8.1,4.3 C8.1,4.2 8,4.1 8,4.1 Z M8.5,4.7 C8.5,4.6 8.4,4.5 8.4,4.5 C8.8,4 8.8,3.1 8.5,2.5 C8.6,2.5 8.6,2.5 8.7,2.4 C8.9,2.1 9.1,2.5 9.3,2.7 C9.3,3 9.2,3.3 9.1,3.6 C9,3.9 8.9,4.1 8.7,4.3 C8.7,4.5 8.6,4.6 8.5,4.7 Z M9.2,4.9 C9.1,4.9 9,4.9 8.9,5 C8.9,5 8.9,5 8.8,5 C9.2,4.8 9.4,4.2 9.5,3.8 C9.6,3.5 9.7,3.1 9.6,2.7 C9.6,2.7 9.7,2.7 9.7,2.6 C9.9,2.5 10,2.7 10.1,2.9 C9.9,3.2 9.8,3.6 9.6,3.9 C9.6,4.2 9.2,4.5 9.2,4.9 Z M4.6,10.6 C6.3,9.8 8.1,9.6 9.9,9.4 C9.9,9.5 10,9.7 10,9.8 C9.9,9.8 9.9,9.8 9.8,9.8 C9.5,9.9 9.3,9.9 9,10.1 C9,10.1 9,10.1 9,10.1 C9.2,10.1 9.5,10.1 9.7,10.1 C9.8,10.1 9.9,10.1 10,10.1 C10,10.3 10.1,10.4 10.1,10.6 C9,10.6 7.8,10.6 6.8,11.3 C6.5,11.5 6.3,11.7 6.3,12 C6.2,12.1 6.2,12.2 6.1,12.2 C6,12.4 5.7,12.7 5.8,13 C5.8,13 5.8,13.1 5.8,13.1 C6.2,13.8 7.2,14 7.8,14.2 C9,14.5 10.3,14.6 11.6,14.6 C12.8,14.6 14,14.5 15.2,14.2 C15.9,14 16.8,13.8 17.3,13.2 C17.4,13.2 17.4,13.2 17.5,13.1 C17.7,12.6 17.3,12.1 16.9,11.6 C16.7,10.3 13.3,10.3 12.5,10.4 C12.5,10.3 12.5,10.2 12.4,10.1 C14.2,10.1 15.8,10.5 17.5,10.7 C17.5,10.7 17.5,10.6 17.5,10.6 C15.9,9.9 14.1,9.8 12.3,9.8 C12.3,9.8 12.3,9.7 12.3,9.7 C13.3,9.9 14.5,9.8 15.5,9.8 C15.5,9.8 15.5,9.8 15.5,9.8 C15,9.6 14.5,9.6 13.9,9.6 C13.4,9.6 12.8,9.4 12.2,9.4 C12.2,9.4 12.2,9.3 12.2,9.3 C13.9,9.4 15.6,9.4 17.3,9.7 C18.6,9.9 22,10.9 21.8,12.7 C21.6,14 20.4,14.5 19.4,14.9 C18.3,15.3 17.2,15.6 16,15.9 C13.8,16.4 11.5,16.6 9.2,16.4 C7,16.3 4.3,15.9 2.6,14.3 C1.1,12.7 3.4,11.2 4.6,10.6 Z M1.9,14.2 C2,14.4 2.1,14.5 2.2,14.7 C2.9,15.5 4,15.9 5,16.2 C6.4,16.6 7.8,16.8 9.2,17 C11.9,17.2 14.7,16.8 17.3,16.2 C19,15.8 21.1,15.3 22,13.8 C22,14.5 21.9,15.2 21.6,15.6 C20.8,16.6 19.4,17 18.2,17.4 C15.5,18.1 12.6,18.4 9.8,18.2 C7.7,18.1 5.6,17.7 3.7,16.8 C3.2,16.6 2.6,16.3 2.2,15.8 C2,15.4 1.9,14.8 1.9,14.2 Z" id="Shape" fill-rule="nonzero"></path>
                        </g>
                        <g transform="translate(11.000000, 18.000000)">
                            <g transform="translate(4.000000, 20.000000)" id="Path">
                                <path d="M8.1,4.8 C7.8,4.8 7.5,4.8 7.2,4.8 C5,4.7 2.4,4.6 0.2,5.1 C-1.42177936e-14,5.1 -1.42177936e-14,5.4 0.2,5.5 C2.2,5.9 4.5,5.7 6.6,5.7 C8.1,5.7 9.7,5.8 11.2,5.9 C10.1,5.6 9.1,5.3 8.1,4.8 Z"></path>
                                <path d="M31.4,5.5 C29.1,5.3 26.7,5.5 24.4,5.6 C23.7,5.6 22.9,5.6 22.2,5.6 C21.4,5.9 20.7,6.1 19.8,6.1 C19.6,6.1 19.3,6.1 19.1,6.1 C23.2,6.5 27.4,6.2 31.5,5.7 C31.5,5.6 31.5,5.5 31.4,5.5 Z"></path>
                                <path d="M35.9,2.7 C33.8,2.5 31.8,2.7 29.7,2.7 C29.4,3 29.1,3.2 28.6,3.4 C28.6,3.4 28.6,3.4 28.6,3.4 C31,3.3 33.5,3.1 35.9,2.8 C36,2.8 35.9,2.7 35.9,2.7 Z"></path>
                                <path d="M34.2,0.4 C33.1,0.3 32.1,0.3 31,0.3 C31,0.5 31,0.6 30.9,0.8 C30.9,0.8 30.9,0.9 30.9,0.9 C32,0.8 33.2,0.7 34.3,0.5 C34.4,0.5 34.3,0.4 34.2,0.4 Z"></path>
                            </g>
                            <g transform="translate(2.000000, 23.000000)" id="Path">
                                <path d="M7.7,0.4 C5.4,0.4 3.1,0.4 0.9,0.7 C0.8,0.7 0.8,0.9 0.9,1 C3.4,1.4 6.1,1.1 8.6,1 C8.2,0.8 7.9,0.6 7.7,0.4 Z"></path>
                                <path d="M37.8,1.4 C36.7,0.9 35.4,1 34.2,0.9 C32.8,0.8 31.4,0.7 30,0.6 C29.8,0.7 29.5,0.8 29.3,0.9 C29,1 28.7,1.1 28.4,1.2 C31.5,1.4 34.7,1.6 37.8,1.5 C37.9,1.6 37.9,1.5 37.8,1.4 Z"></path>
                            </g>
                            <g transform="translate(0.000000, 21.000000)" id="Path">
                                <path d="M40.7,0.5 C38.7,0.3 36.8,0.3 34.8,0.2 C34.6,0.5 34.5,0.7 34.3,1 C36.5,1 38.6,0.9 40.8,0.7 C40.8,0.7 40.8,0.6 40.7,0.5 Z"></path>
                                <path d="M7.8,0.6 C5.5,0.5 3.2,0.3 1.1,0.9 C0.8,1 0.9,1.4 1.2,1.4 C3.7,1.5 6.2,1.6 8.7,1.5 C8.4,1.3 8.1,1 7.8,0.6 Z"></path>
                            </g>
                            <g transform="translate(2.000000, 19.000000)" id="Path">
                                <path d="M4.9,1.1 C3.4,1.2 1.8,1.2 0.3,1.3 C1.42108547e-14,1.3 1.42108547e-14,1.7 0.3,1.7 C2,1.8 3.6,1.9 5.3,1.9 C5.2,1.7 5,1.4 4.9,1.1 Z"></path>
                                <path d="M36.9,0.7 C35.7,0.6 34.5,0.5 33.3,0.6 C33.3,0.8 33.2,1 33.2,1.2 C34.5,1.2 35.7,1.1 36.9,1 C37.1,0.9 37.1,0.7 36.9,0.7 Z"></path>
                            </g>
                            <g transform="translate(3.000000, 0.000000)">
                                <path d="M35.4,12.6 C35,11.5 33.5,10.8 32.6,10.5 C32.8,9.8 32.9,9.1 32.8,8.3 C32.6,6.6 31.4,4.7 29.9,3.5 C29.3,3 26.1,1.2 22.6,0.6 C21.6,0.4 20.5,0.3 19.5,0.2 C18.7,0.1 17.9,0.1 17,0.1 C15.9,0.1 14.8,0.2 13.7,0.3 C13.7,0.3 13.7,0.3 13.7,0.3 C13.6,0.3 13.6,0.3 13.5,0.3 C13.2,0.3 13,0.4 12.7,0.4 C10.8,0.7 9.2,1.2 7.5,2.1 C6,2.9 4,4.1 3,6.2 C2.3,7.6 1.6,10.4 3.2,11.9 C3.3,12 3.4,12 3.5,12.1 C3.3,12.3 3.1,12.4 2.9,12.6 C2.8,12.7 2.8,12.7 2.7,12.8 C2.3,13.1 1.9,13.3 1.7,13.8 C1.6,14 1.6,14.2 1.7,14.4 C1.6,14.5 1.5,14.7 1.4,14.7 C1.1,15.1 1.2,15.4 1.3,15.6 C1.4,15.7 1.5,15.8 1.6,15.9 C1.5,16 1.5,16.1 1.5,16.3 C1.5,16.4 1.5,16.5 1.5,16.6 C1.3,16.7 1.1,16.7 1,16.9 C0.6,17.3 0.6,17.9 1,18.3 C1.2,18.5 1.5,18.5 1.8,18.5 C1.9,18.5 2,18.5 2,18.5 C2,18.7 2.1,19.1 2.3,19.3 C2.5,19.5 2.7,19.6 2.9,19.6 C2.9,19.6 2.9,19.6 2.9,19.6 C2.9,19.9 2.9,20.1 2.9,20.4 C2.9,20.5 2.9,20.6 2.9,20.7 C2.9,20.8 3,21 3,21.1 C3.1,21.6 3.4,22.1 3.9,22.4 C6,24.4 8.8,25.7 11.8,26.2 C13.4,26.5 15.1,26.6 16.9,26.6 C18.4,26.6 19.9,26.5 21.5,26.3 C22.5,26.2 23.5,25.9 24.4,25.6 C24.9,25.5 25.4,25.3 25.9,25.2 C27.4,24.9 28.7,24.3 29.9,23.8 C30.8,23.4 31.9,22.8 32.3,21.8 C32.6,21 32.7,20.1 32.7,19.3 C32.8,19.3 32.9,19.2 32.9,19.2 C33.1,19.1 33.3,18.8 33.4,18.4 C33.4,18.2 33.4,18 33.3,17.8 C33.3,17.8 33.3,17.8 33.3,17.7 C33.4,17.6 33.5,17.4 33.6,17.2 C33.7,16.9 33.6,16.4 32.9,16.1 C32.8,16.1 32.8,16 32.8,16 C32.8,16 32.8,15.9 32.8,15.8 C32.8,15.6 32.8,15.4 32.7,15.1 C32.6,15 32.5,14.8 32.4,14.8 C32.4,14.7 32.4,14.6 32.4,14.6 C32.4,14.3 32.3,13.9 32.2,13.6 C32.2,13.6 32.2,13.6 32.2,13.6 C32.2,13.6 32.3,13.6 32.3,13.6 C32.4,13.6 32.6,13.5 32.8,13.5 L32.9,13.5 C33.1,13.5 33.3,13.5 33.5,13.5 C34.1,13.5 34.6,13.5 35.2,13.3 C35.4,13.3 35.6,12.9 35.4,12.6 Z M32.3,17.6 C32,17.8 32.1,18.1 32.3,18.3 C32.5,18.6 32.3,18.6 32,18.5 C31.9,18.4 31.8,18.4 31.8,18.4 C31.7,18.4 31.6,18.3 31.6,18.3 C31.4,18.2 31.2,18.2 31,18.2 C30.9,18.2 30.8,18.3 30.8,18.4 C30.9,19.1 30.3,18.8 29.8,18.8 C29.7,18.8 29.6,18.9 29.6,19 C29.7,19.2 29.7,19.4 29.8,19.6 C29.6,19.6 29.4,19.6 29.2,19.6 C29,19.6 29,19.9 29.1,20 C28.9,20.2 28.7,20.2 28.5,20.1 C28.5,20 28.6,20 28.6,19.9 C28.7,19.8 28.5,19.6 28.3,19.7 C28.3,19.7 28.3,19.8 28.2,19.8 C28.1,19.7 27.9,19.8 28,20 C28,20 28,20 28,20 C27.4,20.5 27.1,19.4 26.5,19.4 C26.1,19.4 25.9,19.8 25.8,20.1 C25.7,21 24.6,20 24.2,20 C23.8,20 23.3,21.4 22.9,21.2 C22.5,21 22,20.7 21.5,20.8 C21.4,20.8 21.4,20.8 21.3,20.9 C21.2,20.8 21.1,20.7 21,20.7 C20.7,20.5 20.5,20.3 20.2,20.1 C19.9,19.8 19.7,19.6 19.4,19.3 C19.3,19.3 19.3,19.3 19.3,19.4 C19.6,19.9 20,20.4 20.5,20.7 C20.7,20.9 20.9,21 21.1,21.2 C21.1,21.2 21.1,21.3 21.1,21.3 C21.2,21.6 21.5,21.9 21.7,22.1 C21.5,22.4 21.3,22.4 21,22.3 C20.7,22.2 20.6,22.1 20.6,22 C20.6,22 20.6,21.9 20.6,21.9 C20.5,21.1 19.4,20.6 18.9,20.1 C18.9,20.1 18.9,20.1 18.9,20.1 C19.2,20.6 19.8,21 20.1,21.5 C20.1,21.5 20.1,21.5 20.1,21.5 C19.8,21.6 19.7,21.8 19.6,22.1 C19.5,22.6 19.1,22.4 18.8,22.2 C18.7,22.1 18.4,22.2 18.3,22.2 C18.1,22.3 18,22.5 17.8,22.7 C17.4,23.3 17.1,22.5 16.7,22.4 C16.5,22.4 15.4,22.5 15.5,22.1 C15.5,21.8 15.6,21.6 15.5,21.3 C15.5,21.2 15.5,21.2 15.4,21.2 C15.5,21.1 15.5,21.1 15.6,21 C16,20.6 16.4,20.1 16.9,19.8 C16.9,19.8 16.9,19.7 16.9,19.7 C16.4,19.9 16,20.2 15.6,20.5 C15.3,20.8 14.9,21 14.6,21.4 C14.3,21.5 14.1,21.8 14,22.1 C13.9,22.4 13.8,23 13.4,22.6 C13.2,22.4 13,22.3 12.7,22.3 C12.1,22.4 12.1,21.5 11.4,21.8 C11.3,21.8 10.8,22 10.6,21.9 C10.6,21.8 10.6,21.8 10.6,21.7 C10.5,21.6 10.5,21.4 10.6,21.3 C10.6,21.3 10.6,21.3 10.6,21.3 C11,20.8 12.1,20.3 12.3,20.1 C12.4,20.1 12.3,20 12.3,20 C11.9,20.1 11,20.5 10.5,20.9 C10.4,20.9 10.4,20.9 10.3,20.9 C10.3,20.9 10.3,20.9 10.3,20.9 C10.3,20.8 10.2,20.7 10.1,20.7 C9.9,20.6 9.7,20.5 9.4,20.5 C9,20.5 8.3,20.9 8.2,20.3 C8.2,20.1 7.9,19.9 7.7,19.9 C7.2,20 7.1,20.1 7.1,19.5 C7.1,19.3 7,19 6.8,18.9 C6.5,18.5 5.9,19 5.6,19.2 C5.6,19.2 5.6,19.2 5.6,19.2 C5.6,19.1 5.4,19 5.3,19 C4.9,19.1 4.3,19.4 4,18.9 C3.9,18.7 3.7,18.5 3.5,18.5 C3.2,18.5 3.1,18.6 2.8,18.7 C2.3,19 2.3,18.1 2.2,18 C2.1,17.9 1.9,17.8 1.7,17.8 C1.6,17.8 1.5,17.8 1.3,17.8 C0.7,17.9 1.2,17.6 1.4,17.5 C1.8,17.4 2.3,17.2 2.4,16.7 C2.4,16.6 2.4,16.5 2.3,16.5 C2.2,16.4 1.6,16.5 2,16.2 C2.2,16 2.3,15.9 2.4,15.7 C2.5,15.5 2.3,15.4 2.2,15.5 C1.1,15.7 1.8,14.6 2.4,14.6 C2.4,14.6 2.4,14.6 2.4,14.6 C2.8,14.7 3.1,14.7 3.5,14.7 C3.1,15.2 3.3,16.2 3.5,16.6 C4,17.6 5.3,18.2 6.4,18 C6.7,17.9 7,19.3 7.6,18.6 C7.7,18.4 7.8,18.4 7.8,18.2 C7.9,17.8 8.2,17.9 8.5,18 C8.6,18 8.7,17.9 8.8,17.9 C9.3,17.5 9.1,18 9.1,18.3 C9.1,18.4 9.2,18.5 9.3,18.5 C10,18.6 9.5,19.2 9.5,19.6 C9.5,19.7 9.6,19.8 9.7,19.8 C10.2,19.8 10.6,19.3 11,19.6 C11.3,19.7 11.6,19.6 11.8,19.4 C12,19.7 12.2,19.9 12.6,19.5 C12.7,19.4 13.3,18.7 13.4,19.4 C13.4,19.5 13.4,19.7 13.5,19.8 C13.6,20.1 13.8,20.2 14.1,20.2 C14.2,20.2 14.3,20.1 14.3,20 C14.4,20 14.4,19.9 14.5,19.9 C14.8,19.7 15.2,19.8 15.6,19.7 C15.8,19.7 16,19.5 16.1,19.3 C16.2,19.1 16.2,19 16.3,18.8 C16.6,19 17,19.1 17.4,19.2 C17.4,19.2 17.5,19.2 17.5,19.2 C17.6,19.2 17.7,19.3 17.7,19.2 C18.2,19 18.5,18.6 19,18.3 C19.1,18.3 19.1,18.2 19.2,18.2 C19.6,18.4 19.7,19.2 20.2,19.2 C20.3,19.2 20.4,19.2 20.5,19.1 C20.7,18.4 21.3,19.3 21.7,19.4 C22.2,19.5 22.5,18.7 23,19.4 C23.1,19.6 23.3,19.6 23.5,19.5 C23.6,19.4 23.7,19.2 23.8,19.1 C24.2,18.6 24.2,18.7 24.7,19 C24.8,19.1 24.9,19 25,18.9 C25,18.8 25.2,17.6 25.7,18.3 C25.8,18.5 25.9,18.6 26.1,18.7 C26.4,18.9 26.7,18.8 27,18.6 C27.4,18.3 27.4,17.9 28.1,17.8 C28.4,17.8 28.7,17.9 29,17.9 C29.2,17.9 29.3,17.8 29.5,17.7 C29.8,17.5 30,17.3 30.3,17.2 C30.4,17.2 30.5,17.1 30.5,17 C30.5,16.6 30.9,16.7 31,16.5 C31.2,16.3 31.2,16.3 31.3,16 C31.3,16 31.3,15.9 31.3,15.8 C31.3,15.8 31.4,15.8 31.4,15.7 C31.5,15.9 31.4,16.2 31.5,16.5 C31.9,16.9 33.1,17.2 32.3,17.6 Z M28.8,21.7 C29.2,21.7 29.7,21.7 30.1,21.7 C29.5,21.9 28.9,22.1 28.4,22.4 C28.4,22.4 28.4,22.5 28.4,22.5 C29.3,22.4 30.2,22.3 31.1,22 C31.1,22 31.1,22 31.1,22 C30.3,22.4 29.5,22.7 28.7,23 C28,23.2 27.1,23.2 26.4,23.5 C26.4,23.5 26.4,23.5 26.4,23.5 C27.2,23.6 28,23.4 28.8,23.2 C29.3,23.1 29.8,22.9 30.3,22.8 C29.6,23.2 28.8,23.4 28.2,23.7 C27,24.2 25.7,24.5 24.4,24.9 C23,25.4 21.6,25.6 20,25.8 C17.2,26 14.3,26 11.5,25.5 C10.1,25.3 8.7,24.8 7.4,24.2 C6.8,23.9 6.2,23.5 5.6,23.1 C6,23.3 6.5,23.5 6.9,23.7 C7.5,24 8.2,24.4 8.9,24.4 C8.9,24.4 9,24.3 8.9,24.3 C8.5,23.9 7.9,23.8 7.4,23.5 C6.9,23.2 6.4,22.8 5.9,22.5 C5.1,22 4.5,21.6 3.9,21 C4.4,21.4 5,21.7 5.6,22 C6.2,22.4 6.8,22.9 7.6,22.8 C7.6,22.8 7.7,22.7 7.6,22.7 C6.8,22.3 6,21.7 5.3,21.1 C5.7,21.2 6.2,21.3 6.6,21.4 C6.7,21.4 6.7,21.3 6.7,21.3 C6,20.9 5.1,20.5 4.4,20 C4.9,20.3 5.6,20.4 6,20.4 C6.1,20.4 6.1,20.3 6.1,20.3 C5.8,20 5.4,19.9 5,19.7 C5,19.7 5,19.7 4.9,19.7 C5.1,19.6 5.2,19.6 5.4,19.5 C5.4,19.5 5.4,19.5 5.4,19.6 C5.4,19.7 5.6,19.8 5.7,19.8 C6,19.8 6.2,19.7 6.4,19.5 C6.9,19.1 6.8,19.7 6.8,20.1 C6.8,20.9 7.8,20.3 7.9,20.7 C8.1,21.5 9,21.1 9.5,21.1 C9.9,21.1 10,21.4 10.1,21.5 C10.2,21.8 10.1,22.3 10.5,22.4 C10.8,22.5 11.1,22.5 11.5,22.4 C12.2,22.2 11.9,22.8 12.4,22.9 C12.8,23 13,22.8 13.3,23.1 C13.5,23.3 13.7,23.4 14,23.3 C14.1,23.3 14.2,23.1 14.3,23 C14.5,22.4 14.7,21.9 15.4,21.7 C15.4,22.3 15.1,22.8 15.9,23 C16.4,23.2 16.8,22.9 17.2,23.3 C17.4,23.5 17.7,23.4 18,23.4 C18.2,23.3 18.4,23 18.5,22.9 C18.8,22.4 19.2,23.1 19.5,23.1 C20.3,23.1 20,22.2 20.4,22 C20.5,22.4 20.6,22.7 21,22.9 C21.4,23.1 22,23.1 22.3,22.7 C22.5,22.3 22.3,22 22,21.8 C21.9,21.7 21.9,21.7 21.9,21.6 C21.9,21.6 21.9,21.6 21.9,21.5 C21.9,21.3 22.6,21.6 22.9,21.8 C23.1,21.9 23.4,22.1 23.6,22 C23.8,21.9 24,21.9 24.1,21.7 C24.2,21.5 24.3,20.6 24.8,20.9 C25.4,21.3 25.8,21.4 26.3,20.9 C26.4,20.8 26.4,20.6 26.4,20.4 C26.4,19.6 27.4,20.6 27.6,20.7 C27.9,20.9 28.2,20.7 28.4,20.5 C28.7,20.9 29.2,21.3 29.6,21.1 C29.9,20.9 29.9,20.6 29.7,20.3 C29.8,20.3 29.9,20.3 29.9,20.3 C30,20.3 30,20.3 30.1,20.3 C30.4,20.4 30.7,20.4 31.1,20.3 C31.3,20.3 31.5,20.2 31.7,20.1 C31.7,20.1 31.7,20.1 31.7,20.2 C31.5,20.2 31.4,20.3 31.2,20.4 C30.8,20.5 30.5,20.6 30.1,20.7 C30,20.7 30,20.8 30.1,20.9 C30.5,21 30.8,20.9 31.2,20.8 C31.3,20.8 31.4,20.8 31.5,20.7 C31.2,20.8 30.9,20.9 30.5,21 C30.1,21.1 29.7,21.1 29.4,21.3 C29.4,21.3 29.4,21.4 29.4,21.4 C29.8,21.4 30.2,21.3 30.6,21.3 C30.9,21.3 31.2,21.2 31.5,21.1 C31.5,21.1 31.5,21.2 31.5,21.2 C30.7,21.2 29.8,21.5 28.8,21.7 C28.8,21.7 28.8,21.7 28.8,21.7 Z M31.6,19.1 C31.2,19.3 30.9,19.4 30.5,19.5 C30.4,19.5 30.4,19.6 30.5,19.6 C30.9,19.6 31.3,19.5 31.6,19.3 C31.6,19.3 31.6,19.3 31.6,19.3 C31.4,19.4 31.2,19.5 31,19.5 C30.7,19.6 30.4,19.7 30.1,19.7 C30.1,19.4 30,19.2 29.9,19 C30.2,19 30.6,19.2 30.8,19 C30.8,19 30.8,19 30.8,19 C30.8,19 30.8,19 30.9,19 C31.2,19.2 31.4,19.2 31.6,19.1 Z M31.2,18.8 C31.3,18.7 31.3,18.7 31.4,18.7 C31.4,18.7 31.4,18.7 31.4,18.7 C31.3,18.8 31.2,18.8 31.2,18.8 Z M7.3,3.3 C8.9,2.4 10.4,1.8 12.2,1.5 C13.9,1.2 15.6,1.2 17.3,1.1 C18.4,1.1 19.4,1.2 20.5,1.3 C23.8,1.7 29.8,3.7 31.3,7 C31.7,7.8 31.9,8.6 31.8,9.5 C31.7,10.6 31,11.1 30.3,11.8 C29.8,12 29.3,12 28.8,12.1 C27.6,12.2 26.4,12.5 25.2,12.8 C23.6,13.2 22.1,13.6 20.5,13.9 C20.3,13.8 20.2,13.9 20.1,14 C19.2,14.2 18.3,14.3 17.3,14.4 C13.8,14.7 10.1,14.1 6.8,13 C5.8,12.7 4.9,12.2 4,11.7 C2.5,10.9 3,9.3 3.2,8 C3.8,5.7 5.4,4.3 7.3,3.3 Z M31.2,15.6 C31.2,15.9 31.1,16.3 30.7,16.4 C30.6,16.4 30.5,16.5 30.5,16.5 C30.4,16.6 30.4,16.6 30.4,16.7 C30.3,17 30.4,16.8 30.1,16.9 C29.8,17 29.5,17.6 29.2,17.6 C28.8,17.6 28.4,17.5 28,17.6 C27.7,17.7 27.5,17.9 27.3,18.1 C26.8,18.8 26.3,18.1 25.9,17.8 C25.4,17.5 25.2,18 25.1,18.4 C25,18.3 24.9,18.3 24.8,18.2 C24.6,18.1 24.5,17.9 24.4,17.7 C24.1,17.4 23.9,17.1 23.5,16.9 C23.5,16.9 23.5,16.9 23.5,16.9 C23.8,17.2 24,17.6 24.3,18 C24.4,18.1 24.4,18.2 24.5,18.3 C24.3,18.3 24.1,18.6 23.8,19 C23.7,19.1 23.3,18.7 23.1,18.7 C22.8,18.6 22.1,19.1 21.9,18.9 C21.6,18.5 21,18.1 20.6,18.7 C20.6,18.7 20.3,18.3 20,18 C20.3,17.8 20.6,17.7 20.9,17.5 C21.9,17 22.7,16.3 23.7,15.8 C23.7,15.8 23.7,15.8 23.8,15.7 C24.9,15.7 26.1,15.6 27.2,15.4 C28.4,15.2 29.6,15 30.6,14.3 C30.6,14.3 30.6,14.3 30.6,14.3 C30.9,14.5 31,14.7 30.9,15 C30.8,15.4 30.4,15.4 30.1,15.5 C29.8,15.6 29.7,15.7 29.5,15.9 C29.4,16 29.4,16.1 29.4,16.3 C29.2,16.7 28.8,16.3 28.6,16.2 C28.2,16.1 28.1,16.2 27.8,16.4 C27.8,16.4 27.8,16.5 27.8,16.4 C28.1,16.3 28.5,16.4 28.8,16.6 C28.9,16.7 29.2,16.8 29.4,16.7 C30,16.5 29.9,15.7 30.6,15.6 C31.4,15.5 31.7,14.4 31,14 C31,14 31.1,14 31.1,13.9 C31.3,13.8 31.5,13.6 31.6,13.4 C31.7,13.7 31.7,14 31.8,14.3 C31.8,14.5 31.8,14.7 31.8,14.8 C31.8,14.8 31.8,14.8 31.7,14.8 C31.7,14.8 31.7,14.8 31.7,14.8 C31.7,14.8 31.7,14.8 31.7,14.8 C31.1,15.3 31.1,15.4 31.2,15.6 Z M13.9,18.1 C13.8,18.2 13.7,18.3 13.6,18.5 C13.5,18.7 13.4,18.8 13.2,18.9 C13.2,18.9 13.2,19 13.2,19 C13,19.2 12.8,19.4 12.7,18.9 C12.7,18.7 12.5,18.7 12.3,18.8 C11.7,19.3 11.9,18.8 11.3,18.8 C11.3,18.8 11.3,18.8 11.3,18.8 C11.4,18.7 11.4,18.6 11.4,18.6 C11.6,18.3 11.8,18 12,17.7 C12,17.7 12,17.6 11.9,17.6 C11.6,17.8 11.4,18 11.2,18.3 C11.1,18.4 11,18.6 10.9,18.7 C10.8,18.8 10.8,18.9 10.8,19 C10.7,19.1 10.6,19.1 10.5,19.2 C10.6,18.6 10.8,18.2 10,18 C10,17.6 10.1,16.9 9.5,17.1 C9.1,17.2 8.8,17.4 8.3,17.4 C8.3,17.4 8.3,17.4 8.2,17.4 C8.8,17 9.6,16.7 10.2,16.5 C10.2,16.5 10.2,16.5 10.2,16.4 C10.7,16.4 11.1,16.5 11.6,16.5 C12,16.5 12.4,16.5 12.8,16.5 C12.8,16.6 12.8,16.7 12.9,16.7 C14.2,17.1 15.2,17.9 16.4,18.6 C16.4,18.7 16.3,18.8 16.3,18.9 C16.1,19.4 15.7,19.2 15.3,19.3 C15,19.4 14.7,19.5 14.4,19.6 C14.2,19.3 14.3,18.6 13.8,18.6 C13.8,18.6 13.7,18.6 13.7,18.6 C13.8,18.5 13.8,18.3 13.9,18.1 C13.9,18.1 13.9,18.1 13.9,18.1 Z M7.7,17.7 C7.7,17.7 7.7,17.7 7.7,17.7 C7.6,17.9 7.6,18 7.5,18.1 C7.4,18 7.3,17.9 7.2,17.8 C7.1,17.6 6.8,17.5 6.7,17.5 C5.9,17.7 5.3,17.5 4.6,16.9 C4.2,16.6 3.4,15.2 4,14.7 C4,14.7 4,14.7 4,14.7 C4.2,14.7 4.4,14.7 4.6,14.7 C4.5,14.8 4.4,15 4.4,15.2 C4.3,15.7 4.8,15.9 5.1,16 C5.2,16 5.3,16 5.4,16 C5.6,15.9 5.5,16.2 5.5,16.3 C5.4,16.5 5.5,16.6 5.6,16.7 C5.7,16.8 5.9,16.8 6,16.8 C6.1,16.8 6.2,16.7 6.3,16.7 C6.4,16.7 6.6,16.7 6.7,16.7 C6.7,16.7 6.8,16.6 6.8,16.6 C6.8,16.6 6.8,16.6 6.8,16.5 C6.8,16.5 6.7,16.4 6.7,16.4 C6.4,16.3 6.2,16.5 6,16.5 C5.7,16.6 5.9,16.2 6,16.1 C6,15.9 6,15.8 5.9,15.7 C5.7,15.4 5.5,15.6 5.2,15.5 C5,15.4 4.8,15.3 4.8,15.1 C4.9,14.8 5.1,14.8 5.2,14.7 C5.5,14.7 5.8,14.7 6.1,14.7 C6.5,15 6.9,15.3 7.2,15.5 C8,16.1 8.9,16.3 9.9,16.4 C9.6,16.4 9.2,16.6 8.9,16.7 C8.5,16.9 8,17.1 7.7,17.4 C7.6,17.5 7.7,17.6 7.7,17.7 Z M6.3,13.3 C6.5,13.4 6.7,13.5 6.9,13.6 C6.7,13.5 6.6,13.5 6.3,13.3 C6.4,13.4 6.4,13.3 6.3,13.3 Z M9.8,14.9 C9.6,14.8 9.5,14.8 9.3,14.7 C9.5,14.7 9.7,14.7 9.8,14.7 C9.9,14.7 9.9,14.6 9.8,14.5 C9.6,14.4 9.3,14.3 9.1,14.3 C9.1,14.3 9.2,14.3 9.2,14.3 C9.2,14.3 9.3,14.2 9.2,14.2 C9.1,14.1 9,14 8.8,14 C8.9,14 8.9,14 9,14 C10.5,14.3 11.9,14.6 13.4,14.7 C12.1,15 10.8,15.1 9.6,14.9 C9.7,15 9.8,15 9.8,14.9 C9.9,15 9.9,15 9.8,14.9 Z M14,15.2 C14,15.3 14,15.3 14,15.2 C14,15.3 13.9,15.4 13.8,15.4 C13.8,15.4 13.8,15.4 13.8,15.4 C14.1,15.4 14.4,15.4 14.7,15.3 C14.5,15.4 14.2,15.4 14,15.5 C13.9,15.5 13.9,15.7 14,15.7 C14.4,15.7 14.9,15.6 15.3,15.6 C15.1,15.7 15,15.7 14.9,15.8 C14.9,15.8 14.9,15.8 14.9,15.8 C15.5,15.8 16.2,15.7 16.8,15.5 C16.5,15.6 16.3,15.7 16,15.7 C14.8,16 13.5,16 12.3,16 C11,16 9.6,16 8.4,15.6 C8.6,15.6 8.8,15.7 9,15.7 C9.1,15.7 9.1,15.6 9.1,15.6 C8.9,15.5 8.7,15.3 8.4,15.1 C10.2,15.8 12.1,15.7 14,15.2 Z M14.2,15.3 C14.4,15.2 14.5,15.2 14.7,15.1 C14.5,15.1 14.4,15.2 14.2,15.3 Z M16.8,15.3 C17.1,15.2 17.3,15.1 17.6,14.9 C17.6,14.9 17.6,14.9 17.6,14.8 C17.6,14.8 17.7,14.8 17.7,14.8 C17.4,15 17.1,15.2 16.8,15.3 Z M13.6,16.6 C15.6,16.6 17.8,16.3 18.8,14.7 C18.9,14.7 18.9,14.7 19,14.7 C19.6,15.5 20.9,15.7 21.8,15.8 C22.1,15.8 22.4,15.9 22.8,15.9 C22.1,16.2 21.5,16.7 20.8,17 C19.8,17.5 18.8,18 18,18.8 C18,18.8 18,18.8 18,18.8 C16.4,18.3 15.2,17 13.6,16.6 Z M19.3,14.6 C19.4,14.6 19.4,14.6 19.3,14.6 C19.4,14.6 19.4,14.7 19.5,14.7 C19.8,14.9 20.2,15.1 20.7,15.2 C20.2,15.1 19.7,14.9 19.3,14.6 Z M28.2,12.9 C28.4,12.9 28.6,12.9 28.8,12.9 C28.9,12.9 28.9,12.9 29,12.9 C29,12.9 29,12.9 29,12.9 C28.5,13 28,13.1 27.5,13.2 C27.5,13.2 27.5,13.2 27.5,13.3 C28.2,13.6 29.1,13.3 29.9,13 C29.6,13.3 29.1,13.4 28.7,13.5 C28.2,13.6 27.7,13.7 27.2,13.9 C27.2,13.9 27.2,13.9 27.2,13.9 C27.6,13.9 28.1,13.9 28.6,13.8 C28.1,13.9 27.6,14 27.1,14.1 C25.4,14.4 23.7,14.3 21.9,14.3 C24.1,13.8 26.3,13.1 28.6,12.8 C28.5,12.7 28.3,12.8 28.2,12.9 C28.2,12.9 28.2,12.9 28.2,12.9 Z M29.7,13.9 C30,13.8 30.3,13.8 30.6,13.6 C30.4,13.8 30.1,13.9 29.9,14 C29.5,14.1 29.1,14.3 28.8,14.4 C28.8,14.4 28.8,14.5 28.8,14.5 C29.1,14.4 29.4,14.4 29.7,14.4 C29.6,14.4 29.5,14.5 29.4,14.5 C28.4,14.9 27.3,15 26.3,15.2 C25.4,15.3 24.6,15.4 23.7,15.4 C23.9,15.4 24.2,15.3 24.4,15.3 C24.5,15.3 24.5,15.1 24.4,15.1 C23.9,15 23.3,14.9 22.8,14.9 C22.9,14.9 23,14.8 23,14.8 C23,14.8 23,14.7 23,14.7 C22.7,14.7 22.4,14.7 22.1,14.6 C24,14.8 25.8,14.7 27.7,14.4 C28.2,14.3 29.1,14.1 29.8,13.8 C29.8,13.8 29.7,13.8 29.7,13.9 C29.6,13.9 29.6,13.9 29.7,13.9 Z M3.3,13.4 C3.6,13.1 4,12.8 4.2,12.4 C4.5,12.6 4.9,12.7 5.2,12.8 C5.2,12.8 5.2,12.8 5.2,12.8 C5.2,12.8 5.2,12.8 5.2,12.9 C5,13.3 5.3,13.8 5.7,14.1 C5.7,14.2 5.8,14.2 5.8,14.3 C4.7,14.2 3.6,14.1 2.5,14.2 C2.8,13.9 3,13.6 3.3,13.4 Z M31.8,12.9 C32,12.5 32,12 31.7,11.6 C31.8,11.5 31.9,11.3 32,11.2 C32.7,11.7 33.9,12 34.4,12.8 C33.6,12.8 32.6,12.5 31.8,12.9 Z" id="Shape" fill-rule="nonzero"></path>
                                <path d="M16.1,2.3 C16.7,2.7 17.3,2 17.4,1.4 C17.4,1.3 17.3,1.3 17.3,1.2 C16.9,1.1 16.4,1.1 16.2,1.5 C15.8,1.7 15.7,2.1 16.1,2.3 Z M16.2,1.8 C16.3,1.8 16.3,1.8 16.4,1.8 C16.5,1.7 16.6,1.6 16.7,1.6 C16.8,1.6 16.9,1.6 17,1.6 C17,1.9 16.6,2.2 16.3,2.2 C16.1,2.1 16.1,1.9 16.2,1.8 Z" id="Shape" fill-rule="nonzero"></path>
                                <path d="M14.1,2.8 C14.3,2.9 14.5,3 14.7,2.9 C14.9,2.9 15,2.8 15.1,2.7 C15.2,2.4 14.9,2.2 14.7,2.2 C14.5,2.2 14.4,2.2 14.2,2.3 C14.2,2.3 14.2,2.3 14.2,2.3 C14.1,2.3 14,2.4 14,2.5 C13.8,2.5 13.9,2.7 14.1,2.8 Z M14.3,2.5 C14.4,2.5 14.6,2.5 14.7,2.6 C14.7,2.6 14.7,2.6 14.7,2.6 C14.7,2.6 14.7,2.6 14.7,2.6 C14.7,2.6 14.7,2.6 14.7,2.6 C14.7,2.6 14.7,2.6 14.7,2.6 C14.7,2.6 14.7,2.6 14.7,2.6 C14.7,2.6 14.7,2.6 14.7,2.6 C14.7,2.6 14.7,2.6 14.7,2.6 C14.7,2.6 14.6,2.6 14.5,2.6 C14.4,2.6 14.3,2.6 14.1,2.5 C14.1,2.5 14.1,2.5 14,2.4 C14.2,2.5 14.2,2.5 14.3,2.5 Z" id="Shape" fill-rule="nonzero"></path>
                                <path d="M19,3.1 C19.1,3.1 19.3,3 19.4,2.9 C19.5,2.8 19.4,2.6 19.3,2.6 C19.2,2.5 19.1,2.4 18.9,2.4 C18.9,2.4 18.9,2.4 18.9,2.4 C18.9,2.4 18.9,2.4 18.9,2.4 C18.7,2.4 18.6,2.3 18.4,2.4 C18.3,2.5 18.2,2.6 18.2,2.8 C18.2,3 18.7,3.1 19,3.1 Z M18.5,2.5 C18.5,2.5 18.5,2.5 18.5,2.5 C18.6,2.5 18.6,2.5 18.7,2.5 C18.8,2.5 18.9,2.6 19,2.6 C19,2.6 19,2.6 19.1,2.7 C19.1,2.7 19.1,2.7 19.1,2.7 C19.1,2.7 19.1,2.7 19.1,2.7 C19.1,2.7 19.1,2.7 19,2.7 C18.9,2.7 18.5,2.8 18.5,2.6 C18.4,2.6 18.4,2.6 18.5,2.5 Z" id="Shape" fill-rule="nonzero"></path>
                                <path d="M17.3,4.1 C17.1,4.1 16.9,4.2 16.8,4.3 C16.6,4.7 17.1,4.8 17.4,4.8 C17.7,4.8 18,4.6 18,4.3 C18,4.1 17.9,4 17.8,4 C17.6,4 17.4,4 17.3,4.1 C17.3,4.1 17.3,4.1 17.3,4.1 Z M17.5,4.3 C17.5,4.3 17.5,4.3 17.5,4.3 C17.6,4.3 17.6,4.3 17.5,4.3 C17.6,4.3 17.6,4.4 17.6,4.4 C17.6,4.4 17.6,4.4 17.6,4.4 C17.6,4.4 17.6,4.4 17.6,4.4 C17.6,4.4 17.6,4.4 17.6,4.4 C17.6,4.4 17.6,4.4 17.6,4.4 C17.6,4.4 17.6,4.4 17.6,4.4 C17.6,4.4 17.6,4.4 17.6,4.4 C17.6,4.4 17.6,4.4 17.6,4.4 C17.6,4.4 17.6,4.4 17.6,4.4 C17.6,4.4 17.5,4.5 17.4,4.5 C17.3,4.5 17.2,4.5 17.1,4.5 C17.1,4.5 17.1,4.5 17.1,4.5 C17.1,4.3 17.3,4.4 17.5,4.3 C17.4,4.3 17.5,4.3 17.5,4.3 Z" id="Shape" fill-rule="nonzero"></path>
                                <path d="M15.7,3.6 C15.8,3.6 15.9,3.6 16,3.6 C16.3,3.7 16.7,3.6 16.9,3.3 C16.9,3.2 16.9,3.2 16.9,3.1 C16.5,2.7 15.6,2.8 15.6,3.5 C15.5,3.5 15.6,3.6 15.7,3.6 Z M16.5,3.2 C16.4,3.3 16.3,3.3 16.1,3.4 C16.1,3.4 16.1,3.4 16.1,3.4 C16,3.3 16,3.3 15.9,3.3 C16,3.1 16.3,3.1 16.5,3.2 Z" id="Shape" fill-rule="nonzero"></path>
                                <path d="M11.4,3.8 C11.9,3.9 12.6,4.1 12.7,3.4 C12.7,3.3 12.6,3.2 12.5,3.2 C12.5,3.2 12.4,3.2 12.4,3.2 C12.4,3.2 12.4,3.2 12.3,3.1 C11.9,2.9 11.3,3.2 11.3,3.7 C11.3,3.7 11.3,3.8 11.4,3.8 Z M11.9,3.3 C11.9,3.4 11.9,3.4 12,3.4 C12.1,3.4 12.1,3.4 12.2,3.5 C12.1,3.7 11.8,3.6 11.5,3.6 C11.6,3.4 11.8,3.3 11.9,3.3 Z" id="Shape" fill-rule="nonzero"></path>
                                <path d="M9.9,3.5 C10,3.6 10.2,3.5 10.3,3.5 C10.5,3.4 10.7,3.2 10.7,2.9 C10.7,2.6 10.4,2.6 10.2,2.7 C9.9,2.7 9.4,2.8 9.5,3.2 C9.6,3.3 9.8,3.4 9.9,3.5 Z M10,2.9 C10,3 10,3 10.1,3 C10.2,3 10.3,3 10.3,2.9 C10.3,2.9 10.3,2.9 10.3,2.9 C10.3,3 10.3,2.9 10.3,3 C10.3,3.1 10.2,3.1 10.2,3.2 C10.1,3.2 10.1,3.3 10,3.3 C9.9,3.3 9.8,3.3 9.8,3.2 C9.7,3 9.9,2.9 10,2.9 Z" id="Shape" fill-rule="nonzero"></path>
                                <path d="M20.6,3.7 C20.6,3.8 20.6,3.9 20.7,3.9 C21.1,4.1 21.7,4.2 22,3.7 C22.1,3.5 22.1,3.3 21.9,3.2 C21.8,3.1 21.6,3.1 21.4,3.1 C21.3,3.1 21.2,3.1 21.1,3.1 C20.8,3.2 20.7,3.4 20.6,3.7 Z M21.6,3.5 C21.6,3.5 21.6,3.4 21.6,3.5 C21.6,3.4 21.6,3.4 21.6,3.5 C21.6,3.4 21.7,3.5 21.6,3.5 C21.7,3.5 21.7,3.6 21.6,3.6 C21.5,3.8 21.2,3.8 21,3.7 C21.1,3.5 21.4,3.4 21.6,3.5 Z" id="Shape" fill-rule="nonzero"></path>
                                <path d="M20.1,2.6 C20.4,2.6 20.8,2.6 20.8,2.2 C20.8,1.9 20.6,1.6 20.3,1.6 C20.1,1.6 20,1.8 20.1,1.9 C20,2 20,2 19.9,2.1 C19.7,2.3 19.9,2.6 20.1,2.6 Z M20.1,2.2 C20.2,2.1 20.2,2.1 20.3,2.1 C20.3,2.1 20.4,2.2 20.4,2.2 C20.4,2.2 20.4,2.3 20.4,2.3 C20.4,2.4 20.3,2.4 20.2,2.4 C20.1,2.3 20,2.3 20.1,2.2 Z" id="Shape" fill-rule="nonzero"></path>
                                <path d="M25.5,4.2 C25.6,4.2 25.6,4.2 25.6,4.1 C25.7,3.9 25.7,3.7 25.5,3.5 C25.4,3.4 25.1,3.2 25,3.3 C25,3.3 25,3.3 25,3.3 C25,3.3 25,3.3 25,3.3 C24.9,3.4 24.8,3.5 24.8,3.7 C24.7,4.1 25.2,4.2 25.5,4.2 Z M25.1,3.5 C25.1,3.5 25.1,3.5 25.1,3.5 C25.2,3.5 25.2,3.5 25.3,3.5 C25.3,3.5 25.3,3.5 25.3,3.5 C25.3,3.5 25.3,3.5 25.3,3.5 C25.3,3.5 25.3,3.5 25.3,3.5 C25.3,3.5 25.3,3.5 25.3,3.6 C25.4,3.7 25.4,3.8 25.3,3.9 C25.1,3.9 24.9,3.9 25,3.7 C25,3.6 25.1,3.6 25.1,3.5 Z" id="Shape" fill-rule="nonzero"></path>
                                <path d="M24.2,5.1 C24.4,5 24.5,4.6 24.3,4.4 C24.2,4.3 24.1,4.2 24,4.2 C23.9,4.2 23.7,4.2 23.6,4.3 C23.5,4.4 23.6,4.4 23.6,4.5 C23.5,4.5 23.4,4.6 23.3,4.7 C23.2,4.8 23.2,5 23.3,5.1 C23.5,5.3 24,5.3 24.2,5.1 Z M23.7,4.6 C23.7,4.6 23.7,4.6 23.7,4.6 C23.7,4.6 23.7,4.6 23.7,4.6 C23.8,4.6 23.9,4.5 24,4.5 C24,4.5 24.1,4.5 24.1,4.5 C24.1,4.6 24.1,4.7 24.1,4.7 C24,5 23.7,5 23.6,4.9 C23.4,4.8 23.6,4.7 23.7,4.6 Z" id="Shape" fill-rule="nonzero"></path>
                                <path d="M21.8,5.2 C21.8,5.3 21.7,5.3 21.7,5.4 C21.7,5.5 21.7,5.5 21.8,5.5 C22,5.5 22.2,5.5 22.3,5.5 C22.4,5.5 22.4,5.5 22.5,5.4 C22.6,5.2 22.6,4.9 22.4,4.8 C22.2,4.7 21.9,4.7 21.8,4.8 C21.7,5 21.7,5.2 21.8,5.2 Z M22.1,5.2 C22.1,5.2 22.2,5.2 22.2,5.2 C22.2,5.2 22.2,5.3 22.2,5.3 C22.1,5.3 22,5.3 21.9,5.3 C22,5.3 22.1,5.2 22.1,5.2 Z" id="Shape" fill-rule="nonzero"></path>
                                <path d="M19.9,5.1 C20.1,5.3 20.3,5.4 20.6,5.3 C20.6,5.3 20.6,5.3 20.7,5.3 C20.7,5.3 20.7,5.3 20.8,5.3 C20.9,5.3 20.9,5.2 21,5.2 C21.1,5.1 21.2,4.9 21.2,4.7 C21.2,4.6 21.2,4.6 21.1,4.5 C20.9,4.4 20.8,4.3 20.6,4.3 C20.5,4.3 20.5,4.3 20.4,4.3 C20.2,4.2 19.9,4.3 19.8,4.5 C19.6,4.7 19.8,4.9 19.9,5.1 Z M20,4.6 C20,4.6 20.1,4.7 20.1,4.7 C20.2,4.7 20.3,4.7 20.4,4.7 C20.5,4.7 20.6,4.7 20.6,4.8 C20.6,4.8 20.6,4.9 20.6,4.9 C20.6,4.9 20.6,5 20.5,5 C20.5,5 20.4,5 20.4,5 C20.4,5 20.3,5 20.3,5 C20.2,5 20.2,4.9 20.1,4.9 C20.1,4.8 20.1,4.7 20,4.6 C20,4.7 20,4.7 20,4.6 C20,4.6 20,4.6 20,4.6 Z" id="Shape" fill-rule="nonzero"></path>
                                <path d="M14,5 C14,5 13.9,5.1 14,5.2 C14,5.2 14,5.2 14,5.2 C13.9,5.3 14,5.5 14.1,5.6 C14.2,5.7 14.4,5.8 14.6,5.8 C14.8,5.8 14.9,5.8 15,5.7 C15.2,5.5 15.1,5.2 15,5 C14.7,4.8 14.2,4.7 14,5 Z M14.6,5.4 C14.6,5.4 14.6,5.4 14.6,5.4 C14.6,5.4 14.6,5.4 14.6,5.4 C14.5,5.4 14.4,5.5 14.3,5.4 C14.3,5.4 14.2,5.4 14.2,5.3 C14.2,5.3 14.2,5.3 14.2,5.3 C14.2,5.3 14.2,5.3 14.2,5.3 C14.2,5.3 14.2,5.3 14.2,5.3 C14.2,5.3 14.2,5.3 14.2,5.3 C14.2,5.3 14.3,5.3 14.3,5.3 C14.3,5.3 14.3,5.3 14.3,5.3 C14.3,5.3 14.3,5.3 14.3,5.3 C14.3,5.3 14.3,5.3 14.4,5.3 C14.4,5.3 14.4,5.3 14.4,5.3 C14.4,5.3 14.4,5.3 14.4,5.3 C14.4,5.3 14.4,5.3 14.5,5.3 C14.5,5.3 14.5,5.3 14.5,5.3 C14.5,5.3 14.5,5.3 14.5,5.3 C14.5,5.3 14.5,5.3 14.5,5.3 C14.5,5.3 14.6,5.3 14.6,5.4 C14.6,5.3 14.6,5.3 14.6,5.4 C14.6,5.3 14.6,5.4 14.6,5.4 C14.6,5.4 14.6,5.4 14.6,5.4 C14.6,5.4 14.6,5.4 14.6,5.4 C14.6,5.4 14.6,5.4 14.6,5.4 Z" id="Shape" fill-rule="nonzero"></path>
                                <path d="M10.3,5.9 C10.4,5.7 10.5,5.5 10.3,5.4 C10.2,5.2 9.9,5.2 9.7,5.3 C9.5,5.3 9.3,5.4 9.1,5.6 C9,5.7 9,5.8 9.1,5.8 C9.4,6.2 10,6.3 10.3,5.9 Z M9.5,5.7 C9.6,5.6 9.7,5.6 9.9,5.7 C10,5.7 10,5.7 10.1,5.7 C10.1,5.7 10.1,5.7 10.1,5.7 C10.1,5.7 10.1,5.7 10.1,5.7 C10.1,5.7 10.1,5.7 10.1,5.8 C10,5.9 10,5.9 9.8,5.9 C9.7,5.8 9.6,5.8 9.5,5.7 Z" id="Shape" fill-rule="nonzero"></path>
                                <path d="M8.7,4.7 C8.8,4.7 8.9,4.6 9,4.6 C9.1,4.5 9.3,4.4 9.3,4.2 C9.3,4.1 9.3,4 9.2,4 C9.1,3.9 8.9,3.9 8.8,3.9 C8.8,3.9 8.7,3.9 8.7,3.9 C8.7,3.9 8.7,3.9 8.7,3.9 C8.7,3.9 8.6,3.9 8.6,3.9 C8.5,3.9 8.5,3.9 8.4,4 C8.3,4.1 8.3,4.3 8.4,4.5 C8.3,4.6 8.5,4.7 8.7,4.7 Z M8.5,4.2 C8.5,4.2 8.5,4.1 8.5,4.2 C8.5,4.1 8.5,4.1 8.5,4.2 C8.5,4.1 8.5,4.1 8.5,4.2 C8.5,4.1 8.5,4.1 8.5,4.2 C8.5,4.1 8.5,4.1 8.5,4.2 C8.5,4.1 8.5,4.1 8.5,4.2 C8.5,4.1 8.5,4.1 8.5,4.2 C8.5,4.1 8.5,4.1 8.5,4.2 C8.5,4.1 8.5,4.1 8.6,4.1 C8.6,4.1 8.6,4.1 8.7,4.1 C8.7,4.2 8.7,4.4 8.9,4.4 C8.9,4.4 8.9,4.4 9,4.4 C9,4.4 8.9,4.5 8.9,4.5 C8.9,4.5 8.9,4.5 8.9,4.5 C8.9,4.5 8.9,4.5 8.9,4.5 C8.9,4.5 8.9,4.5 8.9,4.5 C8.9,4.5 8.9,4.5 8.9,4.5 C8.9,4.5 8.9,4.5 8.9,4.5 C8.9,4.5 8.9,4.5 8.9,4.5 C8.9,4.5 8.9,4.5 8.9,4.5 C8.9,4.5 8.9,4.5 8.9,4.5 C8.9,4.5 8.9,4.5 8.9,4.5 C8.9,4.5 8.9,4.5 8.9,4.5 C8.9,4.5 8.9,4.5 8.9,4.5 C8.9,4.5 8.9,4.5 8.9,4.4 C8.9,4.4 8.9,4.4 8.9,4.4 C8.5,4.3 8.5,4.3 8.5,4.2 C8.5,4.2 8.5,4.2 8.5,4.2 C8.5,4.2 8.5,4.2 8.5,4.2 C8.5,4.2 8.5,4.2 8.5,4.2 Z" id="Shape" fill-rule="nonzero"></path>
                                <path d="M28.1,5.4 C28.4,5.3 28.6,5.1 28.6,4.8 C28.6,4.5 28.3,4.3 28,4.3 C27.9,4.3 27.9,4.3 27.9,4.4 C27.9,4.4 27.9,4.5 27.9,4.5 C27.9,4.5 28,4.6 28,4.6 C28.1,4.6 28.3,4.6 28.3,4.8 C28.3,4.9 28.1,5 28,5.1 C27.9,5.2 27.7,5.2 27.5,5.1 C27.5,5.1 27.4,5 27.4,4.9 C27.4,4.8 27.6,4.8 27.7,4.8 C27.8,4.8 27.8,4.7 27.7,4.6 C27.4,4.6 27.1,4.7 27.3,5 C27.4,5.4 27.8,5.5 28.1,5.4 Z" id="Path"></path>
                                <path d="M22.4,6.5 C22.1,6.5 21.9,6.7 21.9,7 C21.9,7.3 22.2,7.5 22.5,7.5 C22.8,7.5 23.1,7.3 23.3,7 C23.5,6.6 23,6.3 22.7,6.3 C22.4,6.3 22.4,6.4 22.4,6.5 Z M22.7,6.9 C22.6,7 22.6,7 22.5,7 C22.4,7 22.4,7 22.3,7 C22.3,7 22.3,7 22.3,7 C22.3,7 22.3,7 22.3,7 C22.3,7 22.3,7 22.3,6.9 C22.3,6.7 22.4,6.7 22.6,6.6 C22.7,6.6 22.8,6.7 22.9,6.7 C22.8,6.9 22.7,6.9 22.7,6.9 Z" id="Shape" fill-rule="nonzero"></path>
                                <path d="M13.7,7.8 C13.9,7.8 14,7.7 14.1,7.6 C14.2,7.5 14.3,7.3 14.3,7.1 C14.3,6.8 13.8,6.5 13.5,6.7 C13.5,6.7 13.5,6.7 13.5,6.7 C13.5,6.7 13.5,6.7 13.4,6.7 C13.2,6.7 13.2,6.9 13.2,7.1 C13.1,7.5 13.4,7.8 13.7,7.8 Z M13.5,7.1 C13.5,7.1 13.5,7.1 13.5,7.1 C13.6,7.1 13.6,7.1 13.7,7.1 C13.7,7.1 13.8,7.2 13.8,7.2 C13.8,7.2 13.8,7.2 13.8,7.3 C13.8,7.4 13.7,7.4 13.7,7.4 C13.6,7.4 13.6,7.4 13.5,7.3 C13.5,7.2 13.5,7.2 13.5,7.1 Z" id="Shape" fill-rule="nonzero"></path>
                                <path d="M17.8,7.9 C18.1,7.9 18.4,7.5 18.3,7.2 C18.3,6.8 17.9,6.6 17.6,6.8 C17.6,6.8 17.6,6.8 17.6,6.8 C17.3,6.7 17,7 17,7.3 C17,7.8 17.5,8 17.8,7.9 Z M17.6,7.5 C17.5,7.5 17.5,7.5 17.6,7.5 C17.5,7.4 17.5,7.4 17.5,7.4 C17.5,7.4 17.5,7.3 17.5,7.3 C17.5,7.3 17.6,7.2 17.7,7.2 C17.8,7.2 17.9,7.1 17.9,7 C17.9,7 18,7 18,7 C18,7 18,7.1 18,7.1 C18,7.2 17.9,7.3 17.8,7.4 C17.7,7.5 17.7,7.5 17.6,7.5 Z" id="Shape" fill-rule="nonzero"></path>
                                <path d="M20,7.6 C20.3,7.6 20.6,7.4 20.6,7.1 C20.6,6.8 20.2,6.6 19.9,6.7 C19.9,6.7 19.8,6.7 19.8,6.8 C19.6,6.9 19.4,7.1 19.4,7.3 C19.6,7.5 19.8,7.6 20,7.6 Z M19.9,7.1 C19.9,7.1 20,7 20,7 C20,7 20,7 20,7 C20,7 20.1,7 20.1,7 C20.1,7 20.1,7 20.1,7 C20.1,7 20.1,7 20.1,7 C20.1,7 20.1,7 20.1,7.1 C20.1,7.1 20.1,7.2 20.1,7.2 C20.1,7.2 20,7.3 20.1,7.2 C20.1,7.2 20.1,7.2 20.1,7.2 C20.1,7.2 20.1,7.2 20.1,7.2 C20.1,7.2 20.1,7.2 20.1,7.2 C20.1,7.2 20.1,7.2 20,7.2 C20,7.2 20,7.2 19.9,7.2 C19.9,7.2 19.9,7.2 19.9,7.2 C19.9,7.2 19.9,7.2 19.9,7.2 C19.9,7.2 19.9,7.2 19.9,7.2 C19.9,7.2 19.9,7.2 19.9,7.1 C19.9,7.2 19.9,7.2 19.9,7.1 C19.9,7.2 19.9,7.2 19.9,7.1 C19.9,7.2 19.9,7.2 19.9,7.1 C19.9,7.2 19.9,7.2 19.9,7.1 C19.8,7.2 19.9,7.1 19.9,7.1 Z" id="Shape" fill-rule="nonzero"></path>
                                <path d="M6.7,7.3 C6.8,7.3 6.9,7.2 7,7.1 C7,7 7,6.8 6.9,6.7 C6.8,6.6 6.7,6.5 6.6,6.4 C6.6,6.4 6.6,6.4 6.5,6.3 C6.4,6.2 6.2,6.2 6.1,6.2 C6,6.2 6,6.2 6,6.3 C6,6.3 5.9,6.3 6,6.3 C6,6.3 6,6.3 6,6.3 C6,6.3 6,6.4 5.9,6.4 C5.8,6.6 5.8,6.9 6,7.1 C6.2,7.4 6.5,7.4 6.7,7.3 Z M6.1,6.7 C6.1,6.7 6.1,6.7 6.1,6.7 C6.1,6.7 6.1,6.7 6.1,6.7 C6.1,6.7 6.1,6.7 6.1,6.7 C6.2,6.6 6.2,6.6 6.1,6.7 C6.2,6.6 6.2,6.6 6.1,6.7 C6.1,6.6 6.1,6.6 6.1,6.6 C6.1,6.6 6.1,6.6 6.1,6.6 C6.1,6.6 6.1,6.6 6.1,6.6 C6.1,6.6 6.1,6.6 6.1,6.6 C6.1,6.6 6.1,6.6 6.1,6.6 C6.1,6.6 6.1,6.6 6.1,6.6 C6.1,6.6 6.1,6.6 6.2,6.6 C6.1,6.7 6.2,6.9 6.3,6.9 C6.3,6.9 6.3,6.9 6.3,6.9 C6.3,6.9 6.3,6.9 6.4,6.9 C6.4,6.9 6.4,6.9 6.4,6.9 C6.4,6.9 6.4,6.9 6.4,6.9 C6.4,6.9 6.4,6.9 6.4,6.9 C6.4,6.9 6.4,6.9 6.4,6.9 C6.4,6.9 6.3,6.9 6.3,7 C6.3,7 6.3,7 6.3,7 C6.3,7 6.3,7 6.3,7 C6.3,7 6.3,7 6.3,7 C6.3,7 6.3,7 6.3,7 C6.3,7 6.3,7 6.3,7 C6.3,7 6.3,7 6.3,7 C6.3,7 6.3,7 6.3,7 C6.3,7 6.3,7 6.3,7 C6.3,7 6.3,7 6.3,7 C6.3,7 6.3,7 6.3,7 C6.3,7 6.3,7 6.3,7 C6.3,7 6.3,7 6.3,7 C6.3,7 6.3,7 6.3,7 C6.3,7 6.3,7 6.3,6.9 C6.1,6.8 6.1,6.8 6.1,6.7 Z" id="Shape" fill-rule="nonzero"></path>
                                <path d="M10.4,8.5 C10.4,8.5 10.3,8.5 10.4,8.5 C10.3,8.5 10.3,8.5 10.2,8.5 C10,8.6 9.9,8.9 10.1,9.1 C10.3,9.3 10.6,9.3 10.8,9.3 C11.1,9.2 11.3,8.9 11.1,8.7 C10.9,8.5 10.5,8.3 10.4,8.5 Z M10.7,9 C10.6,9 10.5,9 10.4,8.9 C10.4,8.9 10.4,8.9 10.3,8.8 C10.3,8.8 10.3,8.8 10.3,8.8 C10.3,8.8 10.3,8.8 10.3,8.8 C10.4,8.8 10.4,8.7 10.4,8.7 C10.4,8.7 10.5,8.7 10.6,8.8 C10.7,8.8 10.7,8.9 10.8,8.9 C10.8,8.9 10.8,9 10.7,9 Z" id="Shape" fill-rule="nonzero"></path>
                                <path d="M23.2,8.9 C23.1,8.8 22.8,8.7 22.7,8.9 C22.7,8.9 22.7,9 22.7,9 C22.7,9 22.7,9 22.7,9 C22.6,9.1 22.5,9.2 22.4,9.3 C22.2,9.6 22.5,9.9 22.8,10 C23.2,10 23.5,9.8 23.5,9.4 C23.5,9.1 23.4,9 23.2,8.9 Z M22.8,9.5 C22.7,9.5 22.7,9.4 22.7,9.3 C22.8,9.2 23,9.2 23,9.1 C23.1,9.1 23.1,9.2 23.1,9.3 C23.1,9.4 22.9,9.5 22.8,9.5 Z" id="Shape" fill-rule="nonzero"></path>
                                <path d="M25.7,7.6 C25.5,7.7 25.4,7.8 25.4,8.1 C25.4,8.5 26.1,8.6 26.4,8.5 C26.7,8.3 26.8,8 26.6,7.7 C26.5,7.6 26.4,7.5 26.2,7.4 C26,7.3 25.7,7.4 25.6,7.5 C25.7,7.5 25.7,7.5 25.7,7.6 Z M25.8,7.9 C25.9,7.8 26,7.8 26.1,7.8 C26.1,7.8 26.2,7.8 26.2,7.7 C26.2,7.7 26.2,7.8 26.2,7.8 C26.2,7.8 26.2,7.8 26.2,7.8 C26.2,7.8 26.2,7.8 26.2,7.8 C26.2,7.8 26.2,7.8 26.2,7.9 C26.2,7.9 26.2,7.9 26.2,7.9 C26.2,7.9 26.2,7.9 26.2,7.9 C26.2,7.9 26.2,7.9 26.2,7.9 C26.2,7.9 26.1,8 26.1,8 C25.9,8.1 25.8,8.1 25.8,7.9 C25.7,8 25.8,8 25.8,7.9 Z" id="Shape" fill-rule="nonzero"></path>
                                <path d="M16.2,25 C14.4,24.8 12.6,24.9 10.8,24.7 C10.8,24.7 10.8,24.7 10.8,24.7 C11.5,24.9 12.2,25 12.9,25.1 C14,25.2 15,25.4 16.1,25.3 C16.3,25.3 16.4,25 16.2,25 Z" id="Path"></path>
                                <path d="M17.5,25.1 C17.3,25.1 17,25.2 16.8,25.3 C16.7,25.3 16.8,25.4 16.8,25.4 C17,25.4 17.2,25.4 17.5,25.4 C17.7,25.4 17.9,25.4 18,25.3 C18,25.3 18,25.2 18,25.2 C17.9,25 17.7,25.1 17.5,25.1 Z" id="Path"></path>
                                <path d="M24.7,12 C25.8,11.8 27,11.8 28.1,11.6 C28.9,11.5 29.8,11.4 30.4,10.8 C31.2,10.1 31.8,8.4 30.9,7.5 C30.8,7.4 30.7,7.5 30.7,7.6 C30.7,7.8 30.7,8.1 30.8,8.3 C30.8,8.6 30.8,8.9 30.6,9.3 C30.3,9.8 29.8,10 29.3,10.3 C28.3,10.8 27.2,11 26.1,11.2 C26.1,11.2 26.1,11.2 26.1,11.3 C27.4,11.4 28.9,11.2 30,10.5 C30.1,10.4 30.2,10.4 30.3,10.3 C30.1,10.6 29.7,10.9 29.3,11 C27.8,11.5 26.2,11.6 24.7,11.9 C24.6,11.9 24.6,12.1 24.7,12 Z" id="Path"></path>
                                <path d="M22.8,12.6 C22,12.5 21,12.7 20.2,12.8 C19.1,13 18,13.2 16.9,13.3 C15.8,13.4 14.7,13.4 13.6,13.1 C12.9,12.9 12.3,12.7 11.6,12.8 C11.6,12.8 11.6,12.9 11.6,12.9 C12.4,13.1 13.2,13.4 14.1,13.5 C15.1,13.7 16,13.6 17,13.6 C17.9,13.6 18.8,13.4 19.7,13.2 C20.7,13 21.8,13 22.8,12.7 C22.9,12.8 22.9,12.6 22.8,12.6 Z" id="Path"></path>
                                <path d="M10.5,12.9 C10.3,12.9 10.2,12.8 10,12.8 C9.8,12.8 9.7,12.7 9.5,12.7 C9.5,12.7 9.5,12.7 9.5,12.7 C9.6,12.8 9.8,12.9 10,13 C10.2,13.1 10.3,13.2 10.5,13.1 C10.7,13.1 10.7,12.9 10.5,12.9 Z" id="Path"></path>
                                <path d="M5.6,11.9 C5.7,11.9 5.8,11.8 5.8,11.7 C5.3,11 4.4,10.7 4,10 C3.3,8.9 4.2,7.1 4.7,6 C4.7,6 4.7,5.9 4.7,6 C3.8,6.8 3.3,8.4 3.5,9.5 C3.5,10.5 4.6,11.5 5.6,11.9 Z" id="Path"></path>
                                <path d="M4.1,8.8 C4.1,9.5 4.4,10.1 4.9,10.6 C5.2,11 6,11.9 6.6,11.7 C6.7,11.7 6.7,11.6 6.7,11.5 C6.6,11.3 6.5,11.3 6.3,11.2 C6,11 5.7,10.8 5.5,10.5 C4.9,10.1 4.4,9.4 4.1,8.8 C4.1,8.7 4.1,8.7 4.1,8.8 Z" id="Path"></path>
                                <path d="M26.9,16.7 C26.7,16.6 26.5,16.6 26.4,16.8 C26.3,16.9 26.3,17 26.2,17 C26,17 25.8,16.9 25.7,16.8 C25.2,16.6 24.9,16.9 24.9,17.4 C24.9,17.5 25,17.5 25,17.4 C25.1,17 25.2,16.9 25.6,17.1 C25.8,17.2 26,17.3 26.2,17.3 C26.3,17.3 26.5,17.3 26.6,17.2 C26.7,17.1 26.9,17 27,16.8 C26.9,16.8 26.9,16.7 26.9,16.7 Z" id="Path"></path>
                            </g>
                        </g>
                        <g transform="translate(0.000000, 33.000000)" id="Path">
                            <path d="M1.1,3.9 C3.2,3.7 5.2,3.9 7.2,3.9 C7.5,4.2 7.8,4.4 8.3,4.6 C8.3,4.6 8.3,4.6 8.3,4.6 C5.9,4.5 3.4,4.3 1,4 C1,4 1.1,3.9 1.1,3.9 Z"></path>
                            <path d="M2.8,1.6 C3.9,1.5 4.9,1.5 6,1.5 C6,1.7 6,1.8 6.1,2 C6.1,2 6.1,2.1 6.1,2.1 C5,2 3.8,1.9 2.7,1.7 C2.7,1.7 2.7,1.6 2.8,1.6 Z"></path>
                            <path d="M1.2,5.6 C2.3,5.1 3.6,5.2 4.8,5.1 C6.2,5 7.6,4.9 9,4.9 C9.2,5 9.5,5.1 9.7,5.2 C10,5.3 10.3,5.4 10.6,5.5 C7.5,5.7 4.3,5.9 1.2,5.8 C1.1,5.8 1.1,5.7 1.2,5.6 Z"></path>
                            <path d="M0.3,2.7 C2.3,2.5 4.2,2.5 6.2,2.4 C6.4,2.7 6.5,2.9 6.7,3.2 C4.5,3.2 2.4,3.1 0.2,2.9 C0.2,2.9 0.2,2.8 0.3,2.7 Z"></path>
                            <path d="M2.1,0.9 C3.3,0.8 4.5,0.7 5.7,0.8 C5.7,1 5.8,1.2 5.8,1.4 C4.5,1.4 3.3,1.3 2.1,1.2 C1.9,1.1 1.9,0.9 2.1,0.9 Z"></path>
                        </g>
                    </g>
                </g>
                <rect id="Rectangle" fill="#3D2314" x="2.6" y="98.8" width="163.9" height="28.4"></rect>
                <g id="HAMBURGERS">
                    <use fill="#000000" xlink:href="#path-1"></use>
                    <use fill="#F6F1C7" xlink:href="#path-1"></use>
                </g>
            </g>
        </g>
    </g>
</svg>