<?xml version="1.0" encoding="UTF-8"?>
<svg width="116px" height="53px" viewBox="0 0 116 53" version="1.1" xmlns="http://www.w3.org/2000/svg" xmlns:xlink="http://www.w3.org/1999/xlink">
    <!-- Generator: Sketch 52.3 (67297) - http://www.bohemiancoding.com/sketch -->
    <title>seeds2</title>
    <desc>Created with Sketch.</desc>
    <g id="Page-1" stroke="none" stroke-width="1" fill="none" fill-rule="evenodd">
        <g id="buns_upper" transform="translate(-28.000000, -9.000000)" fill="#3B1100">
            <g id="seeds2" transform="translate(28.000000, 9.000000)">
                <path d="M20.9,24.5 C20.7,24 19.8,24.4 20,24.9 C20.7,26.7 18.3,30.3 16.2,29.1 C14.7,28.3 18.3,25.6 19.3,25.5 C19.4,25.5 19.4,25.4 19.3,25.3 C17.1,24.8 12.7,28.2 15.3,30.3 C18.5,33 22.5,27.5 20.9,24.5 Z" id="Path_109_"></path>
                <path d="M23.3,14.1 C22.8,14.9 22.1,15.6 21.2,16 C20.8,16.2 20.3,16.1 20.4,15.5 C20.5,14.8 21,14.2 21.6,13.9 C21.7,13.9 21.7,13.8 21.7,13.7 C21.7,13.6 21.6,13.6 21.6,13.6 C20,13.7 18.4,16.5 20.6,17.1 C22.1,17.5 23.9,15.7 24.3,14.4 C24.3,13.9 23.5,13.6 23.3,14.1 Z" id="Path_110_"></path>
                <path d="M34.2,8.8 C34.1,8.8 34.1,8.9 34,9 C33.9,9.1 34,9.2 34.1,9.3 C33.3,9.8 32.6,10.6 32.2,11.4 C31.5,13 33.1,13.9 34.5,13.6 C36.2,13.3 37.8,12.1 37.7,10.2 C37.6,8.4 35.6,7.9 34.2,8.8 Z M36.3,11.4 C35.7,12.1 34.9,12.6 34,12.7 C32.5,12.9 32.7,11.6 33.4,10.8 C34,10.1 34.7,9.5 35.5,9.1 C35.9,9 36.3,9.2 36.5,9.5 C36.8,10.1 36.7,10.8 36.3,11.4 Z" id="Shape_36_" fill-rule="nonzero"></path>
                <path d="M42.6,17.9 C40.4,17.9 38.6,20.3 37.6,21.9 C37.4,22.1 37.6,22.4 37.9,22.4 C37.6,22.9 37.7,23.5 38,24 C38.3,24.5 38.9,24.7 39.5,24.6 C41.2,24.5 43.1,22.8 43.9,21.4 C44.8,20 44.7,17.9 42.6,17.9 Z M43.1,20.4 C42.7,21.2 42.1,21.8 41.4,22.3 C40.8,22.8 40.2,23.2 39.4,23.4 C38.5,23.5 38.5,22.8 38.8,22.2 C39.3,21.1 40.1,20.2 41.1,19.5 L41.2,19.4 C41.3,19.3 41.5,19.2 41.7,19.1 L42.1,18.9 L42.3,18.9 C43.3,18.8 43.4,19.7 43.1,20.4 Z" id="Shape_37_" fill-rule="nonzero"></path>
                <path d="M15.8,43.5 C15.6,42.5 14.7,41.9 13.7,42 C12.7,42.2 12,43.2 11.3,43.9 C11.2,44 11.2,44.1 11.2,44.2 C10.5,44.8 10,45.6 9.6,46.5 C9.3,47.1 9.6,47.8 10.1,48.1 C10.8,48.4 11.7,48.4 12.4,47.9 C13.8,47.2 16.2,45.3 15.8,43.5 Z M14.5,44.1 C13.9,45.3 12.9,46.3 11.6,47 C11.3,47.2 10.6,47.5 10.4,47.1 C10.2,46.7 10.7,45.9 10.9,45.6 C11.2,45.1 11.5,44.6 11.9,44.2 C12.3,43.9 12.7,43.5 13.2,43.3 C13.7,43 14,43 14.3,43.4 C14.6,43.5 14.7,43.8 14.5,44.1 Z" id="Shape_38_" fill-rule="nonzero"></path>
                <path d="M4.8,29.2 C4.7,28.6 4.2,28.1 3.7,28 C3.2,27.9 2.5,28 2.1,28.4 C1,29.3 0.5,30.6 0.6,32 C0.6,32.2 1,32.3 1.1,32.1 C1.5,32.6 2.3,32.8 2.9,32.6 C4.1,32 4.9,30.6 4.8,29.2 Z M3.5,30.4 C3.3,31 1.7,32.7 1.4,31.3 C1.3,31.1 1.3,30.8 1.4,30.6 C1.7,30.1 2.1,29.7 2.5,29.4 C2.7,29.2 3.1,28.9 3.5,29.1 C3.9,29.2 3.7,30 3.5,30.4 Z" id="Shape_39_" fill-rule="nonzero"></path>
                <path d="M30.1,40.1 C29.1,39 27.6,39.7 26.8,40.7 C26.1,41.5 25.3,43.3 26.8,43.8 C26.9,43.8 27.1,43.8 27.1,43.7 C27.7,43.8 28.3,43.7 28.9,43.4 C30.2,42.9 31.2,41.3 30.1,40.1 Z M27.5,42.8 C26.8,42.6 27.9,40.7 28.6,40.9 C28.7,40.9 28.7,40.9 28.8,40.8 C29,40.8 29.1,40.9 29.2,41 C29.3,41.1 29.4,41.3 29.4,41.4 C29.1,42.2 28.3,42.8 27.5,42.8 Z" id="Shape_40_" fill-rule="nonzero"></path>
                <path d="M43.4,34 C42.6,33.2 41.7,33.9 41,34.5 C40,35.1 38.8,36 39.1,37.2 C39.4,38.9 41.4,38.1 42.3,37.4 C43.1,36.7 44.4,35.2 43.4,34 Z M42.8,35.5 C42.6,35.9 42.3,36.3 41.9,36.6 C41.5,37 39.5,38.3 39.7,36.8 C39.9,35.8 41.2,35.2 41.9,34.7 C42,34.6 42.1,34.6 42.3,34.6 C43,34.4 43,35.1 42.8,35.5 Z" id="Shape_41_" fill-rule="nonzero"></path>
                <path d="M48.7,48.5 C48.4,47.9 47.7,47.7 47.1,47.9 C46.7,48 46.3,48.2 45.9,48.5 C45,48.9 44.3,49.6 43.8,50.5 C43.1,52.1 45.2,52.6 46.4,52.2 C47.6,51.9 49.4,50 48.7,48.5 Z M45.8,51.4 C45.4,51.4 44.6,51.4 44.6,51 C44.5,50.6 45,50.2 45.2,49.9 L45.3,49.9 C45.7,49.6 48.1,47.6 48.1,49.1 C47.9,50.3 47,51.2 45.8,51.4 Z" id="Shape_42_" fill-rule="nonzero"></path>
                <path d="M59.2,19.2 C57.8,18.8 56,20.4 55,21.2 C54.9,21.2 54.9,21.3 54.9,21.4 C53.6,22.6 52.9,24.2 54.5,24.7 C56.1,25.3 58,23.7 59,22.6 C59.7,21.9 60.9,19.6 59.2,19.2 Z M58.7,21.4 C58.2,22.1 57.5,22.8 56.7,23.2 C56.3,23.5 55.3,24 54.7,23.6 C54.4,23.3 54.8,22.8 55,22.5 C55.4,21.9 55.9,21.3 56.5,20.8 L56.7,20.7 C57.3,20.3 58,20 58.7,19.9 C59.6,20.1 59,21 58.7,21.4 Z" id="Shape_43_" fill-rule="nonzero"></path>
                <path d="M64.8,6.6 C64.6,6.1 64.1,5.7 63.5,5.8 C62.3,5.9 61.5,7.2 60.8,8 C60.8,8.1 60.8,8.1 60.8,8.2 C60.8,8.3 60.9,8.3 61,8.3 C61,8.5 61,8.6 61.1,8.8 C61.7,10.1 63.4,8.9 64,8.3 C64.4,7.9 65,7.3 64.8,6.6 Z M63.4,7.6 C63.2,7.8 61.7,9.1 61.6,8.4 C61.5,7.9 62.7,7.2 63,6.9 C63.1,6.9 63.1,6.8 63.1,6.7 C63.3,6.6 63.5,6.6 63.7,6.7 C64.1,6.9 63.6,7.4 63.4,7.6 Z" id="Shape_44_" fill-rule="nonzero"></path>
                <path d="M62.6,0.8 C61.9,-0.2 60.1,0.1 59.1,0.2 C59,0.2 58.9,0.3 58.9,0.4 C56.9,0.7 54.9,1.7 54.4,3.7 C53.9,5.7 56.1,5.6 57.4,5.2 C59.2,4.7 61,3.9 62.4,2.6 C62.6,2.2 63,1.5 62.6,0.8 Z M61.6,1.8 C61.4,2.3 60.4,2.7 60,2.9 C59.2,3.3 58.5,3.7 57.7,4 C56.9,4.3 54.4,5.2 55.5,3.4 C56.7,1.5 59.1,0.9 61.2,0.9 C61.5,1.1 61.8,1.4 61.6,1.8 Z" id="Shape_45_" fill-rule="nonzero"></path>
                <path d="M90,3.2 C89.1,2.6 87.9,2.4 86.9,2.8 C86.4,2.8 86,2.9 85.5,3.1 C84.3,3.5 83.4,4.4 82.9,5.5 C82.4,7.3 84.5,7.3 85.7,7.1 C87.4,6.8 88.9,6 89.9,4.7 C90.5,4.3 90.5,3.6 90,3.2 Z M88.2,5.2 C87.4,5.7 86.5,6.1 85.6,6.3 C85.1,6.4 84.5,6.4 84,6.3 C83.3,5.9 84.8,4.9 85.1,4.6 C85.8,4.1 86.6,3.8 87.5,3.6 C87.8,3.6 88.1,3.5 88.3,3.4 C88.9,3.4 89.3,3.6 89.4,3.9 C89.6,4.3 88.4,5 88.2,5.2 Z" id="Shape_46_" fill-rule="nonzero"></path>
                <path d="M99,2.1 C98.7,1.8 98.3,1.6 97.8,1.6 C97.4,1.6 96.9,1.8 96.7,2.2 C96.6,2.2 96.5,2.3 96.5,2.3 C95.5,3.3 95,4.7 94.9,6.1 C95,7.8 97,7.7 98,7 C99.4,5.9 100.4,3.6 99,2.1 Z M96.9,6.5 C94.8,7.1 95.9,4.5 96.7,3.3 C97.3,2.6 98.1,2.1 98.7,3.2 C99.3,4.3 98.1,6.1 96.9,6.5 Z" id="Shape_47_" fill-rule="nonzero"></path>
                <path d="M115.1,3.1 C114.7,2.3 113.7,1.3 112.7,1.4 C112.2,1.4 111.7,1.8 111.5,2.3 C110.4,3.8 112.4,8.6 114.7,7.5 C116.2,6.8 115.7,4.1 115.1,3.1 Z M114,6.6 C112.9,6.5 111.6,3.8 112,2.7 C112.2,2.3 112.7,2.2 113.1,2.4 C113.9,2.8 114.4,3.6 114.5,4.4 C114.7,4.9 115,6.7 114,6.6 Z" id="Shape_48_" fill-rule="nonzero"></path>
            </g>
        </g>
    </g>
</svg>