<?xml version="1.0" encoding="UTF-8"?>
<svg width="114px" height="53px" viewBox="0 0 114 53" version="1.1" xmlns="http://www.w3.org/2000/svg" xmlns:xlink="http://www.w3.org/1999/xlink">
    <!-- Generator: Sketch 52.3 (67297) - http://www.bohemiancoding.com/sketch -->
    <title>seeds1</title>
    <desc>Created with Sketch.</desc>
    <g id="Page-1" stroke="none" stroke-width="1" fill="none" fill-rule="evenodd">
        <g id="buns_upper" transform="translate(-96.000000, -15.000000)" fill="#3B1100">
            <g id="seeds1" transform="translate(96.000000, 14.000000)">
                <path d="M63.2,3.3 C62.8,2 61.1,0.5 59.7,1.1 C59.2,1.3 58.9,1.7 58.9,2.3 C58.8,2.4 58.8,2.4 58.8,2.5 C58.7,4 59.2,5.9 60.9,6.2 C62.7,6.6 63.8,4.9 63.2,3.3 Z M62.2,4.8 C61.9,5.3 61.2,5.4 60.7,5.1 C59.9,4.6 59.5,3.6 59.6,2.7 C59.6,2.5 59.7,2.2 59.8,2 C60.6,1.3 61.8,2.8 62.1,3.4 C62.3,3.8 62.4,4.3 62.2,4.8 Z" id="Shape_49_" fill-rule="nonzero"></path>
                <path d="M69.6,15.6 C68.8,15 67.7,15 66.9,15.7 C66.4,16.2 66.2,16.9 66.3,17.7 C66.3,17.9 66.3,18.1 66.3,18.3 L66.3,18.4 C66.3,18.4 66.3,18.5 66.3,18.5 C66.4,19.1 66.7,19.7 67.1,20.2 C68.1,21 69.5,20.8 70.3,19.8 C70.8,19.2 71,18.4 70.8,17.6 C70.7,16.8 70.2,16.1 69.6,15.6 Z M68.1,19.8 C67.5,19.7 67,18.8 66.9,17.9 C66.9,17.3 67,16.6 67.7,16.4 C68.4,16.3 69.2,16.7 69.5,17.4 C70,18.3 69.4,19.9 68.1,19.8 Z" id="Shape_50_" fill-rule="nonzero"></path>
                <path d="M52.1,27.1 C51.4,25.5 49.1,24.3 47.5,25.4 C47.4,25.5 47.3,25.6 47.3,25.8 C46.9,26.4 46.7,27.1 46.7,27.8 C46.9,29.6 48.8,31.3 50.7,30.8 C52.4,30.3 52.7,28.4 52.1,27.1 Z M50.8,29.3 C50.2,30.2 48.8,29.4 48.3,28.8 C47.9,28.3 47.7,27.8 47.7,27.2 C47.7,26.8 47.8,26.4 48.1,26.1 C49.6,25.9 51.9,27.8 50.8,29.3 Z" id="Shape_51_" fill-rule="nonzero"></path>
                <path d="M45.6,10.9 C45.4,10.5 45.1,10.3 44.7,10.2 C44.3,10.1 43.9,10.3 43.6,10.6 C43.6,10.6 43.5,10.5 43.5,10.5 C43.4,10.5 43.4,10.5 43.4,10.6 C42.7,11.6 41.9,13.1 42.7,14.2 C43,14.7 43.5,14.9 44.1,15 C44.7,15 45.2,14.8 45.5,14.3 C46.1,13.3 46.2,12 45.6,10.9 Z M44.6,13.4 C44.5,13.8 44.1,14 43.7,14 C43.3,14 43,13.7 42.9,13.3 C42.8,12.6 42.9,11.9 43.3,11.3 C43.4,11.3 43.4,11.3 43.5,11.3 C44.1,11.1 44.3,10.9 44.6,11.7 C44.8,12.2 44.8,12.9 44.6,13.4 Z" id="Shape_52_" fill-rule="nonzero"></path>
                <path d="M43,11.4 C42.5,11.9 42.3,12.6 42.2,13.2 C42.2,13.3 42.4,13.3 42.4,13.2 C42.5,12.5 42.7,11.9 43,11.4 C43,11.3 43,11.3 43,11.4 Z" id="Path_111_"></path>
                <path d="M23,14.3 C23,13.5 22.4,12.7 21.7,12.4 C20.9,12.1 20.1,12.2 19.4,12.7 C19.3,12.8 19.2,12.9 19.3,13.1 C18.3,14.3 18.5,16.6 20.4,17 C22,17.4 23.2,15.8 23,14.3 Z M20.2,15.7 C19.9,15.5 19.7,15.1 19.6,14.7 C19.5,14.3 19.7,13.9 19.9,13.6 L20,13.6 C20.4,13.4 20.8,13.3 21.2,13.6 C21.5,13.9 21.7,14.3 21.7,14.8 C21.6,15.5 20.9,16.2 20.2,15.7 Z" id="Shape_53_" fill-rule="nonzero"></path>
                <path d="M8.2,12.9 C8,12.2 7.3,11.7 6.5,11.7 C5.6,11.7 4.7,12.1 4.1,12.8 C3.4,13.5 3.1,14.4 3.2,15.3 C3.2,15.6 3.4,15.9 3.7,16.1 C4,16.3 4.4,16.3 4.6,16.1 C6.2,16.4 8.6,14.5 8.2,12.9 Z M4.9,15.2 C3.8,15.3 5.1,13.7 5.4,13.4 L5.6,13.3 C5.9,13.1 7,12.8 6.9,13.5 C6.5,14.3 5.8,14.9 4.9,15.2 Z" id="Shape_54_" fill-rule="nonzero"></path>
                <path d="M5.5,27 C5.2,26.1 4.2,25.6 3.3,25.9 C1.7,26.3 0.5,27.7 0.4,29.3 C0.3,29.6 0.3,29.9 0.4,30.2 C1.2,31.7 3.9,30 4.6,29.3 C5.3,28.8 5.7,27.9 5.5,27 Z M4.2,27.8 C4.1,28.3 3.5,28.8 3.1,29.1 C2.7,29.4 1.2,30.4 1.1,29.5 C1.2,28.3 2.1,27.3 3.3,27.1 C3.8,27.2 4.4,27.2 4.2,27.8 Z" id="Shape_55_" fill-rule="nonzero"></path>
                <path d="M5.6,38.1 C4.8,38.2 4.1,38.6 3.6,39.2 C2.9,39.7 2.4,40.4 2.2,41.2 C2,42.6 3.2,43.3 4.4,42.8 C5.5,42.4 6.3,41.6 6.8,40.5 C7.4,39.4 7.1,38.1 5.6,38.1 Z M5.2,40.9 C4.9,41.3 3.6,42.4 3.2,41.8 C3.1,41.6 3,41.3 3.2,41 C3.5,40.6 3.8,40.3 4.2,40 C4.6,39.6 5,39.3 5.6,39.2 C6.4,39.1 5.4,40.5 5.2,40.9 Z" id="Shape_56_" fill-rule="nonzero"></path>
                <path d="M28.8,27.2 C28,27.5 27.8,28.4 27.7,29.3 C27.3,30.4 27.3,31.7 28.5,32.2 C30.2,32.9 31.2,30.8 31.2,29.5 C31.3,28.3 30.4,26.6 28.8,27.2 Z M29.1,31.3 C27.7,31.6 28.4,29.3 28.8,28.5 C29.4,27.9 30,28.5 30,29.2 C30,29.9 29.9,31.2 29.1,31.3 Z" id="Shape_57_" fill-rule="nonzero"></path>
                <path d="M21.6,45.1 C20.3,45.4 19.4,47 19.1,48.4 C18.9,48.8 18.8,49.2 18.8,49.6 C18.8,50.1 18.9,50.5 19.3,50.9 C19.6,51.2 20.1,51.4 20.6,51.4 C22.4,51.3 23.1,49.4 23.4,47.9 C23.5,46.9 23.3,44.8 21.6,45.1 Z M22,47.5 C21.9,48.3 21.6,49.1 21.1,49.8 C20.7,50.3 19.9,50.5 19.6,49.7 C19.6,49.7 19.6,49.6 19.6,49.6 C19.6,49.5 19.6,49.5 19.6,49.4 C19.6,48.7 19.8,48.1 20.2,47.6 C20.3,47.5 20.4,47.3 20.5,47.2 C20.5,47.2 20.5,47.1 20.5,47.1 C20.7,46.9 20.9,46.7 21.1,46.5 C22.2,45.5 22.2,46.8 22,47.5 Z" id="Shape_58_" fill-rule="nonzero"></path>
                <path d="M40.4,49.4 C40.2,47.8 39.3,45.2 37.2,45.6 C35.5,45.9 35.3,47.5 35.4,49 C35.2,50.8 35.5,52.7 37.1,53.4 C39.4,54.3 40.5,51.2 40.4,49.4 Z M39,50.6 C38.8,51.6 37.9,52.8 37,51.7 C36.8,51.4 36.6,51.1 36.5,50.7 C36.6,49.7 36.3,48.2 36.8,47.3 C37.8,45.7 38.8,48.3 38.9,49 C39,49.6 39,50.1 39,50.6 Z" id="Shape_59_" fill-rule="nonzero"></path>
                <path d="M68,46 C66.6,44.9 65.1,46.4 65.5,47.9 C65.3,49.4 65.7,51 66.6,52.3 C67.7,53.8 69.4,53.5 69.7,51.7 C70,49.9 69.5,47.1 68,46 Z M68.5,51.7 C67.9,52.8 67,51 66.7,50.4 C66.4,49.7 66.2,48.8 66.3,48 C66.3,47.5 66.4,47.1 66.7,46.7 C67.3,46.4 67.6,47.1 67.8,47.5 C68.1,48.1 68.4,48.7 68.5,49.4 C68.7,50.1 68.7,50.9 68.5,51.7 Z" id="Shape_60_" fill-rule="nonzero"></path>
                <path d="M79.3,28.6 C78.8,27.2 76.9,26 75.5,27 C74.3,27.8 74.1,29.8 74.5,31.1 C74.5,31.2 74.6,31.3 74.7,31.3 C74.8,31.3 74.9,31.4 75,31.3 C75,31.4 75.1,31.5 75.1,31.6 C75.5,32.5 76.4,33.2 77.4,33.1 C79.1,32.9 79.8,30.1 79.3,28.6 Z M77.3,32 C76.3,32.6 75.4,31.1 75.2,30.3 C75.1,29.7 75,29.1 75.1,28.5 C75.2,28.3 75.2,28.1 75.3,27.9 C76,26.6 77.5,27.5 78,28.5 C78.5,29.5 78.4,31.5 77.3,32 Z" id="Shape_61_" fill-rule="nonzero"></path>
                <path d="M88,37.9 C86.7,37.3 85.1,39 84.8,40.2 C84.8,40.3 84.8,40.4 84.9,40.5 C84.2,41.5 84.3,42.8 85,43.8 C86.3,45.4 88.3,43.5 88.9,42.3 C89.4,41.1 89.7,38.6 88,37.9 Z M87.6,41.4 C87.4,41.9 86.5,43.5 85.8,42.7 C85.1,41.9 85.8,40.3 86.4,39.4 C86.6,39.1 87,38.9 87.3,38.9 C88.4,39.1 87.8,40.8 87.6,41.4 Z" id="Shape_62_" fill-rule="nonzero"></path>
                <path d="M86.3,10.7 C85.7,9.8 84.6,9.3 83.5,9.4 C82.6,9.7 82,10.6 82.2,11.5 C82.3,13.1 83.8,16.1 85.7,16.2 C85.8,16.2 85.9,16.1 86,16 L86.4,16 C89.2,15.5 87.4,11.9 86.3,10.7 Z M86.7,14.5 C86.5,15.1 85.7,15.1 85.2,14.9 C83.9,14.3 83.5,12.5 83.2,11.2 C83.2,10.9 83.4,10.6 83.7,10.5 C84.4,10.3 85.2,11.1 85.6,11.6 C86.1,12.1 86.4,12.8 86.7,13.4 C86.8,13.8 86.8,14.2 86.7,14.5 Z" id="Shape_63_" fill-rule="nonzero"></path>
                <path d="M101.8,16.4 C100.6,15.1 98.3,14.8 97.5,16.7 C96.8,18.3 98.1,20.7 99.6,21.8 C100.6,22.7 101.9,23 102.8,21.6 C103.7,20.2 102.9,17.7 101.8,16.4 Z M100.4,21.1 C99.3,20.3 98.3,18.4 99.1,17.2 C99.1,17.1 99.1,17 99.1,17 C99.1,16.9 99,16.9 98.9,16.9 C99.4,16.6 100,16.6 100.4,17 C101,17.5 101.4,18.2 101.6,19 C101.9,19.9 101.9,22.1 100.4,21.1 Z" id="Shape_64_" fill-rule="nonzero"></path>
                <path d="M101.2,34.8 C100.9,33.1 99,32 97.6,33.4 C96.6,34.8 96.5,36.6 97.3,38.1 C97.4,38.3 97.6,38.4 97.7,38.4 C97.9,38.4 98.1,38.3 98.1,38.1 L98.3,38.2 C100.4,38.8 101.4,36.3 101.2,34.8 Z M99,37.2 C98.6,37.2 98.2,37 98,36.6 C97.9,36 98,35.4 98.1,34.8 C98.4,33.9 99.5,33.3 100,34.4 C100.3,35.4 100.1,37 99,37.2 Z" id="Shape_65_" fill-rule="nonzero"></path>
                <path d="M112.1,41.6 C110.4,40.3 108.7,42.1 108.4,43.8 C108.4,43.9 108.4,44 108.5,44.1 C108.5,44.5 108.5,44.9 108.7,45.3 C109,45.9 109.6,46.3 110.3,46.4 C111,46.5 111.7,46.2 112.2,45.7 C112.8,45.2 113.1,44.4 113.1,43.6 C113,42.8 112.7,42.1 112.1,41.6 Z M111.1,44.9 C110.8,45.2 110.4,45.3 110.1,45.2 C109.8,45.1 109.4,44.9 109.3,44.5 C109.2,44.2 109.1,43.8 109.2,43.5 C109.7,42.6 110.8,41.3 111.7,42.4 C112.1,43.2 111.9,44.3 111.1,44.9 Z" id="Shape_66_" fill-rule="nonzero"></path>
            </g>
        </g>
    </g>
</svg>