<?xml version="1.0" encoding="UTF-8"?>
<svg width="384px" height="384px" viewBox="0 0 384 384" version="1.1" xmlns="http://www.w3.org/2000/svg" xmlns:xlink="http://www.w3.org/1999/xlink">
    <!-- Generator: Sketch 52.3 (67297) - http://www.bohemiancoding.com/sketch -->
    <title>Shape</title>
    <desc>Created with Sketch.</desc>
    <g id="Page-1" stroke="none" stroke-width="1" fill="none" fill-rule="evenodd">
        <g id="logo-skype" fill="#5A6FFE" fill-rule="nonzero">
            <path d="M372.9,232.8 C375.7,220.3 377.1,207.4 377.1,194.1 C377.1,94.4 295.1,13.5 193.9,13.5 C183.2,13.5 172.8,14.4 162.6,16.1 C146.3,5.9 127,0 106.2,0 C47.6,0 0,46.9 0,104.7 C0,124.1 5.3,142.2 14.6,157.7 C12.2,169.4 10.9,181.6 10.9,194 C10.9,293.8 92.9,374.6 194,374.6 C205.5,374.6 216.7,373.6 227.5,371.6 C242.5,379.5 259.6,384 277.7,384 C336.4,384 383.9,337.1 383.9,279.3 C384,262.6 380,246.8 372.9,232.8 Z M287.9,280.3 C279.4,292.1 266.9,301.5 250.7,308.1 C234.6,314.7 215.4,318 193.4,318 C167.1,318 145.1,313.4 127.8,304.4 C115.5,297.8 105.4,289 97.6,278 C89.8,267 85.9,256 85.9,245.4 C85.9,238.8 88.5,233.1 93.5,228.3 C98.5,223.7 105,221.3 112.6,221.3 C118.9,221.3 124.3,223.1 128.7,226.8 C132.9,230.3 136.5,235.5 139.4,242.3 C142.7,249.6 146.2,255.8 150,260.7 C153.6,265.4 158.7,269.3 165.3,272.4 C172,275.5 180.9,277.1 191.9,277.1 C207,277.1 219.4,273.9 228.7,267.6 C237.9,261.5 242.3,254.1 242.3,245.1 C242.3,238 240,232.4 235.2,228 C230.2,223.4 223.7,219.8 215.6,217.4 C207.3,214.8 196,212.1 182,209.2 C163,205.2 146.9,200.4 134,195 C120.9,189.5 110.3,181.8 102.5,172.3 C94.6,162.6 90.7,150.4 90.7,136.1 C90.7,122.4 94.9,110.2 103.1,99.6 C111.3,89.1 123.2,80.9 138.7,75.3 C153.9,69.7 172,66.9 192.4,66.9 C208.8,66.9 223.1,68.8 235.1,72.4 C247.2,76.1 257.3,81.1 265.4,87.3 C273.4,93.5 279.4,100.1 283.2,107 C287,114 288.9,120.9 288.9,127.6 C288.9,134 286.4,139.9 281.4,145 C276.4,150.1 270.1,152.8 262.6,152.8 C255.8,152.8 250.5,151.2 246.8,148 C243.4,145 239.8,140.4 235.9,133.7 C231.3,125.2 225.8,118.4 219.5,113.6 C213.3,109 203.1,106.6 188.9,106.6 C175.8,106.6 165.1,109.2 157.2,114.3 C149.6,119.2 145.9,124.9 145.9,131.6 C145.9,135.7 147.1,139.1 149.6,142.1 C152.2,145.2 155.8,148 160.5,150.3 C165.3,152.7 170.3,154.6 175.2,155.9 C180.3,157.3 188.8,159.4 200.5,162 C215.4,165.1 229,168.7 241,172.4 C253.2,176.3 263.7,181 272.3,186.5 C281.1,192.1 288,199.4 293,208 C297.9,216.6 300.4,227.4 300.4,239.8 C300.8,254.9 296.5,268.5 287.9,280.3 Z" id="Shape"></path>
        </g>
    </g>
</svg>