<?xml version="1.0" encoding="UTF-8"?>
<svg width="229px" height="51px" viewBox="0 0 229 51" version="1.1" xmlns="http://www.w3.org/2000/svg" xmlns:xlink="http://www.w3.org/1999/xlink">
    <!-- Generator: Sketch 52.3 (67297) - http://www.bohemiancoding.com/sketch -->
    <title>tomato</title>
    <desc>Created with Sketch.</desc>
    <g id="Page-1" stroke="none" stroke-width="1" fill="none" fill-rule="evenodd">
        <g id="tomato">
            <path d="M142.3,14.3 C141.6,14.4 140.9,14.8 140.4,15.3 C140.2,15.6 139.5,16.8 139.8,17.2 C139.9,17.4 141.5,17.1 141.7,17 C142.7,16.8 145,16.4 144.4,14.9 C144,14.2 143.2,14.2 142.3,14.3 Z" id="Path_30_" fill="#D95E55"></path>
            <path d="M117.7,26 C116.9,26.4 116,26.9 115.2,27.4 C113.7,28.3 111.2,29.4 110.1,30.8 C109.1,31.3 109.2,32 110.5,33 C111.5,33 112.4,32.7 113.2,32.1 C114.3,31.4 115.3,30.5 116.2,29.5 C117.5,28.3 118.7,27 119.6,25.5 C119.1,25.7 118.7,25.9 118.2,26.1 C118.1,26.2 117.8,26.2 117.7,26 Z" id="Path_31_" fill="#D95E55"></path>
            <path d="M122.5,13.4 C121.5,13.2 120.6,13.8 121,15.2 C121.2,16.2 121.7,17.1 122.3,17.9 C122.5,18.3 122.5,18.2 122.5,17.8 C122.7,17.5 122.8,17.2 122.9,16.9 C123.1,16.4 123.2,15.9 123.3,15.5 C123.4,15.1 123.5,14.7 123.5,14.2 C123.4,13.8 122.9,13.6 122.5,13.4 Z" id="Path_32_" fill="#D95E55"></path>
            <path d="M159.4,12.5 C159.3,12.4 159.2,12.3 159.1,12.2 C157.2,10.3 154.7,8.9 152.1,8.2 C142.4,5.4 131.2,6.7 121.2,7.2 C110.7,7.8 98,8.4 89.6,15.4 C82.7,21.1 81.6,28.7 84,36.1 C85.1,39 87.1,41.3 89.8,42.8 C93.1,44.5 97,45.1 100.5,45.8 C108.5,47.6 116.8,48.4 125,48.3 C132.6,48.1 140.2,46.6 147.3,43.8 C153.2,41.4 169.3,37.3 163.3,19.4 C162.6,16.9 161.3,14.5 159.4,12.5 Z M117,38.8 C107,40.3 94.6,38.1 86.6,31.8 C86.5,31.7 86.6,31.6 86.7,31.6 C91.5,32.8 96.1,34.7 101,35.8 C106.3,36.9 111.6,37.6 117,38 C117.3,38 117.4,38.7 117,38.8 Z M110.7,19.5 C110.8,19.5 110.9,19.5 111,19.6 C111.4,19.8 111.8,20.1 111.9,20.6 C112.2,21.2 112.2,21.9 111.8,22.5 C110.9,24 108.6,23.9 107.1,24 C104.2,24.2 100.5,24.6 97.7,23.9 C96.7,23.6 95.7,23.1 95.7,21.9 C95.7,21 96.4,20.5 97.1,20.2 C99.5,19.3 102.8,19.4 105.3,19.2 C107.1,19 108.9,19.1 110.7,19.5 Z M109.1,13.9 C109.4,13.7 109.9,13.8 110.3,13.9 C111.2,14.1 112.2,14.3 113.1,14.6 C113.7,14.8 114.2,15.1 114.7,15.4 C115.3,15.6 115.8,16 116,16.6 C116.3,17.3 116.7,19 116.2,19.7 C115.4,20.7 113.9,19.4 113.2,18.9 C112.5,18.4 111.8,17.8 111,17.3 C110.4,16.9 109.8,16.5 109.3,16.1 C108.8,15.5 108.5,14.3 109.1,13.9 Z M99.7,25.9 C100.4,25.8 101.2,25.7 101.9,25.6 C101.9,25.5 102,25.5 102.1,25.5 C103.3,25.3 109.7,23.9 108.2,27.1 C107.7,28.2 105.9,28.8 104.8,29.2 C102.8,30 100.6,30.7 98.5,31.2 C97.3,31.4 96.5,31.4 95.6,30.4 C95.1,29.7 94.4,28.2 94.9,27.4 C95.7,26.3 98.5,26.1 99.7,25.9 Z M121.2,24.8 C120.3,28.1 112.5,37.4 108.6,33.5 C107,31.9 109,30.5 110.2,29.5 C113.2,27 116.7,25.1 120.5,24 C120.6,24 120.6,24 120.7,24 C120.9,24 121.1,24.1 121.2,24.3 C121.2,24.4 121.2,24.6 121.2,24.8 Z M122.6,19.2 C121.8,19.4 121.3,18.5 121,17.9 C120.4,16.8 120,15.7 119.9,14.5 C119.8,13.9 120.1,13.2 120.6,12.9 C121.1,12.5 121.7,12.4 122.4,12.5 C122.5,12.5 122.6,12.5 122.7,12.5 C123.3,12.8 124.1,13.1 124.2,13.9 C124.3,15 124.1,16.1 123.7,17.1 C123.6,17.9 123.3,19 122.6,19.2 Z M155.4,31 C147.8,38.5 134.3,39.9 124.3,37.5 C124.1,37.4 124.2,37.1 124.4,37.2 C130,38 137,36.7 142.4,35.6 C146.9,34.8 151.2,33.1 155,30.5 C155.3,30.4 155.6,30.8 155.4,31 Z M142.6,18.2 C141.3,18.5 138,19.2 138.4,16.9 C138.6,15.9 139.1,15.1 139.9,14.4 C140.7,13.8 141.8,13.7 142.7,13.3 C142.9,13.2 143,13.3 143.2,13.4 C144.2,13.2 145.1,13.7 145.5,14.6 C146.3,16.8 144.4,17.8 142.6,18.2 Z M147.7,25.1 C147,27.2 141.9,27 140.2,27 C138.6,27 133.1,26.9 132.6,25 C132.5,24.8 132.6,24.5 132.8,24.4 C133.6,24.1 134.5,23.8 135.4,23.6 C136.8,23.1 138.2,22.6 139.5,22.1 C141,21.5 143.1,20.5 144.9,20.8 C146.4,21 148.2,23.5 147.7,25.1 Z M133.9,18.2 C131.1,20.1 128.4,21.9 125,22.1 C124.8,22.1 124.6,22 124.5,21.8 C124.4,21.6 124.5,21.4 124.6,21.3 C125.2,20.7 125.8,20.2 126.4,19.6 C128.4,16.9 130.9,14.6 133.6,12.6 C134.9,11.7 138.2,10.8 138.9,13.1 C139.5,15.4 135.1,17.3 133.9,18.2 Z M131.3,28.8 C131.2,29.9 130,30.5 129,30.8 C128.6,30.9 128.2,31 127.9,30.9 C127.8,31 127.7,31.1 127.6,31.1 C127.5,31.1 127.3,31.1 127.2,31 C126.2,30 125.8,28.5 125.4,27.2 C125.2,26.5 124.4,24.7 124.9,24 C125.4,23.2 126.7,23.8 127.3,24.1 C128.4,24.5 129.3,25.2 130.1,26.1 C130.8,26.7 131.3,27.7 131.3,28.8 Z M158.2,19.5 C154.8,12.1 146.5,11.7 139.4,11.2 C133.5,10.8 127.6,10.9 121.8,11.5 C115.3,12.2 108.9,13.5 102.6,15.4 C96.1,17.4 87.3,19.8 87.1,28 C87.1,28.1 87,28.2 86.9,28.3 C86.8,28.3 86.6,28.2 86.6,28.1 C85.3,22.1 90.5,18 95.5,16 C103,13 110.9,11 118.9,10.1 C127.7,9 136.5,9 145.3,10.1 C150.9,10.8 158,12.7 159.1,19.2 C159.1,19.6 158.4,20 158.2,19.5 Z" id="Shape_2_" fill="#C2392F" fill-rule="nonzero"></path>
            <path d="M163.4,19.5 C162.6,16.9 161.2,14.5 159.4,12.5 C159.3,12.4 159.2,12.3 159.1,12.2 C157.2,10.3 154.7,8.9 152.1,8.2 C142.4,5.4 131.2,6.6 121.2,7.2 L119,7.4 C116.5,8.6 114.1,9.9 111.7,11.2 C114.1,10.7 116.5,10.3 118.9,10 C127.7,8.9 136.5,8.9 145.3,10 C150.9,10.7 158,12.6 159.1,19.1 C159.1,19.2 159.1,19.3 159.1,19.4 C159.4,20.5 159.5,21.6 159.5,22.7 C159.4,28.3 155.8,31.7 151.4,34 C148,36 144.2,37.3 140.3,37.9 C137.2,38.7 134.1,39.4 131,40.3 C128.4,41 127,41 126.4,43.6 C125.9,45.4 125.7,47.1 124.7,48.2 L125.1,48.2 C132.7,48 140.3,46.6 147.4,43.8 C153.3,41.6 169.4,37.4 163.4,19.5 Z" id="Path_33_" fill="#912B23"></path>
            <path d="M128.8,25.8 C128.2,25.2 127.4,24.8 126.6,24.6 C126.2,24.5 125.7,24.2 125.6,25 C125.6,25.2 125.9,25.8 126,26 C126.2,26.5 126.4,27 126.5,27.5 C126.6,27.7 126.7,28 126.8,28.2 C127.2,29.1 127.4,30 128.7,29.7 C129.7,29.4 130.4,28.7 130.1,27.7 C129.8,26.9 129.4,26.2 128.8,25.8 Z" id="Path_34_" fill="#D95E55"></path>
            <path d="M98.2,30.3 L99.8,29.8 C101.5,29.3 104.6,28.8 105.9,27.6 C106.5,27.5 106.8,27.2 106.6,26.7 C106.7,26.1 106.4,25.9 105.7,26.2 C105,26.1 104.4,26.1 103.7,26.1 C102.3,26.2 100.9,26.4 99.5,26.7 C98.7,26.9 95.5,27.2 95.9,28.6 L98.2,30.3 Z" id="Path_35_" fill="#D95E55"></path>
            <path d="M133.1,14.1 L132.4,14.7 C131.6,15.4 130.8,16.2 130.1,16.9 L129.2,17.7 C129.3,17.9 129.3,18.1 129.1,18.2 C128.2,19 127.3,19.9 126.4,20.8 C128.3,20.3 130.1,19.4 131.7,18.2 C132.5,17.7 133.2,17.2 134,16.6 C134.5,16.2 136.7,15 136.8,14.4 C135.5,12.8 134.3,12.7 133.1,14.1 Z" id="Path_36_" fill="#D95E55"></path>
            <path d="M140.8,22.5 C139.9,22.8 139.1,23.1 138.3,23.3 C138.3,23.4 138.2,23.5 138.1,23.6 C137.3,24 136.2,24.2 135.4,24.6 C135.2,24.7 135.1,24.8 134.9,24.8 C135.4,24.9 135.9,25.1 136.5,25.2 C139,25.7 142.6,26.2 145,25.3 C145.8,25.4 146.6,24.8 146.7,24 C146.4,22.5 145.1,21.5 143.6,21.6 C142.6,21.9 141.7,22.1 140.8,22.5 Z" id="Path_37_" fill="#D95E55"></path>
            <path d="M40.3,25 C40,25.2 39.7,25.8 39.4,26.1 L39.3,26.2 C39.1,26.6 38.5,27.3 38.5,27.8 C38.4,29.1 41.2,28.8 41.9,28.5 C42.6,28.2 42.8,27.7 42.4,27 C42.1,26.6 41.9,26.2 41.5,25.8 C41.2,25.3 40.8,24.7 40.3,25 Z" id="Path_38_" fill="#D95E55"></path>
            <path d="M37.6,13.8 C37.2,13.3 36.7,12.8 36.2,12.4 C35.6,11.7 34.7,11.2 33.8,11 C32.4,10.9 31.9,11.6 32.1,13.2 C32.5,14.6 34.7,15.9 35.8,16.7 C37.2,17.8 38.6,18.9 39.9,20 C40.9,20.1 39.5,16.5 39.4,16.2 C39,15.3 38.3,14.5 37.6,13.8 Z" id="Path_39_" fill="#D95E55"></path>
            <path d="M50.7,12.5 C49.9,12.6 48.5,14.2 48,14.9 C47.5,15.6 47,16.3 46.5,17 C46.2,17.8 45.9,18.5 45.6,19.3 C45.3,20.1 44.1,21.1 45.3,21.3 C46,21.4 46.2,21.1 46.8,20.6 C48.5,19.3 50.1,17.7 51.4,16 C51.8,15.5 52.2,15 52.6,14.4 L53.1,13.5 C52.7,12.5 52.1,12 50.7,12.5 Z" id="Path_40_" fill="#D95E55"></path>
            <path d="M97.7,21.3 C96.4,23.4 102.5,23.1 103.1,23.1 C104.1,23.1 105,23.1 106,23 C106.6,23 111.5,22.5 110.7,20.9 C109.4,19.5 104.5,20.5 103.5,20.6 C102.7,20.8 98.1,20.7 97.7,21.3 Z" id="Path_41_" fill="#D95E55"></path>
            <path d="M115.4,18.6 C115.5,18.5 115.3,17.5 115.3,17.4 C115.2,17.2 115.2,17 115.1,16.9 C114.7,16.6 114.4,16.3 113.9,16.1 L113.7,16.1 C113.6,16.1 113.4,16 113.4,15.9 L113.2,15.8 C112.2,15.3 111.1,15 110,14.9 C110.2,15.8 113.1,17.3 113.6,17.6 C113.9,17.8 115,18.9 115.4,18.6 Z" id="Path_42_" fill="#D95E55"></path>
            <path d="M50.2,24.2 C51.1,24.2 52,24.1 52.9,23.9 C54,23.7 55.1,23.4 56.2,23.3 C57,23.2 57.7,23.1 58.5,23 C61,23 61.7,18.5 57.3,19.5 C56.7,19.6 56.2,19.8 55.6,20 C54.7,20.5 53.7,20.9 52.8,21.4 C52,21.8 50,22.3 49.5,23 C48.6,23.3 48.9,23.7 50.2,24.2 Z" id="Path_43_" fill="#D95E55"></path>
            <path d="M60.3,6.4 C56.3,5 51.9,4.5 47.7,4 C38.2,2.8 27.9,1.8 18.4,3.7 C14.4,4.4 10.7,5.9 7.2,8 C4.4,9.8 2.6,11.6 2.1,15.2 C1.9,17.2 2,19.3 2.5,21.3 C4.3,27.4 9.4,31.1 15.5,34.5 C21.9,38 28.8,40.5 36,41.8 C43.7,43.3 51.5,44 59.3,44 C66.4,43.9 74.2,41.6 77.9,35.4 C81.2,27.9 76.3,19.3 70.9,13.8 C67.9,10.6 64.5,7.8 60.3,6.4 Z M70.6,33 C50.7,40.3 27.1,35.8 10.5,23 C10.3,22.9 10.5,22.6 10.7,22.7 C29,33.6 49.6,36.3 70.3,32 C70.6,31.9 70.9,32.1 71,32.4 C71.1,32.7 70.9,32.9 70.6,33 Z M40.1,20.6 C40,20.7 39.9,20.7 39.8,20.6 C37.8,19.2 35.9,17.8 33.9,16.3 C32.8,15.6 32,14.7 31.3,13.6 C30.1,11.3 31.7,9.6 34.2,9.9 C35.6,10.1 36.7,11.2 37.6,12.2 C38.9,13.4 39.9,14.8 40.7,16.4 C41.3,17.5 42,20.9 40.1,20.6 Z M42.2,25 C43.1,26.1 44.5,27.7 43.1,28.9 C41.6,30 39.5,30 37.9,29 C37.4,28.6 37.3,27.9 37.7,27.4 C38.1,26.6 38.6,25.9 39.1,25.2 C39.4,24.6 39.7,23.8 40.3,23.7 C41.1,23.6 41.8,24.5 42.2,25 Z M32.5,20.5 C32.6,20.6 32.6,20.8 32.5,21 C32.8,21.5 32.7,22.2 32.3,22.7 C31.1,24.1 27.9,23 26.5,22.7 C23.8,22.1 21.2,21 19,19.5 C16.6,17.7 13.2,13.8 18,12.8 C23,11.6 29.2,17 32.5,20.5 Z M53.1,14.6 C52.2,16.4 51,18 49.6,19.4 C48.6,20.4 47,22.2 45.5,22.5 C41.8,23.5 45.7,17.2 46.3,16.3 L46.4,16.2 C47.3,14.4 48.8,12.9 50.5,11.9 C52.6,10.8 54.2,12.2 53.1,14.6 Z M60.9,19 C63.5,20.7 61.9,23.5 59.4,24 C56.9,24.5 54.2,24.9 51.7,25.2 C50.5,25.3 48.1,25.8 47.4,24.3 C46.6,22.4 50.2,20.8 53.2,19.9 C55.9,18.7 58.9,17.8 60.9,19 Z M72.2,24.6 C68.9,10.9 53.2,8.3 41.2,7.8 C35.1,7.5 28.9,7.1 22.8,7.3 C16.4,7.4 9,9.7 7.4,16.8 C7.4,16.9 7.3,17 7.1,17 C6.9,17 6.9,16.9 6.9,16.7 C7.9,1.6 31.6,5.7 41.2,6.3 C49.1,6.8 56,7.8 63,11.5 C67.9,14 73.2,18.5 73.1,24.5 C73.1,24.7 73,25 72.7,25 C72.4,25 72.3,24.8 72.2,24.6 Z" id="Shape_3_" fill="#C2392F" fill-rule="nonzero"></path>
            <path d="M60.3,6.4 C59.8,6.2 59.4,6.1 58.9,6 C55.6,6.2 52.2,6.6 48.8,7.1 C53.8,7.7 58.6,9.2 63,11.5 C67.9,14 73.2,18.5 73.1,24.5 C73.1,24.7 72.9,24.9 72.7,24.9 C72.5,24.9 72.3,24.8 72.2,24.6 C71.7,22.7 70.9,20.8 69.9,19.1 C71.4,22.4 72.2,26.3 70.9,29.9 C70.6,30.7 70.2,31.4 69.6,32.1 L70.3,32 C70.6,32 70.8,32.1 70.9,32.4 C71,32.7 70.8,33 70.6,33.1 C69.4,33.6 68.1,34 66.8,34.3 C63.1,36.2 57.8,36.3 54,36.5 C50.6,36.6 47.2,37.4 43.8,37.5 C42,37.5 40.6,37 39.2,37.9 C37.4,39 37.3,40.2 34.7,40.9 L33.2,41.2 C34.2,41.4 35.1,41.6 36.1,41.8 C43.8,43.3 51.6,44 59.4,44 C66.5,43.9 74.3,41.6 78,35.4 C81.3,27.9 76.4,19.3 71,13.8 C67.9,10.6 64.5,7.8 60.3,6.4 Z" id="Path_44_" fill="#912B23"></path>
            <path d="M62.1,12.3 C62.9,12.7 63.6,13.1 64.4,13.6 C59,10 51.8,8.6 45.2,8 C50.7,9.8 56.8,9.3 62.1,12.3 Z" id="Path_45_" fill="#912B23"></path>
            <path d="M19.6,18.4 C21.1,19.4 22.8,20.2 24.6,20.7 C25.7,21.1 28.7,22.2 29.8,21.8 C32.1,20.9 29.7,19.4 28.8,18.6 C27.6,17.5 24.5,15.7 24.5,15.6 C22.9,14.7 20.7,13.4 18.7,13.6 C14,14.4 18.1,17.4 19.6,18.4 Z" id="Path_46_" fill="#D95E55"></path>
            <path d="M192.6,2.6 C186.2,2.5 179.8,3.1 173.6,4.4 C168.8,5.5 163.8,7.2 161.3,11.6 C161.9,12.3 162.4,13 162.9,13.8 C164.9,10.5 168.8,9.2 172.4,8.2 C177.7,6.7 183.2,6 188.7,5.9 C198,5.7 211.3,6 218.5,12.8 C219,13.3 218.2,14.1 217.7,13.6 C210.9,7.7 198.8,7.4 190.2,7.4 C185.3,7.4 180.4,7.9 175.7,8.9 C171.5,9.8 166,10.9 163.4,14.7 C164.7,17.4 165.6,20.3 166.2,23.3 C166.8,25.6 167,28 166.7,30.3 C166.6,31.2 166.4,32.1 166,32.9 C171.7,35.5 177.9,36.8 184.2,36.9 C190.3,37.2 196.5,37.1 202.6,36.6 C213.1,35.7 232.9,29.4 225.5,14.9 C219.8,4 203.3,2.8 192.6,2.6 Z M196.6,12.5 C197.5,10.4 202.8,12 204.5,12.4 C206.6,12.9 210.3,13.7 211.1,16 C211.4,16.7 211.3,17.5 210.8,18.1 C210.3,18.7 209.6,19 208.8,18.8 C207.1,18.7 205.2,17.4 203.8,16.6 C202.4,15.9 201.1,15.2 199.7,14.5 C198.8,14.1 197.8,13.6 196.8,13.2 C196.6,13.2 196.5,13.1 196.4,12.9 C196.5,12.8 196.5,12.6 196.6,12.5 Z M188.8,9.9 C189.2,9.4 189.8,9 190.4,8.9 C191.1,8.8 191.7,8.7 192.4,8.8 C192.9,8.9 193.5,9.2 193.5,9.8 C193.4,10.3 193.1,10.7 192.7,10.9 C191.6,11.5 190.2,11.5 189.1,10.8 C189,10.7 188.9,10.6 188.9,10.5 C188.8,10.5 188.6,10.4 188.6,10.3 C188.6,10.1 188.6,10 188.8,9.9 Z M189.2,13.3 C191.7,14.3 193.2,17.4 194.7,19.5 C195.9,21.2 196.8,22.8 194.9,24.3 C190.8,27.5 189.5,22.3 189.1,18.3 C188.8,16.8 188.7,15.3 188.6,13.8 C188.6,13.7 188.7,13.6 188.8,13.5 C188.9,13.3 189,13.3 189.2,13.3 Z M182.4,9.8 C183,9.3 183.8,9 184.6,8.9 C185.2,8.7 185.8,8.7 186.3,8.9 C187.3,9.5 186.4,11.3 185.8,11.9 C184.7,13 183.5,12 182.7,11.1 C182.1,10.8 181.8,10.3 182.4,9.8 Z M182.6,16.1 C183.2,15.6 184.5,14.3 185.4,14.9 C187,15.9 183.1,20.4 182.3,21.2 C181.4,22.3 180.5,23.4 179,23.5 C178.3,23.6 176.6,23.6 176.3,22.7 C176,21.8 177.7,20.6 178.2,20.1 L178.5,19.9 C179.8,18.6 181.1,17.3 182.6,16.1 Z M172.2,20.4 C171.9,20.3 171.7,20.1 171.6,19.9 C171.5,19.6 171.5,19.3 171.7,19.1 C172.3,18.1 173.1,17.3 174.1,16.7 C174.5,16.4 174.9,16.1 175.3,15.9 C176.5,14.9 179.3,12.6 179.7,14.4 C179.9,15.3 178.6,16.3 178.1,16.9 C177.2,17.9 176.2,18.7 175.1,19.5 C174.4,19.8 173.1,20.6 172.2,20.4 Z M223.4,18.2 C219.3,25.4 209.3,27.3 201.8,28.9 C193.4,30.6 183,32.3 175.1,28.2 C174.9,28.1 175,27.8 175.2,27.9 C183.5,30 192.9,28.7 201.2,27 C208.4,25.6 217.8,23.7 222.7,17.8 C223.1,17.3 223.6,17.8 223.4,18.2 Z" id="Shape_4_" fill="#C2392F" fill-rule="nonzero"></path>
            <path d="M193,2.6 C189.9,3.6 186.8,4.9 183.8,6.3 C185.4,6.2 187,6.1 188.7,6 C198,5.8 211.3,6.1 218.5,12.9 C219,13.4 218.2,14.2 217.7,13.7 C216.6,12.7 215.3,11.9 214,11.3 C217.6,13.2 220.4,15.9 219.8,20.2 C219.8,20.3 219.8,20.5 219.7,20.6 C220.8,19.8 221.8,18.8 222.7,17.7 C223,17.3 223.6,17.8 223.4,18.2 C222.2,20.3 220.4,22.1 218.3,23.4 C216.6,25.4 213.7,26.2 210.7,26.8 C207.7,27.7 204.6,28.3 201.8,28.9 L199.9,29.3 C199.2,29.9 198.6,30.7 198.1,31.5 C196.8,33.9 196,34.1 193.1,34.1 C189.6,34.1 184.9,33.5 183.5,36.9 L183.9,36.9 C190,37.2 196.2,37.1 202.3,36.6 C212.8,35.7 232.6,29.4 225.2,14.9 C219.8,4.2 203.8,2.8 193,2.6 Z" id="Path_47_" fill="#912B23"></path>
            <path d="M213.9,11.2 C213.7,11.1 213.5,11 213.3,10.9 L213.9,11.2 Z" id="Path_48_" fill="#912B23"></path>
            <path d="M184.3,11.5 C184.7,11.6 185.2,11.4 185.4,11.1 C185.6,10.8 185.8,10.6 185.9,10.2 C186,9.9 186.1,9.6 185.7,9.5 C185.5,9.5 185.3,9.5 185.2,9.6 C184.8,9.7 184.4,9.8 184,9.9 C183.7,10 183.5,10.1 183.2,10.3 C183,10.4 182.9,10.3 183.1,10.6 C183.5,10.9 183.9,11.2 184.3,11.5 Z" id="Path_49_" fill="#D95E55"></path>
            <path d="M190.3,10.4 C190.9,10.6 191.6,10.5 192.2,10.2 C192.5,10.1 192.5,9.9 192.2,9.8 L191.8,9.8 L191,9.8 C190.6,9.8 190.1,9.9 189.7,10.1 C189.7,10.1 189.7,10.2 189.7,10.2 C189.6,10.3 190.1,10.3 190.3,10.4 Z" id="Path_50_" fill="#D95E55"></path>
            <path d="M202.9,15.2 L205.3,16.3 L207.3,17.2 C208.9,18.3 209.5,17.4 209.1,14.7 C208.5,13.9 206.6,13.7 205.7,13.5 C205,13.3 198.8,12 198.2,12.8 C198.4,12.5 200.9,14 202.9,15.2 Z" id="Path_51_" fill="#D95E55"></path>
            <path d="M189.9,20.2 C190.2,21.8 191.4,26.4 194.3,23.6 C195.9,22 193.9,20 193,18.6 C192,17.2 191,15.4 189.5,14.5 C189.6,16.3 189.7,18 189.9,19.8 C189.9,19.9 189.9,20 189.9,20.2 Z" id="Path_52_" fill="#D95E55"></path>
            <path d="M177.4,22.3 C177.5,22.7 178.3,22.7 178.7,22.6 C179.9,22.3 181,21.6 181.7,20.6 C182.6,19.6 183.3,18.6 184,17.5 C184.1,17.3 184.7,16.6 184.6,16.4 C184.8,15.4 184.4,15.3 183.7,15.9 L183,16.5 C182.3,17.1 181.6,17.8 181,18.4 C180.1,19.3 179.3,20.1 178.4,21 C178.1,21.4 177.4,21.9 177.4,22.3 Z" id="Path_53_" fill="#D95E55"></path>
            <path d="M178.4,15.2 C179,14.5 178.7,14.6 178.3,14.8 C178.3,14.9 178.2,14.9 178.2,15 C178,15.1 177.8,15.2 177.6,15.3 C176.9,15.8 176.1,16.2 175.4,16.7 C175,17 174.6,17.3 174.2,17.6 C173.9,17.9 172.4,18.9 173.1,19.4 C173.4,19.6 174.7,18.6 175,18.4 C176.2,17.5 177.4,16.4 178.4,15.2 Z" id="Path_54_" fill="#D95E55"></path>
            <path d="M79.3,32.2 C76.6,40.8 67.5,43.8 59.3,43.9 C51.5,43.9 43.7,43.2 36,41.7 C28.8,40.4 21.9,37.9 15.5,34.4 C7.8,30.1 1.5,25.2 1.9,15.6 C1.9,15.5 1.8,15.5 1.8,15.5 C1.8,15.5 1.7,15.5 1.7,15.6 C-0.3,23.7 3.4,29 9.9,33.3 C17.9,38.6 26.9,42.1 36.3,43.8 C49.5,46 76,50.7 80.6,32.6 C80.7,32.2 80.5,31.9 80.2,31.8 C79.9,31.7 79.5,31.8 79.3,32.2 Z" id="Path_55_" fill="#3B1100"></path>
            <path d="M222.7,17.7 C217.9,23.7 208.4,25.5 201.3,26.9 C193,28.5 183.6,29.9 175.3,27.8 C175.1,27.8 175,28 175.2,28.1 C183.1,32.2 193.5,30.6 201.9,28.8 C209.4,27.3 219.4,25.4 223.5,18.1 C223.6,17.8 223.1,17.3 222.7,17.7 Z" id="Path_56_" fill="#3B1100"></path>
            <path d="M155,30.6 C151.2,33.1 146.9,34.8 142.4,35.7 C137,36.8 129.9,38.1 124.4,37.3 C124.2,37.3 124.1,37.6 124.3,37.6 C134.3,40 147.8,38.6 155.4,31.1 C155.6,30.8 155.3,30.4 155,30.6 Z" id="Path_57_" fill="#3B1100"></path>
            <path d="M70.3,31.9 C49.6,36.2 29,33.6 10.7,22.6 C10.5,22.5 10.3,22.8 10.5,22.9 C27.1,35.7 50.7,40.3 70.6,32.9 C70.9,32.8 71,32.5 70.9,32.2 C70.8,32.1 70.6,31.9 70.3,31.9 Z" id="Path_58_" fill="#3B1100"></path>
            <path d="M75.4,15.9 C72.5,12 68.8,8.7 64.6,6.3 C59.6,3.6 53.6,2.9 48,2.2 C34.9,0.4 -8.7,-2.1 2.5,23 C2.6,23.2 2.8,23 2.8,22.9 C2.4,20.4 1.8,17.7 2.1,15.2 C2.7,11.6 4.4,9.8 7.2,8 C10.6,5.9 14.4,4.4 18.3,3.7 C27.8,1.8 38.1,2.7 47.6,4 C51.8,4.5 56.2,5.1 60.2,6.4 C64.5,7.9 67.8,10.6 70.9,13.8 C77,20 82.4,30.2 76.1,38.3 C75.7,38.9 76.4,39.7 76.9,39.1 C83.2,32 80.8,22.8 75.4,15.9 Z" id="Path_59_" fill="#3B1100"></path>
            <path d="M166.1,23.3 C165.1,18.3 163.5,13.2 159.5,9.9 C149.9,2.1 133.5,4.6 122.1,5.1 C110.1,5.7 95.3,6.4 86.4,15.6 C79.5,22.7 79.4,32.1 84.4,39.7 C85,41 85.8,42.2 86.9,43.1 C89.5,45.4 93.1,46.2 96.3,47 C106.7,49.6 117.5,51.1 128.3,50.3 C137.2,49.7 146,47.3 153.9,43.2 C158.7,40.6 166.2,36.3 166.7,30.3 C166.9,28 166.7,25.6 166.1,23.3 Z M147.4,43.9 C140.3,46.7 132.7,48.2 125.1,48.3 C116.9,48.4 108.6,47.6 100.6,45.8 C97.1,45 93.1,44.4 89.9,42.8 C87.2,41.3 85.2,38.9 84.1,36.1 C81.7,28.7 82.8,21 89.7,15.4 C98.2,8.4 110.9,7.8 121.3,7.2 C131.3,6.6 142.5,5.4 152.2,8.2 C158.1,9.9 161.5,13.8 163.5,19.5 C169.4,37.4 153.3,41.6 147.4,43.9 Z" id="Shape_5_" fill="#3B1100" fill-rule="nonzero"></path>
            <path d="M220.9,7.1 C211.9,0.9 198.7,-9.15933995e-16 188.1,0.3 C178.8,0.6 163.8,1.3 159.1,11.1 C158.5,12.4 160.4,13.5 161,12.2 C163.4,7.3 168.6,5.5 173.6,4.4 C179.8,3.1 186.2,2.4 192.6,2.6 C203.3,2.8 219.8,4.1 225.3,14.9 C232.7,29.4 212.9,35.7 202.4,36.6 C196.3,37.1 190.1,37.2 184,36.9 C177.3,36.8 170.8,35.3 164.8,32.4 C164.6,32.3 164.5,32.4 164.4,32.5 C164.3,32.7 164.3,32.8 164.5,33 C168.7,36.4 173.9,38.4 179.3,38.7 C185.9,39.2 192.5,39.3 199.1,38.9 C208.4,38.4 219.6,36.8 225.8,29 C231.6,21.6 228.1,12.1 220.9,7.1 Z" id="Path_60_" fill="#3B1100"></path>
            <path d="M116.9,38 C111.5,37.6 106.2,36.9 100.9,35.9 C96,34.8 91.4,33 86.6,31.7 C86.5,31.7 86.4,31.8 86.5,31.9 C94.6,38.2 107,40.3 116.9,38.8 C117.4,38.7 117.3,38 116.9,38 Z" id="Path_61_" fill="#3B1100"></path>
            <path d="M63,11.5 C55.9,7.8 49,6.8 41.1,6.4 C31.6,5.8 7.9,1.6 6.9,16.7 C6.9,16.9 7,17 7.1,17 C7.2,17 7.3,16.9 7.4,16.8 C9,9.7 16.4,7.4 22.8,7.3 C28.9,7.2 35.1,7.6 41.2,7.8 C53.2,8.3 68.9,10.9 72.3,24.6 C72.4,24.8 72.6,24.9 72.8,24.9 C73,24.9 73.2,24.7 73.2,24.5 C73.2,18.4 67.9,14 63,11.5 Z" id="Path_62_" fill="#3B1100"></path>
            <path d="M145.2,10 C136.4,8.9 127.6,8.9 118.8,10 C110.8,10.9 102.9,12.9 95.4,15.9 C90.4,18 85.2,22 86.5,28 C86.5,28.1 86.7,28.2 86.8,28.2 C86.9,28.2 87,28.1 87,28 C87.2,19.8 96,17.4 102.5,15.4 C108.8,13.5 115.2,12.2 121.7,11.5 C127.6,10.9 133.5,10.8 139.3,11.2 C146.5,11.7 154.8,12.1 158.1,19.5 C158.3,20 159,19.6 158.9,19.1 C157.9,12.7 150.8,10.8 145.2,10 Z" id="Path_63_" fill="#3B1100"></path>
            <path d="M218.5,12.9 C211.3,6 198.1,5.8 188.7,6 C183.2,6.1 177.7,6.8 172.4,8.3 C168.4,9.4 164.2,10.8 162.3,14.9 C162.1,15.3 162.7,15.7 163,15.3 C165.4,11.1 171.3,10 175.7,9 C180.5,8 185.4,7.5 190.2,7.5 C198.8,7.5 210.8,7.8 217.7,13.7 C218.3,14.1 219.1,13.4 218.5,12.9 Z" id="Path_64_" fill="#3B1100"></path>
            <path d="M120.6,24 C120.5,24 120.5,24 120.4,24 C116.7,25.1 113.2,27 110.2,29.5 C109,30.5 107,31.9 108.6,33.5 C112.5,37.4 120.3,28.1 121.2,24.8 C121.3,24.6 121.2,24.4 121.1,24.3 C121,24.1 120.8,24 120.6,24 Z M116.2,29.6 C115.3,30.6 114.3,31.4 113.2,32.2 C112.4,32.7 111.5,33 110.5,33.1 C109.2,32.1 109.1,31.4 110.1,30.9 C111.1,29.5 113.7,28.3 115.2,27.5 C116,27 116.9,26.6 117.7,26.1 C117.9,26.3 118.1,26.3 118.3,26.2 C118.8,26 119.2,25.8 119.7,25.6 C118.7,27 117.6,28.4 116.2,29.6 Z" id="Shape_6_" fill="#3B1100" fill-rule="nonzero"></path>
            <path d="M138.8,13 C138.1,10.7 134.9,11.6 133.5,12.5 C130.8,14.5 128.4,16.8 126.3,19.5 C125.7,20 125.1,20.6 124.5,21.2 C124.4,21.3 124.3,21.6 124.4,21.7 C124.5,21.9 124.7,22 124.9,22 C128.3,21.8 131,20 133.8,18.1 C135.1,17.3 139.4,15.2 138.8,13 Z M134,16.7 C133.3,17.2 132.5,17.8 131.7,18.3 C130.1,19.5 128.3,20.3 126.4,20.9 C127.3,20 128.2,19.1 129.1,18.3 C129.2,18.2 129.3,18 129.2,17.8 L130.1,17 C130.9,16.3 131.6,15.5 132.4,14.8 L133.1,14.2 C134.2,12.8 135.5,12.9 136.8,14.6 C136.7,15.1 134.5,16.3 134,16.7 Z" id="Shape_7_" fill="#3B1100" fill-rule="nonzero"></path>
            <path d="M145.4,14.5 C145,13.6 144,13.1 143.1,13.3 C143,13.2 142.8,13.1 142.6,13.2 C141.7,13.6 140.6,13.7 139.8,14.3 C139.1,15 138.5,15.8 138.3,16.8 C137.9,19.1 141.2,18.4 142.5,18.1 C144.4,17.8 146.3,16.8 145.4,14.5 Z M141.6,17 C141.4,17 139.9,17.4 139.7,17.2 C139.4,16.8 140.1,15.6 140.3,15.3 C140.8,14.8 141.5,14.4 142.2,14.3 C143,14.2 143.9,14.2 144.2,14.9 C145,16.4 142.7,16.8 141.6,17 Z" id="Shape_8_" fill="#3B1100" fill-rule="nonzero"></path>
            <path d="M124.2,14 C124.1,13.3 123.3,12.9 122.7,12.6 C122.6,12.6 122.5,12.6 122.4,12.6 C121.8,12.5 121.2,12.6 120.6,13 C120,13.3 119.7,14 119.9,14.6 C120.1,15.8 120.5,16.9 121,18 C121.3,18.6 121.8,19.5 122.6,19.3 C123.4,19.1 123.6,18 123.8,17.3 C124.2,16.2 124.3,15.1 124.2,14 Z M123.2,15.5 C123.1,16 123,16.5 122.9,16.9 C122.8,17.2 122.7,17.5 122.5,17.8 C122.6,18.2 122.5,18.2 122.3,17.9 C121.6,17.1 121.2,16.2 121,15.2 C120.5,13.8 121.5,13.2 122.5,13.4 C122.9,13.6 123.4,13.8 123.5,14.2 C123.5,14.7 123.4,15.1 123.2,15.5 Z" id="Shape_9_" fill="#3B1100" fill-rule="nonzero"></path>
            <path d="M115.9,16.5 C115.7,15.9 115.2,15.5 114.6,15.3 C114.1,15 113.6,14.7 113,14.5 C112.1,14.2 111.2,14 110.2,13.8 C109.9,13.7 109.4,13.6 109,13.8 C108.4,14.3 108.7,15.4 109.1,15.9 C109.6,16.4 110.2,16.8 110.8,17.1 C111.5,17.6 112.2,18.2 113,18.7 C113.7,19.2 115.2,20.5 116,19.5 C116.7,18.9 116.2,17.2 115.9,16.5 Z M115.4,18.6 C115,18.9 113.8,17.7 113.5,17.5 C112.9,17.1 110.1,15.7 109.9,14.8 C111,14.9 112.1,15.3 113.1,15.7 L113.3,15.8 C113.3,15.9 113.5,16 113.6,16 L113.8,16 C114.2,16.2 114.6,16.5 115,16.8 C115.1,17 115.1,17.2 115.2,17.3 C115.3,17.5 115.5,18.5 115.4,18.6 Z" id="Shape_10_" fill="#3B1100" fill-rule="nonzero"></path>
            <path d="M111.9,20.6 C111.8,20.1 111.4,19.8 111,19.6 C110.9,19.5 110.8,19.5 110.7,19.5 C108.9,19.1 107.1,19 105.3,19.3 C102.8,19.6 99.5,19.4 97.1,20.3 C96.3,20.6 95.7,21.1 95.6,22 C95.6,23.2 96.6,23.7 97.6,24 C100.5,24.7 104.1,24.3 107,24.1 C108.5,24 110.8,24 111.7,22.6 C112.2,22 112.3,21.2 111.9,20.6 Z M106,23 C105,23.1 104.1,23.1 103.1,23.1 C102.5,23.1 96.5,23.5 97.7,21.3 C98.1,20.7 102.7,20.7 103.5,20.6 C104.5,20.5 109.4,19.4 110.7,20.9 C111.5,22.4 106.6,22.9 106,23 Z" id="Shape_11_" fill="#3B1100" fill-rule="nonzero"></path>
            <path d="M102.1,25.5 C102,25.5 101.9,25.6 101.9,25.6 C101.2,25.7 100.4,25.7 99.7,25.9 C98.6,26.1 95.7,26.3 95,27.4 C94.4,28.3 95.1,29.8 95.7,30.4 C96.5,31.4 97.4,31.4 98.6,31.2 C100.8,30.7 102.9,30 104.9,29.2 C105.9,28.8 107.7,28.2 108.3,27.1 C109.7,23.9 103.3,25.2 102.1,25.5 Z M105.9,27.6 C104.6,28.8 101.5,29.3 99.8,29.8 L98.2,30.3 L95.8,28.7 C95.5,27.3 98.7,26.9 99.4,26.8 C100.8,26.5 102.2,26.3 103.6,26.2 C104.3,26.1 104.9,26.1 105.6,26.3 C106.3,26 106.6,26.2 106.5,26.8 C106.7,27.2 106.5,27.5 105.9,27.6 Z" id="Shape_12_" fill="#3B1100" fill-rule="nonzero"></path>
            <path d="M145,20.8 C143.3,20.4 141.2,21.5 139.6,22.1 C138.2,22.6 136.8,23.1 135.5,23.6 C134.6,23.8 133.8,24 132.9,24.4 C132.7,24.5 132.6,24.8 132.7,25 C133.1,26.9 138.7,27 140.3,27 C142,27 147.1,27.3 147.8,25.1 C148.2,23.5 146.4,21 145,20.8 Z M145,25.5 C142.6,26.4 139,25.9 136.5,25.4 C136,25.3 135.5,25.2 134.9,25 C135.1,24.9 135.2,24.9 135.4,24.8 C136.2,24.4 137.2,24.2 138.1,23.8 C138.2,23.7 138.3,23.6 138.3,23.5 C139.1,23.2 140,22.9 140.8,22.6 C141.7,22.2 142.7,22 143.6,21.8 C145.1,21.7 146.4,22.7 146.7,24.2 C146.5,25 145.8,25.5 145,25.5 Z" id="Shape_13_" fill="#3B1100" fill-rule="nonzero"></path>
            <path d="M130.1,26 C129.4,25.1 128.4,24.4 127.3,24 C126.7,23.8 125.4,23.3 124.9,23.9 C124.4,24.5 125.2,26.4 125.4,27.1 C125.8,28.4 126.1,30 127.2,31 C127.3,31.1 127.4,31.1 127.6,31.1 C127.7,31.1 127.8,31 127.9,30.9 C128.3,30.9 128.7,30.9 129,30.8 C129.9,30.5 131.1,29.9 131.3,28.8 C131.3,27.8 130.8,26.8 130.1,26 Z M128.7,29.6 C127.5,29.9 127.3,29 126.8,28.1 C126.7,27.9 126.6,27.6 126.5,27.4 C126.3,26.9 126.2,26.4 126,25.9 C125.9,25.7 125.6,25.1 125.6,24.9 C125.7,24.2 126.2,24.4 126.6,24.5 C127.4,24.7 128.2,25.1 128.8,25.7 C129.4,26.2 129.8,26.8 130.1,27.6 C130.3,28.6 129.7,29.3 128.7,29.6 Z" id="Shape_14_" fill="#3B1100" fill-rule="nonzero"></path>
            <path d="M50.4,12 C48.7,13 47.3,14.5 46.3,16.3 L46.2,16.4 C45.7,17.3 41.8,23.5 45.4,22.6 C46.9,22.2 48.4,20.5 49.5,19.5 C50.9,18.1 52.1,16.5 53.1,14.7 C54.2,12.2 52.6,10.8 50.4,12 Z M52.5,14.5 C52.2,15.1 51.8,15.6 51.4,16.1 C50.1,17.8 48.6,19.4 46.8,20.7 C46.2,21.1 46,21.5 45.3,21.4 C44.2,21.2 45.3,20.1 45.6,19.4 C45.9,18.7 46.2,17.9 46.5,17.1 C46.9,16.3 47.4,15.6 48,15 C48.5,14.3 49.9,12.7 50.7,12.6 C52.2,12.1 52.7,12.6 52.9,13.6 L52.5,14.5 Z" id="Shape_15_" fill="#3B1100" fill-rule="nonzero"></path>
            <path d="M32.5,20.9 C32.6,20.8 32.6,20.6 32.5,20.4 C29.3,16.9 23.1,11.6 17.9,12.6 C13.1,13.6 16.5,17.5 18.9,19.3 C21.2,20.8 23.8,21.9 26.5,22.5 C27.9,22.9 31.1,23.9 32.3,22.5 C32.6,22.1 32.7,21.4 32.5,20.9 Z M29.8,21.9 C28.7,22.3 25.7,21.2 24.6,20.8 C22.8,20.3 21.1,19.5 19.6,18.5 C18.1,17.5 14,14.4 18.8,13.8 C20.7,13.5 22.9,14.9 24.6,15.8 C24.6,16 27.6,17.7 28.9,18.8 C29.7,19.5 32.1,20.9 29.8,21.9 Z" id="Shape_16_" fill="#3B1100" fill-rule="nonzero"></path>
            <path d="M40.8,16.5 C40,14.9 38.9,13.5 37.7,12.3 C36.7,11.3 35.7,10.1 34.3,10 C31.8,9.7 30.2,11.4 31.4,13.7 C32.1,14.8 33,15.7 34,16.4 C35.9,17.9 37.9,19.3 39.9,20.7 C40,20.8 40.1,20.8 40.2,20.7 C42,20.9 41.3,17.5 40.8,16.5 Z M40,19.9 C38.6,18.8 37.3,17.7 35.9,16.6 C34.8,15.8 32.6,14.5 32.2,13.1 C31.9,11.5 32.5,10.8 33.9,10.9 C34.8,11.1 35.6,11.6 36.3,12.3 C36.8,12.7 37.2,13.2 37.7,13.7 C38.4,14.4 39,15.2 39.6,16.1 C39.6,16.4 41,20 40,19.9 Z" id="Shape_17_" fill="#3B1100" fill-rule="nonzero"></path>
            <path d="M42.2,25 C41.8,24.5 41.1,23.6 40.3,23.8 C39.7,23.9 39.4,24.7 39.1,25.3 C38.6,26 38.1,26.7 37.7,27.5 C37.3,28 37.4,28.7 37.9,29.1 C39.5,30.1 41.6,30.1 43.1,28.9 C44.5,27.6 43.2,26 42.2,25 Z M41.9,28.4 C41.2,28.8 38.4,29 38.5,27.7 C38.5,27.2 39.1,26.6 39.3,26.2 L39.4,26.1 C39.6,25.8 39.9,25.2 40.3,25 C40.8,24.7 41.1,25.3 41.5,25.7 C41.8,26.1 42.1,26.5 42.4,26.9 C42.8,27.6 42.7,28 41.9,28.4 Z" id="Shape_18_" fill="#3B1100" fill-rule="nonzero"></path>
            <path d="M60.9,19 C58.9,17.7 55.9,18.7 53.2,20 C50.2,20.9 46.6,22.5 47.4,24.4 C48.1,25.9 50.5,25.5 51.7,25.3 C54.2,25 56.9,24.6 59.4,24.1 C61.9,23.5 63.5,20.8 60.9,19 Z M58.6,23 C57.8,23.1 57.1,23.1 56.3,23.3 C55.2,23.5 54.1,23.7 53,23.9 C52.1,24.1 51.2,24.2 50.3,24.2 C48.9,23.7 48.7,23.3 49.6,23 C50.1,22.3 52.1,21.8 52.9,21.4 C53.9,20.9 54.8,20.5 55.7,20 C56.3,19.8 56.8,19.6 57.4,19.5 C61.8,18.5 61.1,23 58.6,23 Z" id="Shape_19_" fill="#3B1100" fill-rule="nonzero"></path>
            <path d="M194.6,19.5 C193.1,17.4 191.6,14.3 189.1,13.3 C189,13.3 188.8,13.3 188.7,13.4 C188.6,13.5 188.5,13.6 188.5,13.7 C188.6,15.2 188.7,16.7 189,18.2 C189.3,22.2 190.7,27.4 194.8,24.2 C196.8,22.8 195.8,21.1 194.6,19.5 Z M194.3,23.5 C191.4,26.3 190.3,21.7 189.9,20.1 C189.9,20 189.9,19.8 189.8,19.7 C189.7,17.9 189.6,16.2 189.4,14.4 C190.9,15.3 191.9,17.2 192.9,18.5 C193.9,19.8 195.9,21.9 194.3,23.5 Z" id="Shape_20_" fill="#3B1100" fill-rule="nonzero"></path>
            <path d="M185.3,14.9 C184.3,14.3 183.1,15.6 182.5,16.1 C181.1,17.3 179.8,18.6 178.5,20 L178.2,20.2 C177.7,20.7 176,21.9 176.3,22.8 C176.6,23.7 178.3,23.6 179,23.6 C180.5,23.5 181.4,22.3 182.3,21.3 C183,20.4 186.9,15.9 185.3,14.9 Z M184.1,17.6 C183.4,18.7 182.6,19.7 181.8,20.7 C181.1,21.7 180,22.4 178.8,22.7 C178.3,22.7 177.5,22.8 177.5,22.4 C177.4,22 178.2,21.5 178.5,21.2 C179.4,20.3 180.2,19.5 181.1,18.6 C181.8,18 182.5,17.3 183.1,16.7 L183.8,16.1 C184.6,15.5 184.9,15.6 184.7,16.6 C184.7,16.7 184.2,17.4 184.1,17.6 Z" id="Shape_21_" fill="#3B1100" fill-rule="nonzero"></path>
            <path d="M179.7,14.3 C179.3,12.6 176.5,14.8 175.3,15.8 C174.9,16.1 174.5,16.3 174.1,16.6 C173.1,17.2 172.3,18 171.7,19 C171.5,19.2 171.5,19.5 171.6,19.8 C171.7,20.1 171.9,20.3 172.2,20.3 C173.1,20.6 174.4,19.8 175.1,19.3 C176.2,18.5 177.2,17.6 178.1,16.7 C178.6,16.2 179.9,15.2 179.7,14.3 Z M178.4,15.3 C177.4,16.5 176.2,17.6 174.9,18.5 C174.6,18.7 173.3,19.7 173,19.5 C172.3,19 173.8,17.9 174.1,17.7 C174.5,17.4 174.9,17.1 175.3,16.8 C176.1,16.4 176.8,15.9 177.5,15.4 C177.7,15.3 177.9,15.2 178.1,15.1 C178.2,15.1 178.2,15 178.2,14.9 C178.7,14.6 179,14.5 178.4,15.3 Z" id="Shape_22_" fill="#3B1100" fill-rule="nonzero"></path>
            <path d="M211.1,16 C210.3,13.6 206.6,12.9 204.5,12.4 C202.8,12 197.5,10.4 196.6,12.5 C196.5,12.6 196.5,12.8 196.6,13 C196.7,13.2 196.8,13.3 196.9,13.3 C197.9,13.7 198.8,14.2 199.8,14.6 C201.1,15.3 202.5,16 203.9,16.7 C205.3,17.4 207.2,18.8 208.9,18.9 C209.6,19 210.4,18.8 210.9,18.2 C211.4,17.6 211.4,16.7 211.1,16 Z M207.3,17.2 L205.3,16.3 L202.9,15.2 C200.9,14 198.3,12.5 198.2,12.7 C198.7,11.9 205,13.3 205.7,13.4 C206.6,13.6 208.5,13.9 209.1,14.6 C209.5,17.4 208.9,18.3 207.3,17.2 Z" id="Shape_23_" fill="#3B1100" fill-rule="nonzero"></path>
            <path d="M186.3,8.9 C185.7,8.7 185.1,8.7 184.6,8.9 C183.8,9 183.1,9.3 182.4,9.8 C181.9,10.3 182.2,10.7 182.7,11.1 C183.5,12 184.7,12.9 185.8,11.9 C186.3,11.3 187.3,9.5 186.3,8.9 Z M185.9,10.2 C185.8,10.5 185.6,10.8 185.4,11.1 C185.1,11.4 184.7,11.6 184.3,11.5 C183.9,11.2 183.5,10.9 183.1,10.6 C182.9,10.3 183,10.4 183.2,10.3 C183.4,10.1 183.7,10 184,9.9 C184.4,9.7 184.8,9.6 185.2,9.6 C185.4,9.5 185.6,9.5 185.7,9.5 C186.1,9.6 186,10 185.9,10.2 Z" id="Shape_24_" fill="#3B1100" fill-rule="nonzero"></path>
            <path d="M192.4,8.8 C191.7,8.7 191.1,8.8 190.4,8.9 C189.8,9 189.2,9.4 188.8,9.9 C188.7,10 188.7,10.1 188.7,10.2 C188.7,10.3 188.8,10.4 188.9,10.4 C188.9,10.5 189,10.6 189.1,10.7 C190.2,11.4 191.5,11.5 192.7,10.8 C193.1,10.6 193.4,10.2 193.4,9.7 C193.4,9.2 192.9,8.9 192.4,8.8 Z M192.2,10.1 C191.6,10.4 191,10.5 190.3,10.3 C190.2,10.3 189.7,10.2 189.7,10.1 C189.7,10.1 189.7,10 189.7,10 C190.1,9.9 190.6,9.8 191,9.7 L191.8,9.7 L192.2,9.7 C192.4,9.9 192.4,10 192.2,10.1 Z" id="Shape_25_" fill="#3B1100" fill-rule="nonzero"></path>
            <path d="M109.6,43.1 C102.2,41.6 94.6,39.8 88.2,35.5 C87.8,35.2 87.4,35.8 87.7,36.2 C93.2,42 101.5,44.6 109.3,45.1 C109.7,45.2 110,45 110.2,44.7 C110.4,44.4 110.5,44 110.3,43.7 C110.3,43.4 110,43.1 109.6,43.1 Z" id="Path_65_" fill="#FFFEFF"></path>
            <path d="M176.8,31.3 C174.2,30.6 171.5,30.1 168.8,29.9 C168.4,29.9 168.4,30.3 168.6,30.5 C170.8,32.1 173.4,33.1 176.2,33.4 C177.6,33.6 178.2,31.6 176.8,31.3 Z" id="Path_66_" fill="#FFFEFF"></path>
            <path d="M14.4,29.8 C10.4,26.6 6.9,22.8 4,18.6 C3.9,18.4 3.7,18.3 3.5,18.4 C3.3,18.5 3.2,18.7 3.3,18.9 C4.9,24.2 8.3,28.7 13,31.6 C14,32.2 15.4,30.5 14.4,29.8 Z" id="Path_67_" fill="#FFFEFF"></path>
            <path d="M22.9,33 C20.7,32.7 18.5,32.3 16.3,31.9 C16.1,31.8 15.8,32 15.8,32.2 C15.8,32.4 15.8,32.7 16,32.8 C18,34 20.3,34.7 22.7,34.7 C23.6,34.7 23.9,33.2 22.9,33 Z" id="Path_68_" fill="#FFFEFF"></path>
        </g>
    </g>
</svg>