<?xml version="1.0" encoding="UTF-8"?>
<svg width="370px" height="364px" viewBox="0 0 370 364" version="1.1" xmlns="http://www.w3.org/2000/svg" xmlns:xlink="http://www.w3.org/1999/xlink">
    <!-- Generator: Sketch 52.3 (67297) - http://www.bohemiancoding.com/sketch -->
    <title>upper-layout</title>
    <desc>Created with Sketch.</desc>
    <defs>
        <linearGradient x1="100%" y1="0.868511057%" x2="0%" y2="100%" id="linearGradient-1">
            <stop stop-color="#FFA32A" offset="0%"></stop>
            <stop stop-color="#FE9C24" offset="21.8862987%"></stop>
            <stop stop-color="#FE941D" offset="40.220465%"></stop>
            <stop stop-color="#FF7C01" offset="100%"></stop>
        </linearGradient>
        <path d="M267.343822,150.703492 C257.745247,93.2952635 213.104759,131.67442 199.692989,47.1511418 C194.846298,16.610308 165.408424,12.6914222 130.588645,23.3813484 C115.586667,27.987487 99.5864689,35.3073368 84.1225867,44.3767582 C48.0344988,65.544257 14.8716231,96.2511128 4.16127932,124.299965 C-12.4739004,167.864406 22.8762804,260.312227 72.6716171,278.320701 C100.002161,288.204787 106.819706,290.571251 119.272389,290.960658 C184.883235,293.008627 256.891991,214.619664 266.929321,168.449619 C268.172274,162.730418 268.362989,156.801621 267.343822,150.703492 Z" id="path-2"></path>
        <filter x="-10.8%" y="-12.1%" width="121.6%" height="121.2%" filterUnits="objectBoundingBox" id="filter-3">
            <feOffset dx="0" dy="-4" in="SourceAlpha" result="shadowOffsetOuter1"></feOffset>
            <feGaussianBlur stdDeviation="9" in="shadowOffsetOuter1" result="shadowBlurOuter1"></feGaussianBlur>
            <feColorMatrix values="0 0 0 0 0.329411765   0 0 0 0 0.670588235   0 0 0 0 1  0 0 0 0.148352582 0" type="matrix" in="shadowBlurOuter1"></feColorMatrix>
        </filter>
        <path d="M329.818469,232.674225 C355.80405,207.159639 350.527497,152.16191 338.307608,133.912483 C329.056249,120.096318 311.120486,116.710035 300.71751,114.930347 C287.608389,112.687706 245.675137,123.323302 232.382598,99.5935825 C188.461307,21.1856923 152.691705,56.3877184 129.421642,71.6940216 C106.151578,87.000325 79.3319159,158.854229 107.514053,193.14817 C129.421642,214.240282 123.327394,195.016144 158.711471,202.89851 C174.528583,210.608369 189.623272,236.868717 196.488604,240.215696 C212.537702,248.039936 264.004653,246.80789 294.582013,255.448581 C309.885796,249.648636 321.247028,241.090305 329.818469,232.674225 Z" id="path-4"></path>
        <filter x="-11.5%" y="-16.1%" width="122.9%" height="128.3%" filterUnits="objectBoundingBox" id="filter-5">
            <feOffset dx="0" dy="-4" in="SourceAlpha" result="shadowOffsetOuter1"></feOffset>
            <feGaussianBlur stdDeviation="9" in="shadowOffsetOuter1" result="shadowBlurOuter1"></feGaussianBlur>
            <feColorMatrix values="0 0 0 0 0.329411765   0 0 0 0 0.670588235   0 0 0 0 1  0 0 0 0.148352582 0" type="matrix" in="shadowBlurOuter1"></feColorMatrix>
        </filter>
        <path d="M51.2957564,325.218229 C19.062242,309.941277 23.5723687,264.569167 53.3145979,245.957682 C97.5751168,218.261311 93.4928027,158.376421 161.936399,169.320225 C237.28732,181.367293 257.743923,256.662582 218.426571,303.762191 C192.642413,334.648697 115.240081,355.523899 51.2957564,325.218229 Z" id="path-6"></path>
        <filter x="-13.9%" y="-19.2%" width="127.8%" height="133.7%" filterUnits="objectBoundingBox" id="filter-7">
            <feOffset dx="0" dy="-4" in="SourceAlpha" result="shadowOffsetOuter1"></feOffset>
            <feGaussianBlur stdDeviation="9" in="shadowOffsetOuter1" result="shadowBlurOuter1"></feGaussianBlur>
            <feColorMatrix values="0 0 0 0 0.329411765   0 0 0 0 0.670588235   0 0 0 0 1  0 0 0 0.148352582 0" type="matrix" in="shadowBlurOuter1"></feColorMatrix>
        </filter>
    </defs>
    <g id="Login-version2" stroke="none" stroke-width="1" fill="none" fill-rule="evenodd">
        <g id="Register" transform="translate(-1.000000, -23.000000)">
            <g id="contents" transform="translate(11.000000, -56.000000)">
                <g id="upper-layout" transform="translate(0.000000, 79.000000)">
                    <g id="Group">
                        <g id="another-shape" transform="translate(8.000000, 10.000000)">
                            <g id="Path" opacity="0.80485026">
                                <use fill="black" fill-opacity="1" filter="url(#filter-3)" xlink:href="#path-2"></use>
                                <use fill="url(#linearGradient-1)" fill-rule="evenodd" xlink:href="#path-2"></use>
                            </g>
                            <g id="Path" opacity="0.801734561" transform="translate(221.915646, 152.948581) rotate(30.000000) translate(-221.915646, -152.948581) ">
                                <use fill="black" fill-opacity="1" filter="url(#filter-5)" xlink:href="#path-4"></use>
                                <use fill="url(#linearGradient-1)" fill-rule="evenodd" xlink:href="#path-4"></use>
                            </g>
                            <g id="Path" opacity="0.846051897">
                                <use fill="black" fill-opacity="1" filter="url(#filter-7)" xlink:href="#path-6"></use>
                                <use fill="url(#linearGradient-1)" fill-rule="evenodd" xlink:href="#path-6"></use>
                            </g>
                        </g>
                        <path d="M300.323779,145.970054 C344.091059,281.836664 223.985742,364.341149 113.152919,324.286731 C25.9701235,292.778969 -9.34589943,195.11625 2.08811301,146.658846 C18.0530508,79.0115061 92.7148803,136.124867 89.5965133,51.7162362 C86.5318402,-31.2742527 245.474939,-24.3024687 300.323779,145.970054 Z" id="Path" fill="#F8B268"></path>
                        <path d="M269.185569,207.029273 C251.011616,211.991737 239.633362,226.78839 221.849722,232.386027 C203.491282,238.33356 184.591087,225.399119 169.145877,212.977493 C144.821237,193.740814 122.329757,164.652073 127.440987,134.461402 C133.84431,92.4169111 121.693004,52.6470838 103.306341,15 C94.1818475,23.7576936 89.0182998,36.1875691 89.59654,51.8043103 C92.7142189,136.212941 18.0523892,79.1002677 2.08813978,146.74692 C-9.34587266,195.204324 25.9694619,292.867043 113.152946,324.374805 C201.994741,356.481307 296.786215,309.838684 308.36823,220.090198 C296.848169,209.864181 284.087646,202.693733 269.185569,207.029273 Z" id="Path" fill="#FE8D18"></path>
                        <path d="M265.33902,274.367993 C225.036363,270.109444 188.623749,272.213628 150.104,274.728887 C139.369383,275.157835 129.369957,271.645821 119.16264,266.512191 C66.3417706,239.804662 30.3291056,198.083258 1.29180799,151 C-7.47541552,200.614327 28.228166,294.054243 113.144811,324.742604 C179.038729,348.556794 248.19695,329.036898 284.256425,280.75066 C278.357686,277.185028 271.933713,274.886305 265.33902,274.367993 Z" id="Path" fill="#FE8F1A"></path>
                        <path d="M127.13327,134.371352 C122.022728,164.562022 144.512831,193.650763 168.83747,212.888131 C184.284057,225.30907 203.184941,238.244197 221.542004,232.297352 C239.327021,226.697652 250.70321,211.903062 268.87854,206.939911 C283.779929,202.604371 296.540452,209.774819 308.061889,220.000835 C310.926932,197.784203 308.701395,172.928576 300.016777,145.968078 C255.488837,7.73812767 142.360263,-22.8670554 103,14.9106374 C121.385975,52.557721 133.537969,92.3268615 127.13327,134.371352 Z" id="Path" fill="#FE8810"></path>
                    </g>
                    <g id="Group" transform="translate(65.000000, 254.000000)">
                        <polygon id="Path" fill="#FD5F08" points="221.426347 87.9878802 212.466393 87.9878802 204.256265 1.76210778 213.217272 1.76210778"></polygon>
                        <polygon id="Path" fill="#3751FE" points="46.2314403 87.9878802 37.272541 87.9878802 46.1134075 1.76210778 55.0723068 1.76210778"></polygon>
                        <polygon id="Path" fill="#5A6FFE" points="48.5884075 87.9878802 39.6289813 87.9878802 48.4703747 1.76210778 57.429274 1.76210778"></polygon>
                        <polygon id="Path" fill="#3751FE" points="16.5203747 87.9878802 7.55936768 87.9878802 24.6098361 1.97499401 33.57137 1.97499401"></polygon>
                        <rect id="Rectangle" fill="#5A6FFE" x="0.0421545667" y="0.259257485" width="224.521546" height="1.71573653"></rect>
                        <rect id="Rectangle" fill="#3751FE" x="0.0421545667" y="0.259257485" width="72.5864754" height="1.71573653"></rect>
                    </g>
                    <g id="Group" transform="translate(204.000000, 177.000000)">
                        <path d="M29.0097692,109.370581 L39.6276923,158.401884 L33.4363846,158.303386 C33.4363846,158.303386 18.0006923,122.62785 17.6919231,121.242681 C16.0663846,113.973121 20.7166154,102.510855 20.7166154,102.510855" id="Path" fill="#F9BC71"></path>
                        <path d="M29.0097692,109.370581 L20.7166154,102.510855 C20.7166154,102.510855 18.8217692,107.185718 17.8746923,112.458456 C20.4666923,117.738083 21.3791539,123.462672 23.9206154,128.775361 C28.4995384,138.346879 34.3633846,147.669054 36.4326923,158.350224 L39.6276923,158.401195 L29.0097692,109.370581 Z" id="Path" fill="#FE8A13"></path>
                        <path d="M40.3525384,165.61083 L29.6501539,165.61083 C29.6501539,165.61083 26.7203077,161.382307 30.1264616,161.382307 C30.7377692,161.382307 33.4363846,158.303386 33.4363846,158.303386 L39.6276923,158.401884 L40.0977692,160.737593 L40.3525384,165.61083 Z" id="Path" fill="#FC8C1A"></path>
                        <polygon id="Path" fill="#FD5F08" points="58.9383529 165.611086 55.1345294 165.611086 64.2367059 114.364514 68.0405294 114.364514"></polygon>
                        <polygon id="Path" fill="#FD5F08" points="90.1635882 165.611086 93.9663529 165.611086 84.8647059 114.364514 81.0608824 114.364514"></polygon>
                        <path d="M54.495,41.5241079 C54.0706156,48.7096348 54.5358462,52.6006473 53.8449231,56.0990455 C52.6098461,62.3540082 57.1389231,65.0692449 57.1389231,65.0692449 L55.4607694,76.9427222 L48.1873846,90.8915436 L58.7208462,107.224979 L92.3552306,96.6684811 C92.3552306,96.6684811 89.9259231,64.3797594 87.5139231,52.8506805 C86.5654613,48.3156432 80.1027694,35.8408465 80.1027694,35.8408465 C80.1027694,35.8408465 75.2614613,35.1203652 63.8903075,32.6978672 L54.495,41.5241079 Z" id="Path" fill="#A2A2ED"></path>
                        <path d="M58.626,72.3243403 C57.9336925,70.2579501 59.3183075,67.5027633 61.3952306,66.1251699 C59.5737694,66.5783984 58.3518462,65.8393195 57.1368462,65.0837096 L55.4607694,76.943411 L48.1873846,90.8922323 L49.3767692,92.7361408 C55.6795387,88.234166 59.5703075,81.722971 58.626,72.3243403 Z" id="Path" fill="#3751FE"></path>
                        <path d="M92.3545387,96.6691699 C92.3545387,96.6691699 89.9252306,64.3804482 87.5132306,52.8513693 C86.5647694,48.3163319 80.1020769,35.8415353 80.1020769,35.8415353 C80.1020769,35.8415353 75.2607694,35.1210539 63.8896156,32.698556 L54.495,41.5247967 C54.0706156,48.7103237 54.5358462,52.6013361 53.8449231,56.0997343 C52.6098461,62.354697 57.1389231,65.0699337 57.1389231,65.0699337 L57.1368462,65.0843984 C58.3518462,65.8400082 59.5744613,66.5790871 61.3952306,66.1258592 C59.3183075,67.5034521 57.9336925,70.2586389 58.626,72.325029 C59.5703075,81.7236597 55.6795387,88.2348548 49.3767692,92.7368301 L58.7208462,107.226357 L92.3545387,96.6691699 Z" id="Path" fill="#5A6FFE"></path>
                        <path d="M87.5132306,52.8506805 C86.5647694,48.3156432 80.1020769,35.8408465 80.1020769,35.8408465 C80.1020769,35.8408465 75.7675387,35.1947552 65.6903075,33.078083 C66.2261538,34.3902407 66.5806156,35.7919419 66.9336925,37.1957095 C68.3183075,42.0172863 66.2413844,46.8388631 68.3183075,50.9716432 C76.3310769,66.4737014 80.0363075,85.6732197 75.4116925,101.986681 L92.3552306,96.6684811 C92.3545387,96.6691699 89.9259231,64.3804482 87.5132306,52.8506805 Z" id="Path" fill="#3751FE"></path>
                        <path d="M68.3183075,50.9716432 C66.2413844,46.8388631 68.3183075,42.0172863 66.9336925,37.1957095 C66.5806156,35.7926307 66.2268462,34.3909295 65.6903075,33.078083 C65.1066925,32.9554772 64.512,32.8301162 63.8896156,32.6971784 L54.495,41.5234191 C54.0706156,48.7089461 54.5358462,52.5999585 53.8449231,56.0983567 C52.6098461,62.3533195 57.1389231,65.0685562 57.1389231,65.0685562 L57.1368462,65.0830208 C58.3518462,65.8386307 59.5744613,66.5777096 61.3952306,66.1244811 C59.3183075,67.5020745 57.9336925,70.2572614 58.626,72.3236515 C59.5703075,81.7222822 55.6795387,88.2334773 49.3767692,92.7354521 L58.7208462,107.224979 L75.4116925,101.986681 C80.0356156,85.6732197 76.3310769,66.4737014 68.3183075,50.9716432 Z" id="Path" fill="#5A6FFE"></path>
                        <path d="M72.9581538,13.2476266 C72.9581538,21.2252697 65.9976925,25.855361 60.9230769,29.297278 C55.7252306,32.8225394 50.1798461,21.2252697 50.1798461,13.2476266 C50.1798461,10.1204896 52.2055384,9.24227386 53.5354613,6.87763485 C55.6006156,3.20910374 59.1078462,4.36008299 62.9335387,4.36008299 C69.2238462,4.36008299 72.9581538,5.2699834 72.9581538,13.2476266 Z" id="Path" fill="#FFFFFF"></path>
                        <path d="M50.4789231,11.3837427 C50.2933846,11.914805 50.1798461,12.5181909 50.1798461,13.2476266 C50.1798461,21.2252697 55.7252306,32.8225394 60.9230769,29.297278 C61.1328462,29.1553859 61.3460769,29.0107386 61.5613844,28.8640249 C58.2272306,24.5803984 55.5563075,19.869029 53.7798462,15.1542158 C53.3900769,13.9922158 52.1259231,12.6139336 50.4789231,11.3837427 Z" id="Path" fill="#FFFFFF"></path>
                        <path d="M72.9581538,13.2476266 C72.9581538,5.2699834 69.2238462,4.36008299 62.9342306,4.36008299 C59.1085387,4.36008299 55.6013075,3.20910374 53.5361538,6.87763485 C52.5156923,8.69123649 51.0909231,9.63351036 50.4796154,11.3837427 C52.1266154,12.6132448 53.3907694,13.9922158 53.7805387,15.1542158 C55.557,19.8697179 58.2279231,24.5810871 61.5620769,28.8640249 C66.5612306,25.4675684 72.9581538,20.8967137 72.9581538,13.2476266 Z" id="Path" fill="#E6E6F2"></path>
                        <path d="M68.0406925,103.885693 L23.9143846,109.893378 L20.6792308,158.401884 L14.4872308,158.303386 C14.4872308,158.303386 4.54569231,114.364357 8.94738462,96.4604647 C9.18830769,95.4830625 12.1126154,92.0728301 13.4916923,91.5335019 C23.085,87.7788712 50.085,87.2526307 50.085,87.2526307 C50.085,87.2526307 51.4273846,102.003212 68.0406925,103.885693 Z" id="Path" fill="#F9BC71"></path>
                        <path d="M72.3856156,99.1495271 C55.5576925,104.652324 36.7968461,100.461684 19.2032308,104.400913 C19.062,110.038025 17.6919231,121.242681 16.5766154,126.399701 C13.9555384,138.515635 21.1790769,146.353452 18.7061539,158.370199 L20.6799231,158.401884 L23.9150769,109.893378 L84.5916925,102.911734 C79.9857694,102.391004 75.8956156,100.952797 72.3856156,99.1495271 Z" id="Path" fill="#FE8A13"></path>
                        <path d="M20.7962308,108.86156 C38.0810769,108.86156 61.5876925,99.5758921 61.5876925,84.4423403 C61.5876925,69.3094773 72.684,55.4984148 84.7488462,52.456 C95.1784613,49.8261742 103.512461,49.7359419 106.940769,53.8322159 C110.334461,57.890606 103.761,65.526606 103.761,73.4367469 C103.761,81.3468882 108.255461,114.364357 86.1313844,114.364357 C64.008,114.364357 40.2791539,114.364357 24.6364616,114.364357 C21.1908461,114.364357 20.7962308,108.86156 20.7962308,108.86156 Z" id="Path" fill="#098B25"></path>
                        <path d="M73.1644613,66.8139666 C80.0771538,55.559029 96.1172306,52.2521162 107.822077,57.9209129 C108.051231,56.3339255 107.873308,54.9480663 106.941461,53.8322159 C103.513154,49.7359419 95.1798462,49.8261742 84.7495387,52.456 C72.6846925,55.497726 61.5883844,69.3094773 61.5883844,84.4423403 C61.5883844,99.5758921 38.0817692,108.86156 20.7969231,108.86156 C20.7969231,108.86156 20.8945384,110.177162 21.393,111.521004 C36.1343077,111.086374 50.8389231,108.919419 62.0875387,99.187411 C71.0875387,90.9218504 66.9336925,76.4571205 73.1644613,66.8139666 Z" id="Path" fill="#046121"></path>
                        <path d="M107.821384,57.9209129 C96.1172306,52.252805 80.9536156,56.6776351 72.4707694,66.8139666 C65.6896156,74.916971 71.0868462,90.9218504 62.0868462,99.187411 C50.8382308,108.919419 36.1336154,111.086374 21.3923077,111.521004 C21.9136154,112.926838 22.8752308,114.364357 24.6364616,114.364357 C40.2791539,114.364357 64.008,114.364357 86.1313844,114.364357 C108.255461,114.364357 103.761,81.3468882 103.761,73.4367469 C103.761,67.6997594 107.215616,62.1087967 107.821384,57.9209129 Z" id="Path" fill="#088424"></path>
                        <path d="M20.6792308,165.61083 L2.01807692,165.61083 C2.01807692,165.61083 -0.911076925,161.382307 2.49369231,161.382307 C8.70438462,161.382307 14.4872308,158.303386 14.4872308,158.303386 L20.6792308,158.401884 L20.6792308,165.61083 Z" id="Path" fill="#FD8F1B"></path>
                        <path d="M28.7134616,164.793784 C29.0526923,165.220581 29.6508461,165.61083 29.6508461,165.61083 L40.3532308,165.61083 L40.2576923,164.793784 L28.7134616,164.793784 Z M1.08207692,163.793784 C1.42130769,164.742946 2.01876923,165.61083 2.01876923,165.61083 L20.6799231,165.61083 L20.6799231,163.793784 L1.08207692,163.793784 Z" id="Shape" fill="#FD5F08" fill-rule="nonzero"></path>
                        <polygon id="Path" fill="#FD5F08" points="28.9794706 165.611086 25.1756471 165.611086 34.2783529 114.364514 38.0811176 114.364514"></polygon>
                        <path d="M59.5523075,36.7734772 C67.7533844,34.5527967 70.9926925,36.3106058 69.9812306,44.9625809 C68.9697694,53.6152449 78.2307694,59.2757759 84.9821538,60.0196762 C90.2748462,60.6030871 90.7677694,51.0315684 89.5063844,47.8741245 C88.8715387,46.2857593 85.1088462,41.0695021 84.9343844,40.7684979 C76.7755387,26.671585 90.7719231,28.9597676 79.1176156,21.0386058 C70.3329231,15.0674274 80.307,2.85919502 68.6166925,0.584788383 C58.5484613,-1.37483818 48.1133077,8.61753529 50.1168461,12.6208216 C50.1168461,12.6208216 52.6576154,18.8379004 60.2224613,19.8153029 C75.7564613,21.8217676 52.1446154,28.9081079 59.5523075,36.7734772 Z" id="Path" fill="#30308A"></path>
                        <path d="M83.5490769,47.5276597 C82.8567694,42.0172863 76.626,40.6396929 74.5490769,36.5069129 C72.4721538,31.6853361 78.7029231,26.1749626 75.9336925,21.3533859 C73.8567694,17.9094025 67.626,17.9094025 64.8567694,14.4654191 C62.7798462,12.399029 65.5490769,7.57745227 62.7798462,6.1998589 C60.2321538,5.07367635 57.4525387,4.64386722 54.5843075,4.57016597 C51.1276154,7.29091288 49.14,10.668083 50.1175384,12.6208216 C50.1175384,12.6208216 52.6583077,18.8379004 60.2231538,19.8153029 C75.7571538,21.8217676 52.1453077,28.9081079 59.5523075,36.7734772 C67.7533844,34.5527967 70.9926925,36.3106058 69.9812306,44.9625809 C69.1684613,51.9166722 74.9893844,56.9352449 80.8123844,59.0250537 C82.224,55.2910871 84.3791538,51.6569958 83.5490769,47.5276597 Z" id="Path" fill="#3751FE"></path>
                        <path d="M89.5063844,47.8741245 C88.8715387,46.2857593 85.1088462,41.0695021 84.9343844,40.7684979 C76.7755387,26.671585 90.7719231,28.9597676 79.1176156,21.0386058 C70.3329231,15.0674274 80.307,2.85919502 68.6166925,0.584788383 C63.4610769,-0.418788382 58.2126925,1.71441494 54.5836156,4.57016597 C57.4518462,4.64386722 60.2314613,5.07367635 62.7791538,6.1998589 C65.5483844,7.57745227 62.7791538,12.399029 64.8560769,14.4654191 C67.6253075,17.9094025 73.8560769,17.9094025 75.933,21.3533859 C78.7022306,26.1749626 72.4714613,31.6853361 74.5483844,36.5069129 C76.6253075,40.6396929 82.8560769,42.0172863 83.5483844,47.5276597 C84.3784613,51.6569958 82.2233075,55.2910871 80.8116925,59.0243649 C82.2336925,59.5347633 83.6556925,59.8729627 84.9814613,60.0189874 C90.2741538,60.6023984 90.7677694,51.0315684 89.5063844,47.8741245 Z" id="Path" fill="#5A6FFE"></path>
                        <rect id="Rectangle" fill="#3751FE" x="26.064" y="75.3434476" width="19.7306471" height="2.05998095"></rect>
                        <rect id="Rectangle" fill="#3751FE" x="26.064" y="75.3434476" width="13.5635294" height="2.05998095"></rect>
                        <path d="M16.2546923,77.4035271 C16.4997692,77.0412197 16.6326923,76.6554937 16.6326923,76.255303 C16.6326923,74.1427633 12.9710769,72.429726 8.45446156,72.429726 C3.93853846,72.429726 0.276923077,74.1420745 0.276923077,76.255303 C0.276923077,76.6554937 0.409846154,77.0412197 0.653538462,77.4035271 L16.2546923,77.4035271 Z" id="Path" fill="#3751FE"></path>
                        <path d="M3.27530769,73.457411 C3.27530769,73.457411 3.72323077,72.57644 4.32276923,72.429726 C5.63538462,72.1059918 7.84453844,71.4991617 10.1575384,72.0267803 C13.7533846,72.8443819 13.7000769,73.8672449 15.9846923,73.8080082 C15.9846923,73.8080082 40.1905384,63.1406142 43.3460769,60.5431617 C47.5719231,57.0654274 50.9226923,45.8173776 54.495,41.5241079 C55.3984613,40.4385643 60.2224613,40.2078174 61.9643075,44.535527 C62.9833844,47.0682324 60.2224613,53.0435436 60.2224613,53.0435436 L50.0718461,64.6449463 C50.0718461,64.6449463 29.8197692,73.808697 21.2476154,76.0927469 C20.3995384,76.3186723 18.4700769,77.4035271 16.5433846,77.4035271 C15.4730769,77.4035271 13.5913846,77.4035271 13.5913846,77.4035271 C8.44961538,77.4035271 7.92830769,73.4649874 7.92830769,73.4649874 L3.27530769,73.457411 Z" id="Path" fill="#FFFFFF"></path>
                        <path d="M48.9336923,59.926 C53.5077694,55.3751205 58.5512306,50.8194191 62.1193844,45.1037842 C62.0833844,44.901278 62.0342306,44.7091037 61.9643075,44.535527 C60.2224613,40.2078174 55.3984613,40.4385643 54.495,41.5241079 C50.9233846,45.8173776 47.5726154,57.0654274 43.3460769,60.5431617 C40.1898461,63.1406142 15.9846923,73.8080082 15.9846923,73.8080082 C13.7000769,73.8672449 13.7533846,72.8443819 10.1575384,72.0267803 C7.84453844,71.4991617 5.63607694,72.1059918 4.32276923,72.429726 C3.72392308,72.57644 3.27530769,73.457411 3.27530769,73.457411 L7.929,73.4649874 C7.929,73.4649874 8.15053844,75.0815934 9.65907694,76.2429047 C13.0070769,76.0941244 16.2124616,75.4638756 19.1637692,73.7019337 C29.5490769,68.19156 41.3183077,68.19156 48.9336923,59.926 Z" id="Path" fill="#FFFFFF"></path>
                        <path d="M48.9336923,59.926 C41.3183077,68.19156 29.5490769,68.19156 19.1644616,73.7019337 C16.2124616,75.4645644 13.0070769,76.0948132 9.65976925,76.2429047 C10.5043846,76.8931288 11.7477692,77.4035271 13.5927692,77.4035271 C13.5927692,77.4035271 15.4744616,77.4035271 16.5447692,77.4035271 C18.4714616,77.4035271 20.4009231,76.3186723 21.249,76.0927469 C29.8211539,73.808697 50.0732308,64.6449463 50.0732308,64.6449463 L60.2238462,53.0435436 C60.2238462,53.0435436 62.6157694,47.8617261 62.1200769,45.104473 C58.5505387,50.8194191 53.5077694,55.3751205 48.9336923,59.926 Z" id="Path" fill="#E6E6F2"></path>
                        <path d="M37.7453077,75.3433359 L45.7947692,75.3433359 L45.7947692,77.4035271 L47.826,77.4035271 L56.1842306,71.8208301 L56.9776156,66.2133359 C56.9776156,66.2133359 50.8119231,70.6788049 48.5515384,71.8208301 C47.8183846,72.1914027 45.4638461,72.9428795 45.4638461,72.9428795 C45.4638461,72.9428795 40.4833846,72.8058093 37.7626154,73.4877178 C37.2925384,73.6055019 36.2949231,75.3433359 36.2949231,75.3433359 L37.7453077,75.3433359 Z" id="Path" fill="#FFFFFF"></path>
                        <path d="M45.7947692,75.4797178 L45.7947692,77.4035271 L47.826,77.4035271 L56.1842306,71.8208301 L56.4445387,69.9796762 C53.0764613,72.2768132 49.5256154,74.0787052 45.7947692,75.4797178 Z" id="Path" fill="#E6E6F2"></path>
                    </g>
                    <g id="Group" transform="translate(13.000000, 151.000000)">
                        <path d="M40.8924425,191.612571 L17.0141284,191.612571 C17.0141284,191.612571 13.263742,186.2304 17.6210632,186.2304 C25.5694157,186.2304 32.9676469,182.311543 32.9676469,182.311543 L40.8924425,182.436343 L40.8924425,191.612571 Z" id="Path" fill="#3751FE"></path>
                        <path d="M41.3434866,186.2304 C36.9861654,186.2304 40.7358589,191.612571 40.7358589,191.612571 L52.3251277,191.612571 C51.2886271,189.4416 50.2237197,187.271314 49.287682,185.100343 C46.9119061,185.736686 44.163378,186.2304 41.3434866,186.2304 Z" id="Path" fill="#3751FE"></path>
                        <path d="M55.4138444,176.685943 L49.3860664,181.778057 C49.3860664,181.778057 48.161804,185.018057 45.6959578,188.713371 C47.847251,189.730286 50.0969285,190.662171 52.3244349,191.612571 L61.5441635,183.571886 L55.4138444,176.685943 Z" id="Path" fill="#5A6FFE"></path>
                        <path d="M89.2892624,94.6313141 C89.0065804,95.6180573 89.8511624,102.757029 86.5788407,109.095086 C74.3188952,132.850971 40.8931354,182.436343 40.8931354,182.436343 L32.9683397,182.311543 L63.0712005,94.0758859 L89.2892624,94.6313141 Z" id="Path" fill="#A8F8A9"></path>
                        <path d="M69.7918265,100.112914 L48.0592624,131.803886 L55.4138444,176.685943 L49.3860664,181.778057 L32.4237612,136.596343 C32.4237612,136.596343 32.009438,130.211657 32.8560984,128.317029 C39.121523,114.290743 53.0152042,90.4265141 53.0152042,90.4265141" id="Path" fill="#A8F8A9"></path>
                        <path d="M43.5328863,131.168914 C43.9714592,118.170514 57.8983974,109.368 69.3671106,100.732114 L69.7918265,100.112914 L53.0145116,90.4265141 C53.0145116,90.4265141 39.1208302,114.290743 32.8554055,128.317029 C32.0087452,130.212343 32.4230683,136.596343 32.4230683,136.596343 L49.3853735,181.778057 L53.4752556,178.322743 C50.1544349,162.442286 42.5892274,146.584457 43.5328863,131.168914 Z" id="Path" fill="#F9BC71"></path>
                        <path d="M48.0592624,131.803886 L69.3671106,100.732114 C57.8983974,109.368 43.9714592,118.170514 43.5328863,131.168914 C42.5892274,146.583771 50.1544349,162.4416 53.4766413,178.322743 L55.414537,176.685943 L48.0592624,131.803886 Z" id="Path" fill="#FE901B"></path>
                        <polygon id="Path" fill="#E6E6F2" points="40.162963 72.7427507 12.4 72.7427507 0.201587302 46.5355397 0.616402116 46.1257644 27.8280423 46.1257644"></polygon>
                        <path d="M21.5370189,57.1005833 C21.2880292,57.1005833 21.097312,57.1612306 20.9648616,57.2825272 C20.8324112,57.4038233 20.7182377,57.548634 20.6223376,57.7169638 C20.447212,57.5189287 20.2570933,57.3666921 20.0519761,57.2602484 C19.8468589,57.1538046 19.6123393,57.1005833 19.3484102,57.1005833 C19.1044002,57.1005833 18.917895,57.1562801 18.7888888,57.2676743 C18.6598826,57.379069 18.5493918,57.5115027 18.4574131,57.6649796 L18.4275345,57.6649796 L18.1596159,57.1896986 L17.2632574,57.1896986 L18.7607278,60.8731282 L19.8587671,60.8731282 L18.8473707,58.3853279 C18.9798298,58.147686 19.140673,58.028867 19.3299052,58.028867 C19.4892586,58.028867 19.6251642,58.0783751 19.737626,58.1773924 C19.8500878,58.2764097 19.960661,58.4595893 20.0693489,58.7269364 L20.941867,60.8731282 L22.0399062,60.8731282 L21.0285098,58.3853279 C21.1709285,58.147686 21.3342616,58.028867 21.518514,58.028867 C21.6778674,58.028867 21.813773,58.0783751 21.9262348,58.1773924 C22.0386966,58.2764097 22.1492698,58.4595893 22.2579577,58.7269364 L23.1215486,60.8511691 C22.8425324,61.5936011 22.1295803,62.0712329 21.1102422,62.0712329 C19.3569572,62.0712329 17.3611689,60.6581697 16.6525242,58.9150685 C15.9438795,57.1719673 16.7907276,55.7589041 18.5440125,55.7589041 C19.6211641,55.7589041 20.7898463,56.2922517 21.6953567,57.1078088 C21.6435229,57.102992 21.5907436,57.1005833 21.5370189,57.1005833 Z" id="Path" fill="#4B4BA9"></path>
                        <path d="M48.5691986,70.8336 C47.1738027,71.0825141 44.0151086,70.2356573 43.1774553,69.9414859 C42.3391092,69.6466286 41.4307854,68.9012573 40.8931354,68.7270859 C40.2993646,68.5357714 38.3947254,68.7270859 38.3947254,68.7270859 L39.066788,70.3741714 C39.066788,70.3741714 31.5888793,70.3741714 28.2043167,70.3741714 C26.4680396,70.3741714 28.6900032,75.7138286 30.2315901,75.7138286 C31.7738697,75.7138286 33.6147669,76.2466286 36.3667593,77.1147427 C39.2559355,78.0260573 52.3528416,75.9613714 52.3528416,75.9613714" id="Path" fill="#FFFFFF"></path>
                        <polyline id="Path" fill="#30308A" points="63.0026455 63.6440548 49.0592593 63.6440548 47.3746032 69.4861151 60.1015873 73.6622466"></polyline>
                        <polyline id="Path" fill="#3751FE" opacity="0.60063244" points="63.0026455 63.6440548 49.0592593 63.6440548 47.3746032 69.4861151 60.1015873 73.6622466"></polyline>
                        <path d="M43.5044796,62.8587427 C39.9619476,62.8587427 35.7293391,63.6445714 35.7293391,63.6445714 L39.1665581,71.016 L41.7030747,70.5922286 L47.6137612,68.6537141 L49.0583493,63.6445714" id="Path" fill="#FFFFFF"></path>
                        <path d="M36.5143359,65.3273141 L39.1665581,71.016 L41.7030747,70.5922286 L47.6137612,68.6537141 L48.5601916,65.3718859 C44.6324361,64.752 40.5099904,64.6848 36.5143359,65.3273141 Z" id="Path" fill="#E6E6F2"></path>
                        <path d="M59.9416058,140.027657 C70.3835185,128.708571 78.3387995,113.945829 79.8305011,99.1824 C80.0681481,97.3028573 79.2796873,95.7620573 78.0713603,94.3940573 L63.0718931,94.0765714 L32.9690326,182.312229 L36.4208014,182.3664 C43.069371,169.600457 49.9299521,157.000457 59.9416058,145.44 C60.9351503,144.456 58.4492111,141.502629 59.9416058,140.027657 Z" id="Path" fill="#F9BC71"></path>
                        <path d="M78.0713603,94.3933714 C79.2796873,95.7613714 80.0681481,97.3021714 79.8305011,99.1817141 C78.3387995,113.945143 70.3835185,128.708571 59.9416058,140.026971 C58.4499042,141.501943 60.9358429,144.455314 59.9416058,145.439314 C49.9299521,156.999086 43.0686781,169.599086 36.4208014,182.365714 L40.8931354,182.436343 C40.8931354,182.436343 74.3188952,132.850286 86.5788407,109.095086 C89.8511624,102.757029 89.0065804,95.6187427 89.2892624,94.6313141 L78.0713603,94.3933714 Z" id="Path" fill="#FE901B"></path>
                        <path d="M80.3154947,67.8829714 C79.8249587,60.9325714 76.8831259,28.7979429 76.8346265,27.9168 C71.5911524,27.8537143 66.9760921,35.6941714 63.0317079,35.8141714 C62.7150767,36.9846857 57.8034772,52.2809143 57.2588984,55.2836573 C56.8230968,57.6891427 55.6307058,64.1321141 55.6022989,64.3858286 C55.4602651,65.6509714 53.7371519,80.8985141 51.676622,86.9670859 C51.5158812,87.4402286 51.3357407,87.9037714 51.1368933,88.3563427 L51.9717752,92.2326859 C56.8286397,95.0022859 64.7520497,101.749029 89.2892624,96.3915427 C86.7153323,86.4157714 81.045064,78.2036573 80.3154947,67.8829714 Z" id="Path" fill="#A2A2ED"></path>
                        <path d="M79.6233397,59.4342859 C78.5916889,47.4411429 76.8713476,28.5894857 76.8346265,27.9168 C71.5911524,27.8537143 66.9760921,35.6941714 63.0317079,35.8141714 C62.7150767,36.9846857 57.8034772,52.2809143 57.2588984,55.2836573 C56.8230968,57.6891427 55.6307058,64.1321141 55.6022989,64.3858286 C55.4602651,65.6509714 53.7371519,80.8985141 51.676622,86.9670859 C51.5158812,87.4402286 51.3357407,87.9037714 51.1368933,88.3563427 L51.9717752,92.2326859 C53.7426947,93.2427427 55.9258587,94.7801141 59.1683878,96.0678859 C69.6227714,86.5542859 76.5380873,73.4420573 79.6233397,59.4342859 Z" id="Path" fill="#3751FE" opacity="0.260579427"></path>
                        <path d="M89.2892624,96.3915427 C86.7153323,86.4157714 81.045064,78.2036573 80.3154947,67.8829714 C80.1990963,66.2338286 79.9448212,63.1652573 79.6233397,59.4342859 C76.5380873,73.4420573 69.6227714,86.5542859 59.1683878,96.0678859 C64.8192561,98.3115427 73.6974106,99.7961141 89.2892624,96.3915427 Z" id="Path" fill="#5A6FFE"></path>
                        <path d="M69.6172286,30.2166857 C63.9753672,30.2379429 57.1896138,35.3430857 56.7739048,38.3259429 C54.926772,51.5444571 48.421622,81.6260573 49.0583493,83.9533714 L51.9710824,92.232 C69.347018,76.7478859 65.5273466,52.0224 69.6172286,30.2166857 Z M94.5874714,34.9481143 C93.3597444,32.8018286 80.6958683,27.7398857 73.3572222,27.7090286 C70.7791349,50.5412571 67.6356831,71.1202286 70.8484196,94.0758859 C74.4124296,96.7234286 82.1924201,96.0802286 86.4174074,97.4578286 C88.9913376,98.2964573 89.2892624,101.749029 89.2892624,101.749029 C96.472018,101.749029 99.9889143,88.6361141 97.7565582,77.9712 C95.8048053,68.6537141 105.027305,53.1908573 94.5874714,34.9481143 Z" id="Shape" fill="#3751FE" fill-rule="nonzero"></path>
                        <path d="M82.1716349,89.8292573 C82.1716349,89.8292573 84.943027,89.8292573 86.3287228,89.1435427 C87.0215709,88.4578286 85.6358746,86.4006859 86.3287228,85.7149714 C87.714419,85.0292573 90.4858111,86.4006859 90.4858111,85.7149714 C95.3357471,77.4864 89.792963,68.5721141 91.1786593,62.4006859 C94.9609164,51.1714286 92.4347926,41.6441143 89.3391476,31.7554286 C84.6811302,29.7346286 77.9695116,27.7289143 73.3586079,27.7097143 C70.7805206,50.5419429 67.6370688,71.1209141 70.8498053,94.0765714 C72.1558238,95.0475427 74.0313635,95.5741714 76.0877365,95.9211427 C78.332564,94.5222859 80.3930937,92.5673141 82.1716349,89.8292573 Z" id="Path" fill="#5A6FFE"></path>
                        <path d="M94.5874714,34.9481143 C94.1308847,34.1506286 92.0932185,32.9499429 89.3384545,31.7554286 C92.4340995,41.6448 94.9602233,51.1714286 91.1779661,62.4006859 C89.7922704,68.5721141 95.3350545,77.4864 90.485118,85.7149714 C90.485118,86.4006859 87.7137259,85.0292573 86.3280302,85.7149714 C85.635182,86.4006859 87.0208778,88.4578286 86.3280302,89.1435427 C84.9423339,89.8292573 82.1709418,89.8292573 82.1709418,89.8292573 C80.3930937,92.5673141 78.3318709,94.5222859 76.0863508,95.9211427 C79.6406608,96.5218286 83.7416286,96.5856 86.4174074,97.4578286 C88.9913376,98.2964573 89.2892624,101.749029 89.2892624,101.749029 C96.472018,101.749029 99.9889143,88.6361141 97.7565582,77.9712 C95.8048053,68.6537141 105.027305,53.1908573 94.5874714,34.9481143 Z" id="Path" fill="#3751FE"></path>
                        <path d="M82.7279915,35.8573714 C82.3399968,39.5129143 74.2412963,60.072 74.2412963,60.072 L44.997567,70.4448 C44.997567,70.4448 48.6467976,73.7602286 48.4119221,76.5195427 L47.2555587,76.6669714 C47.2229949,77.0564573 47.9241571,78.2667427 48.973129,78.4806859 C49.2301756,78.5334859 77.1491794,76.1492573 83.903755,70.5915427 C90.2980492,65.3307427 94.0151788,44.7476571 94.2937037,41.5796571 C94.5736143,38.4130286 82.7279915,35.8573714 82.7279915,35.8573714 Z" id="Path" fill="#3751FE"></path>
                        <path d="M73.0655333,33.3469714 C76.3891254,31.6299429 76.8914402,27.8845714 76.8914402,27.8845714 C76.006673,25.4694857 75.2604757,22.0724571 75.9069032,20.4816 C76.9718106,17.856 80.6127265,0.468342857 65.3569063,1.62994286 C56.9166317,2.27314286 53.9547063,10.6244571 54.735546,17.8100571 C56.2611974,31.8418286 65.4920116,37.2624 73.0655333,33.3469714 Z" id="Path" fill="#FFFFFF"></path>
                        <path d="M75.9075958,20.4816 C76.9725032,17.856 80.6134196,0.468342857 65.3575989,1.62994286 C60.4328354,2.00502857 57.3759899,5.0064 55.8364815,8.86765714 C57.8859259,9.84617141 59.7690868,11.1997714 62.0790423,12.3428571 C64.8504344,14.4 62.7718899,17.1428571 62.0790423,19.2 C61.3861942,21.9428571 66.1633815,22.7732571 65.543282,24 C63.7100063,27.6281143 70.2109995,30.4930286 71.4685185,34.0217143 C72.0061688,33.8393143 72.5410471,33.6178286 73.0662259,33.3462857 C76.389818,31.6292571 76.8921328,27.8838857 76.8921328,27.8838857 C76.006673,25.4694857 75.2611688,22.0724571 75.9075958,20.4816 Z" id="Path" fill="#E6E6F2"></path>
                        <path d="M72.1842307,14.2950857 C72.1842307,14.2950857 71.406855,14.9993143 71.7096296,16.9083429 C73.0177265,20.8724571 75.4530873,24.8365714 73.1646106,28.8006857 C70.3190836,32.4212571 68.100345,33.0438269 63.7097672,33.5553697 C64.8540878,34.1051772 66.1433249,34.785174 67.3198249,34.785174 C68.4963254,34.785174 69.2285407,35.2573714 71.3438058,32.8580571 C73.0870116,30.8818286 75.1773339,29.7552 75.1773339,27.7248 C75.1766413,24.4402286 72.1842307,14.2950857 72.1842307,14.2950857 Z" id="Path" fill="#3751FE"></path>
                        <path d="M54.3669508,16.4660571 C62.0624138,11.3444571 73.7521455,20.8038857 77.2011429,22.4043429 C77.2011429,22.4043429 79.4605206,21.8633143 79.4605206,18.3366857 C79.4605206,17.736 78.2688217,16.7149714 78.2688217,16.7149714 C78.2688217,16.7149714 79.4494349,5.07634286 73.6128831,2.58445714 C67.7770243,0.0925714286 67.7472317,-0.0432 63.2617339,0.631542859 C58.7741571,1.30628571 55.1394762,7.50788573 54.3669508,10.0717714 L52.3528416,12.6411429 C52.3521488,12.6404571 53.1565455,17.2717714 54.3669508,16.4660571 Z" id="Path" fill="#30308A"></path>
                        <path d="M78.2688217,16.7149714 C78.2688217,16.7149714 79.4494349,5.07634286 73.6128831,2.58445714 C71.4664402,1.66765714 70.1077651,1.07245714 69.022072,0.716571427 C71.7248725,3.56365714 74.0195852,6.888 72.4717624,10.9728 C71.0860667,10.2870857 71.0860667,12.3442286 69.7003704,12.3442286 C72.4717624,13.7156571 76.6288508,14.4013714 75.2431545,18.5156571 C74.7650894,19.1472 74.2059608,19.7369143 73.5976407,20.2868571 C75.1419989,21.2297143 76.3974392,22.0313143 77.2011429,22.4043429 C77.2011429,22.4043429 79.4605206,21.8633143 79.4605206,18.3366857 C79.4598275,17.736 78.2688217,16.7149714 78.2688217,16.7149714 Z" id="Path" fill="#3751FE"></path>
                        <path d="M75.2431545,18.5149714 C76.6288508,14.4006857 72.4717624,13.7149714 69.7003704,12.3435429 C71.0860667,12.3435429 71.0860667,10.2864 72.4717624,10.9721143 C74.0195852,6.88731427 71.7255651,3.56297143 69.022072,0.715885714 C67.1548466,0.104228571 66.0975608,0.204342857 63.2617339,0.630857141 C58.7741571,1.3056 55.1394762,7.5072 54.3669508,10.0710857 L52.3528416,12.6404571 C52.3528416,12.6404571 53.1565455,17.2717714 54.3669508,16.4660571 C60.2693233,12.5376 68.5162931,17.1846857 73.5976407,20.2868571 C74.2059608,19.7362286 74.7643963,19.1465143 75.2431545,18.5149714 Z" id="Path" fill="#5A6FFE"></path>
                        <path d="M51.3814687,74.6454859 L48.5685058,70.8329141 C47.1731098,71.0818286 44.0144157,70.2349714 43.1767624,69.9408 C42.3384163,69.6459427 41.4300926,68.9005714 40.8924425,68.7264 C40.2986718,68.5350859 38.0815581,68.6413714 38.0815581,68.6413714 L38.8672478,70.3734859 C38.8672478,70.3734859 31.5874936,70.3734859 28.2029311,70.3734859 C27.3444923,70.3734859 27.455348,71.6790859 27.9715198,72.9997714 C35.6884611,73.9453714 43.4275734,75.0013714 51.3814687,74.6454859 Z" id="Path" fill="#FFFFFF"></path>
                        <path d="M27.9722126,73.0004573 C28.5001629,74.3499427 29.4514432,75.7138286 30.2308972,75.7138286 C31.7731769,75.7138286 33.6140741,76.2466286 36.3660664,77.1147427 C39.2552426,78.0260573 52.3521488,75.9613714 52.3521488,75.9613714 L51.3814687,74.6454859 C43.4275734,75.0013714 35.6884611,73.9453714 27.9722126,73.0004573 Z" id="Path" fill="#E6E6F2"></path>
                        <path d="M76.6288508,65.1435427 C87.2321968,59.8971427 88.9601598,47.7510857 89.0904148,37.7026286 C86.018327,36.5677714 82.7279915,35.8573714 82.7279915,35.8573714 C82.3399968,39.5129143 74.2412963,60.072 74.2412963,60.072 L44.997567,70.4448 C44.997567,70.4448 48.6156194,73.7341714 48.4119221,76.488 C57.3191762,75.4450286 66.1647667,73.6052573 74.5503063,69.2578286 C75.9360026,68.5721141 75.9360026,65.1435427 76.6288508,65.1435427 Z" id="Path" fill="#5A6FFE"></path>
                        <path d="M90.4574042,35.8573714 C90.3271487,45.9051429 87.2321968,59.8971427 76.6288508,65.1435427 C75.9360026,65.1435427 75.9360026,68.5721141 74.5503063,69.2578286 C66.1647667,73.6052573 57.3198693,75.4450286 48.4119221,76.488 C48.4112293,76.4989714 48.4126149,76.5092573 48.4119221,76.5202286 L47.2555587,76.6676573 C47.2229949,77.0571427 47.9241571,78.2674286 48.973129,78.4813714 C49.2301756,78.5341714 77.1491794,76.1499427 83.903755,70.5922286 C90.2980492,65.3314286 94.0151788,44.7483429 94.2937037,41.5803429 C94.4260376,40.0820571 93.2128608,36.8756571 90.4574042,35.8573714 Z" id="Path" fill="#3751FE"></path>
                    </g>
                    <g id="Group" transform="translate(139.000000, 181.000000)">
                        <path d="M91.99931,55.3990294 C91.99931,59.282161 88.7566759,62.4587154 84.7942993,62.4587154 L7.20501051,62.4587154 C3.24194419,62.4587154 0,59.282161 0,55.3990294 L0,7.05968618 C0,3.17723066 3.24194419,0 7.20501051,0 L84.7949893,0 C88.7573659,0 92,3.17723066 92,7.05968618 L92,55.3990294 L91.99931,55.3990294 Z" id="Path" fill="#FFFFFF"></path>
                        <rect id="Rectangle" fill="#E0E0F9" x="4.15057471" y="4.07314894" width="83.6993793" height="44.8072624" rx="1"></rect>
                        <rect id="Rectangle" fill="#3751FE" x="25.593977" y="8.82594326" width="38.7367586" height="1.83897872"></rect>
                        <rect id="Rectangle" fill="#3751FE" x="25.593977" y="12.7836312" width="59.3151494" height="1.83897872"></rect>
                        <rect id="Rectangle" fill="#3751FE" x="25.593977" y="16.7428936" width="49.8042529" height="1.83897872"></rect>
                        <rect id="Rectangle" fill="#3751FE" x="25.593977" y="20.7016312" width="22.2655862" height="1.83897872"></rect>
                        <rect id="Rectangle" fill="#3751FE" x="25.593977" y="24.6608936" width="35.6151034" height="1.83897872"></rect>
                        <rect id="Rectangle" fill="#3751FE" x="25.593977" y="30.6087092" width="53.2632414" height="1.83897872"></rect>
                        <rect id="Rectangle" fill="#3751FE" x="25.593977" y="34.566922" width="37.3535862" height="1.83897872"></rect>
                        <rect id="Rectangle" fill="#3751FE" x="25.593977" y="38.5261844" width="59.3151494" height="1.83897872"></rect>
                        <rect id="Rectangle" fill="#3751FE" x="25.593977" y="42.4843972" width="23.0417701" height="1.83897872"></rect>
                        <path d="M4.67911157,4.0733945 L21.443609,4.0733945 L21.443609,48.880734 L4.67911157,48.880734 C4.38709895,48.880734 4.15037594,48.6457628 4.15037594,48.3559113 L4.15037594,4.59821719 C4.15037594,4.30836562 4.38709895,4.0733945 4.67911157,4.0733945 Z" id="Path" fill="#A2A2ED"></path>
                        <g transform="translate(6.917448, 8.825943)" fill="#FFFFFF" id="Rectangle">
                            <rect x="0" y="0" width="6.22533333" height="1.35771631"></rect>
                            <rect x="2.76687356" y="2.71543262" width="6.91744828" height="1.35771631"></rect>
                            <rect x="2.76687356" y="5.43139007" width="6.22533333" height="1.35771631"></rect>
                            <rect x="2.76687356" y="8.1468227" width="8.99273563" height="1.35771631"></rect>
                            <rect x="0" y="10.8622553" width="7.60903448" height="1.35771631"></rect>
                            <rect x="2.76687356" y="13.5782128" width="3.45845977" height="1.35771631"></rect>
                            <rect x="5.53374713" y="16.2936454" width="6.22533333" height="1.35771631"></rect>
                            <rect x="5.53374713" y="19.009078" width="4.15057471" height="1.35771631"></rect>
                            <rect x="5.53374713" y="21.7245106" width="6.22533333" height="1.35771631"></rect>
                            <rect x="0" y="24.4404681" width="6.22533333" height="1.35771631"></rect>
                            <rect x="2.76687356" y="27.1559007" width="6.22533333" height="1.35771631"></rect>
                            <rect x="2.76687356" y="29.8713333" width="6.22533333" height="1.35771631"></rect>
                            <rect x="2.76687356" y="32.5872908" width="9.68432184" height="1.35771631"></rect>
                        </g>
                        <rect id="Rectangle" fill="#3751FE" x="40.8157471" y="62.5462695" width="11.0442299" height="11.0291489"></rect>
                        <path d="M0,51.5963303 L0,55.5692635 C0,59.3587589 3.24194419,62.4587154 7.20501051,62.4587154 L84.7949893,62.4587154 C88.7573659,62.4587154 92,59.3587589 92,55.5692635 L92,51.5963303 L0,51.5963303 Z" id="Path" fill="#E6E6F2"></path>
                        <ellipse id="Oval" fill="#30308A" opacity="0.2" cx="46.9834483" cy="56.9584823" rx="2.51995402" ry="2.47348936"></ellipse>
                        <rect id="Rectangle" fill="#3751FE" x="35.2048046" y="71.5370071" width="22.2655862" height="2.03893617"></rect>
                    </g>
                    <g id="Group" transform="translate(118.000000, 233.000000)">
                        <path d="M32.5292282,56.8924075 C39.2407826,55.6742591 46.28925,50.4316049 48.6072391,49.9074074 C57.3656085,47.9260494 59.5651307,52.3219753 56.5787937,56.8679629 C53.5931415,61.4139507 48.1347391,58.9274075 47.8409674,64.3710493 C47.6951087,67.0721606 41.2095326,65.3759878 40.4555869,68.3385183 C39.7016413,71.3017281 38.0656956,74.0795681 36.3400435,77.277716 C34.6143913,80.475185 26.4819131,80.5206789 26.4819131,80.5206789 C26.4819131,80.5206789 23.5003695,58.530185 32.5292282,56.8924075 Z" id="Path" fill="#046121"></path>
                        <path d="M21.8719565,60.3363582 C16.2177065,56.5488272 11.5214674,55.4495061 9.49108693,54.2218516 C0.77175,48.9466049 -2.07009782,55.7523455 1.73934782,59.6471606 C5.54879347,63.5419751 9.57736955,59.6003084 10.9168044,64.8870986 C11.5817282,67.5101235 17.4366195,68.907531 18.7493478,71.6717901 C20.0613913,74.4367281 18.6226631,74.3389507 20.9331195,77.1493826 C23.2442609,79.959815 31.2349891,78.4612348 31.2349891,78.4612348 C31.2349891,78.4612348 29.0423152,65.1403704 21.8719565,60.3363582 Z" id="Path" fill="#046121"></path>
                        <path d="M32.3737826,57.4240742 C36.0702391,48.5181482 32.4306195,43.612963 40.8760435,33.8908642 C47.1541305,26.6627778 47.2472609,18.532963 48.9085435,15.2635185 C51.8079131,9.56049385 63.9655437,15.9065432 62.5370869,24.3982716 C61.11,32.89 49.1304131,30.3016049 53.0761307,34.9616667 C59.9465545,43.0724692 40.3063044,42.1347531 40.5630978,46.6705555 C40.8226305,51.205679 44.6012609,54.069753 43.9726305,59.7279629 C43.3412609,65.3868516 32.5990761,75.0682099 32.5990761,75.0682099 C32.5990761,75.0682099 28.6780109,66.3313582 32.3737826,57.4240742 Z" id="Path" fill="#098B25"></path>
                        <path d="M32.9154456,78.6669751 L31.2726522,78.5800615 C35.1211305,42.5924074 44.0863044,28.2387654 52.5365216,24.4444445 C40.7438805,34.6262346 34.3254131,52.3627161 32.9154456,78.6669751 Z" id="Path" fill="#FFFFFF"></path>
                        <path d="M28.7649782,58.3129014 C24.6617609,49.5835185 32.4121305,41.0456173 23.5291305,31.7159877 C16.9237174,24.7798765 19.0937935,6.07104939 17.2825435,2.88104939 C14.1229565,-2.68481482 5.19681522,0.886111113 7.01491307,9.30382719 C8.83301085,17.7215432 11.2331739,18.4222839 7.50795653,23.2554939 C1.01827174,31.6698148 15.6541305,39.3073457 16.6922609,49.4382099 C17.4763369,57.0920371 20.2455978,58.3583948 18.8274131,64.3785183 C17.5222174,69.9226545 29.3545761,75.9488887 29.3545761,75.9488887 C29.3545761,75.9488887 32.8681956,67.042284 28.7649782,58.3129014 Z" id="Path" fill="#098B25"></path>
                        <path d="M28.9176848,79.5707409 C27.8466848,68.7751235 24.4022282,55.9608023 21.0228261,44.6722222 C17.7591522,33.769321 14.553,24.3711111 14.7598044,18.8147531 C15.6959022,21.8024074 16.0293913,23.2018518 16.6682935,25.1404321 C17.9954022,29.1669753 19.7580326,35.5945061 22.2136631,44.2247531 C25.4581631,55.6294446 29.4696195,68.4593826 30.555,79.4111728 L28.9176848,79.5707409 Z" id="Path" fill="#FFFFFF"></path>
                        <polygon id="Path" fill="#5A6FFE" points="40.2158678 109.616571 19.1280496 109.616571 13.3893223 77.5887619 45.9530331 77.5887619"></polygon>
                        <path d="M45.9530218,77.5887038 L39.8077826,81.1501235 C33.4721739,91.747469 40.4535326,98.8098765 34.8615978,109.616358 L40.2145435,109.616358 L45.9530218,77.5887038 Z" id="Path" fill="#3751FE"></path>
                        <path d="M13.7442718,79.5707409 L14.2516956,82.4015432 C27.4912826,83.607469 38.1512935,83.1613582 45.1340218,82.162531 L45.5983044,79.5707409 L13.7442718,79.5707409 Z" id="Path" fill="#5A6FFE"></path>
                        <path d="M11.5303695,77.5887038 L12.1199674,80.2171606 C27.8316195,81.8284568 40.1446956,81.122284 47.3095761,79.8355554 L47.8122065,77.5880249 L11.5303695,77.5880249 L11.5303695,77.5887038 Z" id="Path" fill="#5A6FFE"></path>
                    </g>
                </g>
            </g>
        </g>
    </g>
</svg>